<svg xmlns="http://www.w3.org/2000/svg" xmlns:xlink="http://www.w3.org/1999/xlink" width="500" zoomAndPan="magnify" viewBox="0 0 375 374.999991" height="500" preserveAspectRatio="xMidYMid meet" version="1.0"><defs><clipPath id="d8984ce5f2"><path d="M 14.761719 0 L 360.511719 0 L 360.511719 375 L 14.761719 375 Z M 14.761719 0 " clip-rule="nonzero"/></clipPath><clipPath id="132240249e"><path d="M 40.371094 27.796875 L 334.371094 27.796875 L 334.371094 347.296875 L 40.371094 347.296875 Z M 40.371094 27.796875 " clip-rule="nonzero"/></clipPath><clipPath id="d03eda276c"><path d="M 57.09375 45.949219 L 318 45.949219 L 318 328.699219 L 57.09375 328.699219 Z M 57.09375 45.949219 " clip-rule="nonzero"/></clipPath></defs><g clip-path="url(#d8984ce5f2)"><path fill="#c77dff" d="M 186.402344 0.00390625 C 186.402344 0.00390625 187.496094 187.5 14.757812 189.140625 C 14.757812 189.140625 187.496094 187.5 186.402344 374.996094 C 186.402344 374.996094 186.402344 188.046875 360.234375 187.5 C 360.234375 187.5 186.402344 188.046875 186.402344 0.00390625 Z M 186.402344 0.00390625 " fill-opacity="1" fill-rule="nonzero"/></g><g clip-path="url(#132240249e)"><path fill="#ffffff" d="M 186.566406 27.796875 C 186.566406 27.796875 187.5 187.5 40.367188 188.894531 C 40.367188 188.894531 187.5 187.5 186.566406 347.199219 C 186.566406 347.199219 186.566406 187.964844 334.628906 187.5 C 334.628906 187.5 186.566406 187.964844 186.566406 27.796875 Z M 186.566406 27.796875 " fill-opacity="1" fill-rule="nonzero"/></g><g clip-path="url(#d03eda276c)"><path fill="#6500ff" d="M 186.675781 45.949219 C 186.675781 45.949219 187.5 187.5 57.09375 188.738281 C 57.09375 188.738281 187.5 187.5 186.675781 329.050781 C 186.675781 329.050781 186.675781 187.910156 317.90625 187.5 C 317.90625 187.5 186.675781 187.910156 186.675781 45.949219 Z M 186.675781 45.949219 " fill-opacity="1" fill-rule="nonzero"/></g></svg>