<svg width="256" height="256" viewBox="0 0 256 256" fill="none" xmlns="http://www.w3.org/2000/svg">
<g clip-path="url(#clip0_11817_3)">
<path fill-rule="evenodd" clip-rule="evenodd" d="M0 96V198.4H35.5556C39.2908 198.4 42.9896 199.062 46.441 200.349C49.8915 201.635 53.0278 203.521 55.6684 205.898C58.3099 208.275 60.4054 211.098 61.8351 214.204C63.2639 217.309 64 220.638 64 224V256H149.333L256 160V57.6H220.444C216.709 57.6 213.01 56.9379 209.559 55.6514C206.108 54.3649 202.972 52.4791 200.331 50.102C197.69 47.7248 195.595 44.9025 194.165 41.7967C192.736 38.6908 192 35.3619 192 32V0H106.667L0 96ZM120.889 192H71.1111V121.6L135.111 64H184.889V134.4L120.889 192Z" fill="#03F7B5"/>
</g>
<defs>
<clipPath id="clip0_11817_3">
<rect width="256" height="256" fill="white"/>
</clipPath>
</defs>
</svg>
