<svg width="32" height="32" viewBox="0 0 32 32" fill="none" xmlns="http://www.w3.org/2000/svg">
<g clip-path="url(#clip0_11817_3)">
<path fill-rule="evenodd" clip-rule="evenodd" d="M0 12V24.8H4.44444C4.91135 24.8 5.3737 24.8828 5.80512 25.0436C6.23644 25.2044 6.62847 25.4401 6.95855 25.7373C7.28874 26.0344 7.55068 26.3872 7.72939 26.7754C7.90798 27.1637 8 27.5798 8 28V32H18.6667L32 20V7.2H27.5556C27.0886 7.2 26.6263 7.11724 26.1948 6.95642C25.7636 6.79561 25.3716 6.55989 25.0414 6.26274C24.7113 5.9656 24.4493 5.61282 24.2706 5.22458C24.092 4.83635 24 4.42024 24 4V0H13.3333L0 12ZM15.1111 24H8.88889V15.2L16.8889 8H23.1111V16.8L15.1111 24Z" fill="#03F7B5"/>
</g>
<defs>
<clipPath id="clip0_11817_3">
<rect width="32" height="32" fill="white"/>
</clipPath>
</defs>
</svg>
