<svg width="670" height="225" viewBox="0 0 670 225" fill="none" xmlns="http://www.w3.org/2000/svg">
<rect x="0.5" y="0.5" width="195" height="75" rx="11.5" stroke="url(#paint0_linear_11886_6)"/>
<rect x="16" y="12" width="24" height="24" rx="12" fill="#03F7B5" fill-opacity="0.2"/>
<path d="M26.8333 21.0833L26.5324 21.8964C26.1378 22.9628 25.9406 23.4959 25.5516 23.8849C25.1627 24.2738 24.6295 24.4711 23.5632 24.8657L22.75 25.1666L23.5632 25.4675C24.6295 25.8621 25.1627 26.0594 25.5516 26.4483C25.9406 26.8373 26.1378 27.3704 26.5324 28.4367L26.8333 29.2499L27.1342 28.4367C27.5288 27.3704 27.7261 26.8373 28.115 26.4483C28.504 26.0594 29.0372 25.8621 30.1034 25.4675L30.9167 25.1666L30.1034 24.8657C29.0372 24.4711 28.504 24.2738 28.115 23.8849C27.7261 23.4959 27.5288 22.9628 27.1342 21.8964L26.8333 21.0833Z" stroke="white" stroke-linejoin="round"/>
<path d="M31.5 18.75L31.371 19.0985C31.2019 19.5555 31.1174 19.784 30.9507 19.9507C30.784 20.1174 30.5555 20.2019 30.0985 20.371L29.75 20.5L30.0985 20.629C30.5555 20.7981 30.784 20.8826 30.9507 21.0493C31.1174 21.216 31.2019 21.4445 31.371 21.9015L31.5 22.25L31.629 21.9015C31.7981 21.4445 31.8826 21.216 32.0493 21.0493C32.216 20.8826 32.4445 20.7981 32.9015 20.629L33.25 20.5L32.9015 20.371C32.4445 20.2019 32.216 20.1174 32.0493 19.9507C31.8826 19.784 31.7981 19.5555 31.629 19.0985L31.5 18.75Z" stroke="white" stroke-linejoin="round"/>
<path d="M52.858 28.724C52.074 28.724 51.388 28.5747 50.8 28.276C50.2213 27.968 49.7733 27.534 49.456 26.974C49.148 26.414 48.994 25.7513 48.994 24.986V18.546H50.506V24.986C50.506 25.742 50.7113 26.3253 51.122 26.736C51.5327 27.1373 52.1113 27.338 52.858 27.338C53.6047 27.338 54.1833 27.1373 54.594 26.736C55.0047 26.3253 55.21 25.742 55.21 24.986V18.546H56.722V24.986C56.722 25.7513 56.5633 26.414 56.246 26.974C55.938 27.534 55.4947 27.968 54.916 28.276C54.3373 28.5747 53.6513 28.724 52.858 28.724ZM58.6307 30.6V21.052H60.0307L60.0727 22.648L59.9047 22.564C60.0914 22.0133 60.3994 21.598 60.8287 21.318C61.258 21.0287 61.7527 20.884 62.3127 20.884C63.0407 20.884 63.638 21.066 64.1047 21.43C64.5807 21.7847 64.9307 22.256 65.1547 22.844C65.388 23.432 65.5047 24.076 65.5047 24.776C65.5047 25.476 65.388 26.12 65.1547 26.708C64.9307 27.296 64.5807 27.772 64.1047 28.136C63.638 28.4907 63.0407 28.668 62.3127 28.668C61.9394 28.668 61.5894 28.6027 61.2627 28.472C60.936 28.3413 60.656 28.1593 60.4227 27.926C60.1987 27.6833 60.04 27.3987 59.9467 27.072L60.1147 26.904V30.6H58.6307ZM62.0467 27.38C62.644 27.38 63.1107 27.1513 63.4467 26.694C63.792 26.2367 63.9647 25.5973 63.9647 24.776C63.9647 23.9547 63.792 23.3153 63.4467 22.858C63.1107 22.4007 62.644 22.172 62.0467 22.172C61.6547 22.172 61.314 22.27 61.0247 22.466C60.7354 22.6527 60.5114 22.942 60.3527 23.334C60.194 23.726 60.1147 24.2067 60.1147 24.776C60.1147 25.3453 60.1894 25.826 60.3387 26.218C60.4974 26.61 60.7214 26.904 61.0107 27.1C61.3094 27.2867 61.6547 27.38 62.0467 27.38ZM69.5176 28.668C68.8829 28.668 68.3276 28.5093 67.8516 28.192C67.3849 27.8747 67.0256 27.4267 66.7736 26.848C66.5309 26.26 66.4096 25.5693 66.4096 24.776C66.4096 23.9827 66.5356 23.2967 66.7876 22.718C67.0396 22.13 67.3989 21.6773 67.8656 21.36C68.3322 21.0427 68.8829 20.884 69.5176 20.884C70.0309 20.884 70.4882 20.9913 70.8896 21.206C71.2909 21.4207 71.5942 21.7193 71.7996 22.102V18.56H73.2836V28.5H71.8976L71.8556 27.38C71.6502 27.7813 71.3376 28.0987 70.9176 28.332C70.5069 28.556 70.0402 28.668 69.5176 28.668ZM69.9096 27.38C70.3109 27.38 70.6516 27.2773 70.9316 27.072C71.2116 26.8667 71.4262 26.568 71.5756 26.176C71.7249 25.784 71.7996 25.3173 71.7996 24.776C71.7996 24.216 71.7249 23.7447 71.5756 23.362C71.4262 22.97 71.2116 22.676 70.9316 22.48C70.6516 22.2747 70.3109 22.172 69.9096 22.172C69.3122 22.172 68.8362 22.4053 68.4816 22.872C68.1269 23.3293 67.9496 23.964 67.9496 24.776C67.9496 25.5787 68.1269 26.2133 68.4816 26.68C68.8362 27.1467 69.3122 27.38 69.9096 27.38ZM77.1984 28.668C76.4238 28.668 75.8031 28.4907 75.3364 28.136C74.8791 27.7813 74.6504 27.282 74.6504 26.638C74.6504 25.994 74.8418 25.4947 75.2244 25.14C75.6164 24.776 76.2184 24.5147 77.0304 24.356L79.5924 23.866C79.5924 23.2873 79.4571 22.858 79.1864 22.578C78.9158 22.2887 78.5144 22.144 77.9824 22.144C77.5064 22.144 77.1331 22.2513 76.8624 22.466C76.5918 22.6713 76.4051 22.9793 76.3024 23.39L74.7764 23.292C74.9164 22.5453 75.2618 21.9573 75.8124 21.528C76.3724 21.0987 77.0958 20.884 77.9824 20.884C78.9904 20.884 79.7558 21.1547 80.2784 21.696C80.8104 22.228 81.0764 22.9793 81.0764 23.95V26.848C81.0764 27.0253 81.1044 27.1513 81.1604 27.226C81.2258 27.2913 81.3284 27.324 81.4684 27.324H81.7344V28.5C81.6878 28.5093 81.6131 28.5187 81.5104 28.528C81.4078 28.5373 81.3004 28.542 81.1884 28.542C80.8711 28.542 80.5958 28.4907 80.3624 28.388C80.1384 28.2853 79.9704 28.1173 79.8584 27.884C79.7464 27.6413 79.6904 27.3193 79.6904 26.918L79.8444 26.988C79.7698 27.3147 79.6064 27.604 79.3544 27.856C79.1118 28.108 78.7991 28.3087 78.4164 28.458C78.0431 28.598 77.6371 28.668 77.1984 28.668ZM77.4364 27.492C77.8844 27.492 78.2671 27.408 78.5844 27.24C78.9018 27.0627 79.1491 26.82 79.3264 26.512C79.5038 26.204 79.5924 25.854 79.5924 25.462V24.986L77.4084 25.406C76.9604 25.49 76.6431 25.6253 76.4564 25.812C76.2791 25.9893 76.1904 26.218 76.1904 26.498C76.1904 26.8153 76.2978 27.0627 76.5124 27.24C76.7364 27.408 77.0444 27.492 77.4364 27.492ZM85.3206 28.5C84.6113 28.5 84.0886 28.3367 83.7526 28.01C83.4166 27.6833 83.2486 27.1747 83.2486 26.484V19.302H84.7326V26.372C84.7326 26.7173 84.8073 26.9553 84.9566 27.086C85.1059 27.2167 85.3346 27.282 85.6426 27.282H86.7066V28.5H85.3206ZM82.1146 22.27V21.052H86.7066V22.27H82.1146ZM90.9277 28.668C90.1997 28.668 89.5697 28.5093 89.0377 28.192C88.5151 27.8747 88.1091 27.422 87.8197 26.834C87.5397 26.246 87.3997 25.56 87.3997 24.776C87.3997 23.992 87.5397 23.3107 87.8197 22.732C88.1091 22.144 88.5151 21.6913 89.0377 21.374C89.5604 21.0473 90.1764 20.884 90.8857 20.884C91.5577 20.884 92.1504 21.0427 92.6637 21.36C93.1771 21.668 93.5737 22.116 93.8537 22.704C94.1431 23.292 94.2877 24.0013 94.2877 24.832V25.21H88.9397C88.9771 25.938 89.1684 26.484 89.5137 26.848C89.8684 27.212 90.3444 27.394 90.9417 27.394C91.3804 27.394 91.7444 27.2913 92.0337 27.086C92.3231 26.8807 92.5237 26.6053 92.6357 26.26L94.1757 26.358C93.9797 27.0487 93.5924 27.6087 93.0137 28.038C92.4444 28.458 91.7491 28.668 90.9277 28.668ZM88.9397 24.09H92.7197C92.6731 23.4273 92.4817 22.9373 92.1457 22.62C91.8191 22.3027 91.3991 22.144 90.8857 22.144C90.3537 22.144 89.9151 22.312 89.5697 22.648C89.2337 22.9747 89.0237 23.4553 88.9397 24.09ZM102.79 28.724C101.997 28.724 101.306 28.5793 100.718 28.29C100.14 28.0007 99.6824 27.5993 99.3464 27.086C99.0104 26.5727 98.8144 25.9753 98.7584 25.294L100.312 25.196C100.378 25.6627 100.513 26.0593 100.718 26.386C100.924 26.7033 101.199 26.946 101.544 27.114C101.899 27.2727 102.324 27.352 102.818 27.352C103.248 27.352 103.612 27.3007 103.91 27.198C104.218 27.086 104.452 26.9227 104.61 26.708C104.769 26.4933 104.848 26.232 104.848 25.924C104.848 25.644 104.778 25.3967 104.638 25.182C104.508 24.958 104.251 24.7573 103.868 24.58C103.495 24.3933 102.944 24.2113 102.216 24.034C101.423 23.838 100.788 23.6233 100.312 23.39C99.8364 23.1567 99.4911 22.8673 99.2764 22.522C99.0711 22.1673 98.9684 21.7333 98.9684 21.22C98.9684 20.6507 99.1038 20.1513 99.3744 19.722C99.6544 19.2833 100.051 18.9427 100.564 18.7C101.078 18.4573 101.694 18.336 102.412 18.336C103.168 18.336 103.812 18.476 104.344 18.756C104.886 19.036 105.31 19.4187 105.618 19.904C105.936 20.3893 106.132 20.9447 106.206 21.57L104.652 21.654C104.606 21.2713 104.489 20.9353 104.302 20.646C104.116 20.3473 103.864 20.1187 103.546 19.96C103.229 19.792 102.842 19.708 102.384 19.708C101.806 19.708 101.348 19.8433 101.012 20.114C100.686 20.3753 100.522 20.7253 100.522 21.164C100.522 21.444 100.588 21.682 100.718 21.878C100.858 22.0647 101.101 22.228 101.446 22.368C101.801 22.508 102.3 22.6573 102.944 22.816C103.803 23.012 104.484 23.2547 104.988 23.544C105.502 23.824 105.866 24.1553 106.08 24.538C106.295 24.9207 106.402 25.3547 106.402 25.84C106.402 26.428 106.248 26.9413 105.94 27.38C105.642 27.8093 105.222 28.1407 104.68 28.374C104.139 28.6073 103.509 28.724 102.79 28.724ZM110.523 28.668C109.776 28.668 109.179 28.4207 108.731 27.926C108.292 27.422 108.073 26.7267 108.073 25.84V21.052H109.557V25.462C109.557 26.134 109.673 26.6287 109.907 26.946C110.14 27.2633 110.495 27.422 110.971 27.422C111.512 27.422 111.932 27.2493 112.231 26.904C112.539 26.5493 112.693 26.0547 112.693 25.42V21.052H114.177V28.5H112.791L112.763 26.554L112.973 26.638C112.842 27.2913 112.567 27.7953 112.147 28.15C111.727 28.4953 111.185 28.668 110.523 28.668ZM119.668 28.668C119.155 28.668 118.697 28.556 118.296 28.332C117.904 28.0987 117.601 27.7813 117.386 27.38L117.344 28.5H115.958V18.56H117.442V22.102C117.638 21.7753 117.927 21.4907 118.31 21.248C118.702 21.0053 119.155 20.884 119.668 20.884C120.312 20.884 120.872 21.0427 121.348 21.36C121.824 21.6773 122.188 22.13 122.44 22.718C122.701 23.2967 122.832 23.9827 122.832 24.776C122.832 25.5693 122.701 26.26 122.44 26.848C122.188 27.4267 121.824 27.8747 121.348 28.192C120.872 28.5093 120.312 28.668 119.668 28.668ZM119.43 27.38C119.999 27.38 120.452 27.1513 120.788 26.694C121.124 26.2273 121.292 25.588 121.292 24.776C121.292 23.964 121.124 23.3293 120.788 22.872C120.452 22.4053 120.004 22.172 119.444 22.172C119.024 22.172 118.665 22.2747 118.366 22.48C118.067 22.6853 117.839 22.984 117.68 23.376C117.521 23.7587 117.442 24.2253 117.442 24.776C117.442 25.308 117.521 25.77 117.68 26.162C117.839 26.554 118.067 26.8573 118.366 27.072C118.665 27.2773 119.019 27.38 119.43 27.38ZM127.069 28.668C126.369 28.668 125.776 28.5607 125.291 28.346C124.815 28.1313 124.446 27.8373 124.185 27.464C123.923 27.0813 123.774 26.6427 123.737 26.148L125.263 26.078C125.337 26.4887 125.515 26.8153 125.795 27.058C126.075 27.3007 126.499 27.422 127.069 27.422C127.535 27.422 127.904 27.3473 128.175 27.198C128.445 27.0487 128.581 26.8107 128.581 26.484C128.581 26.3067 128.534 26.1573 128.441 26.036C128.357 25.9053 128.189 25.798 127.937 25.714C127.685 25.6207 127.311 25.532 126.817 25.448C126.079 25.308 125.501 25.1447 125.081 24.958C124.661 24.7713 124.362 24.5333 124.185 24.244C124.007 23.9547 123.919 23.6047 123.919 23.194C123.919 22.5127 124.171 21.9573 124.675 21.528C125.188 21.0987 125.925 20.884 126.887 20.884C127.531 20.884 128.072 20.996 128.511 21.22C128.949 21.4347 129.29 21.7287 129.533 22.102C129.785 22.466 129.943 22.8767 130.009 23.334L128.483 23.418C128.436 23.1567 128.343 22.9327 128.203 22.746C128.072 22.55 127.895 22.4007 127.671 22.298C127.447 22.186 127.181 22.13 126.873 22.13C126.397 22.13 126.042 22.2233 125.809 22.41C125.575 22.5967 125.459 22.8393 125.459 23.138C125.459 23.362 125.51 23.544 125.613 23.684C125.725 23.824 125.902 23.9407 126.145 24.034C126.387 24.118 126.709 24.1927 127.111 24.258C127.885 24.3887 128.492 24.552 128.931 24.748C129.369 24.9347 129.677 25.168 129.855 25.448C130.032 25.728 130.121 26.0687 130.121 26.47C130.121 26.9367 129.99 27.3333 129.729 27.66C129.467 27.9867 129.108 28.2387 128.651 28.416C128.193 28.584 127.666 28.668 127.069 28.668ZM134.549 28.668C133.839 28.668 133.219 28.5093 132.687 28.192C132.155 27.8747 131.744 27.422 131.455 26.834C131.165 26.246 131.021 25.56 131.021 24.776C131.021 23.992 131.165 23.3107 131.455 22.732C131.744 22.144 132.155 21.6913 132.687 21.374C133.219 21.0473 133.839 20.884 134.549 20.884C135.155 20.884 135.692 20.9913 136.159 21.206C136.635 21.4113 137.017 21.7147 137.307 22.116C137.605 22.5173 137.797 23.0073 137.881 23.586L136.327 23.67C136.252 23.1847 136.056 22.816 135.739 22.564C135.421 22.3027 135.025 22.172 134.549 22.172C133.923 22.172 133.433 22.4053 133.079 22.872C132.733 23.3293 132.561 23.964 132.561 24.776C132.561 25.588 132.733 26.2273 133.079 26.694C133.433 27.1513 133.923 27.38 134.549 27.38C135.025 27.38 135.421 27.2493 135.739 26.988C136.056 26.7173 136.252 26.3113 136.327 25.77L137.881 25.854C137.797 26.4233 137.605 26.918 137.307 27.338C137.017 27.758 136.635 28.0847 136.159 28.318C135.692 28.5513 135.155 28.668 134.549 28.668ZM139.095 28.5V21.052H140.453L140.509 23.026L140.383 22.984C140.485 22.312 140.691 21.822 140.999 21.514C141.316 21.206 141.741 21.052 142.273 21.052H142.987V22.382H142.273C141.899 22.382 141.587 22.4427 141.335 22.564C141.083 22.6853 140.891 22.872 140.761 23.124C140.639 23.376 140.579 23.7027 140.579 24.104V28.5H139.095ZM144.068 28.5V21.052H145.552V28.5H144.068ZM144.04 19.974V18.49H145.58V19.974H144.04ZM147.633 30.6V21.052H149.033L149.075 22.648L148.907 22.564C149.094 22.0133 149.402 21.598 149.831 21.318C150.26 21.0287 150.755 20.884 151.315 20.884C152.043 20.884 152.64 21.066 153.107 21.43C153.583 21.7847 153.933 22.256 154.157 22.844C154.39 23.432 154.507 24.076 154.507 24.776C154.507 25.476 154.39 26.12 154.157 26.708C153.933 27.296 153.583 27.772 153.107 28.136C152.64 28.4907 152.043 28.668 151.315 28.668C150.942 28.668 150.592 28.6027 150.265 28.472C149.938 28.3413 149.658 28.1593 149.425 27.926C149.201 27.6833 149.042 27.3987 148.949 27.072L149.117 26.904V30.6H147.633ZM151.049 27.38C151.646 27.38 152.113 27.1513 152.449 26.694C152.794 26.2367 152.967 25.5973 152.967 24.776C152.967 23.9547 152.794 23.3153 152.449 22.858C152.113 22.4007 151.646 22.172 151.049 22.172C150.657 22.172 150.316 22.27 150.027 22.466C149.738 22.6527 149.514 22.942 149.355 23.334C149.196 23.726 149.117 24.2067 149.117 24.776C149.117 25.3453 149.192 25.826 149.341 26.218C149.5 26.61 149.724 26.904 150.013 27.1C150.312 27.2867 150.657 27.38 151.049 27.38ZM158.456 28.5C157.747 28.5 157.224 28.3367 156.888 28.01C156.552 27.6833 156.384 27.1747 156.384 26.484V19.302H157.868V26.372C157.868 26.7173 157.943 26.9553 158.092 27.086C158.242 27.2167 158.47 27.282 158.778 27.282H159.842V28.5H158.456ZM155.25 22.27V21.052H159.842V22.27H155.25ZM161.121 28.5V21.052H162.605V28.5H161.121ZM161.093 19.974V18.49H162.633V19.974H161.093ZM167.492 28.668C166.783 28.668 166.162 28.5093 165.63 28.192C165.098 27.8747 164.687 27.422 164.398 26.834C164.109 26.246 163.964 25.56 163.964 24.776C163.964 23.9827 164.109 23.2967 164.398 22.718C164.687 22.1393 165.098 21.6913 165.63 21.374C166.162 21.0473 166.783 20.884 167.492 20.884C168.201 20.884 168.822 21.0473 169.354 21.374C169.886 21.6913 170.297 22.1393 170.586 22.718C170.875 23.2967 171.02 23.9827 171.02 24.776C171.02 25.56 170.875 26.246 170.586 26.834C170.297 27.422 169.886 27.8747 169.354 28.192C168.822 28.5093 168.201 28.668 167.492 28.668ZM167.492 27.38C168.127 27.38 168.617 27.1513 168.962 26.694C169.307 26.2273 169.48 25.588 169.48 24.776C169.48 23.964 169.307 23.3293 168.962 22.872C168.617 22.4053 168.127 22.172 167.492 22.172C166.867 22.172 166.377 22.4053 166.022 22.872C165.677 23.3293 165.504 23.964 165.504 24.776C165.504 25.588 165.677 26.2273 166.022 26.694C166.377 27.1513 166.867 27.38 167.492 27.38ZM172.38 28.5V21.052H173.738L173.794 23.04L173.612 22.942C173.696 22.4567 173.854 22.0647 174.088 21.766C174.321 21.4673 174.606 21.248 174.942 21.108C175.278 20.9587 175.642 20.884 176.034 20.884C176.594 20.884 177.056 21.01 177.42 21.262C177.793 21.5047 178.073 21.8407 178.26 22.27C178.456 22.69 178.554 23.1707 178.554 23.712V28.5H177.07V24.16C177.07 23.7213 177.023 23.3527 176.93 23.054C176.836 22.7553 176.682 22.5267 176.468 22.368C176.253 22.2093 175.973 22.13 175.628 22.13C175.105 22.13 174.68 22.3027 174.354 22.648C174.027 22.9933 173.864 23.4973 173.864 24.16V28.5H172.38Z" fill="white" fill-opacity="0.7"/>
<path d="M16 58C16 54.6863 18.6863 52 22 52H174C177.314 52 180 54.6863 180 58C180 61.3137 177.314 64 174 64H22C18.6863 64 16 61.3137 16 58Z" fill="url(#paint1_linear_11886_6)"/>
<path d="M12 149.5H184C190.351 149.5 195.5 154.649 195.5 161V213C195.5 219.351 190.351 224.5 184 224.5H12C5.64873 224.5 0.5 219.351 0.5 213V161C0.5 154.649 5.64873 149.5 12 149.5Z" stroke="url(#paint2_linear_11886_6)"/>
<rect x="16" y="161" width="24" height="24" rx="12" fill="#03F7B5" fill-opacity="0.2"/>
<path d="M26.8333 170.083L26.5324 170.897C26.1378 171.963 25.9406 172.496 25.5516 172.885C25.1627 173.274 24.6295 173.471 23.5632 173.866L22.75 174.167L23.5632 174.468C24.6295 174.862 25.1627 175.06 25.5516 175.449C25.9406 175.837 26.1378 176.371 26.5324 177.437L26.8333 178.25L27.1342 177.437C27.5288 176.371 27.7261 175.837 28.115 175.449C28.504 175.06 29.0372 174.862 30.1034 174.468L30.9167 174.167L30.1034 173.866C29.0372 173.471 28.504 173.274 28.115 172.885C27.7261 172.496 27.5288 171.963 27.1342 170.897L26.8333 170.083Z" stroke="white" stroke-linejoin="round"/>
<path d="M31.5 167.75L31.371 168.099C31.2019 168.556 31.1174 168.784 30.9507 168.951C30.784 169.117 30.5555 169.202 30.0985 169.371L29.75 169.5L30.0985 169.629C30.5555 169.798 30.784 169.883 30.9507 170.049C31.1174 170.216 31.2019 170.444 31.371 170.901L31.5 171.25L31.629 170.901C31.7981 170.444 31.8826 170.216 32.0493 170.049C32.216 169.883 32.4445 169.798 32.9015 169.629L33.25 169.5L32.9015 169.371C32.4445 169.202 32.216 169.117 32.0493 168.951C31.8826 168.784 31.7981 168.556 31.629 168.099L31.5 167.75Z" stroke="white" stroke-linejoin="round"/>
<path d="M52.858 178.224C52.074 178.224 51.388 178.075 50.8 177.776C50.2213 177.468 49.7733 177.034 49.456 176.474C49.148 175.914 48.994 175.251 48.994 174.486V168.046H50.506V174.486C50.506 175.242 50.7113 175.825 51.122 176.236C51.5327 176.637 52.1113 176.838 52.858 176.838C53.6047 176.838 54.1833 176.637 54.594 176.236C55.0047 175.825 55.21 175.242 55.21 174.486V168.046H56.722V174.486C56.722 175.251 56.5633 175.914 56.246 176.474C55.938 177.034 55.4947 177.468 54.916 177.776C54.3373 178.075 53.6513 178.224 52.858 178.224ZM58.6307 180.1V170.552H60.0307L60.0727 172.148L59.9047 172.064C60.0914 171.513 60.3994 171.098 60.8287 170.818C61.258 170.529 61.7527 170.384 62.3127 170.384C63.0407 170.384 63.638 170.566 64.1047 170.93C64.5807 171.285 64.9307 171.756 65.1547 172.344C65.388 172.932 65.5047 173.576 65.5047 174.276C65.5047 174.976 65.388 175.62 65.1547 176.208C64.9307 176.796 64.5807 177.272 64.1047 177.636C63.638 177.991 63.0407 178.168 62.3127 178.168C61.9394 178.168 61.5894 178.103 61.2627 177.972C60.936 177.841 60.656 177.659 60.4227 177.426C60.1987 177.183 60.04 176.899 59.9467 176.572L60.1147 176.404V180.1H58.6307ZM62.0467 176.88C62.644 176.88 63.1107 176.651 63.4467 176.194C63.792 175.737 63.9647 175.097 63.9647 174.276C63.9647 173.455 63.792 172.815 63.4467 172.358C63.1107 171.901 62.644 171.672 62.0467 171.672C61.6547 171.672 61.314 171.77 61.0247 171.966C60.7354 172.153 60.5114 172.442 60.3527 172.834C60.194 173.226 60.1147 173.707 60.1147 174.276C60.1147 174.845 60.1894 175.326 60.3387 175.718C60.4974 176.11 60.7214 176.404 61.0107 176.6C61.3094 176.787 61.6547 176.88 62.0467 176.88ZM69.5176 178.168C68.8829 178.168 68.3276 178.009 67.8516 177.692C67.3849 177.375 67.0256 176.927 66.7736 176.348C66.5309 175.76 66.4096 175.069 66.4096 174.276C66.4096 173.483 66.5356 172.797 66.7876 172.218C67.0396 171.63 67.3989 171.177 67.8656 170.86C68.3322 170.543 68.8829 170.384 69.5176 170.384C70.0309 170.384 70.4882 170.491 70.8896 170.706C71.2909 170.921 71.5942 171.219 71.7996 171.602V168.06H73.2836V178H71.8976L71.8556 176.88C71.6502 177.281 71.3376 177.599 70.9176 177.832C70.5069 178.056 70.0402 178.168 69.5176 178.168ZM69.9096 176.88C70.3109 176.88 70.6516 176.777 70.9316 176.572C71.2116 176.367 71.4262 176.068 71.5756 175.676C71.7249 175.284 71.7996 174.817 71.7996 174.276C71.7996 173.716 71.7249 173.245 71.5756 172.862C71.4262 172.47 71.2116 172.176 70.9316 171.98C70.6516 171.775 70.3109 171.672 69.9096 171.672C69.3122 171.672 68.8362 171.905 68.4816 172.372C68.1269 172.829 67.9496 173.464 67.9496 174.276C67.9496 175.079 68.1269 175.713 68.4816 176.18C68.8362 176.647 69.3122 176.88 69.9096 176.88ZM77.1984 178.168C76.4238 178.168 75.8031 177.991 75.3364 177.636C74.8791 177.281 74.6504 176.782 74.6504 176.138C74.6504 175.494 74.8418 174.995 75.2244 174.64C75.6164 174.276 76.2184 174.015 77.0304 173.856L79.5924 173.366C79.5924 172.787 79.4571 172.358 79.1864 172.078C78.9158 171.789 78.5144 171.644 77.9824 171.644C77.5064 171.644 77.1331 171.751 76.8624 171.966C76.5918 172.171 76.4051 172.479 76.3024 172.89L74.7764 172.792C74.9164 172.045 75.2618 171.457 75.8124 171.028C76.3724 170.599 77.0958 170.384 77.9824 170.384C78.9904 170.384 79.7558 170.655 80.2784 171.196C80.8104 171.728 81.0764 172.479 81.0764 173.45V176.348C81.0764 176.525 81.1044 176.651 81.1604 176.726C81.2258 176.791 81.3284 176.824 81.4684 176.824H81.7344V178C81.6878 178.009 81.6131 178.019 81.5104 178.028C81.4078 178.037 81.3004 178.042 81.1884 178.042C80.8711 178.042 80.5958 177.991 80.3624 177.888C80.1384 177.785 79.9704 177.617 79.8584 177.384C79.7464 177.141 79.6904 176.819 79.6904 176.418L79.8444 176.488C79.7698 176.815 79.6064 177.104 79.3544 177.356C79.1118 177.608 78.7991 177.809 78.4164 177.958C78.0431 178.098 77.6371 178.168 77.1984 178.168ZM77.4364 176.992C77.8844 176.992 78.2671 176.908 78.5844 176.74C78.9018 176.563 79.1491 176.32 79.3264 176.012C79.5038 175.704 79.5924 175.354 79.5924 174.962V174.486L77.4084 174.906C76.9604 174.99 76.6431 175.125 76.4564 175.312C76.2791 175.489 76.1904 175.718 76.1904 175.998C76.1904 176.315 76.2978 176.563 76.5124 176.74C76.7364 176.908 77.0444 176.992 77.4364 176.992ZM85.3206 178C84.6113 178 84.0886 177.837 83.7526 177.51C83.4166 177.183 83.2486 176.675 83.2486 175.984V168.802H84.7326V175.872C84.7326 176.217 84.8073 176.455 84.9566 176.586C85.1059 176.717 85.3346 176.782 85.6426 176.782H86.7066V178H85.3206ZM82.1146 171.77V170.552H86.7066V171.77H82.1146ZM90.9277 178.168C90.1997 178.168 89.5697 178.009 89.0377 177.692C88.5151 177.375 88.1091 176.922 87.8197 176.334C87.5397 175.746 87.3997 175.06 87.3997 174.276C87.3997 173.492 87.5397 172.811 87.8197 172.232C88.1091 171.644 88.5151 171.191 89.0377 170.874C89.5604 170.547 90.1764 170.384 90.8857 170.384C91.5577 170.384 92.1504 170.543 92.6637 170.86C93.1771 171.168 93.5737 171.616 93.8537 172.204C94.1431 172.792 94.2877 173.501 94.2877 174.332V174.71H88.9397C88.9771 175.438 89.1684 175.984 89.5137 176.348C89.8684 176.712 90.3444 176.894 90.9417 176.894C91.3804 176.894 91.7444 176.791 92.0337 176.586C92.3231 176.381 92.5237 176.105 92.6357 175.76L94.1757 175.858C93.9797 176.549 93.5924 177.109 93.0137 177.538C92.4444 177.958 91.7491 178.168 90.9277 178.168ZM88.9397 173.59H92.7197C92.6731 172.927 92.4817 172.437 92.1457 172.12C91.8191 171.803 91.3991 171.644 90.8857 171.644C90.3537 171.644 89.9151 171.812 89.5697 172.148C89.2337 172.475 89.0237 172.955 88.9397 173.59ZM99.2064 178V168.06H102.398C103.957 168.06 105.156 168.494 105.996 169.362C106.836 170.221 107.256 171.448 107.256 173.044C107.256 174.631 106.841 175.853 106.01 176.712C105.189 177.571 104.013 178 102.482 178H99.2064ZM100.718 176.614H102.398C103.5 176.614 104.321 176.32 104.862 175.732C105.413 175.135 105.688 174.239 105.688 173.044C105.688 171.831 105.413 170.93 104.862 170.342C104.321 169.745 103.5 169.446 102.398 169.446H100.718V176.614ZM110.979 178.168C110.204 178.168 109.584 177.991 109.117 177.636C108.66 177.281 108.431 176.782 108.431 176.138C108.431 175.494 108.622 174.995 109.005 174.64C109.397 174.276 109.999 174.015 110.811 173.856L113.373 173.366C113.373 172.787 113.238 172.358 112.967 172.078C112.696 171.789 112.295 171.644 111.763 171.644C111.287 171.644 110.914 171.751 110.643 171.966C110.372 172.171 110.186 172.479 110.083 172.89L108.557 172.792C108.697 172.045 109.042 171.457 109.593 171.028C110.153 170.599 110.876 170.384 111.763 170.384C112.771 170.384 113.536 170.655 114.059 171.196C114.591 171.728 114.857 172.479 114.857 173.45V176.348C114.857 176.525 114.885 176.651 114.941 176.726C115.006 176.791 115.109 176.824 115.249 176.824H115.515V178C115.468 178.009 115.394 178.019 115.291 178.028C115.188 178.037 115.081 178.042 114.969 178.042C114.652 178.042 114.376 177.991 114.143 177.888C113.919 177.785 113.751 177.617 113.639 177.384C113.527 177.141 113.471 176.819 113.471 176.418L113.625 176.488C113.55 176.815 113.387 177.104 113.135 177.356C112.892 177.608 112.58 177.809 112.197 177.958C111.824 178.098 111.418 178.168 110.979 178.168ZM111.217 176.992C111.665 176.992 112.048 176.908 112.365 176.74C112.682 176.563 112.93 176.32 113.107 176.012C113.284 175.704 113.373 175.354 113.373 174.962V174.486L111.189 174.906C110.741 174.99 110.424 175.125 110.237 175.312C110.06 175.489 109.971 175.718 109.971 175.998C109.971 176.315 110.078 176.563 110.293 176.74C110.517 176.908 110.825 176.992 111.217 176.992ZM119.101 178C118.392 178 117.869 177.837 117.533 177.51C117.197 177.183 117.029 176.675 117.029 175.984V168.802H118.513V175.872C118.513 176.217 118.588 176.455 118.737 176.586C118.886 176.717 119.115 176.782 119.423 176.782H120.487V178H119.101ZM115.895 171.77V170.552H120.487V171.77H115.895ZM123.81 178.168C123.036 178.168 122.415 177.991 121.948 177.636C121.491 177.281 121.262 176.782 121.262 176.138C121.262 175.494 121.454 174.995 121.836 174.64C122.228 174.276 122.83 174.015 123.642 173.856L126.204 173.366C126.204 172.787 126.069 172.358 125.798 172.078C125.528 171.789 125.126 171.644 124.594 171.644C124.118 171.644 123.745 171.751 123.474 171.966C123.204 172.171 123.017 172.479 122.914 172.89L121.388 172.792C121.528 172.045 121.874 171.457 122.424 171.028C122.984 170.599 123.708 170.384 124.594 170.384C125.602 170.384 126.368 170.655 126.89 171.196C127.422 171.728 127.688 172.479 127.688 173.45V176.348C127.688 176.525 127.716 176.651 127.772 176.726C127.838 176.791 127.94 176.824 128.08 176.824H128.346V178C128.3 178.009 128.225 178.019 128.122 178.028C128.02 178.037 127.912 178.042 127.8 178.042C127.483 178.042 127.208 177.991 126.974 177.888C126.75 177.785 126.582 177.617 126.47 177.384C126.358 177.141 126.302 176.819 126.302 176.418L126.456 176.488C126.382 176.815 126.218 177.104 125.966 177.356C125.724 177.608 125.411 177.809 125.028 177.958C124.655 178.098 124.249 178.168 123.81 178.168ZM124.048 176.992C124.496 176.992 124.879 176.908 125.196 176.74C125.514 176.563 125.761 176.32 125.938 176.012C126.116 175.704 126.204 175.354 126.204 174.962V174.486L124.02 174.906C123.572 174.99 123.255 175.125 123.068 175.312C122.891 175.489 122.802 175.718 122.802 175.998C122.802 176.315 122.91 176.563 123.124 176.74C123.348 176.908 123.656 176.992 124.048 176.992ZM133.101 178.168C132.588 178.168 132.13 178.056 131.729 177.832C131.337 177.599 131.034 177.281 130.819 176.88L130.777 178H129.391V168.06H130.875V171.602C131.071 171.275 131.36 170.991 131.743 170.748C132.135 170.505 132.588 170.384 133.101 170.384C133.745 170.384 134.305 170.543 134.781 170.86C135.257 171.177 135.621 171.63 135.873 172.218C136.134 172.797 136.265 173.483 136.265 174.276C136.265 175.069 136.134 175.76 135.873 176.348C135.621 176.927 135.257 177.375 134.781 177.692C134.305 178.009 133.745 178.168 133.101 178.168ZM132.863 176.88C133.432 176.88 133.885 176.651 134.221 176.194C134.557 175.727 134.725 175.088 134.725 174.276C134.725 173.464 134.557 172.829 134.221 172.372C133.885 171.905 133.437 171.672 132.877 171.672C132.457 171.672 132.098 171.775 131.799 171.98C131.5 172.185 131.272 172.484 131.113 172.876C130.954 173.259 130.875 173.725 130.875 174.276C130.875 174.808 130.954 175.27 131.113 175.662C131.272 176.054 131.5 176.357 131.799 176.572C132.098 176.777 132.452 176.88 132.863 176.88ZM139.868 178.168C139.093 178.168 138.473 177.991 138.006 177.636C137.549 177.281 137.32 176.782 137.32 176.138C137.32 175.494 137.511 174.995 137.894 174.64C138.286 174.276 138.888 174.015 139.7 173.856L142.262 173.366C142.262 172.787 142.127 172.358 141.856 172.078C141.585 171.789 141.184 171.644 140.652 171.644C140.176 171.644 139.803 171.751 139.532 171.966C139.261 172.171 139.075 172.479 138.972 172.89L137.446 172.792C137.586 172.045 137.931 171.457 138.482 171.028C139.042 170.599 139.765 170.384 140.652 170.384C141.66 170.384 142.425 170.655 142.948 171.196C143.48 171.728 143.746 172.479 143.746 173.45V176.348C143.746 176.525 143.774 176.651 143.83 176.726C143.895 176.791 143.998 176.824 144.138 176.824H144.404V178C144.357 178.009 144.283 178.019 144.18 178.028C144.077 178.037 143.97 178.042 143.858 178.042C143.541 178.042 143.265 177.991 143.032 177.888C142.808 177.785 142.64 177.617 142.528 177.384C142.416 177.141 142.36 176.819 142.36 176.418L142.514 176.488C142.439 176.815 142.276 177.104 142.024 177.356C141.781 177.608 141.469 177.809 141.086 177.958C140.713 178.098 140.307 178.168 139.868 178.168ZM140.106 176.992C140.554 176.992 140.937 176.908 141.254 176.74C141.571 176.563 141.819 176.32 141.996 176.012C142.173 175.704 142.262 175.354 142.262 174.962V174.486L140.078 174.906C139.63 174.99 139.313 175.125 139.126 175.312C138.949 175.489 138.86 175.718 138.86 175.998C138.86 176.315 138.967 176.563 139.182 176.74C139.406 176.908 139.714 176.992 140.106 176.992ZM148.332 178.168C147.632 178.168 147.04 178.061 146.554 177.846C146.078 177.631 145.71 177.337 145.448 176.964C145.187 176.581 145.038 176.143 145 175.648L146.526 175.578C146.601 175.989 146.778 176.315 147.058 176.558C147.338 176.801 147.763 176.922 148.332 176.922C148.799 176.922 149.168 176.847 149.438 176.698C149.709 176.549 149.844 176.311 149.844 175.984C149.844 175.807 149.798 175.657 149.704 175.536C149.62 175.405 149.452 175.298 149.2 175.214C148.948 175.121 148.575 175.032 148.08 174.948C147.343 174.808 146.764 174.645 146.344 174.458C145.924 174.271 145.626 174.033 145.448 173.744C145.271 173.455 145.182 173.105 145.182 172.694C145.182 172.013 145.434 171.457 145.938 171.028C146.452 170.599 147.189 170.384 148.15 170.384C148.794 170.384 149.336 170.496 149.774 170.72C150.213 170.935 150.554 171.229 150.796 171.602C151.048 171.966 151.207 172.377 151.272 172.834L149.746 172.918C149.7 172.657 149.606 172.433 149.466 172.246C149.336 172.05 149.158 171.901 148.934 171.798C148.71 171.686 148.444 171.63 148.136 171.63C147.66 171.63 147.306 171.723 147.072 171.91C146.839 172.097 146.722 172.339 146.722 172.638C146.722 172.862 146.774 173.044 146.876 173.184C146.988 173.324 147.166 173.441 147.408 173.534C147.651 173.618 147.973 173.693 148.374 173.758C149.149 173.889 149.756 174.052 150.194 174.248C150.633 174.435 150.941 174.668 151.118 174.948C151.296 175.228 151.384 175.569 151.384 175.97C151.384 176.437 151.254 176.833 150.992 177.16C150.731 177.487 150.372 177.739 149.914 177.916C149.457 178.084 148.93 178.168 148.332 178.168ZM155.812 178.168C155.084 178.168 154.454 178.009 153.922 177.692C153.4 177.375 152.994 176.922 152.704 176.334C152.424 175.746 152.284 175.06 152.284 174.276C152.284 173.492 152.424 172.811 152.704 172.232C152.994 171.644 153.4 171.191 153.922 170.874C154.445 170.547 155.061 170.384 155.77 170.384C156.442 170.384 157.035 170.543 157.548 170.86C158.062 171.168 158.458 171.616 158.738 172.204C159.028 172.792 159.172 173.501 159.172 174.332V174.71H153.824C153.862 175.438 154.053 175.984 154.398 176.348C154.753 176.712 155.229 176.894 155.826 176.894C156.265 176.894 156.629 176.791 156.918 176.586C157.208 176.381 157.408 176.105 157.52 175.76L159.06 175.858C158.864 176.549 158.477 177.109 157.898 177.538C157.329 177.958 156.634 178.168 155.812 178.168ZM153.824 173.59H157.604C157.558 172.927 157.366 172.437 157.03 172.12C156.704 171.803 156.284 171.644 155.77 171.644C155.238 171.644 154.8 171.812 154.454 172.148C154.118 172.475 153.908 172.955 153.824 173.59Z" fill="white" fill-opacity="0.8"/>
<path d="M16 207C16 203.686 18.6863 201 22 201H174C177.314 201 180 203.686 180 207C180 210.314 177.314 213 174 213H22C18.6863 213 16 210.314 16 207Z" fill="url(#paint3_linear_11886_6)"/>
<rect x="431" y="62" width="239" height="102" rx="10" fill="#04050E"/>
<rect x="431.5" y="62.5" width="238" height="101" rx="9.5" stroke="#03F7B5" stroke-opacity="0.5" stroke-dasharray="3 3"/>
<rect x="447" y="74" width="24" height="24" rx="12" fill="black"/>
<rect x="447.5" y="74.5" width="23" height="23" rx="11.5" stroke="#03F7B5" stroke-opacity="0.12"/>
<path d="M457.833 83.0833L457.532 83.8964C457.138 84.9628 456.941 85.4959 456.552 85.8849C456.163 86.2738 455.63 86.4711 454.563 86.8657L453.75 87.1666L454.563 87.4675C455.63 87.8621 456.163 88.0594 456.552 88.4483C456.941 88.8373 457.138 89.3704 457.532 90.4367L457.833 91.2499L458.134 90.4367C458.529 89.3704 458.726 88.8373 459.115 88.4483C459.504 88.0594 460.037 87.8621 461.103 87.4675L461.917 87.1666L461.103 86.8657C460.037 86.4711 459.504 86.2738 459.115 85.8849C458.726 85.4959 458.529 84.9628 458.134 83.8964L457.833 83.0833Z" stroke="white" stroke-linejoin="round"/>
<path d="M462.5 80.75L462.371 81.0985C462.202 81.5555 462.117 81.784 461.951 81.9507C461.784 82.1174 461.556 82.2019 461.099 82.371L460.75 82.5L461.099 82.629C461.556 82.7981 461.784 82.8826 461.951 83.0493C462.117 83.216 462.202 83.4445 462.371 83.9015L462.5 84.25L462.629 83.9015C462.798 83.4445 462.883 83.216 463.049 83.0493C463.216 82.8826 463.444 82.7981 463.901 82.629L464.25 82.5L463.901 82.371C463.444 82.2019 463.216 82.1174 463.049 81.9507C462.883 81.784 462.798 81.5555 462.629 81.0985L462.5 80.75Z" stroke="white" stroke-linejoin="round"/>
<path d="M483.858 91.224C483.074 91.224 482.388 91.0747 481.8 90.776C481.221 90.468 480.773 90.034 480.456 89.474C480.148 88.914 479.994 88.2513 479.994 87.486V81.046H481.506V87.486C481.506 88.242 481.711 88.8253 482.122 89.236C482.533 89.6373 483.111 89.838 483.858 89.838C484.605 89.838 485.183 89.6373 485.594 89.236C486.005 88.8253 486.21 88.242 486.21 87.486V81.046H487.722V87.486C487.722 88.2513 487.563 88.914 487.246 89.474C486.938 90.034 486.495 90.468 485.916 90.776C485.337 91.0747 484.651 91.224 483.858 91.224ZM489.631 93.1V83.552H491.031L491.073 85.148L490.905 85.064C491.091 84.5133 491.399 84.098 491.829 83.818C492.258 83.5287 492.753 83.384 493.313 83.384C494.041 83.384 494.638 83.566 495.105 83.93C495.581 84.2847 495.931 84.756 496.155 85.344C496.388 85.932 496.505 86.576 496.505 87.276C496.505 87.976 496.388 88.62 496.155 89.208C495.931 89.796 495.581 90.272 495.105 90.636C494.638 90.9907 494.041 91.168 493.313 91.168C492.939 91.168 492.589 91.1027 492.263 90.972C491.936 90.8413 491.656 90.6593 491.423 90.426C491.199 90.1833 491.04 89.8987 490.947 89.572L491.115 89.404V93.1H489.631ZM493.047 89.88C493.644 89.88 494.111 89.6513 494.447 89.194C494.792 88.7367 494.965 88.0973 494.965 87.276C494.965 86.4547 494.792 85.8153 494.447 85.358C494.111 84.9007 493.644 84.672 493.047 84.672C492.655 84.672 492.314 84.77 492.025 84.966C491.735 85.1527 491.511 85.442 491.353 85.834C491.194 86.226 491.115 86.7067 491.115 87.276C491.115 87.8453 491.189 88.326 491.339 88.718C491.497 89.11 491.721 89.404 492.011 89.6C492.309 89.7867 492.655 89.88 493.047 89.88ZM500.518 91.168C499.883 91.168 499.328 91.0093 498.852 90.692C498.385 90.3747 498.026 89.9267 497.774 89.348C497.531 88.76 497.41 88.0693 497.41 87.276C497.41 86.4827 497.536 85.7967 497.788 85.218C498.04 84.63 498.399 84.1773 498.866 83.86C499.332 83.5427 499.883 83.384 500.518 83.384C501.031 83.384 501.488 83.4913 501.89 83.706C502.291 83.9207 502.594 84.2193 502.8 84.602V81.06H504.284V91H502.898L502.856 89.88C502.65 90.2813 502.338 90.5987 501.918 90.832C501.507 91.056 501.04 91.168 500.518 91.168ZM500.91 89.88C501.311 89.88 501.652 89.7773 501.932 89.572C502.212 89.3667 502.426 89.068 502.576 88.676C502.725 88.284 502.8 87.8173 502.8 87.276C502.8 86.716 502.725 86.2447 502.576 85.862C502.426 85.47 502.212 85.176 501.932 84.98C501.652 84.7747 501.311 84.672 500.91 84.672C500.312 84.672 499.836 84.9053 499.482 85.372C499.127 85.8293 498.95 86.464 498.95 87.276C498.95 88.0787 499.127 88.7133 499.482 89.18C499.836 89.6467 500.312 89.88 500.91 89.88ZM508.198 91.168C507.424 91.168 506.803 90.9907 506.336 90.636C505.879 90.2813 505.65 89.782 505.65 89.138C505.65 88.494 505.842 87.9947 506.224 87.64C506.616 87.276 507.218 87.0147 508.03 86.856L510.592 86.366C510.592 85.7873 510.457 85.358 510.186 85.078C509.916 84.7887 509.514 84.644 508.982 84.644C508.506 84.644 508.133 84.7513 507.862 84.966C507.592 85.1713 507.405 85.4793 507.302 85.89L505.776 85.792C505.916 85.0453 506.262 84.4573 506.812 84.028C507.372 83.5987 508.096 83.384 508.982 83.384C509.99 83.384 510.756 83.6547 511.278 84.196C511.81 84.728 512.076 85.4793 512.076 86.45V89.348C512.076 89.5253 512.104 89.6513 512.16 89.726C512.226 89.7913 512.328 89.824 512.468 89.824H512.734V91C512.688 91.0093 512.613 91.0187 512.51 91.028C512.408 91.0373 512.3 91.042 512.188 91.042C511.871 91.042 511.596 90.9907 511.362 90.888C511.138 90.7853 510.97 90.6173 510.858 90.384C510.746 90.1413 510.69 89.8193 510.69 89.418L510.844 89.488C510.77 89.8147 510.606 90.104 510.354 90.356C510.112 90.608 509.799 90.8087 509.416 90.958C509.043 91.098 508.637 91.168 508.198 91.168ZM508.436 89.992C508.884 89.992 509.267 89.908 509.584 89.74C509.902 89.5627 510.149 89.32 510.326 89.012C510.504 88.704 510.592 88.354 510.592 87.962V87.486L508.408 87.906C507.96 87.99 507.643 88.1253 507.456 88.312C507.279 88.4893 507.19 88.718 507.19 88.998C507.19 89.3153 507.298 89.5627 507.512 89.74C507.736 89.908 508.044 89.992 508.436 89.992ZM516.321 91C515.611 91 515.089 90.8367 514.753 90.51C514.417 90.1833 514.249 89.6747 514.249 88.984V81.802H515.733V88.872C515.733 89.2173 515.807 89.4553 515.957 89.586C516.106 89.7167 516.335 89.782 516.643 89.782H517.707V91H516.321ZM513.115 84.77V83.552H517.707V84.77H513.115ZM521.928 91.168C521.2 91.168 520.57 91.0093 520.038 90.692C519.515 90.3747 519.109 89.922 518.82 89.334C518.54 88.746 518.4 88.06 518.4 87.276C518.4 86.492 518.54 85.8107 518.82 85.232C519.109 84.644 519.515 84.1913 520.038 83.874C520.56 83.5473 521.176 83.384 521.886 83.384C522.558 83.384 523.15 83.5427 523.664 83.86C524.177 84.168 524.574 84.616 524.854 85.204C525.143 85.792 525.288 86.5013 525.288 87.332V87.71H519.94C519.977 88.438 520.168 88.984 520.514 89.348C520.868 89.712 521.344 89.894 521.942 89.894C522.38 89.894 522.744 89.7913 523.034 89.586C523.323 89.3807 523.524 89.1053 523.636 88.76L525.176 88.858C524.98 89.5487 524.592 90.1087 524.014 90.538C523.444 90.958 522.749 91.168 521.928 91.168ZM519.94 86.59H523.72C523.673 85.9273 523.482 85.4373 523.146 85.12C522.819 84.8027 522.399 84.644 521.886 84.644C521.354 84.644 520.915 84.812 520.57 85.148C520.234 85.4747 520.024 85.9553 519.94 86.59ZM530.206 91V81.06H533.916C535.055 81.06 535.942 81.3353 536.576 81.886C537.211 82.4273 537.528 83.1833 537.528 84.154C537.528 84.798 537.384 85.358 537.094 85.834C536.805 86.3007 536.39 86.66 535.848 86.912C535.316 87.1547 534.672 87.276 533.916 87.276H531.718V91H530.206ZM531.718 85.904H533.874C534.556 85.904 535.074 85.7593 535.428 85.47C535.783 85.1713 535.96 84.7327 535.96 84.154C535.96 83.5847 535.783 83.16 535.428 82.88C535.074 82.5907 534.556 82.446 533.874 82.446H531.718V85.904ZM540.738 91C540.252 91 539.86 90.874 539.562 90.622C539.263 90.37 539.114 89.9687 539.114 89.418V81.06H540.598V89.278C540.598 89.446 540.64 89.572 540.724 89.656C540.817 89.74 540.948 89.782 541.116 89.782H541.704V91H540.738ZM544.997 91.168C544.222 91.168 543.602 90.9907 543.135 90.636C542.678 90.2813 542.449 89.782 542.449 89.138C542.449 88.494 542.64 87.9947 543.023 87.64C543.415 87.276 544.017 87.0147 544.829 86.856L547.391 86.366C547.391 85.7873 547.256 85.358 546.985 85.078C546.714 84.7887 546.313 84.644 545.781 84.644C545.305 84.644 544.932 84.7513 544.661 84.966C544.39 85.1713 544.204 85.4793 544.101 85.89L542.575 85.792C542.715 85.0453 543.06 84.4573 543.611 84.028C544.171 83.5987 544.894 83.384 545.781 83.384C546.789 83.384 547.554 83.6547 548.077 84.196C548.609 84.728 548.875 85.4793 548.875 86.45V89.348C548.875 89.5253 548.903 89.6513 548.959 89.726C549.024 89.7913 549.127 89.824 549.267 89.824H549.533V91C549.486 91.0093 549.412 91.0187 549.309 91.028C549.206 91.0373 549.099 91.042 548.987 91.042C548.67 91.042 548.394 90.9907 548.161 90.888C547.937 90.7853 547.769 90.6173 547.657 90.384C547.545 90.1413 547.489 89.8193 547.489 89.418L547.643 89.488C547.568 89.8147 547.405 90.104 547.153 90.356C546.91 90.608 546.598 90.8087 546.215 90.958C545.842 91.098 545.436 91.168 544.997 91.168ZM545.235 89.992C545.683 89.992 546.066 89.908 546.383 89.74C546.7 89.5627 546.948 89.32 547.125 89.012C547.302 88.704 547.391 88.354 547.391 87.962V87.486L545.207 87.906C544.759 87.99 544.442 88.1253 544.255 88.312C544.078 88.4893 543.989 88.718 543.989 88.998C543.989 89.3153 544.096 89.5627 544.311 89.74C544.535 89.908 544.843 89.992 545.235 89.992ZM550.646 91V83.552H552.004L552.06 85.54L551.878 85.442C551.962 84.9567 552.121 84.5647 552.354 84.266C552.587 83.9673 552.872 83.748 553.208 83.608C553.544 83.4587 553.908 83.384 554.3 83.384C554.86 83.384 555.322 83.51 555.686 83.762C556.059 84.0047 556.339 84.3407 556.526 84.77C556.722 85.19 556.82 85.6707 556.82 86.212V91H555.336V86.66C555.336 86.2213 555.289 85.8527 555.196 85.554C555.103 85.2553 554.949 85.0267 554.734 84.868C554.519 84.7093 554.239 84.63 553.894 84.63C553.371 84.63 552.947 84.8027 552.62 85.148C552.293 85.4933 552.13 85.9973 552.13 86.66V91H550.646Z" fill="white" fill-opacity="0.8"/>
<rect x="435" y="114" width="231" height="46" rx="12" fill="white" fill-opacity="0.05"/>
<path d="M451.06 143.26V130.8H452.124V143.26H451.06ZM451.704 142.196C450.929 142.196 450.257 142.056 449.688 141.776C449.119 141.487 448.666 141.09 448.33 140.586C448.003 140.082 447.812 139.499 447.756 138.836L449.282 138.752C449.338 139.2 449.469 139.583 449.674 139.9C449.879 140.208 450.15 140.446 450.486 140.614C450.831 140.773 451.247 140.852 451.732 140.852C452.152 140.852 452.511 140.801 452.81 140.698C453.109 140.586 453.333 140.427 453.482 140.222C453.641 140.017 453.72 139.76 453.72 139.452C453.72 139.172 453.655 138.929 453.524 138.724C453.393 138.509 453.141 138.313 452.768 138.136C452.395 137.949 451.849 137.772 451.13 137.604C450.355 137.417 449.735 137.207 449.268 136.974C448.801 136.741 448.465 136.456 448.26 136.12C448.064 135.775 447.966 135.345 447.966 134.832C447.966 134.281 448.101 133.796 448.372 133.376C448.643 132.947 449.025 132.615 449.52 132.382C450.024 132.139 450.626 132.018 451.326 132.018C452.073 132.018 452.707 132.153 453.23 132.424C453.762 132.695 454.182 133.068 454.49 133.544C454.798 134.02 454.989 134.566 455.064 135.182L453.538 135.266C453.491 134.902 453.375 134.575 453.188 134.286C453.011 133.997 452.763 133.773 452.446 133.614C452.129 133.446 451.746 133.362 451.298 133.362C450.738 133.362 450.295 133.493 449.968 133.754C449.641 134.015 449.478 134.361 449.478 134.79C449.478 135.07 449.543 135.303 449.674 135.49C449.814 135.677 450.052 135.84 450.388 135.98C450.733 136.12 451.223 136.265 451.858 136.414C452.698 136.61 453.365 136.848 453.86 137.128C454.355 137.399 454.709 137.721 454.924 138.094C455.139 138.467 455.246 138.892 455.246 139.368C455.246 139.947 455.097 140.451 454.798 140.88C454.499 141.3 454.084 141.627 453.552 141.86C453.02 142.084 452.404 142.196 451.704 142.196ZM458.502 142V134.916H456.402V133.698H457.256C457.629 133.698 457.933 133.651 458.166 133.558C458.399 133.455 458.567 133.287 458.67 133.054C458.773 132.811 458.824 132.48 458.824 132.06H460.014V142H458.502ZM465.87 142.224C465.132 142.224 464.502 142.107 463.98 141.874C463.457 141.631 463.046 141.295 462.748 140.866C462.449 140.437 462.276 139.942 462.23 139.382L463.784 139.284C463.858 139.807 464.078 140.199 464.442 140.46C464.815 140.712 465.291 140.838 465.87 140.838C466.523 140.838 467.036 140.656 467.41 140.292C467.792 139.928 467.984 139.419 467.984 138.766C467.984 138.337 467.895 137.968 467.718 137.66C467.55 137.343 467.307 137.1 466.99 136.932C466.672 136.755 466.294 136.666 465.856 136.666C465.417 136.666 465.025 136.759 464.68 136.946C464.334 137.133 464.087 137.389 463.938 137.716H462.37L463.042 132.06H468.866V133.446H464.386L463.966 136.848L463.728 136.638C463.886 136.358 464.087 136.129 464.33 135.952C464.572 135.765 464.852 135.625 465.17 135.532C465.496 135.429 465.842 135.378 466.206 135.378C466.878 135.378 467.461 135.523 467.956 135.812C468.46 136.101 468.852 136.503 469.132 137.016C469.412 137.529 469.552 138.113 469.552 138.766C469.552 139.447 469.398 140.049 469.09 140.572C468.782 141.095 468.352 141.501 467.802 141.79C467.251 142.079 466.607 142.224 465.87 142.224ZM474.95 142.224C474.129 142.224 473.415 142.014 472.808 141.594C472.202 141.174 471.735 140.577 471.408 139.802C471.082 139.027 470.918 138.108 470.918 137.044C470.918 135.98 471.082 135.061 471.408 134.286C471.744 133.502 472.211 132.9 472.808 132.48C473.415 132.051 474.129 131.836 474.95 131.836C475.781 131.836 476.495 132.051 477.092 132.48C477.699 132.9 478.166 133.497 478.492 134.272C478.828 135.047 478.996 135.971 478.996 137.044C478.996 138.108 478.833 139.027 478.506 139.802C478.18 140.577 477.713 141.174 477.106 141.594C476.5 142.014 475.781 142.224 474.95 142.224ZM474.95 140.838C475.744 140.838 476.355 140.511 476.784 139.858C477.214 139.205 477.428 138.267 477.428 137.044C477.428 136.223 477.33 135.527 477.134 134.958C476.948 134.389 476.668 133.959 476.294 133.67C475.93 133.371 475.482 133.222 474.95 133.222C474.428 133.222 473.98 133.371 473.606 133.67C473.242 133.959 472.962 134.389 472.766 134.958C472.58 135.527 472.486 136.223 472.486 137.044C472.486 138.267 472.701 139.205 473.13 139.858C473.56 140.511 474.166 140.838 474.95 140.838Z" fill="white"/>
<path d="M480.02 143.32L483.56 133H484.52L480.98 143.32H480.02ZM486.02 142V133.48H487.46L490.184 140.872L492.896 133.48H494.336V142H493.304V135.4L490.868 142H489.488L487.052 135.4V142H486.02ZM498.646 142.144C498.062 142.144 497.55 142.008 497.11 141.736C496.67 141.464 496.33 141.08 496.09 140.584C495.85 140.08 495.73 139.492 495.73 138.82C495.73 138.14 495.85 137.552 496.09 137.056C496.33 136.56 496.67 136.176 497.11 135.904C497.55 135.632 498.062 135.496 498.646 135.496C499.23 135.496 499.738 135.632 500.17 135.904C500.61 136.176 500.95 136.56 501.19 137.056C501.43 137.552 501.55 138.14 501.55 138.82C501.55 139.492 501.43 140.08 501.19 140.584C500.95 141.08 500.61 141.464 500.17 141.736C499.738 142.008 499.23 142.144 498.646 142.144ZM498.646 141.184C499.23 141.184 499.682 140.976 500.002 140.56C500.33 140.136 500.494 139.556 500.494 138.82C500.494 138.084 500.33 137.508 500.002 137.092C499.682 136.668 499.23 136.456 498.646 136.456C498.062 136.456 497.606 136.668 497.278 137.092C496.95 137.508 496.786 138.084 496.786 138.82C496.786 139.556 496.95 140.136 497.278 140.56C497.606 140.976 498.062 141.184 498.646 141.184ZM502.804 142V135.64H503.728L503.764 137.26L503.644 137.152C503.724 136.776 503.864 136.468 504.064 136.228C504.264 135.98 504.504 135.796 504.784 135.676C505.072 135.556 505.38 135.496 505.708 135.496C506.196 135.496 506.596 135.604 506.908 135.82C507.228 136.036 507.464 136.328 507.616 136.696C507.776 137.056 507.856 137.46 507.856 137.908V142H506.848V138.196C506.848 137.804 506.8 137.476 506.704 137.212C506.616 136.94 506.472 136.736 506.272 136.6C506.072 136.456 505.812 136.384 505.492 136.384C505.004 136.384 504.6 136.54 504.28 136.852C503.968 137.156 503.812 137.604 503.812 138.196V142H502.804ZM511.504 142C510.928 142 510.5 141.868 510.22 141.604C509.948 141.34 509.812 140.928 509.812 140.368V134.152H510.82V140.344C510.82 140.632 510.884 140.832 511.012 140.944C511.14 141.056 511.336 141.112 511.6 141.112H512.512V142H511.504ZM508.876 136.528V135.64H512.512V136.528H508.876ZM513.685 142V133.48H514.693V137.044L514.573 137.02C514.653 136.668 514.789 136.38 514.981 136.156C515.173 135.932 515.409 135.768 515.689 135.664C515.969 135.552 516.277 135.496 516.613 135.496C517.069 135.496 517.453 135.6 517.765 135.808C518.085 136.008 518.325 136.292 518.485 136.66C518.653 137.02 518.737 137.436 518.737 137.908V142H517.729V138.196C517.729 137.58 517.617 137.124 517.393 136.828C517.177 136.532 516.845 136.384 516.397 136.384C515.885 136.384 515.473 136.54 515.161 136.852C514.849 137.164 514.693 137.616 514.693 138.208V142H513.685Z" fill="white" fill-opacity="0.7"/>
<path d="M591.12 144.1V134.58H592.212L592.24 136.176L592.072 136.092C592.259 135.541 592.567 135.126 592.996 134.846C593.435 134.557 593.939 134.412 594.508 134.412C595.245 134.412 595.847 134.594 596.314 134.958C596.79 135.322 597.14 135.798 597.364 136.386C597.597 136.974 597.714 137.609 597.714 138.29C597.714 138.971 597.597 139.606 597.364 140.194C597.14 140.782 596.79 141.258 596.314 141.622C595.847 141.986 595.245 142.168 594.508 142.168C594.125 142.168 593.766 142.103 593.43 141.972C593.103 141.841 592.823 141.659 592.59 141.426C592.366 141.193 592.212 140.917 592.128 140.6L592.296 140.404V144.1H591.12ZM594.396 141.048C595.04 141.048 595.549 140.805 595.922 140.32C596.295 139.835 596.482 139.158 596.482 138.29C596.482 137.422 596.295 136.745 595.922 136.26C595.549 135.775 595.04 135.532 594.396 135.532C593.967 135.532 593.593 135.635 593.276 135.84C592.968 136.045 592.725 136.353 592.548 136.764C592.38 137.175 592.296 137.683 592.296 138.29C592.296 138.897 592.38 139.405 592.548 139.816C592.716 140.227 592.959 140.535 593.276 140.74C593.593 140.945 593.967 141.048 594.396 141.048ZM599.169 142V134.58H600.205L600.261 136.456L600.149 136.414C600.243 135.779 600.443 135.317 600.751 135.028C601.069 134.729 601.489 134.58 602.011 134.58H602.739V135.7H602.025C601.652 135.7 601.339 135.77 601.087 135.91C600.845 136.041 600.658 136.241 600.527 136.512C600.406 136.773 600.345 137.109 600.345 137.52V142H599.169ZM606.672 142.168C605.99 142.168 605.393 142.009 604.88 141.692C604.366 141.375 603.97 140.927 603.69 140.348C603.41 139.76 603.27 139.074 603.27 138.29C603.27 137.497 603.41 136.811 603.69 136.232C603.97 135.653 604.366 135.205 604.88 134.888C605.393 134.571 605.99 134.412 606.672 134.412C607.353 134.412 607.946 134.571 608.45 134.888C608.963 135.205 609.36 135.653 609.64 136.232C609.92 136.811 610.06 137.497 610.06 138.29C610.06 139.074 609.92 139.76 609.64 140.348C609.36 140.927 608.963 141.375 608.45 141.692C607.946 142.009 607.353 142.168 606.672 142.168ZM606.672 141.048C607.353 141.048 607.88 140.805 608.254 140.32C608.636 139.825 608.828 139.149 608.828 138.29C608.828 137.431 608.636 136.759 608.254 136.274C607.88 135.779 607.353 135.532 606.672 135.532C605.99 135.532 605.458 135.779 605.076 136.274C604.693 136.759 604.502 137.431 604.502 138.29C604.502 139.149 604.693 139.825 605.076 140.32C605.458 140.805 605.99 141.048 606.672 141.048ZM615.019 144.1V134.58H616.111L616.139 136.176L615.971 136.092C616.158 135.541 616.466 135.126 616.895 134.846C617.334 134.557 617.838 134.412 618.407 134.412C619.144 134.412 619.746 134.594 620.213 134.958C620.689 135.322 621.039 135.798 621.263 136.386C621.496 136.974 621.613 137.609 621.613 138.29C621.613 138.971 621.496 139.606 621.263 140.194C621.039 140.782 620.689 141.258 620.213 141.622C619.746 141.986 619.144 142.168 618.407 142.168C618.024 142.168 617.665 142.103 617.329 141.972C617.002 141.841 616.722 141.659 616.489 141.426C616.265 141.193 616.111 140.917 616.027 140.6L616.195 140.404V144.1H615.019ZM618.295 141.048C618.939 141.048 619.448 140.805 619.821 140.32C620.194 139.835 620.381 139.158 620.381 138.29C620.381 137.422 620.194 136.745 619.821 136.26C619.448 135.775 618.939 135.532 618.295 135.532C617.866 135.532 617.492 135.635 617.175 135.84C616.867 136.045 616.624 136.353 616.447 136.764C616.279 137.175 616.195 137.683 616.195 138.29C616.195 138.897 616.279 139.405 616.447 139.816C616.615 140.227 616.858 140.535 617.175 140.74C617.492 140.945 617.866 141.048 618.295 141.048ZM624.593 142C624.163 142 623.813 141.888 623.543 141.664C623.272 141.44 623.137 141.085 623.137 140.6V132.06H624.313V140.502C624.313 140.651 624.35 140.768 624.425 140.852C624.509 140.927 624.625 140.964 624.775 140.964H625.419V142H624.593ZM628.731 142.168C627.966 142.168 627.355 141.991 626.897 141.636C626.449 141.281 626.225 140.787 626.225 140.152C626.225 139.517 626.412 139.018 626.785 138.654C627.159 138.29 627.751 138.033 628.563 137.884L631.195 137.394C631.195 136.769 631.046 136.302 630.747 135.994C630.458 135.686 630.019 135.532 629.431 135.532C628.918 135.532 628.512 135.649 628.213 135.882C627.915 136.106 627.709 136.433 627.597 136.862L626.351 136.764C626.491 136.064 626.827 135.499 627.359 135.07C627.901 134.631 628.591 134.412 629.431 134.412C630.383 134.412 631.111 134.683 631.615 135.224C632.119 135.756 632.371 136.493 632.371 137.436V140.502C632.371 140.67 632.399 140.791 632.455 140.866C632.521 140.931 632.623 140.964 632.763 140.964H633.057V142C633.02 142.009 632.959 142.014 632.875 142.014C632.791 142.023 632.703 142.028 632.609 142.028C632.273 142.028 631.998 141.977 631.783 141.874C631.578 141.762 631.429 141.594 631.335 141.37C631.242 141.137 631.195 140.833 631.195 140.46L631.335 140.488C631.27 140.805 631.111 141.095 630.859 141.356C630.607 141.608 630.295 141.809 629.921 141.958C629.548 142.098 629.151 142.168 628.731 142.168ZM628.843 141.132C629.338 141.132 629.758 141.039 630.103 140.852C630.458 140.656 630.729 140.395 630.915 140.068C631.102 139.732 631.195 139.359 631.195 138.948V138.416L628.787 138.864C628.283 138.957 627.933 139.102 627.737 139.298C627.551 139.485 627.457 139.732 627.457 140.04C627.457 140.385 627.579 140.656 627.821 140.852C628.073 141.039 628.414 141.132 628.843 141.132ZM634.245 142V134.58H635.323L635.365 136.47L635.225 136.344C635.319 135.905 635.482 135.546 635.715 135.266C635.949 134.977 636.229 134.762 636.555 134.622C636.891 134.482 637.251 134.412 637.633 134.412C638.203 134.412 638.669 134.538 639.033 134.79C639.407 135.042 639.682 135.383 639.859 135.812C640.046 136.232 640.139 136.703 640.139 137.226V142H638.963V137.562C638.963 137.105 638.907 136.722 638.795 136.414C638.693 136.097 638.525 135.859 638.291 135.7C638.058 135.532 637.755 135.448 637.381 135.448C636.812 135.448 636.341 135.63 635.967 135.994C635.603 136.349 635.421 136.871 635.421 137.562V142H634.245Z" fill="white" fill-opacity="0.7"/>
<rect x="294" y="98" width="97" height="30" rx="15" fill="#03F7B5"/>
<path d="M307 114.667L308.228 110.983C308.291 110.794 308.468 110.667 308.667 110.667C308.866 110.667 309.042 110.794 309.105 110.983L310.333 114.667M312.333 110.667V114.667M307.667 113.333H309.667" stroke="black" stroke-linecap="round" stroke-linejoin="round"/>
<path d="M316.007 114.398C316.355 114.304 316.529 114.257 316.598 114.167C316.666 114.077 316.666 113.933 316.666 113.645V112.355C316.666 112.067 316.666 111.922 316.598 111.833C316.529 111.743 316.355 111.696 316.007 111.602C314.707 111.252 313.893 109.892 314.229 108.601C314.321 108.245 314.367 108.068 314.323 107.963C314.279 107.859 314.152 107.788 313.899 107.644L312.75 106.991C312.502 106.85 312.377 106.78 312.266 106.795C312.155 106.81 312.029 106.935 311.778 107.186C310.805 108.156 309.195 108.156 308.223 107.186C307.971 106.935 307.846 106.81 307.734 106.795C307.623 106.78 307.499 106.85 307.251 106.991L306.101 107.644C305.848 107.787 305.722 107.859 305.678 107.963C305.633 108.068 305.68 108.245 305.772 108.6C306.107 109.892 305.293 111.252 303.992 111.602C303.644 111.696 303.47 111.743 303.402 111.833C303.333 111.922 303.333 112.067 303.333 112.355V113.645C303.333 113.933 303.333 114.077 303.402 114.167C303.47 114.257 303.644 114.304 303.992 114.398C305.293 114.748 306.106 116.108 305.771 117.399C305.679 117.755 305.632 117.932 305.676 118.036C305.721 118.141 305.847 118.212 306.1 118.356L307.25 119.009C307.498 119.15 307.622 119.22 307.733 119.205C307.845 119.19 307.97 119.065 308.221 118.814C309.195 117.843 310.806 117.843 311.779 118.814C312.03 119.065 312.156 119.19 312.267 119.205C312.378 119.22 312.503 119.15 312.751 119.009L313.901 118.356C314.153 118.212 314.28 118.141 314.324 118.036C314.368 117.932 314.322 117.755 314.23 117.399C313.894 116.108 314.707 114.748 316.007 114.398Z" stroke="black" stroke-linecap="round"/>
<path d="M322.28 118L325.864 108.06H327.488L331.072 118H329.756L328.762 115.172H324.59L323.596 118H322.28ZM324.996 113.996H328.356L326.676 109.11L324.996 113.996ZM332.226 118V108.06H333.43V118H332.226ZM338.212 118L341.796 108.06H343.42L347.004 118H345.688L344.694 115.172H340.522L339.528 118H338.212ZM340.928 113.996H344.288L342.608 109.11L340.928 113.996ZM350.915 118.168C350.224 118.168 349.622 118.009 349.109 117.692C348.605 117.375 348.213 116.927 347.933 116.348C347.653 115.76 347.513 115.074 347.513 114.29C347.513 113.506 347.653 112.825 347.933 112.246C348.213 111.667 348.605 111.219 349.109 110.902C349.622 110.575 350.224 110.412 350.915 110.412C351.484 110.412 351.988 110.515 352.427 110.72C352.875 110.916 353.239 111.205 353.519 111.588C353.799 111.971 353.981 112.437 354.065 112.988L352.833 113.072C352.749 112.577 352.534 112.199 352.189 111.938C351.844 111.667 351.419 111.532 350.915 111.532C350.234 111.532 349.702 111.779 349.319 112.274C348.936 112.759 348.745 113.431 348.745 114.29C348.745 115.149 348.936 115.825 349.319 116.32C349.702 116.805 350.234 117.048 350.915 117.048C351.419 117.048 351.844 116.908 352.189 116.628C352.534 116.348 352.749 115.928 352.833 115.368L354.065 115.452C353.981 116.003 353.799 116.483 353.519 116.894C353.239 117.295 352.875 117.608 352.427 117.832C351.988 118.056 351.484 118.168 350.915 118.168ZM357.812 118C357.14 118 356.64 117.846 356.314 117.538C355.996 117.23 355.838 116.749 355.838 116.096V108.844H357.014V116.068C357.014 116.404 357.088 116.637 357.238 116.768C357.387 116.899 357.616 116.964 357.924 116.964H358.988V118H357.812ZM354.746 111.616V110.58H358.988V111.616H354.746ZM360.356 118V110.58H361.532V118H360.356ZM360.328 109.418V108.046H361.56V109.418H360.328ZM366.395 118.168C365.714 118.168 365.117 118.009 364.603 117.692C364.09 117.375 363.693 116.927 363.413 116.348C363.133 115.76 362.993 115.074 362.993 114.29C362.993 113.497 363.133 112.811 363.413 112.232C363.693 111.653 364.09 111.205 364.603 110.888C365.117 110.571 365.714 110.412 366.395 110.412C367.077 110.412 367.669 110.571 368.173 110.888C368.687 111.205 369.083 111.653 369.363 112.232C369.643 112.811 369.783 113.497 369.783 114.29C369.783 115.074 369.643 115.76 369.363 116.348C369.083 116.927 368.687 117.375 368.173 117.692C367.669 118.009 367.077 118.168 366.395 118.168ZM366.395 117.048C367.077 117.048 367.604 116.805 367.977 116.32C368.36 115.825 368.551 115.149 368.551 114.29C368.551 113.431 368.36 112.759 367.977 112.274C367.604 111.779 367.077 111.532 366.395 111.532C365.714 111.532 365.182 111.779 364.799 112.274C364.417 112.759 364.225 113.431 364.225 114.29C364.225 115.149 364.417 115.825 364.799 116.32C365.182 116.805 365.714 117.048 366.395 117.048ZM371.246 118V110.58H372.324L372.366 112.47L372.226 112.344C372.319 111.905 372.483 111.546 372.716 111.266C372.949 110.977 373.229 110.762 373.556 110.622C373.892 110.482 374.251 110.412 374.634 110.412C375.203 110.412 375.67 110.538 376.034 110.79C376.407 111.042 376.683 111.383 376.86 111.812C377.047 112.232 377.14 112.703 377.14 113.226V118H375.964V113.562C375.964 113.105 375.908 112.722 375.796 112.414C375.693 112.097 375.525 111.859 375.292 111.7C375.059 111.532 374.755 111.448 374.382 111.448C373.813 111.448 373.341 111.63 372.968 111.994C372.604 112.349 372.422 112.871 372.422 113.562V118H371.246Z" fill="black"/>
<line x1="392" y1="112.5" x2="430.053" y2="112.5" stroke="#03F7B5" stroke-opacity="0.5" stroke-dasharray="2 2"/>
<path d="M197 38.5H236.5C249.755 38.5 260.5 49.2452 260.5 62.5V89C260.5 102.255 271.245 113 284.5 113H295.5" stroke="url(#paint4_linear_11886_6)" stroke-dasharray="3 3"/>
<path d="M197 187H236.822C250.077 187 260.822 176.255 260.822 163V137C260.822 123.745 271.568 113 284.822 113H296" stroke="url(#paint5_linear_11886_6)" stroke-dasharray="3 3"/>
<defs>
<linearGradient id="paint0_linear_11886_6" x1="-2.07367e-06" y1="6.00001" x2="196" y2="71.5" gradientUnits="userSpaceOnUse">
<stop stop-color="#03F7B5" stop-opacity="0.24"/>
<stop offset="1" stop-color="#03F7B5" stop-opacity="0.08"/>
</linearGradient>
<linearGradient id="paint1_linear_11886_6" x1="16" y1="58" x2="180" y2="58" gradientUnits="userSpaceOnUse">
<stop stop-color="#0A1117"/>
<stop offset="1" stop-color="#092122"/>
</linearGradient>
<linearGradient id="paint2_linear_11886_6" x1="-2.07367e-06" y1="155" x2="196" y2="220.5" gradientUnits="userSpaceOnUse">
<stop stop-color="#03F7B5" stop-opacity="0.24"/>
<stop offset="1" stop-color="#03F7B5" stop-opacity="0.08"/>
</linearGradient>
<linearGradient id="paint3_linear_11886_6" x1="16" y1="207" x2="180" y2="207" gradientUnits="userSpaceOnUse">
<stop stop-color="#0A1117"/>
<stop offset="1" stop-color="#092122"/>
</linearGradient>
<linearGradient id="paint4_linear_11886_6" x1="311.5" y1="113" x2="199.5" y2="36" gradientUnits="userSpaceOnUse">
<stop stop-color="#03F7B5" stop-opacity="0.5"/>
<stop offset="1" stop-color="#03F7B5" stop-opacity="0.08"/>
</linearGradient>
<linearGradient id="paint5_linear_11886_6" x1="312.081" y1="113" x2="200.369" y2="190.714" gradientUnits="userSpaceOnUse">
<stop stop-color="#03F7B5" stop-opacity="0.5"/>
<stop offset="1" stop-color="#03F7B5" stop-opacity="0.08"/>
</linearGradient>
</defs>
</svg>
