<svg width="671" height="234" viewBox="0 0 671 234" fill="none" xmlns="http://www.w3.org/2000/svg">
<rect x="348.672" y="0.445068" width="304.657" height="125.726" rx="15.2328" fill="#04050E"/>
<rect x="349.172" y="0.945068" width="303.657" height="124.726" rx="14.7328" stroke="#03F7B5" stroke-opacity="0.2" stroke-dasharray="3 3"/>
<path d="M421.001 36.7554V25.94H424.886C426.186 25.94 427.166 26.1736 427.826 26.6408C428.486 27.1079 428.816 27.8492 428.816 28.8648C428.816 29.3217 428.719 29.7229 428.526 30.0682C428.333 30.4134 428.049 30.6876 427.673 30.8907C427.308 31.0837 426.871 31.1852 426.363 31.1954L426.348 31.1345C427.272 31.1548 427.988 31.4086 428.496 31.8961C429.014 32.3734 429.273 33.003 429.273 33.785C429.273 34.77 428.943 35.5114 428.283 36.009C427.622 36.5066 426.683 36.7554 425.465 36.7554H421.001ZM422.646 35.2778H425.419C426.099 35.2778 426.627 35.1407 427.003 34.8665C427.389 34.5822 427.582 34.1709 427.582 33.6326C427.582 33.1046 427.389 32.6933 427.003 32.3988C426.627 32.1043 426.099 31.957 425.419 31.957H422.646V35.2778ZM422.646 30.5556H424.855C425.576 30.5556 426.135 30.4185 426.531 30.1443C426.927 29.8701 427.125 29.4842 427.125 28.9866C427.125 28.4585 426.932 28.0676 426.546 27.8137C426.17 27.5497 425.607 27.4176 424.855 27.4176H422.646V30.5556ZM433.656 36.9382C432.844 36.9382 432.194 36.6691 431.706 36.1308C431.229 35.5824 430.99 34.8259 430.99 33.8611V28.6515H432.605V33.4498C432.605 34.181 432.732 34.7192 432.986 35.0645C433.24 35.4098 433.626 35.5824 434.144 35.5824C434.733 35.5824 435.19 35.3946 435.515 35.0188C435.85 34.6329 436.017 34.0947 436.017 33.4041V28.6515H437.632V36.7554H436.124L436.093 34.638L436.322 34.7294C436.18 35.4403 435.88 35.9887 435.423 36.3745C434.966 36.7503 434.377 36.9382 433.656 36.9382ZM439.57 36.7554V28.6515H441.185V36.7554H439.57ZM439.54 27.4786V25.8639H441.215V27.4786H439.54ZM444.963 36.7554C444.435 36.7554 444.009 36.6183 443.684 36.3441C443.359 36.0699 443.196 35.6332 443.196 35.0341V25.94H444.811V34.8817C444.811 35.0645 444.857 35.2016 444.948 35.293C445.05 35.3844 445.192 35.4301 445.375 35.4301H446.014V36.7554H444.963ZM450.118 36.9382C449.427 36.9382 448.823 36.7655 448.305 36.4202C447.797 36.075 447.406 35.5875 447.132 34.9579C446.868 34.3181 446.736 33.5666 446.736 32.7034C446.736 31.8402 446.873 31.0938 447.148 30.4642C447.422 29.8244 447.813 29.3319 448.32 28.9866C448.828 28.6413 449.427 28.4687 450.118 28.4687C450.676 28.4687 451.174 28.5855 451.611 28.8191C452.047 29.0526 452.377 29.3776 452.601 29.794V25.94H454.216V36.7554H452.708L452.662 35.5367C452.438 35.9734 452.098 36.3187 451.641 36.5726C451.194 36.8163 450.687 36.9382 450.118 36.9382ZM450.544 35.5367C450.981 35.5367 451.352 35.425 451.656 35.2016C451.961 34.9782 452.195 34.6532 452.357 34.2267C452.52 33.8002 452.601 33.2924 452.601 32.7034C452.601 32.0941 452.52 31.5813 452.357 31.1649C452.195 30.7384 451.961 30.4185 451.656 30.2052C451.352 29.9818 450.981 29.8701 450.544 29.8701C449.895 29.8701 449.377 30.124 448.991 30.6318C448.605 31.1294 448.412 31.8199 448.412 32.7034C448.412 33.5768 448.605 34.2673 448.991 34.7751C449.377 35.2829 449.895 35.5367 450.544 35.5367ZM456.086 36.7554V28.6515H457.701V36.7554H456.086ZM456.056 27.4786V25.8639H457.732V27.4786H456.056ZM459.965 36.7554V28.6515H461.443L461.504 30.8146L461.306 30.7079C461.397 30.1799 461.57 29.7533 461.824 29.4284C462.078 29.1034 462.387 28.8648 462.753 28.7124C463.119 28.5499 463.515 28.4687 463.941 28.4687C464.551 28.4687 465.053 28.6058 465.449 28.88C465.856 29.144 466.16 29.5096 466.363 29.9768C466.577 30.4337 466.683 30.9567 466.683 31.5457V36.7554H465.068V32.0332C465.068 31.5559 465.018 31.1548 464.916 30.8298C464.815 30.5048 464.647 30.256 464.413 30.0834C464.18 29.9107 463.875 29.8244 463.499 29.8244C462.931 29.8244 462.469 30.0123 462.113 30.388C461.758 30.7638 461.58 31.3122 461.58 32.0332V36.7554H459.965ZM471.894 39.2231C471.255 39.2231 470.691 39.1266 470.203 38.9337C469.716 38.7407 469.315 38.4665 469 38.1111C468.685 37.7658 468.472 37.3596 468.36 36.8925L470.036 36.7858C470.148 37.121 470.341 37.385 470.615 37.5779C470.899 37.781 471.326 37.8826 471.894 37.8826C472.565 37.8826 473.077 37.7404 473.433 37.4561C473.798 37.1717 473.981 36.7401 473.981 36.1613V34.9884C473.788 35.4047 473.479 35.7348 473.052 35.9785C472.626 36.2222 472.148 36.3441 471.62 36.3441C470.94 36.3441 470.336 36.1765 469.807 35.8414C469.279 35.5063 468.868 35.0442 468.574 34.4552C468.279 33.8662 468.132 33.1858 468.132 32.414C468.132 31.6321 468.274 30.9466 468.558 30.3576C468.853 29.7686 469.259 29.3065 469.777 28.9714C470.305 28.6363 470.899 28.4687 471.559 28.4687C472.138 28.4687 472.646 28.6007 473.083 28.8648C473.529 29.1288 473.849 29.4842 474.042 29.9311V28.6515H475.596V36.1156C475.596 36.7858 475.444 37.3495 475.139 37.8064C474.844 38.2736 474.418 38.6239 473.859 38.8575C473.311 39.1012 472.656 39.2231 471.894 39.2231ZM471.879 34.9731C472.509 34.9731 473.011 34.7446 473.387 34.2876C473.773 33.8307 473.971 33.201 473.981 32.3988C473.991 31.8707 473.91 31.4188 473.738 31.0431C473.565 30.6572 473.316 30.3627 472.991 30.1595C472.676 29.9463 472.306 29.8397 471.879 29.8397C471.219 29.8397 470.706 30.0732 470.341 30.5404C469.985 30.9974 469.807 31.6168 469.807 32.3988C469.807 33.1909 469.99 33.8205 470.356 34.2876C470.732 34.7446 471.239 34.9731 471.879 34.9731ZM483.846 36.7554V32.414L480.053 25.94H481.942L484.668 30.7689L487.41 25.94H489.299L485.491 32.414V36.7554H483.846ZM492.444 36.9382C491.672 36.9382 490.997 36.7655 490.418 36.4202C489.839 36.075 489.392 35.5824 489.077 34.9427C488.763 34.3029 488.605 33.5565 488.605 32.7034C488.605 31.8402 488.763 31.0938 489.077 30.4642C489.392 29.8346 489.839 29.3471 490.418 29.0019C490.997 28.6464 491.672 28.4687 492.444 28.4687C493.216 28.4687 493.891 28.6464 494.47 29.0019C495.049 29.3471 495.495 29.8346 495.81 30.4642C496.125 31.0938 496.282 31.8402 496.282 32.7034C496.282 33.5565 496.125 34.3029 495.81 34.9427C495.495 35.5824 495.049 36.075 494.47 36.4202C493.891 36.7655 493.216 36.9382 492.444 36.9382ZM492.444 35.5367C493.134 35.5367 493.668 35.2879 494.043 34.7903C494.419 34.2826 494.607 33.5869 494.607 32.7034C494.607 31.8199 494.419 31.1294 494.043 30.6318C493.668 30.124 493.134 29.8701 492.444 29.8701C491.763 29.8701 491.23 30.124 490.844 30.6318C490.469 31.1294 490.281 31.8199 490.281 32.7034C490.281 33.5869 490.469 34.2826 490.844 34.7903C491.23 35.2879 491.763 35.5367 492.444 35.5367ZM500.428 36.9382C499.615 36.9382 498.965 36.6691 498.478 36.1308C498.001 35.5824 497.762 34.8259 497.762 33.8611V28.6515H499.377V33.4498C499.377 34.181 499.504 34.7192 499.757 35.0645C500.011 35.4098 500.397 35.5824 500.915 35.5824C501.504 35.5824 501.961 35.3946 502.286 35.0188C502.621 34.6329 502.789 34.0947 502.789 33.4041V28.6515H504.403V36.7554H502.895L502.865 34.638L503.093 34.7294C502.951 35.4403 502.652 35.9887 502.195 36.3745C501.738 36.7503 501.149 36.9382 500.428 36.9382ZM506.535 36.7554V28.6515H508.013L508.074 30.7993L507.937 30.7536C508.048 30.0225 508.272 29.4893 508.607 29.1542C508.952 28.8191 509.414 28.6515 509.993 28.6515H510.77V30.0986H509.993C509.587 30.0986 509.247 30.1646 508.972 30.2966C508.698 30.4287 508.49 30.6318 508.348 30.906C508.216 31.1801 508.15 31.5356 508.15 31.9723V36.7554H506.535ZM515.092 36.7554L518.991 25.94H521.078L524.978 36.7554H523.226L522.236 33.9373H517.818L516.843 36.7554H515.092ZM518.336 32.4445H521.733L520.027 27.509L518.336 32.4445ZM526.105 36.7554V25.94H527.75V36.7554H526.105ZM532.768 36.7554L536.668 25.94H538.755L542.654 36.7554H540.903L539.913 33.9373H535.495L534.52 36.7554H532.768ZM536.013 32.4445H539.41L537.704 27.509L536.013 32.4445ZM546.918 39.2231C546.279 39.2231 545.715 39.1266 545.228 38.9337C544.74 38.7407 544.339 38.4665 544.024 38.1111C543.709 37.7658 543.496 37.3596 543.384 36.8925L545.06 36.7858C545.172 37.121 545.365 37.385 545.639 37.5779C545.923 37.781 546.35 37.8826 546.918 37.8826C547.589 37.8826 548.102 37.7404 548.457 37.4561C548.823 37.1717 549.005 36.7401 549.005 36.1613V34.9884C548.812 35.4047 548.503 35.7348 548.076 35.9785C547.65 36.2222 547.172 36.3441 546.644 36.3441C545.964 36.3441 545.36 36.1765 544.832 35.8414C544.304 35.5063 543.892 35.0442 543.598 34.4552C543.303 33.8662 543.156 33.1858 543.156 32.414C543.156 31.6321 543.298 30.9466 543.583 30.3576C543.877 29.7686 544.283 29.3065 544.801 28.9714C545.329 28.6363 545.923 28.4687 546.583 28.4687C547.162 28.4687 547.67 28.6007 548.107 28.8648C548.553 29.1288 548.873 29.4842 549.066 29.9311V28.6515H550.62V36.1156C550.62 36.7858 550.468 37.3495 550.163 37.8064C549.869 38.2736 549.442 38.6239 548.884 38.8575C548.335 39.1012 547.68 39.2231 546.918 39.2231ZM546.903 34.9731C547.533 34.9731 548.036 34.7446 548.411 34.2876C548.797 33.8307 548.995 33.201 549.005 32.3988C549.016 31.8707 548.934 31.4188 548.762 31.0431C548.589 30.6572 548.34 30.3627 548.015 30.1595C547.7 29.9463 547.33 29.8397 546.903 29.8397C546.243 29.8397 545.73 30.0732 545.365 30.5404C545.009 30.9974 544.832 31.6168 544.832 32.3988C544.832 33.1909 545.014 33.8205 545.38 34.2876C545.756 34.7446 546.263 34.9731 546.903 34.9731ZM555.946 36.9382C555.154 36.9382 554.469 36.7655 553.89 36.4202C553.321 36.075 552.879 35.5824 552.565 34.9427C552.26 34.3029 552.108 33.5565 552.108 32.7034C552.108 31.8504 552.26 31.1091 552.565 30.4794C552.879 29.8397 553.321 29.3471 553.89 29.0019C554.459 28.6464 555.129 28.4687 555.901 28.4687C556.632 28.4687 557.277 28.6413 557.835 28.9866C558.394 29.3217 558.825 29.8092 559.13 30.449C559.445 31.0888 559.602 31.8605 559.602 32.7644V33.1757H553.783C553.824 33.9678 554.032 34.5618 554.408 34.9579C554.794 35.3539 555.312 35.552 555.962 35.552C556.439 35.552 556.835 35.4403 557.15 35.2169C557.465 34.9934 557.683 34.6939 557.805 34.3181L559.48 34.4247C559.267 35.1762 558.846 35.7855 558.216 36.2527C557.597 36.7097 556.84 36.9382 555.946 36.9382ZM553.783 31.957H557.896C557.845 31.236 557.637 30.7029 557.272 30.3576C556.916 30.0123 556.459 29.8397 555.901 29.8397C555.322 29.8397 554.844 30.0225 554.469 30.388C554.103 30.7435 553.875 31.2665 553.783 31.957ZM561.086 36.7554V28.6515H562.564L562.625 30.8146L562.426 30.7079C562.518 30.1799 562.691 29.7533 562.944 29.4284C563.198 29.1034 563.508 28.8648 563.874 28.7124C564.239 28.5499 564.635 28.4687 565.062 28.4687C565.671 28.4687 566.174 28.6058 566.57 28.88C566.976 29.144 567.281 29.5096 567.484 29.9768C567.697 30.4337 567.804 30.9567 567.804 31.5457V36.7554H566.189V32.0332C566.189 31.5559 566.138 31.1548 566.037 30.8298C565.935 30.5048 565.768 30.256 565.534 30.0834C565.3 29.9107 564.996 29.8244 564.62 29.8244C564.051 29.8244 563.589 30.0123 563.234 30.388C562.878 30.7638 562.701 31.3122 562.701 32.0332V36.7554H561.086ZM572.461 36.7554C571.689 36.7554 571.12 36.5777 570.755 36.2222C570.389 35.8668 570.206 35.3133 570.206 34.5618V26.7474H571.821V34.44C571.821 34.8157 571.902 35.0747 572.065 35.2169C572.227 35.359 572.476 35.4301 572.811 35.4301H573.969V36.7554H572.461ZM568.973 29.9768V28.6515H573.969V29.9768H568.973ZM578.349 36.9382C577.587 36.9382 576.942 36.8214 576.414 36.5878C575.896 36.3542 575.495 36.0343 575.211 35.6281C574.926 35.2118 574.764 34.7345 574.723 34.1963L576.383 34.1201C576.465 34.5669 576.658 34.9224 576.962 35.1864C577.267 35.4504 577.729 35.5824 578.349 35.5824C578.856 35.5824 579.257 35.5012 579.552 35.3387C579.846 35.1762 579.994 34.9173 579.994 34.5618C579.994 34.3689 579.943 34.2064 579.841 34.0744C579.75 33.9322 579.567 33.8154 579.293 33.724C579.019 33.6225 578.613 33.526 578.074 33.4346C577.272 33.2823 576.642 33.1046 576.185 32.9015C575.728 32.6984 575.403 32.4394 575.211 32.1246C575.018 31.8098 574.921 31.429 574.921 30.9821C574.921 30.2408 575.195 29.6366 575.744 29.1694C576.302 28.7023 577.104 28.4687 578.15 28.4687C578.851 28.4687 579.44 28.5906 579.917 28.8343C580.395 29.0679 580.765 29.3878 581.029 29.794C581.304 30.19 581.476 30.6368 581.547 31.1345L579.887 31.2258C579.836 30.9415 579.735 30.6978 579.582 30.4947C579.44 30.2814 579.247 30.1189 579.004 30.0072C578.76 29.8854 578.47 29.8244 578.135 29.8244C577.617 29.8244 577.231 29.926 576.978 30.1291C576.724 30.3322 576.597 30.5962 576.597 30.9212C576.597 31.1649 576.653 31.3629 576.764 31.5153C576.886 31.6676 577.079 31.7945 577.343 31.8961C577.607 31.9875 577.958 32.0687 578.394 32.1398C579.237 32.282 579.897 32.4597 580.374 32.673C580.852 32.8761 581.187 33.13 581.38 33.4346C581.573 33.7393 581.669 34.1099 581.669 34.5466C581.669 35.0544 581.527 35.486 581.243 35.8414C580.958 36.1968 580.567 36.471 580.07 36.664C579.572 36.8468 578.998 36.9382 578.349 36.9382Z" fill="black"/>
<rect x="368.982" y="57.623" width="264.036" height="10.1552" rx="5.07762" fill="url(#paint0_linear_11886_4)"/>
<path d="M411.19 81.7417C411.19 78.9374 413.464 76.6641 416.268 76.6641H585.733C588.538 76.6641 590.811 78.9374 590.811 81.7417C590.811 84.546 588.538 86.8193 585.733 86.8193H416.268C413.464 86.8193 411.19 84.546 411.19 81.7417Z" fill="url(#paint1_linear_11886_4)"/>
<path d="M437.53 100.783C437.53 97.9784 439.804 95.7051 442.608 95.7051H559.393C562.197 95.7051 564.471 97.9784 564.471 100.783C564.471 103.587 562.197 105.86 559.393 105.86H442.608C439.804 105.86 437.53 103.587 437.53 100.783Z" fill="url(#paint2_linear_11886_4)"/>
<rect x="1" y="178" width="56" height="56" rx="28" fill="#03F7B5" fill-opacity="0.2"/>
<rect x="1.5" y="178.5" width="55" height="55" rx="27.5" stroke="#03F7B5" stroke-opacity="0.5" stroke-dasharray="3 3"/>
<g clip-path="url(#clip0_11886_4)">
<path fill-rule="evenodd" clip-rule="evenodd" d="M18.2002 203V212.6H21.2002C21.5154 212.6 21.8274 212.662 22.1187 212.783C22.4098 212.903 22.6744 213.08 22.8972 213.303C23.1201 213.526 23.2969 213.79 23.4175 214.082C23.5381 214.373 23.6002 214.685 23.6002 215V218H30.8002L39.8002 209V199.4H36.8002C36.485 199.4 36.173 199.338 35.8817 199.217C35.5906 199.097 35.326 198.92 35.1032 198.697C34.8803 198.474 34.7035 198.21 34.5828 197.918C34.4623 197.627 34.4002 197.315 34.4002 197V194H27.2002L18.2002 203ZM28.4002 212H24.2002V205.4L29.6002 200H33.8002V206.6L28.4002 212Z" fill="#03F7B5"/>
</g>
<rect x="1" y="10" width="56" height="56" rx="28" fill="#03F7B5" fill-opacity="0.2"/>
<rect x="0.5" y="9.5" width="57" height="57" rx="28.5" stroke="#03F7B5" stroke-opacity="0.5" stroke-dasharray="3 3"/>
<path d="M26.3333 31.3333L25.6455 33.192C24.7437 35.6293 24.2927 36.8479 23.4037 37.737C22.5147 38.6259 21.2961 39.0769 18.8587 39.9789L17 40.6666L18.8587 41.3543C21.2961 42.2563 22.5147 42.7073 23.4037 43.5962C24.2927 44.4853 24.7437 45.7039 25.6455 48.1411L26.3333 49.9999L27.0211 48.1411C27.9231 45.7039 28.374 44.4853 29.2629 43.5962C30.152 42.7073 31.3707 42.2563 33.8079 41.3543L35.6667 40.6666L33.8079 39.9789C31.3707 39.0769 30.152 38.6259 29.2629 37.737C28.374 36.8479 27.9231 35.6293 27.0211 33.192L26.3333 31.3333Z" stroke="white" stroke-width="1.5" stroke-linejoin="round"/>
<path d="M37 26L36.7052 26.7966C36.3187 27.8412 36.1255 28.3635 35.7444 28.7444C35.3635 29.1254 34.8412 29.3187 33.7967 29.7052L33 30L33.7967 30.2948C34.8412 30.6813 35.3635 30.8746 35.7444 31.2556C36.1255 31.6365 36.3187 32.1588 36.7052 33.2034L37 34L37.2948 33.2034C37.6813 32.1588 37.8745 31.6365 38.2556 31.2555C38.6365 30.8746 39.1588 30.6813 40.2033 30.2948L41 30L40.2033 29.7052C39.1588 29.3187 38.6365 29.1254 38.2556 28.7444C37.8745 28.3635 37.6813 27.8412 37.2948 26.7966L37 26Z" stroke="white" stroke-width="1.5" stroke-linejoin="round"/>
<path d="M58 34H120.386C133.641 34 144.386 44.7452 144.386 58V96C144.386 109.255 155.131 120 168.386 120H192" stroke="url(#paint3_linear_11886_4)" stroke-dasharray="3 3"/>
<path d="M58 206H121.03C134.285 206 145.03 195.255 145.03 182V144C145.03 130.745 155.776 120 169.03 120H193" stroke="url(#paint4_linear_11886_4)" stroke-dasharray="3 3"/>
<rect x="196" y="100" width="40" height="40" rx="20" fill="#03F7B5"/>
<path d="M210.167 121.664L213.084 124.581L221.834 115.414" stroke="black" stroke-width="1.5" stroke-linecap="round" stroke-linejoin="round"/>
<rect x="331" y="11.7034" width="339.293" height="139.632" rx="16.9647" fill="#04050E"/>
<rect x="331.5" y="12.2034" width="338.293" height="138.632" rx="16.4647" stroke="#03F7B5" stroke-opacity="0.5" stroke-dasharray="3 3"/>
<path d="M411.553 51.323V39.2781H415.879C417.327 39.2781 418.418 39.5382 419.153 40.0585C419.888 40.5787 420.256 41.4043 420.256 42.5353C420.256 43.0442 420.148 43.491 419.933 43.8755C419.719 44.26 419.402 44.5654 418.983 44.7916C418.576 45.0065 418.09 45.1196 417.524 45.1309L417.508 45.063C418.537 45.0857 419.334 45.3684 419.9 45.9113C420.476 46.4428 420.765 47.144 420.765 48.0149C420.765 49.1119 420.397 49.9376 419.662 50.4917C418.927 51.0459 417.881 51.323 416.524 51.323H411.553ZM413.385 49.6774H416.473C417.23 49.6774 417.819 49.5247 418.237 49.2194C418.667 48.9027 418.882 48.4447 418.882 47.8452C418.882 47.2571 418.667 46.7991 418.237 46.4711C417.819 46.1431 417.23 45.9791 416.473 45.9791H413.385V49.6774ZM413.385 44.4184H415.845C416.648 44.4184 417.27 44.2657 417.711 43.9603C418.152 43.655 418.373 43.2252 418.373 42.671C418.373 42.0829 418.158 41.6475 417.728 41.3647C417.31 41.0707 416.682 40.9237 415.845 40.9237H413.385V44.4184ZM425.646 51.5266C424.742 51.5266 424.018 51.2269 423.475 50.6274C422.943 50.0167 422.678 49.1741 422.678 48.0997V42.2978H424.476V47.6417C424.476 48.456 424.617 49.0554 424.9 49.4399C425.183 49.8245 425.613 50.0167 426.189 50.0167C426.845 50.0167 427.354 49.8075 427.716 49.389C428.089 48.9593 428.276 48.3598 428.276 47.5908V42.2978H430.074V51.323H428.395L428.361 48.9649L428.615 49.0667C428.457 49.8584 428.123 50.4691 427.614 50.8989C427.105 51.3173 426.449 51.5266 425.646 51.5266ZM432.233 51.323V42.2978H434.031V51.323H432.233ZM432.199 40.9915V39.1933H434.065V40.9915H432.199ZM438.239 51.323C437.651 51.323 437.176 51.1703 436.814 50.865C436.452 50.5596 436.271 50.0733 436.271 49.406V39.2781H438.069V49.2363C438.069 49.4399 438.12 49.5926 438.222 49.6944C438.335 49.7962 438.494 49.8471 438.697 49.8471H439.41V51.323H438.239ZM443.98 51.5266C443.211 51.5266 442.538 51.3343 441.961 50.9498C441.396 50.5652 440.96 50.0224 440.655 49.3212C440.361 48.6087 440.214 47.7717 440.214 46.8104C440.214 45.8491 440.366 45.0178 440.672 44.3166C440.977 43.6041 441.412 43.0556 441.978 42.671C442.543 42.2865 443.211 42.0942 443.98 42.0942C444.602 42.0942 445.156 42.2243 445.642 42.4844C446.129 42.7445 446.496 43.1064 446.745 43.5701V39.2781H448.543V51.323H446.864L446.813 49.9658C446.564 50.4521 446.185 50.8367 445.676 51.1194C445.179 51.3909 444.613 51.5266 443.98 51.5266ZM444.455 49.9658C444.941 49.9658 445.354 49.8414 445.693 49.5926C446.033 49.3438 446.293 48.9819 446.474 48.5069C446.655 48.0319 446.745 47.4664 446.745 46.8104C446.745 46.1318 446.655 45.5607 446.474 45.097C446.293 44.622 446.033 44.2657 445.693 44.0282C445.354 43.7794 444.941 43.655 444.455 43.655C443.731 43.655 443.154 43.9377 442.724 44.5032C442.295 45.0574 442.08 45.8264 442.08 46.8104C442.08 47.783 442.295 48.5521 442.724 49.1176C443.154 49.6831 443.731 49.9658 444.455 49.9658ZM450.627 51.323V42.2978H452.425V51.323H450.627ZM450.593 40.9915V39.1933H452.459V40.9915H450.593ZM454.947 51.323V42.2978H456.592L456.66 44.7068L456.44 44.588C456.542 43.9999 456.734 43.5249 457.017 43.163C457.299 42.8011 457.644 42.5353 458.051 42.3657C458.459 42.1847 458.9 42.0942 459.375 42.0942C460.053 42.0942 460.613 42.2469 461.054 42.5523C461.507 42.8463 461.846 43.2535 462.072 43.7737C462.31 44.2827 462.428 44.8651 462.428 45.5211V51.323H460.63V46.064C460.63 45.5324 460.574 45.0857 460.46 44.7237C460.347 44.3618 460.161 44.0847 459.901 43.8925C459.64 43.7002 459.301 43.6041 458.883 43.6041C458.249 43.6041 457.735 43.8133 457.339 44.2318C456.943 44.6502 456.745 45.261 456.745 46.064V51.323H454.947ZM468.232 54.0713C467.519 54.0713 466.892 53.9638 466.349 53.7489C465.806 53.5341 465.359 53.2287 465.009 52.8329C464.658 52.4483 464.421 51.9959 464.296 51.4757L466.162 51.3569C466.287 51.7301 466.502 52.0242 466.807 52.2391C467.124 52.4653 467.599 52.5784 468.232 52.5784C468.978 52.5784 469.55 52.42 469.945 52.1034C470.353 51.7867 470.556 51.306 470.556 50.6614V49.3551C470.341 49.8188 469.996 50.1864 469.521 50.4578C469.046 50.7292 468.515 50.865 467.927 50.865C467.169 50.865 466.496 50.6783 465.908 50.3051C465.32 49.9319 464.862 49.4173 464.534 48.7613C464.206 48.1054 464.042 47.3476 464.042 46.4881C464.042 45.6172 464.2 44.8538 464.517 44.1978C464.845 43.5419 465.297 43.0273 465.874 42.6541C466.462 42.2808 467.124 42.0942 467.859 42.0942C468.503 42.0942 469.069 42.2413 469.555 42.5353C470.053 42.8294 470.409 43.2252 470.624 43.7228V42.2978H472.354V50.6105C472.354 51.3569 472.185 51.9846 471.845 52.4936C471.517 53.0138 471.042 53.404 470.42 53.6641C469.81 53.9356 469.08 54.0713 468.232 54.0713ZM468.215 49.3381C468.916 49.3381 469.476 49.0837 469.895 48.5747C470.324 48.0658 470.545 47.3646 470.556 46.4711C470.567 45.883 470.477 45.3797 470.285 44.9613C470.092 44.5315 469.815 44.2035 469.453 43.9773C469.103 43.7398 468.69 43.621 468.215 43.621C467.48 43.621 466.909 43.8812 466.502 44.4014C466.106 44.9104 465.908 45.6003 465.908 46.4711C465.908 47.3533 466.111 48.0545 466.519 48.5747C466.937 49.0837 467.502 49.3381 468.215 49.3381ZM481.542 51.323V46.4881L477.318 39.2781H479.422L482.458 44.6559L485.512 39.2781H487.616L483.374 46.4881V51.323H481.542ZM491.118 51.5266C490.258 51.5266 489.506 51.3343 488.861 50.9498C488.217 50.5652 487.719 50.0167 487.369 49.3042C487.018 48.5917 486.843 47.7604 486.843 46.8104C486.843 45.8491 487.018 45.0178 487.369 44.3166C487.719 43.6154 488.217 43.0725 488.861 42.688C489.506 42.2921 490.258 42.0942 491.118 42.0942C491.977 42.0942 492.729 42.2921 493.374 42.688C494.019 43.0725 494.516 43.6154 494.867 44.3166C495.217 45.0178 495.393 45.8491 495.393 46.8104C495.393 47.7604 495.217 48.5917 494.867 49.3042C494.516 50.0167 494.019 50.5652 493.374 50.9498C492.729 51.3343 491.977 51.5266 491.118 51.5266ZM491.118 49.9658C491.887 49.9658 492.481 49.6887 492.899 49.1346C493.317 48.5691 493.527 47.7943 493.527 46.8104C493.527 45.8264 493.317 45.0574 492.899 44.5032C492.481 43.9377 491.887 43.655 491.118 43.655C490.36 43.655 489.766 43.9377 489.336 44.5032C488.918 45.0574 488.709 45.8264 488.709 46.8104C488.709 47.7943 488.918 48.5691 489.336 49.1346C489.766 49.6887 490.36 49.9658 491.118 49.9658ZM500.009 51.5266C499.105 51.5266 498.381 51.2269 497.838 50.6274C497.306 50.0167 497.04 49.1741 497.04 48.0997V42.2978H498.839V47.6417C498.839 48.456 498.98 49.0554 499.263 49.4399C499.546 49.8245 499.975 50.0167 500.552 50.0167C501.208 50.0167 501.717 49.8075 502.079 49.389C502.452 48.9593 502.639 48.3598 502.639 47.5908V42.2978H504.437V51.323H502.758L502.724 48.9649L502.978 49.0667C502.82 49.8584 502.486 50.4691 501.977 50.8989C501.468 51.3173 500.812 51.5266 500.009 51.5266ZM506.811 51.323V42.2978H508.457L508.525 44.6898L508.372 44.6389C508.496 43.8246 508.745 43.2309 509.118 42.8576C509.503 42.4844 510.017 42.2978 510.662 42.2978H511.527V43.9094H510.662C510.21 43.9094 509.831 43.983 509.525 44.13C509.22 44.277 508.988 44.5032 508.83 44.8086C508.683 45.1139 508.609 45.5098 508.609 45.9961V51.323H506.811ZM516.34 51.323L520.683 39.2781H523.008L527.351 51.323H525.4L524.297 48.1845H519.377L518.291 51.323H516.34ZM519.954 46.522H523.737L521.837 41.0254L519.954 46.522ZM528.606 51.323V39.2781H530.438V51.323H528.606ZM536.027 51.323L540.37 39.2781H542.694L547.037 51.323H545.086L543.983 48.1845H539.063L537.978 51.323H536.027ZM539.64 46.522H543.423L541.523 41.0254L539.64 46.522ZM551.786 54.0713C551.073 54.0713 550.445 53.9638 549.903 53.7489C549.36 53.5341 548.913 53.2287 548.562 52.8329C548.212 52.4483 547.974 51.9959 547.85 51.4757L549.716 51.3569C549.84 51.7301 550.055 52.0242 550.361 52.2391C550.677 52.4653 551.152 52.5784 551.786 52.5784C552.532 52.5784 553.103 52.42 553.499 52.1034C553.906 51.7867 554.11 51.306 554.11 50.6614V49.3551C553.895 49.8188 553.55 50.1864 553.075 50.4578C552.6 50.7292 552.068 50.865 551.48 50.865C550.722 50.865 550.05 50.6783 549.461 50.3051C548.873 49.9319 548.415 49.4173 548.087 48.7613C547.759 48.1054 547.595 47.3476 547.595 46.4881C547.595 45.6172 547.754 44.8538 548.07 44.1978C548.398 43.5419 548.851 43.0273 549.427 42.6541C550.016 42.2808 550.677 42.0942 551.412 42.0942C552.057 42.0942 552.623 42.2413 553.109 42.5353C553.606 42.8294 553.963 43.2252 554.178 43.7228V42.2978H555.908V50.6105C555.908 51.3569 555.738 51.9846 555.399 52.4936C555.071 53.0138 554.596 53.404 553.974 53.6641C553.363 53.9356 552.634 54.0713 551.786 54.0713ZM551.769 49.3381C552.47 49.3381 553.03 49.0837 553.448 48.5747C553.878 48.0658 554.098 47.3646 554.11 46.4711C554.121 45.883 554.031 45.3797 553.838 44.9613C553.646 44.5315 553.369 44.2035 553.007 43.9773C552.656 43.7398 552.244 43.621 551.769 43.621C551.033 43.621 550.462 43.8812 550.055 44.4014C549.659 44.9104 549.461 45.6003 549.461 46.4711C549.461 47.3533 549.665 48.0545 550.072 48.5747C550.491 49.0837 551.056 49.3381 551.769 49.3381ZM561.84 51.5266C560.958 51.5266 560.194 51.3343 559.55 50.9498C558.916 50.5652 558.424 50.0167 558.074 49.3042C557.734 48.5917 557.565 47.7604 557.565 46.8104C557.565 45.8604 557.734 45.0348 558.074 44.3336C558.424 43.621 558.916 43.0725 559.55 42.688C560.183 42.2921 560.929 42.0942 561.789 42.0942C562.603 42.0942 563.321 42.2865 563.943 42.671C564.565 43.0442 565.046 43.5871 565.385 44.2996C565.736 45.0121 565.911 45.8717 565.911 46.8783V47.3363H559.431C559.476 48.2185 559.708 48.8801 560.126 49.3212C560.556 49.7622 561.133 49.9828 561.857 49.9828C562.388 49.9828 562.829 49.8584 563.18 49.6096C563.531 49.3608 563.774 49.0271 563.909 48.6087L565.776 48.7274C565.538 49.5643 565.069 50.2429 564.368 50.7632C563.678 51.2721 562.835 51.5266 561.84 51.5266ZM559.431 45.9791H564.011C563.955 45.1761 563.723 44.5824 563.316 44.1978C562.92 43.8133 562.411 43.621 561.789 43.621C561.144 43.621 560.613 43.8246 560.194 44.2318C559.787 44.6276 559.533 45.2101 559.431 45.9791ZM567.564 51.323V42.2978H569.209L569.277 44.7068L569.057 44.588C569.158 43.9999 569.351 43.5249 569.633 43.163C569.916 42.8011 570.261 42.5353 570.668 42.3657C571.075 42.1847 571.517 42.0942 571.992 42.0942C572.67 42.0942 573.23 42.2469 573.671 42.5523C574.123 42.8463 574.463 43.2535 574.689 43.7737C574.926 44.2827 575.045 44.8651 575.045 45.5211V51.323H573.247V46.064C573.247 45.5324 573.19 45.0857 573.077 44.7237C572.964 44.3618 572.778 44.0847 572.517 43.8925C572.257 43.7002 571.918 43.6041 571.5 43.6041C570.866 43.6041 570.352 43.8133 569.956 44.2318C569.56 44.6502 569.362 45.261 569.362 46.064V51.323H567.564ZM580.232 51.323C579.372 51.323 578.739 51.1251 578.332 50.7292C577.925 50.3334 577.721 49.717 577.721 48.8801V40.1772H579.519V48.7444C579.519 49.1628 579.61 49.4512 579.791 49.6096C579.972 49.7679 580.249 49.8471 580.622 49.8471H581.911V51.323H580.232ZM576.347 43.7737V42.2978H581.911V43.7737H576.347ZM586.789 51.5266C585.941 51.5266 585.222 51.3965 584.634 51.1364C584.058 50.8763 583.611 50.52 583.294 50.0676C582.977 49.6039 582.796 49.0724 582.751 48.4729L584.6 48.3881C584.691 48.8857 584.906 49.2816 585.245 49.5756C585.584 49.8697 586.099 50.0167 586.789 50.0167C587.354 50.0167 587.801 49.9262 588.129 49.7453C588.457 49.5643 588.621 49.2759 588.621 48.8801C588.621 48.6652 588.564 48.4842 588.451 48.3372C588.35 48.1789 588.146 48.0488 587.841 47.947C587.535 47.8339 587.083 47.7265 586.483 47.6247C585.59 47.4551 584.889 47.2571 584.38 47.0309C583.871 46.8047 583.509 46.5163 583.294 46.1657C583.079 45.8151 582.972 45.391 582.972 44.8934C582.972 44.0678 583.277 43.3948 583.888 42.8746C584.51 42.3543 585.403 42.0942 586.568 42.0942C587.349 42.0942 588.005 42.2299 588.536 42.5014C589.068 42.7615 589.481 43.1178 589.775 43.5701C590.08 44.0112 590.272 44.5089 590.351 45.063L588.502 45.1648C588.446 44.8482 588.333 44.5767 588.163 44.3505C588.005 44.113 587.79 43.9321 587.518 43.8077C587.247 43.6719 586.925 43.6041 586.551 43.6041C585.975 43.6041 585.545 43.7172 585.262 43.9434C584.979 44.1696 584.838 44.4636 584.838 44.8255C584.838 45.097 584.9 45.3175 585.025 45.4872C585.16 45.6568 585.375 45.7982 585.669 45.9113C585.963 46.0131 586.353 46.1035 586.84 46.1827C587.778 46.341 588.514 46.539 589.045 46.7765C589.577 47.0027 589.95 47.2854 590.165 47.6247C590.38 47.964 590.487 48.3768 590.487 48.8631C590.487 49.4286 590.329 49.9093 590.012 50.3051C589.695 50.701 589.26 51.0063 588.706 51.2212C588.152 51.4248 587.513 51.5266 586.789 51.5266Z" fill="white"/>
<path d="M353.619 80.6493C353.619 77.5262 356.151 74.9944 359.274 74.9944H642.018C645.141 74.9944 647.673 77.5262 647.673 80.6493C647.673 83.7724 645.141 86.3042 642.018 86.3042H359.274C356.151 86.3042 353.619 83.7724 353.619 80.6493Z" fill="url(#paint5_linear_11886_4)"/>
<path d="M371.997 101.855C371.997 98.7317 374.529 96.2 377.652 96.2H623.639C626.763 96.2 629.294 98.7317 629.294 101.855C629.294 104.978 626.763 107.51 623.639 107.51H377.652C374.529 107.51 371.997 104.978 371.997 101.855Z" fill="url(#paint6_linear_11886_4)"/>
<path d="M429.96 123.061C429.96 119.938 432.492 117.406 435.615 117.406H565.677C568.8 117.406 571.332 119.938 571.332 123.061C571.332 126.184 568.8 128.716 565.677 128.716H435.615C432.492 128.716 429.96 126.184 429.96 123.061Z" fill="url(#paint7_linear_11886_4)"/>
<rect x="415.707" y="188.023" width="170.031" height="45.2391" rx="12" fill="#03F7B5"/>
<rect x="432.672" y="199.333" width="22.6195" height="22.6195" rx="11.3098" fill="black"/>
<path d="M439.858 211.819L441.92 213.88L448.105 207.401" stroke="#03F7B5" stroke-width="1.06029" stroke-linecap="round" stroke-linejoin="round"/>
<path d="M468.125 215.346C467.404 215.346 466.776 215.214 466.242 214.951C465.716 214.689 465.3 214.324 464.995 213.857C464.69 213.391 464.511 212.848 464.461 212.229L465.873 212.14C465.932 212.564 466.055 212.924 466.242 213.221C466.428 213.509 466.679 213.73 466.992 213.883C467.315 214.027 467.701 214.099 468.15 214.099C468.541 214.099 468.871 214.052 469.143 213.959C469.423 213.857 469.635 213.709 469.779 213.514C469.923 213.319 469.995 213.081 469.995 212.801C469.995 212.547 469.932 212.322 469.804 212.127C469.686 211.923 469.452 211.741 469.105 211.58C468.765 211.41 468.265 211.245 467.603 211.084C466.882 210.905 466.305 210.71 465.873 210.498C465.44 210.286 465.126 210.023 464.931 209.709C464.745 209.387 464.651 208.993 464.651 208.526C464.651 208.009 464.774 207.555 465.02 207.165C465.275 206.766 465.635 206.456 466.102 206.236C466.568 206.015 467.128 205.905 467.781 205.905C468.468 205.905 469.054 206.032 469.537 206.287C470.029 206.541 470.415 206.889 470.695 207.33C470.983 207.771 471.162 208.276 471.229 208.844L469.817 208.921C469.775 208.573 469.669 208.267 469.499 208.004C469.329 207.733 469.1 207.525 468.812 207.381C468.524 207.228 468.172 207.152 467.756 207.152C467.23 207.152 466.814 207.275 466.509 207.521C466.212 207.758 466.064 208.077 466.064 208.475C466.064 208.73 466.123 208.946 466.242 209.124C466.369 209.294 466.59 209.442 466.903 209.569C467.226 209.697 467.68 209.832 468.265 209.977C469.045 210.155 469.664 210.375 470.122 210.638C470.589 210.893 470.92 211.194 471.115 211.542C471.31 211.889 471.408 212.284 471.408 212.725C471.408 213.259 471.268 213.726 470.988 214.124C470.716 214.515 470.335 214.816 469.843 215.028C469.351 215.24 468.778 215.346 468.125 215.346ZM475.988 215.295C475.327 215.295 474.754 215.151 474.271 214.862C473.796 214.574 473.427 214.163 473.164 213.628C472.909 213.094 472.782 212.47 472.782 211.758C472.782 211.045 472.909 210.426 473.164 209.9C473.427 209.366 473.796 208.954 474.271 208.666C474.746 208.369 475.305 208.221 475.95 208.221C476.561 208.221 477.099 208.365 477.566 208.653C478.032 208.933 478.393 209.34 478.647 209.875C478.91 210.409 479.042 211.054 479.042 211.809V212.152H474.181C474.215 212.814 474.389 213.31 474.703 213.641C475.025 213.972 475.458 214.137 476.001 214.137C476.4 214.137 476.73 214.044 476.993 213.857C477.256 213.671 477.439 213.42 477.54 213.107L478.94 213.196C478.762 213.823 478.41 214.332 477.884 214.722C477.367 215.104 476.735 215.295 475.988 215.295ZM474.181 211.134H477.617C477.574 210.532 477.4 210.087 477.095 209.798C476.798 209.51 476.417 209.366 475.95 209.366C475.467 209.366 475.068 209.519 474.754 209.824C474.449 210.121 474.258 210.558 474.181 211.134ZM482.755 215.142C482.111 215.142 481.636 214.994 481.33 214.697C481.025 214.4 480.872 213.938 480.872 213.31V206.783H482.221V213.208C482.221 213.522 482.289 213.739 482.425 213.857C482.56 213.976 482.768 214.035 483.048 214.035H484.015V215.142H482.755ZM479.842 209.48V208.373H484.015V209.48H479.842ZM487.555 215.295C486.877 215.295 486.334 215.07 485.927 214.621C485.528 214.163 485.329 213.531 485.329 212.725V208.373H486.678V212.381C486.678 212.992 486.784 213.442 486.996 213.73C487.208 214.018 487.53 214.163 487.963 214.163C488.455 214.163 488.836 214.006 489.108 213.692C489.388 213.37 489.528 212.92 489.528 212.343V208.373H490.876V215.142H489.617L489.591 213.374L489.782 213.45C489.663 214.044 489.413 214.502 489.031 214.824C488.65 215.138 488.158 215.295 487.555 215.295ZM492.784 217.051V208.373H494.056L494.095 209.824L493.942 209.748C494.111 209.247 494.391 208.87 494.782 208.615C495.172 208.352 495.621 208.221 496.13 208.221C496.792 208.221 497.335 208.386 497.759 208.717C498.191 209.039 498.51 209.468 498.713 210.002C498.925 210.536 499.031 211.122 499.031 211.758C499.031 212.394 498.925 212.979 498.713 213.514C498.51 214.048 498.191 214.481 497.759 214.812C497.335 215.134 496.792 215.295 496.13 215.295C495.791 215.295 495.473 215.236 495.176 215.117C494.879 214.998 494.625 214.833 494.413 214.621C494.209 214.4 494.065 214.141 493.98 213.845L494.133 213.692V217.051H492.784ZM495.889 214.124C496.431 214.124 496.856 213.917 497.161 213.501C497.475 213.085 497.632 212.504 497.632 211.758C497.632 211.011 497.475 210.43 497.161 210.015C496.856 209.599 496.431 209.391 495.889 209.391C495.532 209.391 495.223 209.48 494.96 209.659C494.697 209.828 494.493 210.091 494.349 210.447C494.205 210.804 494.133 211.24 494.133 211.758C494.133 212.275 494.201 212.712 494.336 213.068C494.48 213.425 494.684 213.692 494.947 213.87C495.218 214.04 495.532 214.124 495.889 214.124ZM507.347 215.346C506.533 215.346 505.816 215.159 505.197 214.786C504.577 214.404 504.094 213.862 503.746 213.157C503.398 212.453 503.224 211.614 503.224 210.638C503.224 209.671 503.394 208.836 503.733 208.132C504.081 207.419 504.565 206.872 505.184 206.49C505.803 206.1 506.528 205.905 507.36 205.905C508.479 205.905 509.349 206.185 509.968 206.745C510.587 207.305 510.99 208.081 511.177 209.073L509.739 209.15C509.62 208.53 509.366 208.047 508.975 207.699C508.585 207.343 508.047 207.165 507.36 207.165C506.808 207.165 506.329 207.305 505.922 207.585C505.523 207.864 505.209 208.263 504.98 208.781C504.76 209.298 504.649 209.917 504.649 210.638C504.649 211.359 504.76 211.978 504.98 212.496C505.209 213.013 505.527 213.408 505.935 213.679C506.342 213.951 506.812 214.086 507.347 214.086C508.076 214.086 508.64 213.895 509.039 213.514C509.446 213.124 509.701 212.589 509.802 211.911L511.24 211.987C511.13 212.674 510.909 213.268 510.579 213.768C510.248 214.269 509.811 214.659 509.268 214.939C508.725 215.21 508.085 215.346 507.347 215.346ZM515.376 215.295C514.732 215.295 514.168 215.151 513.684 214.862C513.201 214.574 512.827 214.163 512.564 213.628C512.302 213.094 512.17 212.47 512.17 211.758C512.17 211.037 512.302 210.413 512.564 209.888C512.827 209.362 513.201 208.954 513.684 208.666C514.168 208.369 514.732 208.221 515.376 208.221C516.021 208.221 516.585 208.369 517.069 208.666C517.552 208.954 517.925 209.362 518.188 209.888C518.451 210.413 518.583 211.037 518.583 211.758C518.583 212.47 518.451 213.094 518.188 213.628C517.925 214.163 517.552 214.574 517.069 214.862C516.585 215.151 516.021 215.295 515.376 215.295ZM515.376 214.124C515.953 214.124 516.398 213.917 516.712 213.501C517.026 213.077 517.183 212.496 517.183 211.758C517.183 211.02 517.026 210.443 516.712 210.027C516.398 209.603 515.953 209.391 515.376 209.391C514.808 209.391 514.363 209.603 514.04 210.027C513.727 210.443 513.57 211.02 513.57 211.758C513.57 212.496 513.727 213.077 514.04 213.501C514.363 213.917 514.808 214.124 515.376 214.124ZM519.946 215.142V208.373H521.18L521.218 210.053L521.065 210.002C521.142 209.629 521.273 209.311 521.46 209.048C521.655 208.785 521.892 208.581 522.172 208.437C522.452 208.293 522.758 208.221 523.088 208.221C523.665 208.221 524.136 208.386 524.501 208.717C524.865 209.039 525.094 209.485 525.188 210.053H524.971C525.048 209.654 525.175 209.323 525.353 209.061C525.54 208.789 525.777 208.581 526.066 208.437C526.354 208.293 526.681 208.221 527.045 208.221C527.52 208.221 527.923 208.323 528.254 208.526C528.593 208.721 528.848 209.01 529.018 209.391C529.196 209.773 529.285 210.24 529.285 210.791V215.142H527.936V211.122C527.936 210.536 527.83 210.095 527.618 209.798C527.406 209.502 527.084 209.353 526.651 209.353C526.371 209.353 526.125 209.425 525.913 209.569C525.701 209.714 525.536 209.921 525.417 210.193C525.306 210.464 525.251 210.791 525.251 211.173V215.142H523.966V211.173C523.966 210.596 523.869 210.15 523.674 209.837C523.487 209.514 523.165 209.353 522.707 209.353C522.418 209.353 522.168 209.425 521.956 209.569C521.752 209.714 521.591 209.926 521.472 210.206C521.354 210.477 521.294 210.799 521.294 211.173V215.142H519.946ZM530.967 217.051V208.373H532.239L532.277 209.824L532.125 209.748C532.294 209.247 532.574 208.87 532.964 208.615C533.355 208.352 533.804 208.221 534.313 208.221C534.975 208.221 535.518 208.386 535.942 208.717C536.374 209.039 536.692 209.468 536.896 210.002C537.108 210.536 537.214 211.122 537.214 211.758C537.214 212.394 537.108 212.979 536.896 213.514C536.692 214.048 536.374 214.481 535.942 214.812C535.518 215.134 534.975 215.295 534.313 215.295C533.974 215.295 533.656 215.236 533.359 215.117C533.062 214.998 532.808 214.833 532.596 214.621C532.392 214.4 532.248 214.141 532.163 213.845L532.316 213.692V217.051H530.967ZM534.071 214.124C534.614 214.124 535.038 213.917 535.344 213.501C535.658 213.085 535.815 212.504 535.815 211.758C535.815 211.011 535.658 210.43 535.344 210.015C535.038 209.599 534.614 209.391 534.071 209.391C533.715 209.391 533.406 209.48 533.143 209.659C532.88 209.828 532.676 210.091 532.532 210.447C532.388 210.804 532.316 211.24 532.316 211.758C532.316 212.275 532.383 212.712 532.519 213.068C532.663 213.425 532.867 213.692 533.13 213.87C533.401 214.04 533.715 214.124 534.071 214.124ZM540.122 215.142C539.681 215.142 539.324 215.028 539.053 214.799C538.781 214.57 538.646 214.205 538.646 213.705V206.109H539.994V213.577C539.994 213.73 540.033 213.845 540.109 213.921C540.194 213.997 540.312 214.035 540.465 214.035H541V215.142H540.122ZM544.936 215.295C544.274 215.295 543.702 215.151 543.218 214.862C542.743 214.574 542.374 214.163 542.111 213.628C541.857 213.094 541.73 212.47 541.73 211.758C541.73 211.045 541.857 210.426 542.111 209.9C542.374 209.366 542.743 208.954 543.218 208.666C543.693 208.369 544.253 208.221 544.898 208.221C545.509 208.221 546.047 208.365 546.514 208.653C546.98 208.933 547.341 209.34 547.595 209.875C547.858 210.409 547.99 211.054 547.99 211.809V212.152H543.129C543.163 212.814 543.337 213.31 543.651 213.641C543.973 213.972 544.406 214.137 544.949 214.137C545.347 214.137 545.678 214.044 545.941 213.857C546.204 213.671 546.387 213.42 546.488 213.107L547.888 213.196C547.71 213.823 547.358 214.332 546.832 214.722C546.314 215.104 545.683 215.295 544.936 215.295ZM543.129 211.134H546.565C546.522 210.532 546.348 210.087 546.043 209.798C545.746 209.51 545.364 209.366 544.898 209.366C544.414 209.366 544.016 209.519 543.702 209.824C543.397 210.121 543.206 210.558 543.129 211.134ZM551.703 215.142C551.059 215.142 550.584 214.994 550.278 214.697C549.973 214.4 549.82 213.938 549.82 213.31V206.783H551.169V213.208C551.169 213.522 551.237 213.739 551.373 213.857C551.508 213.976 551.716 214.035 551.996 214.035H552.963V215.142H551.703ZM548.79 209.48V208.373H552.963V209.48H548.79ZM556.926 215.295C556.265 215.295 555.692 215.151 555.209 214.862C554.734 214.574 554.365 214.163 554.102 213.628C553.847 213.094 553.72 212.47 553.72 211.758C553.72 211.045 553.847 210.426 554.102 209.9C554.365 209.366 554.734 208.954 555.209 208.666C555.684 208.369 556.244 208.221 556.888 208.221C557.499 208.221 558.038 208.365 558.504 208.653C558.971 208.933 559.331 209.34 559.586 209.875C559.849 210.409 559.98 211.054 559.98 211.809V212.152H555.12C555.154 212.814 555.328 213.31 555.641 213.641C555.964 213.972 556.396 214.137 556.939 214.137C557.338 214.137 557.669 214.044 557.932 213.857C558.195 213.671 558.377 213.42 558.479 213.107L559.878 213.196C559.7 213.823 559.348 214.332 558.822 214.722C558.305 215.104 557.673 215.295 556.926 215.295ZM555.12 211.134H558.555C558.513 210.532 558.339 210.087 558.033 209.798C557.737 209.51 557.355 209.366 556.888 209.366C556.405 209.366 556.006 209.519 555.692 209.824C555.387 210.121 555.196 210.558 555.12 211.134ZM563.751 215.295C563.175 215.295 562.67 215.151 562.237 214.862C561.813 214.574 561.487 214.167 561.258 213.641C561.037 213.107 560.927 212.479 560.927 211.758C560.927 211.037 561.041 210.413 561.27 209.888C561.499 209.353 561.826 208.942 562.25 208.653C562.674 208.365 563.175 208.221 563.751 208.221C564.218 208.221 564.634 208.318 564.998 208.513C565.363 208.708 565.639 208.98 565.825 209.328V206.109H567.174V215.142H565.914L565.876 214.124C565.69 214.489 565.406 214.778 565.024 214.99C564.651 215.193 564.226 215.295 563.751 215.295ZM564.108 214.124C564.472 214.124 564.782 214.031 565.037 213.845C565.291 213.658 565.486 213.386 565.622 213.03C565.758 212.674 565.825 212.25 565.825 211.758C565.825 211.249 565.758 210.821 565.622 210.473C565.486 210.117 565.291 209.849 565.037 209.671C564.782 209.485 564.472 209.391 564.108 209.391C563.565 209.391 563.132 209.603 562.81 210.027C562.488 210.443 562.326 211.02 562.326 211.758C562.326 212.487 562.488 213.064 562.81 213.488C563.132 213.912 563.565 214.124 564.108 214.124Z" fill="black"/>
<path d="M237 120H273.5C282.337 120 289.5 112.837 289.5 104V93C289.5 84.1634 296.663 77 305.5 77H330" stroke="url(#paint8_linear_11886_4)" stroke-dasharray="3 3"/>
<path d="M501 188L503.887 183H498.113L501 188ZM501 153H500.5V154.458H501H501.5V153H501ZM501 157.375H500.5V160.292H501H501.5V157.375H501ZM501 163.208H500.5V166.125H501H501.5V163.208H501ZM501 169.042H500.5V171.958H501H501.5V169.042H501ZM501 174.875H500.5V177.792H501H501.5V174.875H501ZM501 180.708H500.5V183.625H501H501.5V180.708H501Z" fill="#03F7B5"/>
<defs>
<linearGradient id="paint0_linear_11886_4" x1="368.982" y1="62.7007" x2="633.018" y2="62.7007" gradientUnits="userSpaceOnUse">
<stop stop-color="#E4E3E3"/>
<stop offset="0.615664" stop-color="#F2F2F2"/>
<stop offset="1" stop-color="#DFDFDF"/>
</linearGradient>
<linearGradient id="paint1_linear_11886_4" x1="411.19" y1="81.7417" x2="590.811" y2="81.7417" gradientUnits="userSpaceOnUse">
<stop stop-color="#DFDFDF"/>
<stop offset="0.384336" stop-color="#F2F2F2"/>
<stop offset="1" stop-color="#E4E3E3"/>
</linearGradient>
<linearGradient id="paint2_linear_11886_4" x1="437.53" y1="100.783" x2="564.471" y2="100.783" gradientUnits="userSpaceOnUse">
<stop stop-color="#E4E3E3"/>
<stop offset="0.615664" stop-color="#F2F2F2"/>
<stop offset="1" stop-color="#DFDFDF"/>
</linearGradient>
<linearGradient id="paint3_linear_11886_4" x1="213.766" y1="120" x2="78.3065" y2="10.2486" gradientUnits="userSpaceOnUse">
<stop stop-color="#03F7B5" stop-opacity="0.5"/>
<stop offset="1" stop-color="#03F7B5" stop-opacity="0.08"/>
</linearGradient>
<linearGradient id="paint4_linear_11886_4" x1="214.929" y1="120" x2="79.2635" y2="230.738" gradientUnits="userSpaceOnUse">
<stop stop-color="#03F7B5" stop-opacity="0.5"/>
<stop offset="1" stop-color="#03F7B5" stop-opacity="0.08"/>
</linearGradient>
<linearGradient id="paint5_linear_11886_4" x1="353.619" y1="80.6493" x2="647.673" y2="80.6493" gradientUnits="userSpaceOnUse">
<stop stop-color="#03F7B5" stop-opacity="0.12"/>
<stop offset="0.615664" stop-color="#03F7B5" stop-opacity="0.24"/>
<stop offset="1" stop-color="#03F7B5" stop-opacity="0.16"/>
</linearGradient>
<linearGradient id="paint6_linear_11886_4" x1="371.997" y1="101.855" x2="629.294" y2="101.855" gradientUnits="userSpaceOnUse">
<stop stop-color="#03F7B5" stop-opacity="0.12"/>
<stop offset="0.615664" stop-color="#03F7B5" stop-opacity="0.24"/>
<stop offset="1" stop-color="#03F7B5" stop-opacity="0.16"/>
</linearGradient>
<linearGradient id="paint7_linear_11886_4" x1="429.96" y1="123.061" x2="571.332" y2="123.061" gradientUnits="userSpaceOnUse">
<stop stop-color="#03F7B5" stop-opacity="0.12"/>
<stop offset="0.615664" stop-color="#03F7B5" stop-opacity="0.24"/>
<stop offset="1" stop-color="#03F7B5" stop-opacity="0.16"/>
</linearGradient>
<linearGradient id="paint8_linear_11886_4" x1="345.107" y1="120" x2="276.346" y2="42.6701" gradientUnits="userSpaceOnUse">
<stop stop-color="#03F7B5"/>
<stop offset="1" stop-color="#03F7B5" stop-opacity="0.08"/>
</linearGradient>
<clipPath id="clip0_11886_4">
<rect width="21.6" height="24" fill="white" transform="translate(18.2002 194)"/>
</clipPath>
</defs>
</svg>
