<svg width="1324" height="612" viewBox="0 0 1324 612" fill="none" xmlns="http://www.w3.org/2000/svg">
<g style="mix-blend-mode:soft-light" opacity="0.7">
<path d="M38.5894 8.90625H8.90515V38.5905M38.5894 8.90625V38.5905M38.5894 8.90625H68.2736M38.5894 38.5905H8.90515M38.5894 38.5905V68.2747M38.5894 38.5905H68.2736M8.90515 38.5905V68.2747M38.5894 68.2747H8.90515M38.5894 68.2747V97.9589M38.5894 68.2747H68.2736M8.90515 68.2747V97.9589M38.5894 97.9589H8.90515M38.5894 97.9589V127.643M38.5894 97.9589H68.2736M8.90515 97.9589V127.643M38.5894 127.643H8.90515M38.5894 127.643V157.327M38.5894 127.643H68.2736M8.90515 127.643V157.327M38.5894 157.327H8.90515M38.5894 157.327V187.011M38.5894 157.327H68.2736M8.90515 157.327V187.011M38.5894 187.011H8.90515M38.5894 187.011V216.696M38.5894 187.011H68.2736M8.90515 187.011V216.696M38.5894 216.696H8.90515M38.5894 216.696V246.38M38.5894 216.696H68.2736M8.90515 216.696V246.38M38.5894 246.38H8.90515M38.5894 246.38V276.064M38.5894 246.38H68.2736M8.90515 246.38V276.064M38.5894 276.064H8.90515M38.5894 276.064V305.748M38.5894 276.064H68.2736M8.90515 276.064V305.748M38.5894 305.748H8.90515M38.5894 305.748V335.433M38.5894 305.748H68.2736M8.90515 305.748V335.433M38.5894 335.433H8.90515M38.5894 335.433V365.117M38.5894 335.433H68.2736M8.90515 335.433V365.117M38.5894 365.117H8.90515M38.5894 365.117V394.801M38.5894 365.117H68.2736M8.90515 365.117V394.801M38.5894 394.801H8.90515M38.5894 394.801V424.485M38.5894 394.801H68.2736M8.90515 394.801V424.485M38.5894 424.485H8.90515M38.5894 424.485V454.169M38.5894 424.485H68.2736M8.90515 424.485V454.169M38.5894 454.169H8.90515M38.5894 454.169V483.854M38.5894 454.169H68.2736M8.90515 454.169V483.854M38.5894 483.854H8.90515M38.5894 483.854V513.538M38.5894 483.854H68.2736M8.90515 483.854V513.538M38.5894 513.538H8.90515M38.5894 513.538V543.222M38.5894 513.538H68.2736M8.90515 513.538V543.222M38.5894 543.222H8.90515M38.5894 543.222V572.906M38.5894 543.222H68.2736M8.90515 543.222V572.906M38.5894 572.906H8.90515M38.5894 572.906V602.59M38.5894 572.906H68.2736M8.90515 572.906V602.59H38.5894M38.5894 602.59H68.2736M68.2736 8.90625V38.5905M68.2736 8.90625H97.9578M68.2736 38.5905V68.2747M68.2736 38.5905H97.9578M68.2736 68.2747V97.9589M68.2736 68.2747H97.9578M68.2736 97.9589V127.643M68.2736 97.9589H97.9578M68.2736 127.643V157.327M68.2736 127.643H97.9578M68.2736 157.327V187.011M68.2736 157.327H97.9578M68.2736 187.011V216.696M68.2736 187.011H97.9578M68.2736 216.696V246.38M68.2736 216.696H97.9578M68.2736 246.38V276.064M68.2736 246.38H97.9578M68.2736 276.064V305.748M68.2736 276.064H97.9578M68.2736 305.748V335.433M68.2736 305.748H97.9578M68.2736 335.433V365.117M68.2736 335.433H97.9578M68.2736 365.117V394.801M68.2736 365.117H97.9578M68.2736 394.801V424.485M68.2736 394.801H97.9578M68.2736 424.485V454.169M68.2736 424.485H97.9578M68.2736 454.169V483.854M68.2736 454.169H97.9578M68.2736 483.854V513.538M68.2736 483.854H97.9578M68.2736 513.538V543.222M68.2736 513.538H97.9578M68.2736 543.222V572.906M68.2736 543.222H97.9578M68.2736 572.906V602.59M68.2736 572.906H97.9578M68.2736 602.59H97.9578M97.9578 8.90625V38.5905M97.9578 8.90625H127.642M97.9578 38.5905V68.2747M97.9578 38.5905H127.642M97.9578 68.2747V97.9589M97.9578 68.2747H127.642M97.9578 97.9589V127.643M97.9578 97.9589H127.642M97.9578 127.643V157.327M97.9578 127.643H127.642M97.9578 157.327V187.011M97.9578 157.327H127.642M97.9578 187.011V216.696M97.9578 187.011H127.642M97.9578 216.696V246.38M97.9578 216.696H127.642M97.9578 246.38V276.064M97.9578 246.38H127.642M97.9578 276.064V305.748M97.9578 276.064H127.642M97.9578 305.748V335.433M97.9578 305.748H127.642M97.9578 335.433V365.117M97.9578 335.433H127.642M97.9578 365.117V394.801M97.9578 365.117H127.642M97.9578 394.801V424.485M97.9578 394.801H127.642M97.9578 424.485V454.169M97.9578 424.485H127.642M97.9578 454.169V483.854M97.9578 454.169H127.642M97.9578 483.854V513.538M97.9578 483.854H127.642M97.9578 513.538V543.222M97.9578 513.538H127.642M97.9578 543.222V572.906M97.9578 543.222H127.642M97.9578 572.906V602.59M97.9578 572.906H127.642M97.9578 602.59H127.642M127.642 8.90625V38.5905M127.642 8.90625H157.326M127.642 38.5905V68.2747M127.642 38.5905H157.326M127.642 68.2747V97.9589M127.642 68.2747H157.326M127.642 97.9589V127.643M127.642 97.9589H157.326M127.642 127.643V157.327M127.642 127.643H157.326M127.642 157.327V187.011M127.642 157.327H157.326M127.642 187.011V216.696M127.642 187.011H157.326M127.642 216.696V246.38M127.642 216.696H157.326M127.642 246.38V276.064M127.642 246.38H157.326M127.642 276.064V305.748M127.642 276.064H157.326M127.642 305.748V335.433M127.642 305.748H157.326M127.642 335.433V365.117M127.642 335.433H157.326M127.642 365.117V394.801M127.642 365.117H157.326M127.642 394.801V424.485M127.642 394.801H157.326M127.642 424.485V454.169M127.642 424.485H157.326M127.642 454.169V483.854M127.642 454.169H157.326M127.642 483.854V513.538M127.642 483.854H157.326M127.642 513.538V543.222M127.642 513.538H157.326M127.642 543.222V572.906M127.642 543.222H157.326M127.642 572.906V602.59M127.642 572.906H157.326M127.642 602.59H157.326M157.326 8.90625V38.5905M157.326 8.90625H187.01M157.326 38.5905V68.2747M157.326 38.5905H187.01M157.326 68.2747V97.9589M157.326 68.2747H187.01M157.326 97.9589V127.643M157.326 97.9589H187.01M157.326 127.643V157.327M157.326 127.643H187.01M157.326 157.327V187.011M157.326 157.327H187.01M157.326 187.011V216.696M157.326 187.011H187.01M157.326 216.696V246.38M157.326 216.696H187.01M157.326 246.38V276.064M157.326 246.38H187.01M157.326 276.064V305.748M157.326 276.064H187.01M157.326 305.748V335.433M157.326 305.748H187.01M157.326 335.433V365.117M157.326 335.433H187.01M157.326 365.117V394.801M157.326 365.117H187.01M157.326 394.801V424.485M157.326 394.801H187.01M157.326 424.485V454.169M157.326 424.485H187.01M157.326 454.169V483.854M157.326 454.169H187.01M157.326 483.854V513.538M157.326 483.854H187.01M157.326 513.538V543.222M157.326 513.538H187.01M157.326 543.222V572.906M157.326 543.222H187.01M157.326 572.906V602.59M157.326 572.906H187.01M157.326 602.59H187.01M187.01 8.90625V38.5905M187.01 8.90625H216.695M187.01 38.5905V68.2747M187.01 38.5905H216.695M187.01 68.2747V97.9589M187.01 68.2747H216.695M187.01 97.9589V127.643M187.01 97.9589H216.695M187.01 127.643V157.327M187.01 127.643H216.695M187.01 157.327V187.011M187.01 157.327H216.695M187.01 187.011V216.696M187.01 187.011H216.695M187.01 216.696V246.38M187.01 216.696H216.695M187.01 246.38V276.064M187.01 246.38H216.695M187.01 276.064V305.748M187.01 276.064H216.695M187.01 305.748V335.433M187.01 305.748H216.695M187.01 335.433V365.117M187.01 335.433H216.695M187.01 365.117V394.801M187.01 365.117H216.695M187.01 394.801V424.485M187.01 394.801H216.695M187.01 424.485V454.169M187.01 424.485H216.695M187.01 454.169V483.854M187.01 454.169H216.695M187.01 483.854V513.538M187.01 483.854H216.695M187.01 513.538V543.222M187.01 513.538H216.695M187.01 543.222V572.906M187.01 543.222H216.695M187.01 572.906V602.59M187.01 572.906H216.695M187.01 602.59H216.695M216.695 8.90625V38.5905M216.695 8.90625H246.379M216.695 38.5905V68.2747M216.695 38.5905H246.379M216.695 68.2747V97.9589M216.695 68.2747H246.379M216.695 97.9589V127.643M216.695 97.9589H246.379M216.695 127.643V157.327M216.695 127.643H246.379M216.695 157.327V187.011M216.695 157.327H246.379M216.695 187.011V216.696M216.695 187.011H246.379M216.695 216.696V246.38M216.695 216.696H246.379M216.695 246.38V276.064M216.695 246.38H246.379M216.695 276.064V305.748M216.695 276.064H246.379M216.695 305.748V335.433M216.695 305.748H246.379M216.695 335.433V365.117M216.695 335.433H246.379M216.695 365.117V394.801M216.695 365.117H246.379M216.695 394.801V424.485M216.695 394.801H246.379M216.695 424.485V454.169M216.695 424.485H246.379M216.695 454.169V483.854M216.695 454.169H246.379M216.695 483.854V513.538M216.695 483.854H246.379M216.695 513.538V543.222M216.695 513.538H246.379M216.695 543.222V572.906M216.695 543.222H246.379M216.695 572.906V602.59M216.695 572.906H246.379M216.695 602.59H246.379M246.379 8.90625V38.5905M246.379 8.90625H276.063M246.379 38.5905V68.2747M246.379 38.5905H276.063M246.379 68.2747V97.9589M246.379 68.2747H276.063M246.379 97.9589V127.643M246.379 97.9589H276.063M246.379 127.643V157.327M246.379 127.643H276.063M246.379 157.327V187.011M246.379 157.327H276.063M246.379 187.011V216.696M246.379 187.011H276.063M246.379 216.696V246.38M246.379 216.696H276.063M246.379 246.38V276.064M246.379 246.38H276.063M246.379 276.064V305.748M246.379 276.064H276.063M246.379 305.748V335.433M246.379 305.748H276.063M246.379 335.433V365.117M246.379 335.433H276.063M246.379 365.117V394.801M246.379 365.117H276.063M246.379 394.801V424.485M246.379 394.801H276.063M246.379 424.485V454.169M246.379 424.485H276.063M246.379 454.169V483.854M246.379 454.169H276.063M246.379 483.854V513.538M246.379 483.854H276.063M246.379 513.538V543.222M246.379 513.538H276.063M246.379 543.222V572.906M246.379 543.222H276.063M246.379 572.906V602.59M246.379 572.906H276.063M246.379 602.59H276.063M276.063 8.90625V38.5905M276.063 8.90625H305.747M276.063 38.5905V68.2747M276.063 38.5905H305.747M276.063 68.2747V97.9589M276.063 68.2747H305.747M276.063 97.9589V127.643M276.063 97.9589H305.747M276.063 127.643V157.327M276.063 127.643H305.747M276.063 157.327V187.011M276.063 157.327H305.747M276.063 187.011V216.696M276.063 187.011H305.747M276.063 216.696V246.38M276.063 216.696H305.747M276.063 246.38V276.064M276.063 246.38H305.747M276.063 276.064V305.748M276.063 276.064H305.747M276.063 305.748V335.433M276.063 305.748H305.747M276.063 335.433V365.117M276.063 335.433H305.747M276.063 365.117V394.801M276.063 365.117H305.747M276.063 394.801V424.485M276.063 394.801H305.747M276.063 424.485V454.169M276.063 424.485H305.747M276.063 454.169V483.854M276.063 454.169H305.747M276.063 483.854V513.538M276.063 483.854H305.747M276.063 513.538V543.222M276.063 513.538H305.747M276.063 543.222V572.906M276.063 543.222H305.747M276.063 572.906V602.59M276.063 572.906H305.747M276.063 602.59H305.747M305.747 8.90625V38.5905M305.747 8.90625H335.431M305.747 38.5905V68.2747M305.747 38.5905H335.431M305.747 68.2747V97.9589M305.747 68.2747H335.431M305.747 97.9589V127.643M305.747 97.9589H335.431M305.747 127.643V157.327M305.747 127.643H335.431M305.747 157.327V187.011M305.747 157.327H335.431M305.747 187.011V216.696M305.747 187.011H335.431M305.747 216.696V246.38M305.747 216.696H335.431M305.747 246.38V276.064M305.747 246.38H335.431M305.747 276.064V305.748M305.747 276.064H335.431M305.747 305.748V335.433M305.747 305.748H335.431M305.747 335.433V365.117M305.747 335.433H335.431M305.747 365.117V394.801M305.747 365.117H335.431M305.747 394.801V424.485M305.747 394.801H335.431M305.747 424.485V454.169M305.747 424.485H335.431M305.747 454.169V483.854M305.747 454.169H335.431M305.747 483.854V513.538M305.747 483.854H335.431M305.747 513.538V543.222M305.747 513.538H335.431M305.747 543.222V572.906M305.747 543.222H335.431M305.747 572.906V602.59M305.747 572.906H335.431M305.747 602.59H335.431M335.431 8.90625V38.5905M335.431 8.90625H365.116M335.431 38.5905V68.2747M335.431 38.5905H365.116M335.431 68.2747V97.9589M335.431 68.2747H365.116M335.431 97.9589V127.643M335.431 97.9589H365.116M335.431 127.643V157.327M335.431 127.643H365.116M335.431 157.327V187.011M335.431 157.327H365.116M335.431 187.011V216.696M335.431 187.011H365.116M335.431 216.696V246.38M335.431 216.696H365.116M335.431 246.38V276.064M335.431 246.38H365.116M335.431 276.064V305.748M335.431 276.064H365.116M335.431 305.748V335.433M335.431 305.748H365.116M335.431 335.433V365.117M335.431 335.433H365.116M335.431 365.117V394.801M335.431 365.117H365.116M335.431 394.801V424.485M335.431 394.801H365.116M335.431 424.485V454.169M335.431 424.485H365.116M335.431 454.169V483.854M335.431 454.169H365.116M335.431 483.854V513.538M335.431 483.854H365.116M335.431 513.538V543.222M335.431 513.538H365.116M335.431 543.222V572.906M335.431 543.222H365.116M335.431 572.906V602.59M335.431 572.906H365.116M335.431 602.59H365.116M365.116 8.90625V38.5905M365.116 8.90625H394.8M365.116 38.5905V68.2747M365.116 38.5905H394.8M365.116 68.2747V97.9589M365.116 68.2747H394.8M365.116 97.9589V127.643M365.116 97.9589H394.8M365.116 127.643V157.327M365.116 127.643H394.8M365.116 157.327V187.011M365.116 157.327H394.8M365.116 187.011V216.696M365.116 187.011H394.8M365.116 216.696V246.38M365.116 216.696H394.8M365.116 246.38V276.064M365.116 246.38H394.8M365.116 276.064V305.748M365.116 276.064H394.8M365.116 305.748V335.433M365.116 305.748H394.8M365.116 335.433V365.117M365.116 335.433H394.8M365.116 365.117V394.801M365.116 365.117H394.8M365.116 394.801V424.485M365.116 394.801H394.8M365.116 424.485V454.169M365.116 424.485H394.8M365.116 454.169V483.854M365.116 454.169H394.8M365.116 483.854V513.538M365.116 483.854H394.8M365.116 513.538V543.222M365.116 513.538H394.8M365.116 543.222V572.906M365.116 543.222H394.8M365.116 572.906V602.59M365.116 572.906H394.8M365.116 602.59H394.8M394.8 8.90625V38.5905M394.8 8.90625H424.484M394.8 38.5905V68.2747M394.8 38.5905H424.484M394.8 68.2747V97.9589M394.8 68.2747H424.484M394.8 97.9589V127.643M394.8 97.9589H424.484M394.8 127.643V157.327M394.8 127.643H424.484M394.8 157.327V187.011M394.8 157.327H424.484M394.8 187.011V216.696M394.8 187.011H424.484M394.8 216.696V246.38M394.8 216.696H424.484M394.8 246.38V276.064M394.8 246.38H424.484M394.8 276.064V305.748M394.8 276.064H424.484M394.8 305.748V335.433M394.8 305.748H424.484M394.8 335.433V365.117M394.8 335.433H424.484M394.8 365.117V394.801M394.8 365.117H424.484M394.8 394.801V424.485M394.8 394.801H424.484M394.8 424.485V454.169M394.8 424.485H424.484M394.8 454.169V483.854M394.8 454.169H424.484M394.8 483.854V513.538M394.8 483.854H424.484M394.8 513.538V543.222M394.8 513.538H424.484M394.8 543.222V572.906M394.8 543.222H424.484M394.8 572.906V602.59M394.8 572.906H424.484M394.8 602.59H424.484M424.484 8.90625V38.5905M424.484 8.90625H454.168M424.484 38.5905V68.2747M424.484 38.5905H454.168M424.484 68.2747V97.9589M424.484 68.2747H454.168M424.484 97.9589V127.643M424.484 97.9589H454.168M424.484 127.643V157.327M424.484 127.643H454.168M424.484 157.327V187.011M424.484 157.327H454.168M424.484 187.011V216.696M424.484 187.011H454.168M424.484 216.696V246.38M424.484 216.696H454.168M424.484 246.38V276.064M424.484 246.38H454.168M424.484 276.064V305.748M424.484 276.064H454.168M424.484 305.748V335.433M424.484 305.748H454.168M424.484 335.433V365.117M424.484 335.433H454.168M424.484 365.117V394.801M424.484 365.117H454.168M424.484 394.801V424.485M424.484 394.801H454.168M424.484 424.485V454.169M424.484 424.485H454.168M424.484 454.169V483.854M424.484 454.169H454.168M424.484 483.854V513.538M424.484 483.854H454.168M424.484 513.538V543.222M424.484 513.538H454.168M424.484 543.222V572.906M424.484 543.222H454.168M424.484 572.906V602.59M424.484 572.906H454.168M424.484 602.59H454.168M454.168 8.90625V38.5905M454.168 8.90625H483.853M454.168 38.5905V68.2747M454.168 38.5905H483.853M454.168 68.2747V97.9589M454.168 68.2747H483.853M454.168 97.9589V127.643M454.168 97.9589H483.853M454.168 127.643V157.327M454.168 127.643H483.853M454.168 157.327V187.011M454.168 157.327H483.853M454.168 187.011V216.696M454.168 187.011H483.853M454.168 216.696V246.38M454.168 216.696H483.853M454.168 246.38V276.064M454.168 246.38H483.853M454.168 276.064V305.748M454.168 276.064H483.853M454.168 305.748V335.433M454.168 305.748H483.853M454.168 335.433V365.117M454.168 335.433H483.853M454.168 365.117V394.801M454.168 365.117H483.853M454.168 394.801V424.485M454.168 394.801H483.853M454.168 424.485V454.169M454.168 424.485H483.853M454.168 454.169V483.854M454.168 454.169H483.853M454.168 483.854V513.538M454.168 483.854H483.853M454.168 513.538V543.222M454.168 513.538H483.853M454.168 543.222V572.906M454.168 543.222H483.853M454.168 572.906V602.59M454.168 572.906H483.853M454.168 602.59H483.853M483.853 8.90625V38.5905M483.853 8.90625H513.537M483.853 38.5905V68.2747M483.853 38.5905H513.537M483.853 68.2747V97.9589M483.853 68.2747H513.537M483.853 97.9589V127.643M483.853 97.9589H513.537M483.853 127.643V157.327M483.853 127.643H513.537M483.853 157.327V187.011M483.853 157.327H513.537M483.853 187.011V216.696M483.853 187.011H513.537M483.853 216.696V246.38M483.853 216.696H513.537M483.853 246.38V276.064M483.853 246.38H513.537M483.853 276.064V305.748M483.853 276.064H513.537M483.853 305.748V335.433M483.853 305.748H513.537M483.853 335.433V365.117M483.853 335.433H513.537M483.853 365.117V394.801M483.853 365.117H513.537M483.853 394.801V424.485M483.853 394.801H513.537M483.853 424.485V454.169M483.853 424.485H513.537M483.853 454.169V483.854M483.853 454.169H513.537M483.853 483.854V513.538M483.853 483.854H513.537M483.853 513.538V543.222M483.853 513.538H513.537M483.853 543.222V572.906M483.853 543.222H513.537M483.853 572.906V602.59M483.853 572.906H513.537M483.853 602.59H513.537M513.537 8.90625V38.5905M513.537 8.90625H543.221M513.537 38.5905V68.2747M513.537 38.5905H543.221M513.537 68.2747V97.9589M513.537 68.2747H543.221M513.537 97.9589V127.643M513.537 97.9589H543.221M513.537 127.643V157.327M513.537 127.643H543.221M513.537 157.327V187.011M513.537 157.327H543.221M513.537 187.011V216.696M513.537 187.011H543.221M513.537 216.696V246.38M513.537 216.696H543.221M513.537 246.38V276.064M513.537 246.38H543.221M513.537 276.064V305.748M513.537 276.064H543.221M513.537 305.748V335.433M513.537 305.748H543.221M513.537 335.433V365.117M513.537 335.433H543.221M513.537 365.117V394.801M513.537 365.117H543.221M513.537 394.801V424.485M513.537 394.801H543.221M513.537 424.485V454.169M513.537 424.485H543.221M513.537 454.169V483.854M513.537 454.169H543.221M513.537 483.854V513.538M513.537 483.854H543.221M513.537 513.538V543.222M513.537 513.538H543.221M513.537 543.222V572.906M513.537 543.222H543.221M513.537 572.906V602.59M513.537 572.906H543.221M513.537 602.59H543.221M543.221 8.90625V38.5905M543.221 8.90625H572.905M543.221 38.5905V68.2747M543.221 38.5905H572.905M543.221 68.2747V97.9589M543.221 68.2747H572.905M543.221 97.9589V127.643M543.221 97.9589H572.905M543.221 127.643V157.327M543.221 127.643H572.905M543.221 157.327V187.011M543.221 157.327H572.905M543.221 187.011V216.696M543.221 187.011H572.905M543.221 216.696V246.38M543.221 216.696H572.905M543.221 246.38V276.064M543.221 246.38H572.905M543.221 276.064V305.748M543.221 276.064H572.905M543.221 305.748V335.433M543.221 305.748H572.905M543.221 335.433V365.117M543.221 335.433H572.905M543.221 365.117V394.801M543.221 365.117H572.905M543.221 394.801V424.485M543.221 394.801H572.905M543.221 424.485V454.169M543.221 424.485H572.905M543.221 454.169V483.854M543.221 454.169H572.905M543.221 483.854V513.538M543.221 483.854H572.905M543.221 513.538V543.222M543.221 513.538H572.905M543.221 543.222V572.906M543.221 543.222H572.905M543.221 572.906V602.59M543.221 572.906H572.905M543.221 602.59H572.905M572.905 8.90625V38.5905M572.905 8.90625H602.589M572.905 38.5905V68.2747M572.905 38.5905H602.589M572.905 68.2747V97.9589M572.905 68.2747H602.589M572.905 97.9589V127.643M572.905 97.9589H602.589M572.905 127.643V157.327M572.905 127.643H602.589M572.905 157.327V187.011M572.905 157.327H602.589M572.905 187.011V216.696M572.905 187.011H602.589M572.905 216.696V246.38M572.905 216.696H602.589M572.905 246.38V276.064M572.905 246.38H602.589M572.905 276.064V305.748M572.905 276.064H602.589M572.905 305.748V335.433M572.905 305.748H602.589M572.905 335.433V365.117M572.905 335.433H602.589M572.905 365.117V394.801M572.905 365.117H602.589M572.905 394.801V424.485M572.905 394.801H602.589M572.905 424.485V454.169M572.905 424.485H602.589M572.905 454.169V483.854M572.905 454.169H602.589M572.905 483.854V513.538M572.905 483.854H602.589M572.905 513.538V543.222M572.905 513.538H602.589M572.905 543.222V572.906M572.905 543.222H602.589M572.905 572.906V602.59M572.905 572.906H602.589M572.905 602.59H602.589M602.589 8.90625V38.5905M602.589 8.90625H632.274M602.589 38.5905V68.2747M602.589 38.5905H632.274M602.589 68.2747V97.9589M602.589 68.2747H632.274M602.589 97.9589V127.643M602.589 97.9589H632.274M602.589 127.643V157.327M602.589 127.643H632.274M602.589 157.327V187.011M602.589 157.327H632.274M602.589 187.011V216.696M602.589 187.011H632.274M602.589 216.696V246.38M602.589 216.696H632.274M602.589 246.38V276.064M602.589 246.38H632.274M602.589 276.064V305.748M602.589 276.064H632.274M602.589 305.748V335.433M602.589 305.748H632.274M602.589 335.433V365.117M602.589 335.433H632.274M602.589 365.117V394.801M602.589 365.117H632.274M602.589 394.801V424.485M602.589 394.801H632.274M602.589 424.485V454.169M602.589 424.485H632.274M602.589 454.169V483.854M602.589 454.169H632.274M602.589 483.854V513.538M602.589 483.854H632.274M602.589 513.538V543.222M602.589 513.538H632.274M602.589 543.222V572.906M602.589 543.222H632.274M602.589 572.906V602.59M602.589 572.906H632.274M602.589 602.59H632.274M632.274 8.90625V38.5905M632.274 8.90625H661.958M632.274 38.5905V68.2747M632.274 38.5905H661.958M632.274 68.2747V97.9589M632.274 68.2747H661.958M632.274 97.9589V127.643M632.274 97.9589H661.958M632.274 127.643V157.327M632.274 127.643H661.958M632.274 157.327V187.011M632.274 157.327H661.958M632.274 187.011V216.696M632.274 187.011H661.958M632.274 216.696V246.38M632.274 216.696H661.958M632.274 246.38V276.064M632.274 246.38H661.958M632.274 276.064V305.748M632.274 276.064H661.958M632.274 305.748V335.433M632.274 305.748H661.958M632.274 335.433V365.117M632.274 335.433H661.958M632.274 365.117V394.801M632.274 365.117H661.958M632.274 394.801V424.485M632.274 394.801H661.958M632.274 424.485V454.169M632.274 424.485H661.958M632.274 454.169V483.854M632.274 454.169H661.958M632.274 483.854V513.538M632.274 483.854H661.958M632.274 513.538V543.222M632.274 513.538H661.958M632.274 543.222V572.906M632.274 543.222H661.958M632.274 572.906V602.59M632.274 572.906H661.958M632.274 602.59H661.958M661.958 8.90625V38.5905M661.958 8.90625H691.642M661.958 38.5905V68.2747M661.958 38.5905H691.642M661.958 68.2747V97.9589M661.958 68.2747H691.642M661.958 97.9589V127.643M661.958 97.9589H691.642M661.958 127.643V157.327M661.958 127.643H691.642M661.958 157.327V187.011M661.958 157.327H691.642M661.958 187.011V216.696M661.958 187.011H691.642M661.958 216.696V246.38M661.958 216.696H691.642M661.958 246.38V276.064M661.958 246.38H691.642M661.958 276.064V305.748M661.958 276.064H691.642M661.958 305.748V335.433M661.958 305.748H691.642M661.958 335.433V365.117M661.958 335.433H691.642M661.958 365.117V394.801M661.958 365.117H691.642M661.958 394.801V424.485M661.958 394.801H691.642M661.958 424.485V454.169M661.958 424.485H691.642M661.958 454.169V483.854M661.958 454.169H691.642M661.958 483.854V513.538M661.958 483.854H691.642M661.958 513.538V543.222M661.958 513.538H691.642M661.958 543.222V572.906M661.958 543.222H691.642M661.958 572.906V602.59M661.958 572.906H691.642M661.958 602.59H691.642M691.642 8.90625V38.5905M691.642 8.90625H721.326M691.642 38.5905V68.2747M691.642 38.5905H721.326M691.642 68.2747V97.9589M691.642 68.2747H721.326M691.642 97.9589V127.643M691.642 97.9589H721.326M691.642 127.643V157.327M691.642 127.643H721.326M691.642 157.327V187.011M691.642 157.327H721.326M691.642 187.011V216.696M691.642 187.011H721.326M691.642 216.696V246.38M691.642 216.696H721.326M691.642 246.38V276.064M691.642 246.38H721.326M691.642 276.064V305.748M691.642 276.064H721.326M691.642 305.748V335.433M691.642 305.748H721.326M691.642 335.433V365.117M691.642 335.433H721.326M691.642 365.117V394.801M691.642 365.117H721.326M691.642 394.801V424.485M691.642 394.801H721.326M691.642 424.485V454.169M691.642 424.485H721.326M691.642 454.169V483.854M691.642 454.169H721.326M691.642 483.854V513.538M691.642 483.854H721.326M691.642 513.538V543.222M691.642 513.538H721.326M691.642 543.222V572.906M691.642 543.222H721.326M691.642 572.906V602.59M691.642 572.906H721.326M691.642 602.59H721.326M721.326 8.90625V38.5905M721.326 8.90625H751.01M721.326 38.5905V68.2747M721.326 38.5905H751.01M721.326 68.2747V97.9589M721.326 68.2747H751.01M721.326 97.9589V127.643M721.326 97.9589H751.01M721.326 127.643V157.327M721.326 127.643H751.01M721.326 157.327V187.011M721.326 157.327H751.01M721.326 187.011V216.696M721.326 187.011H751.01M721.326 216.696V246.38M721.326 216.696H751.01M721.326 246.38V276.064M721.326 246.38H751.01M721.326 276.064V305.748M721.326 276.064H751.01M721.326 305.748V335.433M721.326 305.748H751.01M721.326 335.433V365.117M721.326 335.433H751.01M721.326 365.117V394.801M721.326 365.117H751.01M721.326 394.801V424.485M721.326 394.801H751.01M721.326 424.485V454.169M721.326 424.485H751.01M721.326 454.169V483.854M721.326 454.169H751.01M721.326 483.854V513.538M721.326 483.854H751.01M721.326 513.538V543.222M721.326 513.538H751.01M721.326 543.222V572.906M721.326 543.222H751.01M721.326 572.906V602.59M721.326 572.906H751.01M721.326 602.59H751.01M751.01 8.90625V38.5905M751.01 8.90625H780.695M751.01 38.5905V68.2747M751.01 38.5905H780.695M751.01 68.2747V97.9589M751.01 68.2747H780.695M751.01 97.9589V127.643M751.01 97.9589H780.695M751.01 127.643V157.327M751.01 127.643H780.695M751.01 157.327V187.011M751.01 157.327H780.695M751.01 187.011V216.696M751.01 187.011H780.695M751.01 216.696V246.38M751.01 216.696H780.695M751.01 246.38V276.064M751.01 246.38H780.695M751.01 276.064V305.748M751.01 276.064H780.695M751.01 305.748V335.433M751.01 305.748H780.695M751.01 335.433V365.117M751.01 335.433H780.695M751.01 365.117V394.801M751.01 365.117H780.695M751.01 394.801V424.485M751.01 394.801H780.695M751.01 424.485V454.169M751.01 424.485H780.695M751.01 454.169V483.854M751.01 454.169H780.695M751.01 483.854V513.538M751.01 483.854H780.695M751.01 513.538V543.222M751.01 513.538H780.695M751.01 543.222V572.906M751.01 543.222H780.695M751.01 572.906V602.59M751.01 572.906H780.695M751.01 602.59H780.695M780.695 8.90625V38.5905M780.695 8.90625H810.379M780.695 38.5905V68.2747M780.695 38.5905H810.379M780.695 68.2747V97.9589M780.695 68.2747H810.379M780.695 97.9589V127.643M780.695 97.9589H810.379M780.695 127.643V157.327M780.695 127.643H810.379M780.695 157.327V187.011M780.695 157.327H810.379M780.695 187.011V216.696M780.695 187.011H810.379M780.695 216.696V246.38M780.695 216.696H810.379M780.695 246.38V276.064M780.695 246.38H810.379M780.695 276.064V305.748M780.695 276.064H810.379M780.695 305.748V335.433M780.695 305.748H810.379M780.695 335.433V365.117M780.695 335.433H810.379M780.695 365.117V394.801M780.695 365.117H810.379M780.695 394.801V424.485M780.695 394.801H810.379M780.695 424.485V454.169M780.695 424.485H810.379M780.695 454.169V483.854M780.695 454.169H810.379M780.695 483.854V513.538M780.695 483.854H810.379M780.695 513.538V543.222M780.695 513.538H810.379M780.695 543.222V572.906M780.695 543.222H810.379M780.695 572.906V602.59M780.695 572.906H810.379M780.695 602.59H810.379M810.379 8.90625V38.5905M810.379 8.90625H840.063M810.379 38.5905V68.2747M810.379 38.5905H840.063M810.379 68.2747V97.9589M810.379 68.2747H840.063M810.379 97.9589V127.643M810.379 97.9589H840.063M810.379 127.643V157.327M810.379 127.643H840.063M810.379 157.327V187.011M810.379 157.327H840.063M810.379 187.011V216.696M810.379 187.011H840.063M810.379 216.696V246.38M810.379 216.696H840.063M810.379 246.38V276.064M810.379 246.38H840.063M810.379 276.064V305.748M810.379 276.064H840.063M810.379 305.748V335.433M810.379 305.748H840.063M810.379 335.433V365.117M810.379 335.433H840.063M810.379 365.117V394.801M810.379 365.117H840.063M810.379 394.801V424.485M810.379 394.801H840.063M810.379 424.485V454.169M810.379 424.485H840.063M810.379 454.169V483.854M810.379 454.169H840.063M810.379 483.854V513.538M810.379 483.854H840.063M810.379 513.538V543.222M810.379 513.538H840.063M810.379 543.222V572.906M810.379 543.222H840.063M810.379 572.906V602.59M810.379 572.906H840.063M810.379 602.59H840.063M840.063 8.90625V38.5905M840.063 8.90625H869.747M840.063 38.5905V68.2747M840.063 38.5905H869.747M840.063 68.2747V97.9589M840.063 68.2747H869.747M840.063 97.9589V127.643M840.063 97.9589H869.747M840.063 127.643V157.327M840.063 127.643H869.747M840.063 157.327V187.011M840.063 157.327H869.747M840.063 187.011V216.696M840.063 187.011H869.747M840.063 216.696V246.38M840.063 216.696H869.747M840.063 246.38V276.064M840.063 246.38H869.747M840.063 276.064V305.748M840.063 276.064H869.747M840.063 305.748V335.433M840.063 305.748H869.747M840.063 335.433V365.117M840.063 335.433H869.747M840.063 365.117V394.801M840.063 365.117H869.747M840.063 394.801V424.485M840.063 394.801H869.747M840.063 424.485V454.169M840.063 424.485H869.747M840.063 454.169V483.854M840.063 454.169H869.747M840.063 483.854V513.538M840.063 483.854H869.747M840.063 513.538V543.222M840.063 513.538H869.747M840.063 543.222V572.906M840.063 543.222H869.747M840.063 572.906V602.59M840.063 572.906H869.747M840.063 602.59H869.747M869.747 8.90625V38.5905M869.747 8.90625H899.431M869.747 38.5905V68.2747M869.747 38.5905H899.431M869.747 68.2747V97.9589M869.747 68.2747H899.431M869.747 97.9589V127.643M869.747 97.9589H899.431M869.747 127.643V157.327M869.747 127.643H899.431M869.747 157.327V187.011M869.747 157.327H899.431M869.747 187.011V216.696M869.747 187.011H899.431M869.747 216.696V246.38M869.747 216.696H899.431M869.747 246.38V276.064M869.747 246.38H899.431M869.747 276.064V305.748M869.747 276.064H899.431M869.747 305.748V335.433M869.747 305.748H899.431M869.747 335.433V365.117M869.747 335.433H899.431M869.747 365.117V394.801M869.747 365.117H899.431M869.747 394.801V424.485M869.747 394.801H899.431M869.747 424.485V454.169M869.747 424.485H899.431M869.747 454.169V483.854M869.747 454.169H899.431M869.747 483.854V513.538M869.747 483.854H899.431M869.747 513.538V543.222M869.747 513.538H899.431M869.747 543.222V572.906M869.747 543.222H899.431M869.747 572.906V602.59M869.747 572.906H899.431M869.747 602.59H899.431M899.431 8.90625V38.5905M899.431 8.90625H929.116M899.431 38.5905V68.2747M899.431 38.5905H929.116M899.431 68.2747V97.9589M899.431 68.2747H929.116M899.431 97.9589V127.643M899.431 97.9589H929.116M899.431 127.643V157.327M899.431 127.643H929.116M899.431 157.327V187.011M899.431 157.327H929.116M899.431 187.011V216.696M899.431 187.011H929.116M899.431 216.696V246.38M899.431 216.696H929.116M899.431 246.38V276.064M899.431 246.38H929.116M899.431 276.064V305.748M899.431 276.064H929.116M899.431 305.748V335.433M899.431 305.748H929.116M899.431 335.433V365.117M899.431 335.433H929.116M899.431 365.117V394.801M899.431 365.117H929.116M899.431 394.801V424.485M899.431 394.801H929.116M899.431 424.485V454.169M899.431 424.485H929.116M899.431 454.169V483.854M899.431 454.169H929.116M899.431 483.854V513.538M899.431 483.854H929.116M899.431 513.538V543.222M899.431 513.538H929.116M899.431 543.222V572.906M899.431 543.222H929.116M899.431 572.906V602.59M899.431 572.906H929.116M899.431 602.59H929.116M929.116 8.90625V38.5905M929.116 8.90625H958.8M929.116 38.5905V68.2747M929.116 38.5905H958.8M929.116 68.2747V97.9589M929.116 68.2747H958.8M929.116 97.9589V127.643M929.116 97.9589H958.8M929.116 127.643V157.327M929.116 127.643H958.8M929.116 157.327V187.011M929.116 157.327H958.8M929.116 187.011V216.696M929.116 187.011H958.8M929.116 216.696V246.38M929.116 216.696H958.8M929.116 246.38V276.064M929.116 246.38H958.8M929.116 276.064V305.748M929.116 276.064H958.8M929.116 305.748V335.433M929.116 305.748H958.8M929.116 335.433V365.117M929.116 335.433H958.8M929.116 365.117V394.801M929.116 365.117H958.8M929.116 394.801V424.485M929.116 394.801H958.8M929.116 424.485V454.169M929.116 424.485H958.8M929.116 454.169V483.854M929.116 454.169H958.8M929.116 483.854V513.538M929.116 483.854H958.8M929.116 513.538V543.222M929.116 513.538H958.8M929.116 543.222V572.906M929.116 543.222H958.8M929.116 572.906V602.59M929.116 572.906H958.8M929.116 602.59H958.8M958.8 8.90625V38.5905M958.8 8.90625H988.484M958.8 38.5905V68.2747M958.8 38.5905H988.484M958.8 68.2747V97.9589M958.8 68.2747H988.484M958.8 97.9589V127.643M958.8 97.9589H988.484M958.8 127.643V157.327M958.8 127.643H988.484M958.8 157.327V187.011M958.8 157.327H988.484M958.8 187.011V216.696M958.8 187.011H988.484M958.8 216.696V246.38M958.8 216.696H988.484M958.8 246.38V276.064M958.8 246.38H988.484M958.8 276.064V305.748M958.8 276.064H988.484M958.8 305.748V335.433M958.8 305.748H988.484M958.8 335.433V365.117M958.8 335.433H988.484M958.8 365.117V394.801M958.8 365.117H988.484M958.8 394.801V424.485M958.8 394.801H988.484M958.8 424.485V454.169M958.8 424.485H988.484M958.8 454.169V483.854M958.8 454.169H988.484M958.8 483.854V513.538M958.8 483.854H988.484M958.8 513.538V543.222M958.8 513.538H988.484M958.8 543.222V572.906M958.8 543.222H988.484M958.8 572.906V602.59M958.8 572.906H988.484M958.8 602.59H988.484M988.484 8.90625V38.5905M988.484 8.90625H1018.17M988.484 38.5905V68.2747M988.484 38.5905H1018.17M988.484 68.2747V97.9589M988.484 68.2747H1018.17M988.484 97.9589V127.643M988.484 97.9589H1018.17M988.484 127.643V157.327M988.484 127.643H1018.17M988.484 157.327V187.011M988.484 157.327H1018.17M988.484 187.011V216.696M988.484 187.011H1018.17M988.484 216.696V246.38M988.484 216.696H1018.17M988.484 246.38V276.064M988.484 246.38H1018.17M988.484 276.064V305.748M988.484 276.064H1018.17M988.484 305.748V335.433M988.484 305.748H1018.17M988.484 335.433V365.117M988.484 335.433H1018.17M988.484 365.117V394.801M988.484 365.117H1018.17M988.484 394.801V424.485M988.484 394.801H1018.17M988.484 424.485V454.169M988.484 424.485H1018.17M988.484 454.169V483.854M988.484 454.169H1018.17M988.484 483.854V513.538M988.484 483.854H1018.17M988.484 513.538V543.222M988.484 513.538H1018.17M988.484 543.222V572.906M988.484 543.222H1018.17M988.484 572.906V602.59M988.484 572.906H1018.17M988.484 602.59H1018.17M1018.17 8.90625V38.5905M1018.17 8.90625H1047.85M1018.17 38.5905V68.2747M1018.17 38.5905H1047.85M1018.17 68.2747V97.9589M1018.17 68.2747H1047.85M1018.17 97.9589V127.643M1018.17 97.9589H1047.85M1018.17 127.643V157.327M1018.17 127.643H1047.85M1018.17 157.327V187.011M1018.17 157.327H1047.85M1018.17 187.011V216.696M1018.17 187.011H1047.85M1018.17 216.696V246.38M1018.17 216.696H1047.85M1018.17 246.38V276.064M1018.17 246.38H1047.85M1018.17 276.064V305.748M1018.17 276.064H1047.85M1018.17 305.748V335.433M1018.17 305.748H1047.85M1018.17 335.433V365.117M1018.17 335.433H1047.85M1018.17 365.117V394.801M1018.17 365.117H1047.85M1018.17 394.801V424.485M1018.17 394.801H1047.85M1018.17 424.485V454.169M1018.17 424.485H1047.85M1018.17 454.169V483.854M1018.17 454.169H1047.85M1018.17 483.854V513.538M1018.17 483.854H1047.85M1018.17 513.538V543.222M1018.17 513.538H1047.85M1018.17 543.222V572.906M1018.17 543.222H1047.85M1018.17 572.906V602.59M1018.17 572.906H1047.85M1018.17 602.59H1047.85M1047.85 8.90625V38.5905M1047.85 8.90625H1077.54M1047.85 38.5905V68.2747M1047.85 38.5905H1077.54M1047.85 68.2747V97.9589M1047.85 68.2747H1077.54M1047.85 97.9589V127.643M1047.85 97.9589H1077.54M1047.85 127.643V157.327M1047.85 127.643H1077.54M1047.85 157.327V187.011M1047.85 157.327H1077.54M1047.85 187.011V216.696M1047.85 187.011H1077.54M1047.85 216.696V246.38M1047.85 216.696H1077.54M1047.85 246.38V276.064M1047.85 246.38H1077.54M1047.85 276.064V305.748M1047.85 276.064H1077.54M1047.85 305.748V335.433M1047.85 305.748H1077.54M1047.85 335.433V365.117M1047.85 335.433H1077.54M1047.85 365.117V394.801M1047.85 365.117H1077.54M1047.85 394.801V424.485M1047.85 394.801H1077.54M1047.85 424.485V454.169M1047.85 424.485H1077.54M1047.85 454.169V483.854M1047.85 454.169H1077.54M1047.85 483.854V513.538M1047.85 483.854H1077.54M1047.85 513.538V543.222M1047.85 513.538H1077.54M1047.85 543.222V572.906M1047.85 543.222H1077.54M1047.85 572.906V602.59M1047.85 572.906H1077.54M1047.85 602.59H1077.54M1077.54 8.90625V38.5905M1077.54 8.90625H1107.22M1077.54 38.5905V68.2747M1077.54 38.5905H1107.22M1077.54 68.2747V97.9589M1077.54 68.2747H1107.22M1077.54 97.9589V127.643M1077.54 97.9589H1107.22M1077.54 127.643V157.327M1077.54 127.643H1107.22M1077.54 157.327V187.011M1077.54 157.327H1107.22M1077.54 187.011V216.696M1077.54 187.011H1107.22M1077.54 216.696V246.38M1077.54 216.696H1107.22M1077.54 246.38V276.064M1077.54 246.38H1107.22M1077.54 276.064V305.748M1077.54 276.064H1107.22M1077.54 305.748V335.433M1077.54 305.748H1107.22M1077.54 335.433V365.117M1077.54 335.433H1107.22M1077.54 365.117V394.801M1077.54 365.117H1107.22M1077.54 394.801V424.485M1077.54 394.801H1107.22M1077.54 424.485V454.169M1077.54 424.485H1107.22M1077.54 454.169V483.854M1077.54 454.169H1107.22M1077.54 483.854V513.538M1077.54 483.854H1107.22M1077.54 513.538V543.222M1077.54 513.538H1107.22M1077.54 543.222V572.906M1077.54 543.222H1107.22M1077.54 572.906V602.59M1077.54 572.906H1107.22M1077.54 602.59H1107.22M1107.22 8.90625V38.5905M1107.22 8.90625H1136.91M1107.22 38.5905V68.2747M1107.22 38.5905H1136.91M1107.22 68.2747V97.9589M1107.22 68.2747H1136.91M1107.22 97.9589V127.643M1107.22 97.9589H1136.91M1107.22 127.643V157.327M1107.22 127.643H1136.91M1107.22 157.327V187.011M1107.22 157.327H1136.91M1107.22 187.011V216.696M1107.22 187.011H1136.91M1107.22 216.696V246.38M1107.22 216.696H1136.91M1107.22 246.38V276.064M1107.22 246.38H1136.91M1107.22 276.064V305.748M1107.22 276.064H1136.91M1107.22 305.748V335.433M1107.22 305.748H1136.91M1107.22 335.433V365.117M1107.22 335.433H1136.91M1107.22 365.117V394.801M1107.22 365.117H1136.91M1107.22 394.801V424.485M1107.22 394.801H1136.91M1107.22 424.485V454.169M1107.22 424.485H1136.91M1107.22 454.169V483.854M1107.22 454.169H1136.91M1107.22 483.854V513.538M1107.22 483.854H1136.91M1107.22 513.538V543.222M1107.22 513.538H1136.91M1107.22 543.222V572.906M1107.22 543.222H1136.91M1107.22 572.906V602.59M1107.22 572.906H1136.91M1107.22 602.59H1136.91M1136.91 8.90625V38.5905M1136.91 8.90625H1166.59M1136.91 38.5905V68.2747M1136.91 38.5905H1166.59M1136.91 68.2747V97.9589M1136.91 68.2747H1166.59M1136.91 97.9589V127.643M1136.91 97.9589H1166.59M1136.91 127.643V157.327M1136.91 127.643H1166.59M1136.91 157.327V187.011M1136.91 157.327H1166.59M1136.91 187.011V216.696M1136.91 187.011H1166.59M1136.91 216.696V246.38M1136.91 216.696H1166.59M1136.91 246.38V276.064M1136.91 246.38H1166.59M1136.91 276.064V305.748M1136.91 276.064H1166.59M1136.91 305.748V335.433M1136.91 305.748H1166.59M1136.91 335.433V365.117M1136.91 335.433H1166.59M1136.91 365.117V394.801M1136.91 365.117H1166.59M1136.91 394.801V424.485M1136.91 394.801H1166.59M1136.91 424.485V454.169M1136.91 424.485H1166.59M1136.91 454.169V483.854M1136.91 454.169H1166.59M1136.91 483.854V513.538M1136.91 483.854H1166.59M1136.91 513.538V543.222M1136.91 513.538H1166.59M1136.91 543.222V572.906M1136.91 543.222H1166.59M1136.91 572.906V602.59M1136.91 572.906H1166.59M1136.91 602.59H1166.59M1166.59 8.90625V38.5905M1166.59 8.90625H1196.27M1166.59 38.5905V68.2747M1166.59 38.5905H1196.27M1166.59 68.2747V97.9589M1166.59 68.2747H1196.27M1166.59 97.9589V127.643M1166.59 97.9589H1196.27M1166.59 127.643V157.327M1166.59 127.643H1196.27M1166.59 157.327V187.011M1166.59 157.327H1196.27M1166.59 187.011V216.696M1166.59 187.011H1196.27M1166.59 216.696V246.38M1166.59 216.696H1196.27M1166.59 246.38V276.064M1166.59 246.38H1196.27M1166.59 276.064V305.748M1166.59 276.064H1196.27M1166.59 305.748V335.433M1166.59 305.748H1196.27M1166.59 335.433V365.117M1166.59 335.433H1196.27M1166.59 365.117V394.801M1166.59 365.117H1196.27M1166.59 394.801V424.485M1166.59 394.801H1196.27M1166.59 424.485V454.169M1166.59 424.485H1196.27M1166.59 454.169V483.854M1166.59 454.169H1196.27M1166.59 483.854V513.538M1166.59 483.854H1196.27M1166.59 513.538V543.222M1166.59 513.538H1196.27M1166.59 543.222V572.906M1166.59 543.222H1196.27M1166.59 572.906V602.59M1166.59 572.906H1196.27M1166.59 602.59H1196.27M1196.27 8.90625V38.5905M1196.27 8.90625H1225.96M1196.27 38.5905V68.2747M1196.27 38.5905H1225.96M1196.27 68.2747V97.9589M1196.27 68.2747H1225.96M1196.27 97.9589V127.643M1196.27 97.9589H1225.96M1196.27 127.643V157.327M1196.27 127.643H1225.96M1196.27 157.327V187.011M1196.27 157.327H1225.96M1196.27 187.011V216.696M1196.27 187.011H1225.96M1196.27 216.696V246.38M1196.27 216.696H1225.96M1196.27 246.38V276.064M1196.27 246.38H1225.96M1196.27 276.064V305.748M1196.27 276.064H1225.96M1196.27 305.748V335.433M1196.27 305.748H1225.96M1196.27 335.433V365.117M1196.27 335.433H1225.96M1196.27 365.117V394.801M1196.27 365.117H1225.96M1196.27 394.801V424.485M1196.27 394.801H1225.96M1196.27 424.485V454.169M1196.27 424.485H1225.96M1196.27 454.169V483.854M1196.27 454.169H1225.96M1196.27 483.854V513.538M1196.27 483.854H1225.96M1196.27 513.538V543.222M1196.27 513.538H1225.96M1196.27 543.222V572.906M1196.27 543.222H1225.96M1196.27 572.906V602.59M1196.27 572.906H1225.96M1196.27 602.59H1225.96M1225.96 8.90625V38.5905M1225.96 8.90625H1255.64M1225.96 38.5905V68.2747M1225.96 38.5905H1255.64M1225.96 68.2747V97.9589M1225.96 68.2747H1255.64M1225.96 97.9589V127.643M1225.96 97.9589H1255.64M1225.96 127.643V157.327M1225.96 127.643H1255.64M1225.96 157.327V187.011M1225.96 157.327H1255.64M1225.96 187.011V216.696M1225.96 187.011H1255.64M1225.96 216.696V246.38M1225.96 216.696H1255.64M1225.96 246.38V276.064M1225.96 246.38H1255.64M1225.96 276.064V305.748M1225.96 276.064H1255.64M1225.96 305.748V335.433M1225.96 305.748H1255.64M1225.96 335.433V365.117M1225.96 335.433H1255.64M1225.96 365.117V394.801M1225.96 365.117H1255.64M1225.96 394.801V424.485M1225.96 394.801H1255.64M1225.96 424.485V454.169M1225.96 424.485H1255.64M1225.96 454.169V483.854M1225.96 454.169H1255.64M1225.96 483.854V513.538M1225.96 483.854H1255.64M1225.96 513.538V543.222M1225.96 513.538H1255.64M1225.96 543.222V572.906M1225.96 543.222H1255.64M1225.96 572.906V602.59M1225.96 572.906H1255.64M1225.96 602.59H1255.64M1255.64 8.90625V38.5905M1255.64 8.90625H1285.33M1255.64 38.5905V68.2747M1255.64 38.5905H1285.33M1255.64 68.2747V97.9589M1255.64 68.2747H1285.33M1255.64 97.9589V127.643M1255.64 97.9589H1285.33M1255.64 127.643V157.327M1255.64 127.643H1285.33M1255.64 157.327V187.011M1255.64 157.327H1285.33M1255.64 187.011V216.696M1255.64 187.011H1285.33M1255.64 216.696V246.38M1255.64 216.696H1285.33M1255.64 246.38V276.064M1255.64 246.38H1285.33M1255.64 276.064V305.748M1255.64 276.064H1285.33M1255.64 305.748V335.433M1255.64 305.748H1285.33M1255.64 335.433V365.117M1255.64 335.433H1285.33M1255.64 365.117V394.801M1255.64 365.117H1285.33M1255.64 394.801V424.485M1255.64 394.801H1285.33M1255.64 424.485V454.169M1255.64 424.485H1285.33M1255.64 454.169V483.854M1255.64 454.169H1285.33M1255.64 483.854V513.538M1255.64 483.854H1285.33M1255.64 513.538V543.222M1255.64 513.538H1285.33M1255.64 543.222V572.906M1255.64 543.222H1285.33M1255.64 572.906V602.59M1255.64 572.906H1285.33M1255.64 602.59H1285.33M1285.33 8.90625V38.5905M1285.33 8.90625H1315.01V38.5905M1285.33 38.5905V68.2747M1285.33 38.5905H1315.01M1285.33 68.2747V97.9589M1285.33 68.2747H1315.01M1285.33 97.9589V127.643M1285.33 97.9589H1315.01M1285.33 127.643V157.327M1285.33 127.643H1315.01M1285.33 157.327V187.011M1285.33 157.327H1315.01M1285.33 187.011V216.696M1285.33 187.011H1315.01M1285.33 216.696V246.38M1285.33 216.696H1315.01M1285.33 246.38V276.064M1285.33 246.38H1315.01M1285.33 276.064V305.748M1285.33 276.064H1315.01M1285.33 305.748V335.433M1285.33 305.748H1315.01M1285.33 335.433V365.117M1285.33 335.433H1315.01M1285.33 365.117V394.801M1285.33 365.117H1315.01M1285.33 394.801V424.485M1285.33 394.801H1315.01M1285.33 424.485V454.169M1285.33 424.485H1315.01M1285.33 454.169V483.854M1285.33 454.169H1315.01M1285.33 483.854V513.538M1285.33 483.854H1315.01M1285.33 513.538V543.222M1285.33 513.538H1315.01M1285.33 543.222V572.906M1285.33 543.222H1315.01M1285.33 572.906V602.59M1285.33 572.906H1315.01M1285.33 602.59H1315.01V572.906M1315.01 38.5905V68.2747M1315.01 68.2747V97.9589M1315.01 97.9589V127.643M1315.01 127.643V157.327M1315.01 157.327V187.011M1315.01 187.011V216.696M1315.01 216.696V246.38M1315.01 246.38V276.064M1315.01 276.064V305.748M1315.01 305.748V335.433M1315.01 335.433V365.117M1315.01 365.117V394.801M1315.01 394.801V424.485M1315.01 424.485V454.169M1315.01 454.169V483.854M1315.01 483.854V513.538M1315.01 513.538V543.222M1315.01 543.222V572.906" stroke="url(#paint0_radial_46287_3253)" stroke-opacity="0.4" stroke-width="0.371053"/>
</g>
<g style="mix-blend-mode:soft-light" opacity="0.8">
<path d="M127.642 118.737V127.642M127.642 127.642V136.547M127.642 127.642H118.737M127.642 127.642H136.547M127.642 356.21V365.116M127.642 365.116V374.021M127.642 365.116H118.737M127.642 365.116H136.547M127.642 593.684V602.589M127.642 602.589V611.495M127.642 602.589H118.737M127.642 602.589H136.547M365.116 118.737V127.642M365.116 127.642V136.547M365.116 127.642H356.21M365.116 127.642H374.021M365.116 356.21V365.116M365.116 365.116V374.021M365.116 365.116H356.21M365.116 365.116H374.021M365.116 593.684V602.589M365.116 602.589V611.495M365.116 602.589H356.21M365.116 602.589H374.021M602.589 118.737V127.642M602.589 127.642V136.547M602.589 127.642H593.684M602.589 127.642H611.495M602.589 356.21V365.116M602.589 365.116V374.021M602.589 365.116H593.684M602.589 365.116H611.495M602.589 593.684V602.589M602.589 602.589V611.495M602.589 602.589H593.684M602.589 602.589H611.495M840.063 118.737V127.642M840.063 127.642V136.547M840.063 127.642H831.158M840.063 127.642H848.968M840.063 356.21V365.116M840.063 365.116V374.021M840.063 365.116H831.158M840.063 365.116H848.968M840.063 593.684V602.589M840.063 602.589V611.495M840.063 602.589H831.158M840.063 602.589H848.968M1077.54 118.737V127.642M1077.54 127.642V136.547M1077.54 127.642H1068.63M1077.54 127.642H1086.44M1077.54 356.21V365.116M1077.54 365.116V374.021M1077.54 365.116H1068.63M1077.54 365.116H1086.44M1077.54 593.684V602.589M1077.54 602.589V611.495M1077.54 602.589H1068.63M1077.54 602.589H1086.44M1315.01 118.737V127.642M1315.01 127.642V136.547M1315.01 127.642H1306.11M1315.01 127.642H1323.92M1315.01 356.21V365.116M1315.01 365.116V374.021M1315.01 365.116H1306.11M1315.01 365.116H1323.92M1315.01 593.684V602.589M1315.01 602.589V611.495M1315.01 602.589H1306.11M1315.01 602.589H1323.92M127.642 0V8.90526M127.642 8.90526V17.8105M127.642 8.90526H118.737M127.642 8.90526H136.547M127.642 237.474V246.379M127.642 246.379V255.284M127.642 246.379H118.737M127.642 246.379H136.547M127.642 474.947V483.852M127.642 483.852V492.758M127.642 483.852H118.737M127.642 483.852H136.547M365.116 0V8.90526M365.116 8.90526V17.8105M365.116 8.90526H356.21M365.116 8.90526H374.021M365.116 237.474V246.379M365.116 246.379V255.284M365.116 246.379H356.21M365.116 246.379H374.021M365.116 474.947V483.852M365.116 483.852V492.758M365.116 483.852H356.21M365.116 483.852H374.021M602.589 0V8.90526M602.589 8.90526V17.8105M602.589 8.90526H593.684M602.589 8.90526H611.495M602.589 237.474V246.379M602.589 246.379V255.284M602.589 246.379H593.684M602.589 246.379H611.495M602.589 474.947V483.852M602.589 483.852V492.758M602.589 483.852H593.684M602.589 483.852H611.495M840.063 0V8.90526M840.063 8.90526V17.8105M840.063 8.90526H831.158M840.063 8.90526H848.968M840.063 237.474V246.379M840.063 246.379V255.284M840.063 246.379H831.158M840.063 246.379H848.968M840.063 474.947V483.852M840.063 483.852V492.758M840.063 483.852H831.158M840.063 483.852H848.968M1077.54 0V8.90526M1077.54 8.90526V17.8105M1077.54 8.90526H1068.63M1077.54 8.90526H1086.44M1077.54 237.474V246.379M1077.54 246.379V255.284M1077.54 246.379H1068.63M1077.54 246.379H1086.44M1077.54 474.947V483.852M1077.54 483.852V492.758M1077.54 483.852H1068.63M1077.54 483.852H1086.44M1315.01 0V8.90526M1315.01 8.90526V17.8105M1315.01 8.90526H1306.11M1315.01 8.90526H1323.92M1315.01 237.474V246.379M1315.01 246.379V255.284M1315.01 246.379H1306.11M1315.01 246.379H1323.92M1315.01 474.947V483.852M1315.01 483.852V492.758M1315.01 483.852H1306.11M1315.01 483.852H1323.92M8.90514 118.737V127.642M8.90514 127.642V136.547M8.90514 127.642H-0.00012207M8.90514 127.642H17.8104M8.90514 356.21V365.116M8.90514 365.116V374.021M8.90514 365.116H-0.00012207M8.90514 365.116H17.8104M8.90514 593.684V602.589M8.90514 602.589V611.495M8.90514 602.589H-0.00012207M8.90514 602.589H17.8104M246.379 118.737V127.642M246.379 127.642V136.547M246.379 127.642H237.474M246.379 127.642H255.284M246.379 356.21V365.116M246.379 365.116V374.021M246.379 365.116H237.474M246.379 365.116H255.284M246.379 593.684V602.589M246.379 602.589V611.495M246.379 602.589H237.474M246.379 602.589H255.284M483.852 118.737V127.642M483.852 127.642V136.547M483.852 127.642H474.947M483.852 127.642H492.758M483.852 356.21V365.116M483.852 365.116V374.021M483.852 365.116H474.947M483.852 365.116H492.758M483.852 593.684V602.589M483.852 602.589V611.495M483.852 602.589H474.947M483.852 602.589H492.758M721.326 118.737V127.642M721.326 127.642V136.547M721.326 127.642H712.421M721.326 127.642H730.231M721.326 356.21V365.116M721.326 365.116V374.021M721.326 365.116H712.421M721.326 365.116H730.231M721.326 593.684V602.589M721.326 602.589V611.495M721.326 602.589H712.421M721.326 602.589H730.231M958.8 118.737V127.642M958.8 127.642V136.547M958.8 127.642H949.895M958.8 127.642H967.705M958.8 356.21V365.116M958.8 365.116V374.021M958.8 365.116H949.895M958.8 365.116H967.705M958.8 593.684V602.589M958.8 602.589V611.495M958.8 602.589H949.895M958.8 602.589H967.705M1196.27 118.737V127.642M1196.27 127.642V136.547M1196.27 127.642H1187.37M1196.27 127.642H1205.18M1196.27 356.21V365.116M1196.27 365.116V374.021M1196.27 365.116H1187.37M1196.27 365.116H1205.18M1196.27 593.684V602.589M1196.27 602.589V611.495M1196.27 602.589H1187.37M1196.27 602.589H1205.18M8.90514 4.37784e-05V8.90531M8.90514 8.90531V17.8106M8.90514 8.90531H-0.00012207M8.90514 8.90531H17.8104M8.90514 237.474V246.379M8.90514 246.379V255.284M8.90514 246.379H-0.00012207M8.90514 246.379H17.8104M8.90514 474.947V483.852M8.90514 483.852V492.758M8.90514 483.852H-0.00012207M8.90514 483.852H17.8104M246.379 0V8.90526M246.379 8.90526V17.8105M246.379 8.90526H237.474M246.379 8.90526H255.284M246.379 237.474V246.379M246.379 246.379V255.284M246.379 246.379H237.474M246.379 246.379H255.284M246.379 474.947V483.852M246.379 483.852V492.758M246.379 483.852H237.474M246.379 483.852H255.284M483.852 0V8.90526M483.852 8.90526V17.8105M483.852 8.90526H474.947M483.852 8.90526H492.758M483.852 237.474V246.379M483.852 246.379V255.284M483.852 246.379H474.947M483.852 246.379H492.758M483.852 474.947V483.852M483.852 483.852V492.758M483.852 483.852H474.947M483.852 483.852H492.758M721.326 0V8.90526M721.326 8.90526V17.8105M721.326 8.90526H712.421M721.326 8.90526H730.231M721.326 237.474V246.379M721.326 246.379V255.284M721.326 246.379H712.421M721.326 246.379H730.231M721.326 474.947V483.852M721.326 483.852V492.758M721.326 483.852H712.421M721.326 483.852H730.231M958.8 0V8.90526M958.8 8.90526V17.8105M958.8 8.90526H949.895M958.8 8.90526H967.705M958.8 237.474V246.379M958.8 246.379V255.284M958.8 246.379H949.895M958.8 246.379H967.705M958.8 474.947V483.852M958.8 483.852V492.758M958.8 483.852H949.895M958.8 483.852H967.705M1196.27 0V8.90526M1196.27 8.90526V17.8105M1196.27 8.90526H1187.37M1196.27 8.90526H1205.18M1196.27 237.474V246.379M1196.27 246.379V255.284M1196.27 246.379H1187.37M1196.27 246.379H1205.18M1196.27 474.947V483.852M1196.27 483.852V492.758M1196.27 483.852H1187.37M1196.27 483.852H1205.18" stroke="url(#paint1_radial_46287_3253)" stroke-opacity="0.6" stroke-width="0.742105"/>
</g>
<defs>
<radialGradient id="paint0_radial_46287_3253" cx="0" cy="0" r="1" gradientUnits="userSpaceOnUse" gradientTransform="translate(661.958 305.748) rotate(90) scale(296.842 653.053)">
<stop stop-color="white"/>
<stop offset="1" stop-color="white" stop-opacity="0"/>
</radialGradient>
<radialGradient id="paint1_radial_46287_3253" cx="0" cy="0" r="1" gradientUnits="userSpaceOnUse" gradientTransform="translate(661.958 305.747) rotate(90) scale(305.747 661.958)">
<stop stop-color="white"/>
<stop offset="1" stop-color="white" stop-opacity="0"/>
</radialGradient>
</defs>
</svg>
