<svg xmlns="http://www.w3.org/2000/svg" xmlns:xlink="http://www.w3.org/1999/xlink" width="500" zoomAndPan="magnify" viewBox="0 0 375 374.999991" height="500" preserveAspectRatio="xMidYMid meet" version="1.0"><defs><filter x="0%" y="0%" width="100%" height="100%" id="903ed15bee"><feColorMatrix values="0 0 0 0 1 0 0 0 0 1 0 0 0 0 1 0 0 0 1 0" color-interpolation-filters="sRGB"/></filter><mask id="2a6d0a3312"><g filter="url(#903ed15bee)"><rect x="-37.5" width="450" fill="#000000" y="-37.499999" height="449.999989" fill-opacity="0.8"/></g></mask><clipPath id="50c84033c9"><path d="M 9 358 L 11 358 L 11 359.285156 L 9 359.285156 Z M 9 358 " clip-rule="nonzero"/></clipPath><clipPath id="4996c970c7"><path d="M 0.160156 26 L 20 26 L 20 46 L 0.160156 46 Z M 0.160156 26 " clip-rule="nonzero"/></clipPath><clipPath id="5be3041885"><path d="M 0.160156 1 L 21 1 L 21 22 L 0.160156 22 Z M 0.160156 1 " clip-rule="nonzero"/></clipPath><clipPath id="27b9b98fe2"><path d="M 34 358 L 36 358 L 36 359.285156 L 34 359.285156 Z M 34 358 " clip-rule="nonzero"/></clipPath><clipPath id="ab659866dc"><path d="M 24 0.398438 L 46 0.398438 L 46 22 L 24 22 Z M 24 0.398438 " clip-rule="nonzero"/></clipPath><clipPath id="c7a13c6a70"><path d="M 59 358 L 61 358 L 61 359.285156 L 59 359.285156 Z M 59 358 " clip-rule="nonzero"/></clipPath><clipPath id="a4ab8b4e0b"><path d="M 49 0.398438 L 71 0.398438 L 71 23 L 49 23 Z M 49 0.398438 " clip-rule="nonzero"/></clipPath><clipPath id="7c09120ba5"><path d="M 83 358 L 86 358 L 86 359.285156 L 83 359.285156 Z M 83 358 " clip-rule="nonzero"/></clipPath><clipPath id="17286b49f0"><path d="M 74 0.398438 L 96 0.398438 L 96 22 L 74 22 Z M 74 0.398438 " clip-rule="nonzero"/></clipPath><clipPath id="09bc3d4410"><path d="M 108 358 L 110 358 L 110 359.285156 L 108 359.285156 Z M 108 358 " clip-rule="nonzero"/></clipPath><clipPath id="4bd7217de7"><path d="M 133 358 L 135 358 L 135 359.285156 L 133 359.285156 Z M 133 358 " clip-rule="nonzero"/></clipPath><clipPath id="238092c57a"><path d="M 125 27 L 143.429688 27 L 143.429688 46 L 125 46 Z M 125 27 " clip-rule="nonzero"/></clipPath><clipPath id="a9ad5a5b9a"><path d="M 124 2 L 143.429688 2 L 143.429688 21 L 124 21 Z M 124 2 " clip-rule="nonzero"/></clipPath><clipPath id="8688ac932c"><rect x="0" width="144" y="0" height="360"/></clipPath></defs><rect x="-37.5" width="450" fill="#ffffff" y="-37.499999" height="449.999989" fill-opacity="1"/><rect x="-37.5" width="450" fill="#ffffff" y="-37.499999" height="449.999989" fill-opacity="1"/><g mask="url(#2a6d0a3312)"><g transform="matrix(1, 0, 0, 1, 116, 8)"><g clip-path="url(#8688ac932c)"><g clip-path="url(#50c84033c9)"><path fill="#ff9f4f" d="M 10.667969 358.683594 C 10.667969 358.382812 10.441406 358.082031 10.140625 358.082031 C 9.839844 358.082031 9.613281 358.382812 9.613281 358.683594 C 9.613281 358.828125 9.664062 358.953125 9.769531 359.054688 C 9.871094 359.15625 9.996094 359.210938 10.140625 359.210938 C 10.285156 359.210938 10.410156 359.15625 10.511719 359.054688 C 10.617188 358.953125 10.667969 358.828125 10.667969 358.683594 Z M 10.667969 358.683594 " fill-opacity="1" fill-rule="evenodd"/></g><path fill="#ff9f4f" d="M 11.34375 333.875 C 11.34375 333.199219 10.816406 332.597656 10.140625 332.597656 C 9.972656 332.601562 9.8125 332.640625 9.65625 332.707031 C 9.503906 332.773438 9.367188 332.863281 9.246094 332.984375 C 9.128906 333.101562 9.035156 333.238281 8.96875 333.394531 C 8.902344 333.546875 8.867188 333.707031 8.863281 333.875 C 8.863281 334.554688 9.464844 335.078125 10.140625 335.078125 C 10.300781 335.082031 10.457031 335.050781 10.605469 334.992188 C 10.753906 334.929688 10.882812 334.84375 10.996094 334.730469 C 11.109375 334.617188 11.195312 334.488281 11.257812 334.339844 C 11.316406 334.191406 11.34375 334.035156 11.34375 333.875 Z M 11.34375 333.875 " fill-opacity="1" fill-rule="evenodd"/><path fill="#ff9f4f" d="M 12.097656 309.070312 C 12.097656 307.941406 11.269531 307.039062 10.140625 307.039062 C 9.871094 307.039062 9.613281 307.089844 9.363281 307.191406 C 9.113281 307.296875 8.894531 307.441406 8.703125 307.632812 C 8.511719 307.824219 8.363281 308.042969 8.261719 308.292969 C 8.160156 308.542969 8.109375 308.800781 8.109375 309.070312 C 8.109375 310.121094 9.011719 311.023438 10.140625 311.023438 C 10.402344 311.027344 10.652344 310.976562 10.890625 310.878906 C 11.132812 310.78125 11.34375 310.640625 11.527344 310.457031 C 11.710938 310.273438 11.851562 310.058594 11.949219 309.820312 C 12.050781 309.578125 12.097656 309.328125 12.097656 309.070312 Z M 12.097656 309.070312 " fill-opacity="1" fill-rule="evenodd"/><path fill="#ff9f4f" d="M 12.847656 284.261719 C 12.839844 283.910156 12.765625 283.566406 12.628906 283.242188 C 12.488281 282.917969 12.289062 282.628906 12.035156 282.382812 C 11.785156 282.132812 11.492188 281.941406 11.164062 281.808594 C 10.835938 281.671875 10.496094 281.605469 10.140625 281.605469 C 9.785156 281.605469 9.445312 281.671875 9.117188 281.808594 C 8.789062 281.941406 8.496094 282.132812 8.242188 282.382812 C 7.992188 282.628906 7.792969 282.917969 7.652344 283.242188 C 7.511719 283.566406 7.441406 283.910156 7.433594 284.261719 C 7.433594 285.691406 8.636719 286.894531 10.140625 286.894531 C 11.644531 286.894531 12.847656 285.691406 12.847656 284.261719 Z M 12.847656 284.261719 " fill-opacity="1" fill-rule="evenodd"/><path fill="#ff9f4f" d="M 13.523438 259.457031 C 13.515625 259.011719 13.425781 258.585938 13.25 258.179688 C 13.074219 257.769531 12.832031 257.410156 12.515625 257.097656 C 12.195312 256.789062 11.832031 256.546875 11.421875 256.378906 C 11.011719 256.210938 10.585938 256.128906 10.140625 256.128906 C 9.695312 256.128906 9.269531 256.210938 8.859375 256.378906 C 8.445312 256.546875 8.082031 256.789062 7.765625 257.097656 C 7.449219 257.410156 7.203125 257.769531 7.03125 258.179688 C 6.855469 258.585938 6.761719 259.011719 6.753906 259.457031 C 6.753906 261.261719 8.261719 262.765625 10.140625 262.765625 C 12.019531 262.765625 13.523438 261.257812 13.523438 259.457031 Z M 13.523438 259.457031 " fill-opacity="1" fill-rule="evenodd"/><path fill="#ff9f4f" d="M 14.277344 234.648438 C 14.277344 234.378906 14.25 234.109375 14.199219 233.84375 C 14.144531 233.578125 14.066406 233.316406 13.960938 233.066406 C 13.859375 232.816406 13.730469 232.578125 13.582031 232.351562 C 13.429688 232.125 13.257812 231.917969 13.066406 231.726562 C 12.875 231.53125 12.664062 231.363281 12.4375 231.210938 C 12.214844 231.058594 11.976562 230.933594 11.722656 230.828125 C 11.472656 230.722656 11.214844 230.644531 10.949219 230.59375 C 10.679688 230.539062 10.414062 230.511719 10.140625 230.511719 C 9.871094 230.511719 9.601562 230.539062 9.332031 230.59375 C 9.066406 230.644531 8.808594 230.722656 8.558594 230.828125 C 8.308594 230.933594 8.070312 231.058594 7.84375 231.210938 C 7.617188 231.363281 7.40625 231.53125 7.214844 231.726562 C 7.023438 231.917969 6.851562 232.125 6.703125 232.351562 C 6.550781 232.578125 6.421875 232.816406 6.320312 233.066406 C 6.214844 233.316406 6.136719 233.578125 6.082031 233.84375 C 6.03125 234.109375 6.003906 234.378906 6.003906 234.648438 C 6.003906 236.90625 7.886719 238.710938 10.140625 238.710938 C 12.394531 238.710938 14.277344 236.90625 14.277344 234.648438 Z M 14.277344 234.648438 " fill-opacity="1" fill-rule="evenodd"/><path fill="#ff9f4f" d="M 14.953125 209.769531 C 14.953125 207.136719 12.773438 204.957031 10.140625 204.957031 C 7.507812 204.957031 5.328125 207.136719 5.328125 209.769531 C 5.328125 212.476562 7.507812 214.652344 10.140625 214.652344 C 12.773438 214.652344 14.953125 212.476562 14.953125 209.769531 Z M 14.953125 209.769531 " fill-opacity="1" fill-rule="evenodd"/><path fill="#ff9f4f" d="M 15.628906 184.960938 C 15.628906 184.601562 15.59375 184.246094 15.523438 183.890625 C 15.453125 183.539062 15.351562 183.195312 15.210938 182.859375 C 15.074219 182.527344 14.90625 182.210938 14.707031 181.910156 C 14.503906 181.613281 14.277344 181.335938 14.023438 181.078125 C 13.769531 180.824219 13.492188 180.597656 13.191406 180.398438 C 12.890625 180.195312 12.574219 180.027344 12.242188 179.890625 C 11.910156 179.75 11.566406 179.648438 11.210938 179.578125 C 10.859375 179.507812 10.5 179.472656 10.140625 179.472656 C 9.78125 179.472656 9.421875 179.507812 9.070312 179.578125 C 8.714844 179.648438 8.371094 179.75 8.039062 179.890625 C 7.707031 180.027344 7.390625 180.195312 7.089844 180.398438 C 6.792969 180.597656 6.515625 180.824219 6.257812 181.078125 C 6.003906 181.335938 5.777344 181.613281 5.574219 181.910156 C 5.375 182.210938 5.207031 182.527344 5.070312 182.859375 C 4.929688 183.195312 4.828125 183.539062 4.757812 183.890625 C 4.6875 184.246094 4.652344 184.601562 4.652344 184.960938 C 4.652344 188.042969 7.058594 190.523438 10.140625 190.523438 C 13.148438 190.523438 15.628906 188.042969 15.628906 184.960938 Z M 15.628906 184.960938 " fill-opacity="1" fill-rule="evenodd"/><path fill="#ff9f4f" d="M 16.382812 160.15625 C 16.378906 159.75 16.332031 159.347656 16.25 158.949219 C 16.164062 158.550781 16.042969 158.164062 15.886719 157.789062 C 15.726562 157.414062 15.53125 157.058594 15.304688 156.722656 C 15.074219 156.386719 14.816406 156.074219 14.527344 155.789062 C 14.238281 155.503906 13.921875 155.25 13.585938 155.023438 C 13.246094 154.800781 12.886719 154.609375 12.511719 154.457031 C 12.136719 154.300781 11.746094 154.1875 11.347656 154.105469 C 10.949219 154.027344 10.546875 153.988281 10.140625 153.988281 C 9.734375 153.988281 9.332031 154.027344 8.933594 154.105469 C 8.53125 154.1875 8.144531 154.300781 7.769531 154.457031 C 7.394531 154.609375 7.035156 154.800781 6.695312 155.023438 C 6.355469 155.25 6.042969 155.503906 5.753906 155.789062 C 5.464844 156.074219 5.207031 156.386719 4.976562 156.722656 C 4.75 157.058594 4.554688 157.414062 4.394531 157.789062 C 4.234375 158.164062 4.113281 158.550781 4.03125 158.949219 C 3.949219 159.347656 3.902344 159.75 3.898438 160.15625 C 3.898438 163.613281 6.679688 166.464844 10.140625 166.464844 C 13.601562 166.464844 16.382812 163.609375 16.382812 160.15625 Z M 16.382812 160.15625 " fill-opacity="1" fill-rule="evenodd"/><path fill="#ff9f4f" d="M 17.058594 135.34375 C 17.0625 134.890625 17.015625 134.441406 16.929688 133.996094 C 16.839844 133.546875 16.710938 133.113281 16.539062 132.695312 C 16.363281 132.273438 16.152344 131.875 15.898438 131.496094 C 15.644531 131.121094 15.359375 130.769531 15.039062 130.449219 C 14.714844 130.128906 14.367188 129.839844 13.988281 129.589844 C 13.609375 129.335938 13.210938 129.125 12.789062 128.949219 C 12.371094 128.777344 11.9375 128.644531 11.492188 128.558594 C 11.046875 128.472656 10.59375 128.429688 10.140625 128.429688 C 6.304688 128.429688 3.144531 131.511719 3.144531 135.34375 C 3.144531 139.179688 6.304688 142.335938 10.140625 142.335938 C 13.976562 142.335938 17.058594 139.179688 17.058594 135.34375 Z M 17.058594 135.34375 " fill-opacity="1" fill-rule="evenodd"/><path fill="#ff9f4f" d="M 17.738281 110.542969 C 17.738281 106.40625 14.351562 103.023438 10.140625 103.023438 C 5.929688 103.023438 2.542969 106.40625 2.542969 110.542969 C 2.542969 111.039062 2.59375 111.535156 2.691406 112.023438 C 2.789062 112.511719 2.933594 112.988281 3.125 113.449219 C 3.3125 113.910156 3.546875 114.347656 3.824219 114.761719 C 4.101562 115.175781 4.417969 115.558594 4.769531 115.914062 C 5.121094 116.265625 5.507812 116.582031 5.921875 116.859375 C 6.335938 117.132812 6.773438 117.367188 7.234375 117.558594 C 7.695312 117.75 8.167969 117.894531 8.660156 117.992188 C 9.148438 118.089844 9.640625 118.136719 10.140625 118.136719 C 10.640625 118.136719 11.132812 118.089844 11.621094 117.992188 C 12.113281 117.894531 12.585938 117.75 13.046875 117.558594 C 13.507812 117.367188 13.945312 117.132812 14.359375 116.859375 C 14.777344 116.582031 15.160156 116.265625 15.511719 115.914062 C 15.863281 115.558594 16.179688 115.175781 16.457031 114.761719 C 16.734375 114.347656 16.96875 113.910156 17.160156 113.449219 C 17.347656 112.988281 17.492188 112.511719 17.589844 112.023438 C 17.6875 111.535156 17.738281 111.039062 17.738281 110.542969 Z M 17.738281 110.542969 " fill-opacity="1" fill-rule="evenodd"/><path fill="#ff9f4f" d="M 18.414062 85.734375 C 18.414062 81.226562 14.726562 77.539062 10.140625 77.539062 C 5.554688 77.539062 1.867188 81.222656 1.867188 85.734375 C 1.875 86.273438 1.929688 86.808594 2.042969 87.335938 C 2.152344 87.863281 2.3125 88.375 2.523438 88.875 C 2.734375 89.371094 2.988281 89.84375 3.292969 90.289062 C 3.59375 90.734375 3.9375 91.148438 4.320312 91.527344 C 4.707031 91.90625 5.121094 92.246094 5.570312 92.542969 C 6.019531 92.839844 6.496094 93.09375 6.996094 93.296875 C 7.492188 93.503906 8.007812 93.660156 8.539062 93.761719 C 9.066406 93.867188 9.601562 93.917969 10.140625 93.917969 C 10.679688 93.917969 11.214844 93.867188 11.742188 93.761719 C 12.273438 93.660156 12.785156 93.503906 13.285156 93.296875 C 13.785156 93.09375 14.257812 92.839844 14.710938 92.542969 C 15.160156 92.246094 15.574219 91.90625 15.960938 91.527344 C 16.34375 91.148438 16.6875 90.734375 16.988281 90.289062 C 17.292969 89.84375 17.546875 89.371094 17.757812 88.875 C 17.96875 88.375 18.128906 87.863281 18.238281 87.335938 C 18.347656 86.808594 18.40625 86.273438 18.414062 85.734375 Z M 18.414062 85.734375 " fill-opacity="1" fill-rule="evenodd"/><path fill="#ff9f4f" d="M 19.015625 60.929688 C 19.015625 60.347656 18.957031 59.769531 18.84375 59.195312 C 18.730469 58.625 18.5625 58.070312 18.339844 57.53125 C 18.117188 56.992188 17.84375 56.480469 17.519531 55.996094 C 17.199219 55.511719 16.828125 55.0625 16.417969 54.652344 C 16.007812 54.238281 15.558594 53.871094 15.074219 53.546875 C 14.589844 53.222656 14.078125 52.949219 13.539062 52.726562 C 13 52.503906 12.445312 52.335938 11.875 52.21875 C 11.300781 52.105469 10.726562 52.050781 10.144531 52.050781 C 9.558594 52.050781 8.984375 52.105469 8.410156 52.21875 C 7.839844 52.332031 7.285156 52.5 6.746094 52.722656 C 6.207031 52.945312 5.695312 53.21875 5.210938 53.542969 C 4.726562 53.867188 4.277344 54.234375 3.867188 54.648438 C 3.453125 55.058594 3.085938 55.507812 2.761719 55.992188 C 2.4375 56.476562 2.164062 56.988281 1.941406 57.527344 C 1.71875 58.066406 1.550781 58.621094 1.4375 59.191406 C 1.320312 59.761719 1.265625 60.339844 1.265625 60.921875 C 1.265625 61.507812 1.320312 62.082031 1.433594 62.65625 C 1.550781 63.226562 1.71875 63.78125 1.941406 64.320312 C 2.164062 64.859375 2.4375 65.371094 2.761719 65.855469 C 3.085938 66.339844 3.453125 66.789062 3.863281 67.199219 C 4.277344 67.613281 4.726562 67.980469 5.210938 68.304688 C 5.695312 68.628906 6.207031 68.902344 6.742188 69.125 C 7.28125 69.347656 7.835938 69.515625 8.410156 69.628906 C 8.980469 69.742188 9.558594 69.800781 10.140625 69.800781 C 10.722656 69.796875 11.300781 69.742188 11.871094 69.625 C 12.441406 69.511719 12.996094 69.34375 13.535156 69.121094 C 14.070312 68.898438 14.582031 68.625 15.066406 68.300781 C 15.550781 67.976562 16 67.609375 16.410156 67.195312 C 16.820312 66.785156 17.191406 66.335938 17.511719 65.855469 C 17.835938 65.371094 18.109375 64.859375 18.335938 64.320312 C 18.558594 63.785156 18.726562 63.230469 18.839844 62.660156 C 18.957031 62.085938 19.011719 61.511719 19.015625 60.929688 Z M 19.015625 60.929688 " fill-opacity="1" fill-rule="evenodd"/><g clip-path="url(#4996c970c7)"><path fill="#ff9f4f" d="M 19.542969 36.121094 C 19.535156 35.507812 19.46875 34.902344 19.34375 34.300781 C 19.21875 33.699219 19.039062 33.117188 18.796875 32.554688 C 18.558594 31.988281 18.269531 31.453125 17.925781 30.945312 C 17.582031 30.4375 17.191406 29.964844 16.753906 29.535156 C 16.320312 29.101562 15.84375 28.71875 15.335938 28.378906 C 14.824219 28.039062 14.285156 27.753906 13.714844 27.519531 C 13.148438 27.289062 12.566406 27.113281 11.960938 26.992188 C 11.359375 26.875 10.753906 26.816406 10.140625 26.816406 C 9.527344 26.816406 8.917969 26.875 8.316406 26.992188 C 7.714844 27.113281 7.132812 27.289062 6.5625 27.519531 C 5.996094 27.753906 5.457031 28.039062 4.945312 28.378906 C 4.433594 28.71875 3.960938 29.101562 3.527344 29.535156 C 3.089844 29.964844 2.699219 30.4375 2.355469 30.945312 C 2.011719 31.453125 1.722656 31.988281 1.480469 32.554688 C 1.242188 33.117188 1.0625 33.699219 0.9375 34.300781 C 0.8125 34.902344 0.746094 35.507812 0.738281 36.121094 C 0.738281 41.382812 4.953125 45.59375 10.140625 45.59375 C 15.332031 45.59375 19.542969 41.382812 19.542969 36.121094 Z M 19.542969 36.121094 " fill-opacity="1" fill-rule="evenodd"/></g><g clip-path="url(#5be3041885)"><path fill="#ff9f4f" d="M 20.0625 11.316406 C 20.0625 10.664062 20 10.019531 19.875 9.378906 C 19.746094 8.738281 19.558594 8.117188 19.308594 7.515625 C 19.0625 6.914062 18.753906 6.339844 18.394531 5.796875 C 18.03125 5.257812 17.621094 4.753906 17.160156 4.292969 C 16.699219 3.832031 16.195312 3.421875 15.65625 3.058594 C 15.113281 2.695312 14.542969 2.390625 13.9375 2.140625 C 13.335938 1.890625 12.714844 1.703125 12.078125 1.574219 C 11.4375 1.445312 10.792969 1.382812 10.140625 1.382812 C 9.488281 1.382812 8.84375 1.445312 8.203125 1.574219 C 7.5625 1.699219 6.941406 1.886719 6.339844 2.136719 C 5.738281 2.386719 5.164062 2.691406 4.621094 3.054688 C 4.082031 3.417969 3.578125 3.828125 3.117188 4.289062 C 2.65625 4.75 2.246094 5.25 1.882812 5.792969 C 1.519531 6.335938 1.214844 6.90625 0.964844 7.507812 C 0.714844 8.113281 0.527344 8.734375 0.398438 9.371094 C 0.273438 10.011719 0.207031 10.65625 0.207031 11.308594 C 0.207031 11.960938 0.273438 12.605469 0.398438 13.246094 C 0.527344 13.886719 0.714844 14.507812 0.964844 15.109375 C 1.214844 15.710938 1.519531 16.285156 1.882812 16.824219 C 2.242188 17.367188 2.65625 17.867188 3.117188 18.332031 C 3.578125 18.792969 4.078125 19.203125 4.621094 19.566406 C 5.164062 19.925781 5.734375 20.234375 6.335938 20.484375 C 6.941406 20.730469 7.558594 20.921875 8.199219 21.046875 C 8.839844 21.175781 9.484375 21.238281 10.136719 21.238281 C 10.789062 21.238281 11.433594 21.175781 12.074219 21.050781 C 12.714844 20.921875 13.335938 20.734375 13.9375 20.484375 C 14.539062 20.238281 15.109375 19.929688 15.652344 19.570312 C 16.195312 19.207031 16.695312 18.796875 17.15625 18.335938 C 17.617188 17.875 18.03125 17.375 18.394531 16.832031 C 18.753906 16.289062 19.0625 15.71875 19.308594 15.113281 C 19.558594 14.511719 19.746094 13.890625 19.875 13.253906 C 20 12.613281 20.0625 11.96875 20.0625 11.316406 Z M 20.0625 11.316406 " fill-opacity="1" fill-rule="evenodd"/></g><g clip-path="url(#27b9b98fe2)"><path fill="#ff9f4f" d="M 35.5625 358.683594 C 35.5625 358.304688 35.257812 358.007812 34.960938 358.007812 C 34.582031 358.007812 34.355469 358.308594 34.355469 358.683594 C 34.355469 358.851562 34.414062 358.992188 34.53125 359.109375 C 34.648438 359.230469 34.792969 359.285156 34.960938 359.285156 C 35.121094 359.273438 35.257812 359.210938 35.371094 359.097656 C 35.488281 358.980469 35.550781 358.84375 35.5625 358.683594 Z M 35.5625 358.683594 " fill-opacity="1" fill-rule="evenodd"/></g><path fill="#ff9f4f" d="M 36.238281 333.875 C 36.238281 333.121094 35.710938 332.523438 34.960938 332.523438 C 34.207031 332.523438 33.679688 333.125 33.679688 333.875 C 33.683594 334.042969 33.71875 334.203125 33.789062 334.355469 C 33.855469 334.507812 33.945312 334.640625 34.066406 334.757812 C 34.1875 334.875 34.324219 334.964844 34.476562 335.027344 C 34.632812 335.089844 34.792969 335.121094 34.957031 335.121094 C 35.125 335.121094 35.285156 335.089844 35.441406 335.027344 C 35.59375 334.964844 35.730469 334.875 35.851562 334.757812 C 35.96875 334.640625 36.0625 334.507812 36.128906 334.355469 C 36.195312 334.203125 36.234375 334.042969 36.238281 333.875 Z M 36.238281 333.875 " fill-opacity="1" fill-rule="evenodd"/><path fill="#ff9f4f" d="M 36.988281 309.070312 C 36.988281 307.867188 36.085938 306.964844 34.960938 306.964844 C 34.679688 306.964844 34.410156 307.019531 34.152344 307.125 C 33.894531 307.230469 33.667969 307.382812 33.46875 307.582031 C 33.273438 307.777344 33.121094 308.003906 33.011719 308.265625 C 32.90625 308.523438 32.851562 308.789062 32.851562 309.070312 C 32.851562 310.199219 33.832031 311.101562 34.960938 311.101562 C 35.230469 311.101562 35.488281 311.050781 35.738281 310.949219 C 35.988281 310.84375 36.207031 310.699219 36.398438 310.507812 C 36.585938 310.316406 36.734375 310.097656 36.835938 309.847656 C 36.941406 309.597656 36.992188 309.339844 36.988281 309.070312 Z M 36.988281 309.070312 " fill-opacity="1" fill-rule="evenodd"/><path fill="#ff9f4f" d="M 37.742188 284.261719 C 37.734375 283.898438 37.660156 283.546875 37.515625 283.214844 C 37.371094 282.878906 37.167969 282.582031 36.910156 282.328125 C 36.648438 282.074219 36.347656 281.875 36.011719 281.738281 C 35.675781 281.601562 35.324219 281.53125 34.957031 281.53125 C 34.59375 281.53125 34.242188 281.601562 33.90625 281.738281 C 33.566406 281.875 33.269531 282.074219 33.007812 282.328125 C 32.75 282.582031 32.546875 282.878906 32.402344 283.214844 C 32.257812 283.546875 32.183594 283.898438 32.175781 284.261719 C 32.175781 285.769531 33.453125 286.96875 34.960938 286.96875 C 36.464844 286.96875 37.742188 285.765625 37.742188 284.261719 Z M 37.742188 284.261719 " fill-opacity="1" fill-rule="evenodd"/><path fill="#ff9f4f" d="M 38.492188 259.457031 C 38.492188 258.988281 38.402344 258.535156 38.226562 258.101562 C 38.046875 257.671875 37.789062 257.289062 37.457031 256.957031 C 37.128906 256.625 36.746094 256.371094 36.3125 256.191406 C 35.878906 256.011719 35.429688 255.921875 34.960938 255.921875 C 34.492188 255.921875 34.039062 256.011719 33.605469 256.191406 C 33.171875 256.371094 32.792969 256.625 32.460938 256.957031 C 32.128906 257.289062 31.871094 257.671875 31.695312 258.101562 C 31.515625 258.535156 31.425781 258.988281 31.425781 259.457031 C 31.425781 261.339844 33.003906 262.914062 34.960938 262.914062 C 36.914062 262.914062 38.492188 261.335938 38.492188 259.457031 Z M 38.492188 259.457031 " fill-opacity="1" fill-rule="evenodd"/><path fill="#ff9f4f" d="M 39.246094 234.648438 C 39.230469 234.09375 39.109375 233.558594 38.882812 233.050781 C 38.660156 232.539062 38.347656 232.089844 37.945312 231.699219 C 37.546875 231.3125 37.085938 231.015625 36.570312 230.804688 C 36.054688 230.59375 35.515625 230.488281 34.960938 230.488281 C 34.402344 230.488281 33.867188 230.59375 33.347656 230.804688 C 32.832031 231.015625 32.375 231.3125 31.972656 231.699219 C 31.574219 232.089844 31.261719 232.539062 31.035156 233.050781 C 30.8125 233.558594 30.691406 234.09375 30.675781 234.648438 C 30.675781 236.980469 32.628906 238.859375 34.960938 238.859375 C 37.292969 238.859375 39.25 236.976562 39.25 234.648438 Z M 39.246094 234.648438 " fill-opacity="1" fill-rule="evenodd"/><path fill="#ff9f4f" d="M 39.921875 209.769531 C 39.921875 207.0625 37.667969 204.882812 34.960938 204.882812 C 32.25 204.882812 29.996094 207.0625 29.996094 209.769531 C 29.996094 210.09375 30.027344 210.417969 30.089844 210.734375 C 30.15625 211.054688 30.25 211.367188 30.375 211.667969 C 30.5 211.96875 30.652344 212.253906 30.832031 212.523438 C 31.011719 212.796875 31.21875 213.046875 31.449219 213.277344 C 31.679688 213.507812 31.929688 213.714844 32.203125 213.894531 C 32.472656 214.074219 32.757812 214.230469 33.058594 214.351562 C 33.359375 214.476562 33.671875 214.574219 33.992188 214.636719 C 34.308594 214.699219 34.632812 214.730469 34.960938 214.730469 C 35.285156 214.730469 35.609375 214.699219 35.925781 214.636719 C 36.246094 214.574219 36.558594 214.476562 36.859375 214.351562 C 37.160156 214.230469 37.445312 214.074219 37.714844 213.894531 C 37.988281 213.714844 38.238281 213.507812 38.46875 213.277344 C 38.699219 213.046875 38.90625 212.796875 39.085938 212.523438 C 39.265625 212.253906 39.421875 211.96875 39.542969 211.667969 C 39.667969 211.367188 39.761719 211.054688 39.828125 210.734375 C 39.890625 210.417969 39.921875 210.09375 39.921875 209.769531 Z M 39.921875 209.769531 " fill-opacity="1" fill-rule="evenodd"/><path fill="#ff9f4f" d="M 40.597656 184.960938 C 40.597656 181.878906 38.039062 179.324219 34.957031 179.324219 C 34.585938 179.324219 34.21875 179.359375 33.855469 179.429688 C 33.492188 179.503906 33.136719 179.609375 32.796875 179.75 C 32.453125 179.890625 32.128906 180.066406 31.820312 180.269531 C 31.511719 180.476562 31.226562 180.710938 30.964844 180.972656 C 30.703125 181.234375 30.46875 181.519531 30.261719 181.828125 C 30.058594 182.136719 29.882812 182.460938 29.742188 182.800781 C 29.601562 183.144531 29.492188 183.496094 29.421875 183.859375 C 29.351562 184.222656 29.3125 184.589844 29.316406 184.960938 C 29.316406 188.117188 31.796875 190.675781 34.957031 190.675781 C 38.039062 190.675781 40.597656 188.117188 40.597656 184.960938 Z M 40.597656 184.960938 " fill-opacity="1" fill-rule="evenodd"/><path fill="#ff9f4f" d="M 41.347656 160.15625 C 41.34375 159.738281 41.300781 159.328125 41.214844 158.917969 C 41.128906 158.511719 41.003906 158.117188 40.839844 157.730469 C 40.679688 157.347656 40.480469 156.984375 40.246094 156.640625 C 40.011719 156.296875 39.746094 155.976562 39.449219 155.683594 C 39.152344 155.390625 38.832031 155.128906 38.484375 154.902344 C 38.136719 154.671875 37.769531 154.476562 37.386719 154.316406 C 37 154.160156 36.601562 154.039062 36.195312 153.960938 C 35.785156 153.878906 35.375 153.839844 34.957031 153.839844 C 34.539062 153.839844 34.128906 153.878906 33.71875 153.960938 C 33.308594 154.039062 32.914062 154.160156 32.527344 154.316406 C 32.144531 154.476562 31.777344 154.671875 31.429688 154.902344 C 31.082031 155.128906 30.761719 155.390625 30.464844 155.683594 C 30.167969 155.976562 29.902344 156.296875 29.667969 156.640625 C 29.433594 156.984375 29.234375 157.347656 29.074219 157.730469 C 28.910156 158.117188 28.785156 158.511719 28.699219 158.917969 C 28.613281 159.328125 28.570312 159.738281 28.5625 160.15625 C 28.5625 163.6875 31.421875 166.621094 34.957031 166.621094 C 38.492188 166.621094 41.347656 163.6875 41.347656 160.15625 Z M 41.347656 160.15625 " fill-opacity="1" fill-rule="evenodd"/><path fill="#ff9f4f" d="M 42.027344 135.34375 C 42.027344 134.878906 41.984375 134.421875 41.894531 133.964844 C 41.800781 133.511719 41.667969 133.070312 41.492188 132.640625 C 41.3125 132.210938 41.09375 131.804688 40.835938 131.417969 C 40.578125 131.03125 40.285156 130.675781 39.957031 130.347656 C 39.628906 130.019531 39.273438 129.726562 38.886719 129.46875 C 38.5 129.210938 38.09375 128.992188 37.664062 128.8125 C 37.234375 128.636719 36.792969 128.503906 36.339844 128.410156 C 35.882812 128.320312 35.421875 128.277344 34.960938 128.277344 C 34.496094 128.277344 34.035156 128.320312 33.578125 128.410156 C 33.125 128.503906 32.683594 128.636719 32.253906 128.8125 C 31.824219 128.992188 31.417969 129.210938 31.03125 129.46875 C 30.644531 129.726562 30.289062 130.019531 29.960938 130.347656 C 29.632812 130.675781 29.339844 131.03125 29.082031 131.417969 C 28.824219 131.804688 28.605469 132.210938 28.429688 132.640625 C 28.25 133.070312 28.117188 133.511719 28.027344 133.964844 C 27.933594 134.421875 27.890625 134.878906 27.890625 135.34375 C 27.890625 139.328125 31.046875 142.484375 34.960938 142.484375 C 38.871094 142.484375 42.027344 139.328125 42.027344 135.34375 Z M 42.027344 135.34375 " fill-opacity="1" fill-rule="evenodd"/><path fill="#ff9f4f" d="M 42.78125 110.542969 C 42.78125 110.027344 42.730469 109.519531 42.628906 109.015625 C 42.53125 108.511719 42.382812 108.023438 42.183594 107.546875 C 41.988281 107.074219 41.746094 106.625 41.460938 106.195312 C 41.175781 105.769531 40.851562 105.375 40.488281 105.011719 C 40.125 104.648438 39.730469 104.324219 39.304688 104.039062 C 38.875 103.753906 38.425781 103.511719 37.953125 103.316406 C 37.476562 103.121094 36.988281 102.972656 36.484375 102.871094 C 35.980469 102.769531 35.472656 102.71875 34.957031 102.71875 C 34.445312 102.71875 33.9375 102.769531 33.433594 102.871094 C 32.929688 102.972656 32.441406 103.121094 31.964844 103.316406 C 31.492188 103.511719 31.039062 103.753906 30.613281 104.039062 C 30.1875 104.324219 29.792969 104.648438 29.429688 105.011719 C 29.066406 105.375 28.742188 105.769531 28.457031 106.195312 C 28.171875 106.625 27.929688 107.074219 27.734375 107.546875 C 27.535156 108.023438 27.386719 108.511719 27.289062 109.015625 C 27.1875 109.519531 27.136719 110.027344 27.136719 110.542969 C 27.136719 114.902344 30.597656 118.433594 34.960938 118.433594 C 39.320312 118.433594 42.777344 114.902344 42.777344 110.542969 Z M 42.78125 110.542969 " fill-opacity="1" fill-rule="evenodd"/><path fill="#ff9f4f" d="M 43.457031 85.734375 C 43.457031 85.175781 43.402344 84.625 43.296875 84.078125 C 43.1875 83.53125 43.027344 82.996094 42.8125 82.480469 C 42.597656 81.96875 42.335938 81.476562 42.027344 81.011719 C 41.71875 80.550781 41.363281 80.121094 40.96875 79.726562 C 40.574219 79.332031 40.144531 78.980469 39.679688 78.667969 C 39.21875 78.359375 38.726562 78.097656 38.210938 77.886719 C 37.695312 77.671875 37.164062 77.511719 36.617188 77.402344 C 36.070312 77.292969 35.515625 77.242188 34.960938 77.242188 C 30.21875 77.242188 26.386719 81.074219 26.386719 85.734375 C 26.386719 86.296875 26.441406 86.855469 26.554688 87.40625 C 26.664062 87.957031 26.824219 88.496094 27.039062 89.015625 C 27.257812 89.535156 27.519531 90.027344 27.832031 90.496094 C 28.144531 90.964844 28.5 91.398438 28.898438 91.796875 C 29.296875 92.191406 29.730469 92.546875 30.199219 92.859375 C 30.664062 93.171875 31.160156 93.4375 31.679688 93.652344 C 32.199219 93.867188 32.734375 94.03125 33.285156 94.140625 C 33.839844 94.25 34.394531 94.304688 34.960938 94.304688 C 39.699219 94.304688 43.457031 90.472656 43.457031 85.734375 Z M 43.457031 85.734375 " fill-opacity="1" fill-rule="evenodd"/><path fill="#ff9f4f" d="M 44.210938 60.929688 C 44.210938 55.890625 40.074219 51.757812 34.960938 51.757812 C 29.84375 51.757812 25.707031 55.890625 25.707031 60.929688 C 25.707031 61.535156 25.769531 62.136719 25.886719 62.734375 C 26.003906 63.328125 26.179688 63.90625 26.414062 64.46875 C 26.644531 65.03125 26.929688 65.5625 27.265625 66.066406 C 27.605469 66.574219 27.988281 67.039062 28.417969 67.46875 C 28.847656 67.898438 29.316406 68.28125 29.820312 68.621094 C 30.324219 68.957031 30.859375 69.242188 31.417969 69.476562 C 31.980469 69.707031 32.558594 69.882812 33.15625 70 C 33.75 70.121094 34.351562 70.179688 34.960938 70.179688 C 35.566406 70.179688 36.167969 70.121094 36.765625 70 C 37.359375 69.882812 37.9375 69.707031 38.5 69.476562 C 39.058594 69.242188 39.59375 68.957031 40.097656 68.621094 C 40.605469 68.28125 41.070312 67.898438 41.5 67.46875 C 41.929688 67.039062 42.3125 66.574219 42.652344 66.066406 C 42.988281 65.5625 43.273438 65.03125 43.503906 64.46875 C 43.738281 63.90625 43.914062 63.328125 44.03125 62.734375 C 44.152344 62.136719 44.210938 61.535156 44.210938 60.929688 Z M 44.210938 60.929688 " fill-opacity="1" fill-rule="evenodd"/><path fill="#ff9f4f" d="M 44.886719 36.121094 C 44.886719 35.46875 44.824219 34.824219 44.695312 34.183594 C 44.570312 33.546875 44.382812 32.925781 44.132812 32.320312 C 43.882812 31.71875 43.578125 31.148438 43.214844 30.605469 C 42.851562 30.0625 42.441406 29.5625 41.980469 29.101562 C 41.519531 28.636719 41.019531 28.226562 40.476562 27.863281 C 39.933594 27.5 39.363281 27.195312 38.761719 26.945312 C 38.15625 26.695312 37.539062 26.507812 36.898438 26.378906 C 36.257812 26.253906 35.613281 26.1875 34.960938 26.1875 C 34.308594 26.1875 33.664062 26.253906 33.023438 26.378906 C 32.382812 26.507812 31.761719 26.695312 31.160156 26.945312 C 30.558594 27.195312 29.988281 27.5 29.445312 27.859375 C 28.902344 28.222656 28.402344 28.632812 27.9375 29.09375 C 27.476562 29.554688 27.066406 30.058594 26.703125 30.601562 C 26.34375 31.140625 26.035156 31.714844 25.785156 32.316406 C 25.535156 32.917969 25.347656 33.539062 25.222656 34.179688 C 25.09375 34.820312 25.03125 35.464844 25.03125 36.117188 C 25.03125 36.769531 25.09375 37.414062 25.222656 38.054688 C 25.347656 38.691406 25.535156 39.3125 25.785156 39.914062 C 26.035156 40.519531 26.339844 41.089844 26.703125 41.632812 C 27.066406 42.175781 27.476562 42.675781 27.9375 43.136719 C 28.398438 43.597656 28.902344 44.011719 29.441406 44.371094 C 29.984375 44.734375 30.558594 45.039062 31.160156 45.289062 C 31.761719 45.539062 32.382812 45.726562 33.023438 45.855469 C 33.660156 45.980469 34.308594 46.046875 34.960938 46.046875 C 35.609375 46.046875 36.257812 45.984375 36.894531 45.855469 C 37.535156 45.730469 38.15625 45.542969 38.757812 45.292969 C 39.359375 45.042969 39.933594 44.738281 40.476562 44.375 C 41.019531 44.015625 41.519531 43.601562 41.980469 43.140625 C 42.441406 42.679688 42.851562 42.179688 43.214844 41.636719 C 43.578125 41.097656 43.882812 40.523438 44.132812 39.921875 C 44.382812 39.320312 44.570312 38.699219 44.695312 38.058594 C 44.824219 37.417969 44.886719 36.773438 44.886719 36.121094 Z M 44.886719 36.121094 " fill-opacity="1" fill-rule="evenodd"/><g clip-path="url(#ab659866dc)"><path fill="#ff9f4f" d="M 45.414062 11.316406 C 45.414062 10.628906 45.347656 9.949219 45.210938 9.277344 C 45.078125 8.601562 44.882812 7.949219 44.617188 7.3125 C 44.355469 6.679688 44.035156 6.078125 43.652344 5.507812 C 43.273438 4.933594 42.839844 4.40625 42.355469 3.921875 C 41.867188 3.433594 41.339844 3 40.769531 2.621094 C 40.199219 2.238281 39.597656 1.917969 38.960938 1.652344 C 38.328125 1.390625 37.675781 1.191406 37 1.058594 C 36.328125 0.921875 35.648438 0.855469 34.960938 0.855469 C 34.277344 0.855469 33.59375 0.921875 32.921875 1.054688 C 32.25 1.191406 31.59375 1.386719 30.960938 1.648438 C 30.324219 1.914062 29.722656 2.234375 29.152344 2.617188 C 28.582031 2.996094 28.054688 3.429688 27.566406 3.914062 C 27.082031 4.402344 26.648438 4.929688 26.265625 5.5 C 25.886719 6.070312 25.5625 6.671875 25.300781 7.308594 C 25.039062 7.941406 24.839844 8.59375 24.703125 9.269531 C 24.570312 9.941406 24.503906 10.621094 24.503906 11.308594 C 24.503906 11.996094 24.570312 12.675781 24.703125 13.347656 C 24.839844 14.019531 25.035156 14.675781 25.300781 15.308594 C 25.5625 15.945312 25.882812 16.546875 26.265625 17.117188 C 26.644531 17.6875 27.078125 18.214844 27.566406 18.703125 C 28.050781 19.1875 28.578125 19.621094 29.148438 20.003906 C 29.71875 20.382812 30.324219 20.707031 30.957031 20.96875 C 31.589844 21.230469 32.246094 21.429688 32.917969 21.5625 C 33.589844 21.699219 34.273438 21.765625 34.957031 21.765625 C 35.644531 21.765625 36.324219 21.699219 37 21.566406 C 37.671875 21.433594 38.328125 21.238281 38.960938 20.976562 C 39.597656 20.714844 40.199219 20.394531 40.769531 20.011719 C 41.34375 19.628906 41.871094 19.199219 42.355469 18.710938 C 42.839844 18.226562 43.273438 17.699219 43.65625 17.128906 C 44.039062 16.554688 44.359375 15.953125 44.621094 15.320312 C 44.882812 14.683594 45.082031 14.03125 45.214844 13.355469 C 45.347656 12.683594 45.414062 12.003906 45.414062 11.316406 Z M 45.414062 11.316406 " fill-opacity="1" fill-rule="evenodd"/></g><g clip-path="url(#c7a13c6a70)"><path fill="#ff9f4f" d="M 60.378906 358.683594 C 60.378906 358.304688 60.078125 358.007812 59.777344 358.007812 C 59.402344 358.007812 59.175781 358.308594 59.175781 358.683594 C 59.171875 358.851562 59.230469 358.992188 59.347656 359.109375 C 59.46875 359.230469 59.609375 359.285156 59.777344 359.285156 C 59.9375 359.273438 60.078125 359.210938 60.191406 359.097656 C 60.304688 358.980469 60.367188 358.84375 60.378906 358.683594 Z M 60.378906 358.683594 " fill-opacity="1" fill-rule="evenodd"/></g><path fill="#ff9f4f" d="M 61.128906 333.875 C 61.128906 333.121094 60.527344 332.449219 59.773438 332.449219 C 59.023438 332.449219 58.421875 333.125 58.421875 333.875 C 58.421875 334.054688 58.457031 334.226562 58.523438 334.394531 C 58.59375 334.558594 58.691406 334.707031 58.816406 334.832031 C 58.945312 334.960938 59.089844 335.058594 59.257812 335.125 C 59.421875 335.195312 59.59375 335.230469 59.773438 335.230469 C 59.953125 335.230469 60.125 335.195312 60.292969 335.125 C 60.457031 335.058594 60.605469 334.960938 60.730469 334.832031 C 60.859375 334.707031 60.957031 334.558594 61.023438 334.394531 C 61.09375 334.226562 61.128906 334.054688 61.128906 333.875 Z M 61.128906 333.875 " fill-opacity="1" fill-rule="evenodd"/><path fill="#ff9f4f" d="M 61.808594 309.070312 C 61.808594 307.867188 60.90625 306.964844 59.777344 306.964844 C 59.496094 306.964844 59.230469 307.019531 58.972656 307.125 C 58.710938 307.230469 58.484375 307.382812 58.289062 307.582031 C 58.089844 307.777344 57.9375 308.003906 57.832031 308.265625 C 57.722656 308.523438 57.671875 308.789062 57.671875 309.070312 C 57.671875 310.199219 58.648438 311.101562 59.777344 311.101562 C 60.046875 311.101562 60.304688 311.050781 60.554688 310.949219 C 60.804688 310.84375 61.023438 310.699219 61.214844 310.507812 C 61.40625 310.316406 61.550781 310.097656 61.65625 309.847656 C 61.757812 309.597656 61.808594 309.339844 61.808594 309.070312 Z M 61.808594 309.070312 " fill-opacity="1" fill-rule="evenodd"/><path fill="#ff9f4f" d="M 62.558594 284.261719 C 62.558594 282.683594 61.355469 281.40625 59.777344 281.40625 C 59.398438 281.40625 59.035156 281.480469 58.683594 281.625 C 58.332031 281.769531 58.023438 281.976562 57.757812 282.242188 C 57.488281 282.511719 57.28125 282.820312 57.136719 283.167969 C 56.992188 283.519531 56.917969 283.882812 56.917969 284.261719 C 56.917969 285.769531 58.199219 287.042969 59.777344 287.042969 C 60.148438 287.046875 60.5 286.976562 60.84375 286.835938 C 61.183594 286.695312 61.484375 286.492188 61.746094 286.230469 C 62.007812 285.972656 62.210938 285.671875 62.351562 285.328125 C 62.492188 284.988281 62.5625 284.632812 62.558594 284.261719 Z M 62.558594 284.261719 " fill-opacity="1" fill-rule="evenodd"/><path fill="#ff9f4f" d="M 63.3125 259.457031 C 63.3125 258.988281 63.222656 258.535156 63.042969 258.101562 C 62.863281 257.671875 62.609375 257.289062 62.277344 256.957031 C 61.945312 256.625 61.5625 256.371094 61.128906 256.191406 C 60.695312 256.011719 60.246094 255.921875 59.777344 255.921875 C 59.308594 255.921875 58.859375 256.011719 58.425781 256.191406 C 57.992188 256.371094 57.609375 256.625 57.277344 256.957031 C 56.945312 257.289062 56.691406 257.671875 56.511719 258.101562 C 56.332031 258.535156 56.242188 258.988281 56.242188 259.457031 C 56.242188 261.339844 57.820312 262.914062 59.777344 262.914062 C 61.734375 262.914062 63.3125 261.335938 63.3125 259.457031 Z M 63.3125 259.457031 " fill-opacity="1" fill-rule="evenodd"/><path fill="#ff9f4f" d="M 64.066406 234.648438 C 64.046875 234.09375 63.925781 233.558594 63.703125 233.050781 C 63.476562 232.539062 63.164062 232.089844 62.765625 231.699219 C 62.367188 231.3125 61.90625 231.015625 61.390625 230.804688 C 60.875 230.59375 60.335938 230.488281 59.777344 230.488281 C 59.222656 230.488281 58.683594 230.59375 58.167969 230.804688 C 57.652344 231.015625 57.191406 231.3125 56.792969 231.699219 C 56.394531 232.089844 56.082031 232.539062 55.855469 233.050781 C 55.632812 233.558594 55.511719 234.09375 55.492188 234.648438 C 55.492188 236.980469 57.449219 238.859375 59.78125 238.859375 C 62.113281 238.859375 64.066406 236.976562 64.066406 234.648438 Z M 64.066406 234.648438 " fill-opacity="1" fill-rule="evenodd"/><path fill="#ff9f4f" d="M 64.742188 209.769531 C 64.742188 207.0625 62.484375 204.882812 59.777344 204.882812 C 57.070312 204.882812 54.8125 207.0625 54.8125 209.769531 C 54.8125 210.09375 54.84375 210.417969 54.910156 210.734375 C 54.972656 211.054688 55.066406 211.367188 55.191406 211.667969 C 55.316406 211.96875 55.46875 212.253906 55.648438 212.523438 C 55.832031 212.796875 56.039062 213.046875 56.269531 213.277344 C 56.5 213.507812 56.75 213.714844 57.019531 213.894531 C 57.289062 214.074219 57.578125 214.230469 57.878906 214.351562 C 58.179688 214.476562 58.488281 214.574219 58.808594 214.636719 C 59.128906 214.699219 59.453125 214.730469 59.777344 214.730469 C 60.101562 214.730469 60.425781 214.699219 60.746094 214.636719 C 61.066406 214.574219 61.375 214.476562 61.675781 214.351562 C 61.976562 214.230469 62.265625 214.074219 62.535156 213.894531 C 62.804688 213.714844 63.054688 213.507812 63.285156 213.277344 C 63.515625 213.046875 63.722656 212.796875 63.90625 212.523438 C 64.085938 212.253906 64.238281 211.96875 64.363281 211.667969 C 64.488281 211.367188 64.582031 211.054688 64.644531 210.734375 C 64.710938 210.417969 64.742188 210.09375 64.742188 209.769531 Z M 64.742188 209.769531 " fill-opacity="1" fill-rule="evenodd"/><path fill="#ff9f4f" d="M 65.492188 184.960938 C 65.492188 181.878906 62.9375 179.324219 59.777344 179.324219 C 56.617188 179.324219 54.0625 181.878906 54.0625 184.960938 C 54.0625 185.335938 54.097656 185.707031 54.171875 186.078125 C 54.246094 186.445312 54.351562 186.800781 54.496094 187.148438 C 54.640625 187.496094 54.816406 187.824219 55.023438 188.136719 C 55.234375 188.449219 55.46875 188.738281 55.734375 189.003906 C 56 189.269531 56.289062 189.507812 56.601562 189.714844 C 56.914062 189.921875 57.242188 190.097656 57.589844 190.242188 C 57.9375 190.386719 58.292969 190.496094 58.664062 190.566406 C 59.03125 190.640625 59.402344 190.679688 59.777344 190.679688 C 60.152344 190.679688 60.523438 190.640625 60.890625 190.566406 C 61.261719 190.496094 61.617188 190.386719 61.964844 190.242188 C 62.3125 190.097656 62.640625 189.921875 62.953125 189.714844 C 63.265625 189.507812 63.554688 189.269531 63.820312 189.003906 C 64.085938 188.738281 64.320312 188.449219 64.53125 188.136719 C 64.738281 187.824219 64.914062 187.496094 65.058594 187.148438 C 65.203125 186.800781 65.308594 186.445312 65.382812 186.078125 C 65.457031 185.707031 65.492188 185.335938 65.492188 184.960938 Z M 65.492188 184.960938 " fill-opacity="1" fill-rule="evenodd"/><path fill="#ff9f4f" d="M 66.246094 160.15625 C 66.246094 156.621094 63.3125 153.691406 59.777344 153.691406 C 59.351562 153.691406 58.933594 153.730469 58.515625 153.816406 C 58.101562 153.898438 57.695312 154.019531 57.304688 154.183594 C 56.910156 154.347656 56.539062 154.546875 56.1875 154.78125 C 55.832031 155.015625 55.507812 155.285156 55.207031 155.585938 C 54.90625 155.886719 54.640625 156.210938 54.402344 156.566406 C 54.167969 156.917969 53.96875 157.289062 53.808594 157.683594 C 53.644531 158.074219 53.523438 158.480469 53.4375 158.894531 C 53.355469 159.3125 53.316406 159.730469 53.316406 160.15625 C 53.316406 160.582031 53.355469 161 53.441406 161.417969 C 53.523438 161.835938 53.644531 162.238281 53.808594 162.628906 C 53.96875 163.023438 54.167969 163.394531 54.40625 163.746094 C 54.640625 164.101562 54.910156 164.425781 55.210938 164.726562 C 55.511719 165.027344 55.835938 165.296875 56.191406 165.53125 C 56.542969 165.765625 56.914062 165.964844 57.308594 166.128906 C 57.699219 166.289062 58.105469 166.414062 58.519531 166.496094 C 58.9375 166.578125 59.355469 166.621094 59.78125 166.621094 C 60.207031 166.621094 60.625 166.578125 61.042969 166.496094 C 61.457031 166.414062 61.863281 166.289062 62.253906 166.128906 C 62.648438 165.964844 63.019531 165.765625 63.371094 165.53125 C 63.726562 165.292969 64.050781 165.027344 64.351562 164.726562 C 64.652344 164.425781 64.917969 164.097656 65.15625 163.746094 C 65.390625 163.394531 65.589844 163.019531 65.753906 162.628906 C 65.914062 162.238281 66.039062 161.832031 66.121094 161.414062 C 66.203125 161 66.246094 160.578125 66.246094 160.15625 Z M 66.246094 160.15625 " fill-opacity="1" fill-rule="evenodd"/><path fill="#ff9f4f" d="M 66.921875 135.34375 C 66.921875 134.875 66.875 134.410156 66.785156 133.949219 C 66.691406 133.492188 66.558594 133.042969 66.378906 132.609375 C 66.199219 132.175781 65.980469 131.765625 65.71875 131.375 C 65.457031 130.984375 65.160156 130.625 64.828125 130.292969 C 64.496094 129.960938 64.136719 129.664062 63.746094 129.40625 C 63.355469 129.144531 62.945312 128.921875 62.511719 128.742188 C 62.078125 128.566406 61.632812 128.429688 61.171875 128.335938 C 60.710938 128.246094 60.246094 128.199219 59.777344 128.199219 C 59.308594 128.199219 58.84375 128.246094 58.382812 128.335938 C 57.921875 128.429688 57.476562 128.566406 57.042969 128.742188 C 56.609375 128.921875 56.199219 129.144531 55.808594 129.40625 C 55.417969 129.664062 55.058594 129.960938 54.726562 130.292969 C 54.394531 130.625 54.097656 130.984375 53.835938 131.375 C 53.574219 131.765625 53.355469 132.175781 53.175781 132.609375 C 52.996094 133.042969 52.863281 133.492188 52.769531 133.949219 C 52.679688 134.410156 52.632812 134.875 52.632812 135.34375 C 52.632812 139.328125 55.792969 142.5625 59.777344 142.5625 C 63.761719 142.5625 66.921875 139.328125 66.921875 135.34375 Z M 66.921875 135.34375 " fill-opacity="1" fill-rule="evenodd"/><path fill="#ff9f4f" d="M 67.675781 110.542969 C 67.667969 110.027344 67.613281 109.515625 67.507812 109.011719 C 67.402344 108.507812 67.25 108.019531 67.050781 107.546875 C 66.847656 107.070312 66.601562 106.621094 66.3125 106.195312 C 66.023438 105.769531 65.699219 105.375 65.332031 105.011719 C 64.964844 104.652344 64.566406 104.328125 64.136719 104.042969 C 63.710938 103.757812 63.257812 103.519531 62.78125 103.324219 C 62.304688 103.128906 61.8125 102.980469 61.308594 102.878906 C 60.804688 102.78125 60.292969 102.730469 59.777344 102.730469 C 59.261719 102.730469 58.753906 102.78125 58.246094 102.878906 C 57.742188 102.980469 57.25 103.128906 56.777344 103.324219 C 56.300781 103.519531 55.847656 103.757812 55.417969 104.042969 C 54.988281 104.328125 54.589844 104.652344 54.222656 105.011719 C 53.859375 105.375 53.53125 105.769531 53.242188 106.195312 C 52.953125 106.621094 52.707031 107.070312 52.507812 107.546875 C 52.304688 108.019531 52.152344 108.507812 52.046875 109.011719 C 51.941406 109.515625 51.886719 110.027344 51.882812 110.542969 C 51.882812 114.902344 55.414062 118.507812 59.777344 118.507812 C 64.140625 118.507812 67.675781 114.902344 67.675781 110.542969 Z M 67.675781 110.542969 " fill-opacity="1" fill-rule="evenodd"/><path fill="#ff9f4f" d="M 68.351562 85.734375 C 68.351562 85.171875 68.296875 84.613281 68.1875 84.0625 C 68.078125 83.511719 67.914062 82.972656 67.699219 82.453125 C 67.484375 81.933594 67.21875 81.441406 66.90625 80.972656 C 66.59375 80.503906 66.238281 80.070312 65.839844 79.671875 C 65.441406 79.273438 65.007812 78.917969 64.539062 78.605469 C 64.074219 78.292969 63.578125 78.03125 63.058594 77.8125 C 62.539062 77.597656 62.003906 77.4375 61.449219 77.324219 C 60.898438 77.214844 60.339844 77.160156 59.777344 77.160156 C 59.214844 77.160156 58.65625 77.214844 58.105469 77.324219 C 57.550781 77.4375 57.015625 77.597656 56.496094 77.8125 C 55.976562 78.03125 55.480469 78.292969 55.015625 78.605469 C 54.546875 78.917969 54.113281 79.273438 53.714844 79.671875 C 53.316406 80.070312 52.960938 80.503906 52.648438 80.972656 C 52.335938 81.441406 52.070312 81.933594 51.855469 82.453125 C 51.640625 82.972656 51.476562 83.511719 51.367188 84.0625 C 51.257812 84.613281 51.203125 85.171875 51.203125 85.734375 C 51.203125 90.546875 55.039062 94.378906 59.773438 94.378906 C 64.511719 94.378906 68.34375 90.546875 68.34375 85.734375 Z M 68.351562 85.734375 " fill-opacity="1" fill-rule="evenodd"/><path fill="#ff9f4f" d="M 69.101562 60.929688 C 69.101562 60.316406 69.042969 59.710938 68.925781 59.109375 C 68.804688 58.507812 68.628906 57.925781 68.394531 57.359375 C 68.160156 56.796875 67.871094 56.257812 67.53125 55.75 C 67.191406 55.238281 66.804688 54.769531 66.371094 54.335938 C 65.941406 53.902344 65.46875 53.515625 64.960938 53.175781 C 64.449219 52.835938 63.914062 52.546875 63.347656 52.3125 C 62.78125 52.082031 62.199219 51.902344 61.597656 51.785156 C 60.996094 51.664062 60.390625 51.605469 59.777344 51.605469 C 59.167969 51.605469 58.5625 51.664062 57.960938 51.785156 C 57.359375 51.902344 56.777344 52.082031 56.210938 52.3125 C 55.644531 52.546875 55.109375 52.835938 54.597656 53.175781 C 54.089844 53.515625 53.617188 53.902344 53.1875 54.335938 C 52.753906 54.769531 52.367188 55.238281 52.027344 55.75 C 51.6875 56.257812 51.398438 56.796875 51.164062 57.359375 C 50.929688 57.925781 50.753906 58.507812 50.632812 59.109375 C 50.515625 59.710938 50.453125 60.316406 50.453125 60.929688 C 50.453125 66.117188 54.589844 70.324219 59.777344 70.324219 C 64.96875 70.324219 69.101562 66.117188 69.101562 60.929688 Z M 69.101562 60.929688 " fill-opacity="1" fill-rule="evenodd"/><path fill="#ff9f4f" d="M 69.855469 36.121094 C 69.855469 30.558594 65.34375 26.125 59.777344 26.125 C 54.210938 26.125 49.699219 30.558594 49.699219 36.121094 C 49.699219 36.785156 49.765625 37.4375 49.894531 38.085938 C 50.023438 38.738281 50.214844 39.367188 50.46875 39.976562 C 50.71875 40.589844 51.03125 41.171875 51.398438 41.71875 C 51.765625 42.269531 52.183594 42.78125 52.652344 43.246094 C 53.121094 43.714844 53.628906 44.132812 54.179688 44.5 C 54.730469 44.867188 55.308594 45.179688 55.921875 45.433594 C 56.53125 45.6875 57.164062 45.875 57.8125 46.003906 C 58.460938 46.136719 59.117188 46.199219 59.777344 46.199219 C 60.4375 46.199219 61.09375 46.136719 61.742188 46.003906 C 62.390625 45.875 63.023438 45.6875 63.632812 45.433594 C 64.246094 45.179688 64.824219 44.867188 65.375 44.5 C 65.925781 44.132812 66.433594 43.714844 66.902344 43.246094 C 67.371094 42.78125 67.789062 42.269531 68.15625 41.71875 C 68.523438 41.171875 68.835938 40.589844 69.085938 39.976562 C 69.339844 39.367188 69.53125 38.738281 69.660156 38.085938 C 69.789062 37.4375 69.855469 36.785156 69.855469 36.121094 Z M 69.855469 36.121094 " fill-opacity="1" fill-rule="evenodd"/><g clip-path="url(#a4ab8b4e0b)"><path fill="#ff9f4f" d="M 70.53125 11.316406 C 70.53125 10.609375 70.464844 9.910156 70.328125 9.21875 C 70.1875 8.523438 69.984375 7.851562 69.714844 7.199219 C 69.445312 6.546875 69.113281 5.925781 68.722656 5.339844 C 68.332031 4.75 67.882812 4.207031 67.386719 3.707031 C 66.886719 3.210938 66.34375 2.761719 65.757812 2.371094 C 65.167969 1.976562 64.550781 1.644531 63.898438 1.375 C 63.246094 1.105469 62.570312 0.902344 61.878906 0.761719 C 61.1875 0.625 60.488281 0.554688 59.78125 0.554688 C 59.074219 0.554688 58.375 0.625 57.683594 0.761719 C 56.988281 0.898438 56.316406 1.101562 55.664062 1.371094 C 55.011719 1.644531 54.390625 1.972656 53.804688 2.367188 C 53.21875 2.757812 52.675781 3.203125 52.175781 3.703125 C 51.675781 4.203125 51.230469 4.746094 50.835938 5.332031 C 50.445312 5.921875 50.113281 6.539062 49.84375 7.191406 C 49.570312 7.84375 49.367188 8.515625 49.230469 9.210938 C 49.089844 9.902344 49.023438 10.601562 49.023438 11.308594 C 49.023438 12.015625 49.089844 12.714844 49.230469 13.40625 C 49.367188 14.097656 49.570312 14.773438 49.839844 15.425781 C 50.109375 16.078125 50.441406 16.695312 50.835938 17.285156 C 51.226562 17.871094 51.671875 18.414062 52.171875 18.914062 C 52.671875 19.414062 53.214844 19.859375 53.800781 20.253906 C 54.390625 20.644531 55.007812 20.976562 55.660156 21.246094 C 56.3125 21.515625 56.984375 21.71875 57.679688 21.859375 C 58.371094 21.996094 59.070312 22.066406 59.777344 22.066406 C 60.484375 22.066406 61.183594 21.996094 61.875 21.859375 C 62.566406 21.722656 63.238281 21.519531 63.890625 21.25 C 64.542969 20.976562 65.164062 20.648438 65.75 20.253906 C 66.339844 19.863281 66.882812 19.417969 67.382812 18.917969 C 67.878906 18.417969 68.328125 17.875 68.71875 17.289062 C 69.113281 16.703125 69.441406 16.082031 69.714844 15.429688 C 69.984375 14.777344 70.1875 14.105469 70.324219 13.414062 C 70.464844 12.722656 70.53125 12.023438 70.53125 11.316406 Z M 70.53125 11.316406 " fill-opacity="1" fill-rule="evenodd"/></g><g clip-path="url(#7c09120ba5)"><path fill="#ff9f4f" d="M 85.199219 358.683594 C 85.199219 358.304688 84.972656 358.007812 84.59375 358.007812 C 84.21875 358.007812 83.992188 358.308594 83.992188 358.683594 C 83.992188 358.847656 84.050781 358.992188 84.171875 359.109375 C 84.289062 359.226562 84.429688 359.285156 84.59375 359.285156 C 84.761719 359.285156 84.902344 359.226562 85.019531 359.109375 C 85.140625 358.992188 85.199219 358.847656 85.199219 358.683594 Z M 85.199219 358.683594 " fill-opacity="1" fill-rule="evenodd"/></g><path fill="#ff9f4f" d="M 85.875 333.875 C 85.875 333.121094 85.347656 332.523438 84.59375 332.523438 C 83.84375 332.523438 83.316406 333.125 83.316406 333.875 C 83.320312 334.042969 83.359375 334.203125 83.425781 334.355469 C 83.492188 334.507812 83.585938 334.640625 83.703125 334.757812 C 83.824219 334.875 83.960938 334.964844 84.113281 335.027344 C 84.269531 335.089844 84.429688 335.121094 84.597656 335.121094 C 84.761719 335.121094 84.921875 335.089844 85.078125 335.027344 C 85.230469 334.964844 85.367188 334.875 85.488281 334.757812 C 85.609375 334.640625 85.699219 334.507812 85.769531 334.355469 C 85.835938 334.203125 85.871094 334.042969 85.875 333.875 Z M 85.875 333.875 " fill-opacity="1" fill-rule="evenodd"/><path fill="#ff9f4f" d="M 86.625 309.070312 C 86.625 307.867188 85.722656 306.964844 84.59375 306.964844 C 83.46875 306.964844 82.566406 307.867188 82.566406 309.070312 C 82.566406 309.339844 82.617188 309.597656 82.71875 309.847656 C 82.824219 310.097656 82.96875 310.316406 83.160156 310.507812 C 83.351562 310.695312 83.570312 310.84375 83.820312 310.945312 C 84.066406 311.050781 84.328125 311.101562 84.59375 311.101562 C 84.863281 311.101562 85.125 311.050781 85.371094 310.945312 C 85.621094 310.84375 85.839844 310.695312 86.03125 310.507812 C 86.222656 310.316406 86.367188 310.097656 86.472656 309.847656 C 86.574219 309.597656 86.625 309.339844 86.625 309.070312 Z M 86.625 309.070312 " fill-opacity="1" fill-rule="evenodd"/><path fill="#ff9f4f" d="M 87.453125 284.261719 C 87.449219 283.886719 87.371094 283.53125 87.222656 283.183594 C 87.074219 282.839844 86.867188 282.539062 86.597656 282.277344 C 86.332031 282.011719 86.023438 281.8125 85.679688 281.667969 C 85.332031 281.527344 84.96875 281.457031 84.597656 281.457031 C 84.222656 281.457031 83.859375 281.527344 83.515625 281.667969 C 83.167969 281.8125 82.859375 282.011719 82.59375 282.277344 C 82.324219 282.539062 82.117188 282.839844 81.96875 283.183594 C 81.824219 283.53125 81.746094 283.886719 81.738281 284.261719 C 81.738281 285.769531 83.015625 287.042969 84.59375 287.042969 C 86.175781 287.042969 87.453125 285.765625 87.453125 284.261719 Z M 87.453125 284.261719 " fill-opacity="1" fill-rule="evenodd"/><path fill="#ff9f4f" d="M 88.128906 259.457031 C 88.128906 258.988281 88.039062 258.535156 87.859375 258.101562 C 87.683594 257.671875 87.425781 257.289062 87.09375 256.957031 C 86.761719 256.625 86.382812 256.371094 85.949219 256.191406 C 85.515625 256.011719 85.0625 255.921875 84.59375 255.921875 C 84.125 255.921875 83.675781 256.011719 83.242188 256.191406 C 82.808594 256.371094 82.425781 256.625 82.097656 256.957031 C 81.765625 257.289062 81.507812 257.671875 81.328125 258.101562 C 81.152344 258.535156 81.0625 258.988281 81.0625 259.457031 C 81.0625 261.339844 82.640625 262.914062 84.59375 262.914062 C 86.550781 262.914062 88.128906 261.335938 88.128906 259.457031 Z M 88.128906 259.457031 " fill-opacity="1" fill-rule="evenodd"/><path fill="#ff9f4f" d="M 88.882812 234.648438 C 88.867188 234.09375 88.746094 233.558594 88.519531 233.050781 C 88.296875 232.539062 87.984375 232.089844 87.582031 231.699219 C 87.183594 231.3125 86.726562 231.015625 86.207031 230.804688 C 85.691406 230.59375 85.15625 230.488281 84.597656 230.488281 C 84.039062 230.488281 83.503906 230.59375 82.984375 230.804688 C 82.46875 231.015625 82.011719 231.3125 81.609375 231.699219 C 81.210938 232.089844 80.898438 232.539062 80.675781 233.050781 C 80.449219 233.558594 80.328125 234.09375 80.3125 234.648438 C 80.3125 236.980469 82.265625 238.859375 84.597656 238.859375 C 86.929688 238.859375 88.886719 236.976562 88.886719 234.648438 Z M 88.882812 234.648438 " fill-opacity="1" fill-rule="evenodd"/><path fill="#ff9f4f" d="M 89.558594 209.769531 C 89.558594 207.0625 87.304688 204.882812 84.59375 204.882812 C 81.886719 204.882812 79.632812 207.0625 79.632812 209.769531 C 79.632812 210.09375 79.664062 210.417969 79.726562 210.734375 C 79.792969 211.054688 79.886719 211.367188 80.011719 211.667969 C 80.132812 211.96875 80.289062 212.253906 80.46875 212.523438 C 80.648438 212.796875 80.855469 213.046875 81.085938 213.277344 C 81.316406 213.507812 81.566406 213.714844 81.839844 213.894531 C 82.109375 214.074219 82.394531 214.230469 82.695312 214.351562 C 82.996094 214.476562 83.308594 214.574219 83.628906 214.636719 C 83.945312 214.699219 84.269531 214.730469 84.59375 214.730469 C 84.921875 214.730469 85.246094 214.699219 85.5625 214.636719 C 85.882812 214.574219 86.195312 214.476562 86.496094 214.351562 C 86.796875 214.230469 87.082031 214.074219 87.351562 213.894531 C 87.625 213.714844 87.875 213.507812 88.105469 213.277344 C 88.335938 213.046875 88.542969 212.796875 88.722656 212.523438 C 88.902344 212.253906 89.054688 211.96875 89.179688 211.667969 C 89.304688 211.367188 89.398438 211.054688 89.464844 210.734375 C 89.527344 210.417969 89.558594 210.09375 89.558594 209.769531 Z M 89.558594 209.769531 " fill-opacity="1" fill-rule="evenodd"/><path fill="#ff9f4f" d="M 90.234375 184.960938 C 90.234375 181.878906 87.679688 179.324219 84.59375 179.324219 C 81.511719 179.324219 78.953125 181.878906 78.953125 184.960938 C 78.953125 188.117188 81.511719 190.675781 84.59375 190.675781 C 87.679688 190.675781 90.234375 188.117188 90.234375 184.960938 Z M 90.234375 184.960938 " fill-opacity="1" fill-rule="evenodd"/><path fill="#ff9f4f" d="M 90.988281 160.15625 C 90.984375 159.738281 90.9375 159.328125 90.851562 158.917969 C 90.765625 158.511719 90.644531 158.117188 90.480469 157.730469 C 90.316406 157.347656 90.117188 156.984375 89.882812 156.640625 C 89.652344 156.296875 89.386719 155.976562 89.089844 155.683594 C 88.792969 155.390625 88.472656 155.128906 88.125 154.902344 C 87.777344 154.671875 87.410156 154.476562 87.023438 154.316406 C 86.640625 154.160156 86.242188 154.039062 85.832031 153.960938 C 85.425781 153.878906 85.011719 153.839844 84.597656 153.839844 C 84.179688 153.839844 83.765625 153.878906 83.359375 153.960938 C 82.949219 154.039062 82.550781 154.160156 82.167969 154.316406 C 81.78125 154.476562 81.414062 154.671875 81.070312 154.902344 C 80.722656 155.128906 80.398438 155.390625 80.101562 155.683594 C 79.804688 155.976562 79.542969 156.296875 79.308594 156.640625 C 79.074219 156.984375 78.875 157.347656 78.710938 157.730469 C 78.550781 158.117188 78.425781 158.511719 78.339844 158.917969 C 78.253906 159.328125 78.207031 159.738281 78.203125 160.15625 C 78.203125 163.6875 81.0625 166.621094 84.59375 166.621094 C 88.128906 166.621094 90.988281 163.6875 90.988281 160.15625 Z M 90.988281 160.15625 " fill-opacity="1" fill-rule="evenodd"/><path fill="#ff9f4f" d="M 91.664062 135.34375 C 91.664062 134.878906 91.621094 134.421875 91.527344 133.964844 C 91.4375 133.511719 91.304688 133.070312 91.125 132.640625 C 90.949219 132.210938 90.730469 131.804688 90.472656 131.417969 C 90.214844 131.03125 89.921875 130.675781 89.59375 130.347656 C 89.265625 130.019531 88.910156 129.726562 88.523438 129.46875 C 88.136719 129.210938 87.730469 128.992188 87.300781 128.8125 C 86.871094 128.636719 86.429688 128.503906 85.976562 128.410156 C 85.519531 128.320312 85.058594 128.277344 84.59375 128.277344 C 84.132812 128.277344 83.671875 128.320312 83.214844 128.410156 C 82.761719 128.503906 82.320312 128.636719 81.890625 128.8125 C 81.460938 128.992188 81.054688 129.210938 80.667969 129.46875 C 80.28125 129.726562 79.925781 130.019531 79.597656 130.347656 C 79.269531 130.675781 78.976562 131.03125 78.71875 131.417969 C 78.460938 131.804688 78.242188 132.210938 78.0625 132.640625 C 77.886719 133.070312 77.753906 133.511719 77.660156 133.964844 C 77.570312 134.421875 77.527344 134.878906 77.527344 135.34375 C 77.527344 139.328125 80.683594 142.484375 84.59375 142.484375 C 88.507812 142.484375 91.664062 139.328125 91.664062 135.34375 Z M 91.664062 135.34375 " fill-opacity="1" fill-rule="evenodd"/><path fill="#ff9f4f" d="M 92.417969 110.542969 C 92.417969 110.027344 92.367188 109.519531 92.265625 109.015625 C 92.167969 108.511719 92.019531 108.023438 91.820312 107.546875 C 91.625 107.074219 91.382812 106.625 91.097656 106.195312 C 90.8125 105.769531 90.488281 105.375 90.125 105.011719 C 89.761719 104.648438 89.367188 104.324219 88.941406 104.039062 C 88.515625 103.753906 88.0625 103.511719 87.589844 103.316406 C 87.113281 103.121094 86.625 102.972656 86.121094 102.871094 C 85.617188 102.769531 85.109375 102.71875 84.597656 102.71875 C 84.082031 102.71875 83.574219 102.769531 83.070312 102.871094 C 82.566406 102.972656 82.078125 103.121094 81.601562 103.316406 C 81.128906 103.511719 80.675781 103.753906 80.25 104.039062 C 79.824219 104.324219 79.429688 104.648438 79.066406 105.011719 C 78.703125 105.375 78.378906 105.769531 78.09375 106.195312 C 77.808594 106.625 77.566406 107.074219 77.371094 107.546875 C 77.171875 108.023438 77.023438 108.511719 76.925781 109.015625 C 76.824219 109.519531 76.773438 110.027344 76.773438 110.542969 C 76.773438 114.902344 80.234375 118.433594 84.59375 118.433594 C 88.949219 118.433594 92.410156 114.902344 92.410156 110.542969 Z M 92.417969 110.542969 " fill-opacity="1" fill-rule="evenodd"/><path fill="#ff9f4f" d="M 93.09375 85.734375 C 93.09375 85.175781 93.039062 84.625 92.929688 84.078125 C 92.820312 83.53125 92.65625 83 92.445312 82.484375 C 92.230469 81.972656 91.96875 81.480469 91.65625 81.019531 C 91.347656 80.554688 90.996094 80.128906 90.601562 79.734375 C 90.207031 79.339844 89.777344 78.988281 89.3125 78.679688 C 88.847656 78.367188 88.359375 78.105469 87.84375 77.894531 C 87.328125 77.679688 86.800781 77.519531 86.253906 77.410156 C 85.707031 77.300781 85.152344 77.25 84.59375 77.25 C 84.039062 77.25 83.484375 77.300781 82.9375 77.410156 C 82.390625 77.519531 81.863281 77.679688 81.347656 77.894531 C 80.832031 78.105469 80.339844 78.367188 79.878906 78.679688 C 79.414062 78.988281 78.984375 79.339844 78.589844 79.734375 C 78.195312 80.128906 77.84375 80.554688 77.535156 81.019531 C 77.222656 81.480469 76.960938 81.972656 76.746094 82.484375 C 76.535156 83 76.371094 83.53125 76.261719 84.078125 C 76.152344 84.625 76.097656 85.175781 76.097656 85.734375 C 76.097656 90.472656 79.859375 94.304688 84.59375 94.304688 C 89.332031 94.304688 93.09375 90.472656 93.09375 85.734375 Z M 93.09375 85.734375 " fill-opacity="1" fill-rule="evenodd"/><path fill="#ff9f4f" d="M 93.847656 60.929688 C 93.847656 55.890625 89.710938 51.757812 84.59375 51.757812 C 79.480469 51.757812 75.351562 55.890625 75.351562 60.929688 C 75.351562 61.535156 75.410156 62.136719 75.53125 62.730469 C 75.648438 63.328125 75.824219 63.90625 76.058594 64.464844 C 76.289062 65.023438 76.574219 65.558594 76.914062 66.0625 C 77.25 66.566406 77.632812 67.03125 78.0625 67.460938 C 78.492188 67.890625 78.960938 68.273438 79.464844 68.609375 C 79.96875 68.945312 80.503906 69.230469 81.0625 69.464844 C 81.625 69.695312 82.203125 69.871094 82.796875 69.988281 C 83.390625 70.109375 83.992188 70.167969 84.601562 70.167969 C 85.207031 70.167969 85.808594 70.109375 86.402344 69.988281 C 87 69.871094 87.578125 69.695312 88.136719 69.464844 C 88.699219 69.230469 89.230469 68.945312 89.734375 68.609375 C 90.242188 68.273438 90.707031 67.890625 91.136719 67.460938 C 91.566406 67.03125 91.949219 66.566406 92.289062 66.0625 C 92.625 65.558594 92.910156 65.027344 93.144531 64.464844 C 93.375 63.90625 93.550781 63.328125 93.671875 62.730469 C 93.789062 62.136719 93.851562 61.535156 93.851562 60.929688 Z M 93.847656 60.929688 " fill-opacity="1" fill-rule="evenodd"/><path fill="#ff9f4f" d="M 94.523438 36.121094 C 94.523438 35.46875 94.460938 34.824219 94.332031 34.183594 C 94.207031 33.546875 94.019531 32.925781 93.769531 32.320312 C 93.519531 31.71875 93.214844 31.148438 92.851562 30.605469 C 92.492188 30.0625 92.078125 29.5625 91.617188 29.101562 C 91.15625 28.636719 90.65625 28.226562 90.113281 27.863281 C 89.574219 27.503906 89 27.195312 88.398438 26.945312 C 87.796875 26.695312 87.175781 26.507812 86.535156 26.378906 C 85.894531 26.253906 85.25 26.1875 84.597656 26.1875 C 83.945312 26.1875 83.300781 26.253906 82.660156 26.378906 C 82.023438 26.507812 81.402344 26.695312 80.800781 26.945312 C 80.195312 27.191406 79.625 27.5 79.082031 27.859375 C 78.539062 28.222656 78.039062 28.632812 77.578125 29.09375 C 77.117188 29.554688 76.703125 30.058594 76.34375 30.601562 C 75.980469 31.140625 75.675781 31.714844 75.425781 32.316406 C 75.175781 32.917969 74.984375 33.539062 74.859375 34.179688 C 74.730469 34.816406 74.667969 35.464844 74.667969 36.117188 C 74.667969 36.765625 74.730469 37.414062 74.859375 38.050781 C 74.984375 38.691406 75.171875 39.3125 75.421875 39.914062 C 75.671875 40.515625 75.976562 41.089844 76.339844 41.632812 C 76.703125 42.175781 77.113281 42.675781 77.574219 43.136719 C 78.035156 43.597656 78.539062 44.007812 79.078125 44.371094 C 79.621094 44.734375 80.195312 45.039062 80.796875 45.289062 C 81.398438 45.539062 82.019531 45.726562 82.660156 45.855469 C 83.296875 45.980469 83.945312 46.046875 84.59375 46.046875 C 85.246094 46.046875 85.894531 45.984375 86.53125 45.855469 C 87.171875 45.730469 87.792969 45.542969 88.394531 45.292969 C 89 45.042969 89.570312 44.738281 90.113281 44.375 C 90.65625 44.015625 91.15625 43.601562 91.617188 43.140625 C 92.078125 42.679688 92.492188 42.179688 92.851562 41.636719 C 93.214844 41.097656 93.519531 40.523438 93.769531 39.921875 C 94.019531 39.320312 94.207031 38.699219 94.332031 38.058594 C 94.460938 37.417969 94.523438 36.773438 94.523438 36.121094 Z M 94.523438 36.121094 " fill-opacity="1" fill-rule="evenodd"/><g clip-path="url(#17286b49f0)"><path fill="#ff9f4f" d="M 95.128906 11.316406 C 95.128906 5.527344 90.390625 0.792969 84.597656 0.792969 C 78.808594 0.792969 74.070312 5.527344 74.070312 11.316406 C 74.074219 12.003906 74.148438 12.683594 74.289062 13.355469 C 74.429688 14.027344 74.632812 14.683594 74.898438 15.316406 C 75.167969 15.949219 75.492188 16.550781 75.878906 17.117188 C 76.261719 17.6875 76.699219 18.214844 77.1875 18.699219 C 77.675781 19.179688 78.207031 19.613281 78.78125 19.992188 C 79.351562 20.371094 79.957031 20.691406 80.59375 20.953125 C 81.226562 21.214844 81.882812 21.414062 82.558594 21.546875 C 83.230469 21.679688 83.910156 21.746094 84.597656 21.746094 C 85.285156 21.746094 85.96875 21.679688 86.640625 21.546875 C 87.316406 21.414062 87.96875 21.214844 88.605469 20.953125 C 89.242188 20.691406 89.84375 20.371094 90.417969 19.992188 C 90.992188 19.613281 91.519531 19.179688 92.007812 18.699219 C 92.496094 18.214844 92.933594 17.6875 93.320312 17.117188 C 93.703125 16.550781 94.03125 15.949219 94.296875 15.316406 C 94.566406 14.683594 94.769531 14.027344 94.910156 13.355469 C 95.046875 12.683594 95.121094 12.003906 95.128906 11.316406 Z M 95.128906 11.316406 " fill-opacity="1" fill-rule="evenodd"/></g><g clip-path="url(#09bc3d4410)"><path fill="#ff9f4f" d="M 109.941406 358.683594 C 109.941406 358.382812 109.714844 358.082031 109.414062 358.082031 C 109.113281 358.082031 108.886719 358.382812 108.886719 358.683594 C 108.886719 358.828125 108.9375 358.953125 109.042969 359.054688 C 109.144531 359.15625 109.269531 359.210938 109.414062 359.210938 C 109.558594 359.210938 109.683594 359.15625 109.785156 359.054688 C 109.890625 358.953125 109.941406 358.828125 109.941406 358.683594 Z M 109.941406 358.683594 " fill-opacity="1" fill-rule="evenodd"/></g><path fill="#ff9f4f" d="M 110.617188 333.875 C 110.617188 333.199219 110.089844 332.597656 109.414062 332.597656 C 108.738281 332.597656 108.210938 333.199219 108.210938 333.875 C 108.214844 334.03125 108.25 334.183594 108.3125 334.328125 C 108.375 334.46875 108.460938 334.597656 108.574219 334.707031 C 108.6875 334.816406 108.816406 334.898438 108.960938 334.957031 C 109.105469 335.015625 109.257812 335.046875 109.414062 335.046875 C 109.570312 335.046875 109.722656 335.015625 109.867188 334.957031 C 110.011719 334.898438 110.140625 334.816406 110.253906 334.707031 C 110.367188 334.597656 110.453125 334.46875 110.515625 334.328125 C 110.578125 334.183594 110.613281 334.03125 110.617188 333.875 Z M 110.617188 333.875 " fill-opacity="1" fill-rule="evenodd"/><path fill="#ff9f4f" d="M 111.445312 309.070312 C 111.445312 308.800781 111.394531 308.542969 111.289062 308.292969 C 111.1875 308.042969 111.039062 307.824219 110.851562 307.632812 C 110.660156 307.445312 110.441406 307.296875 110.191406 307.195312 C 109.941406 307.089844 109.683594 307.039062 109.414062 307.039062 C 109.144531 307.039062 108.886719 307.089844 108.636719 307.195312 C 108.386719 307.296875 108.167969 307.445312 107.976562 307.632812 C 107.789062 307.824219 107.640625 308.042969 107.539062 308.292969 C 107.433594 308.542969 107.382812 308.800781 107.382812 309.070312 C 107.382812 310.121094 108.285156 311.023438 109.414062 311.023438 C 110.542969 311.023438 111.445312 310.121094 111.445312 309.070312 Z M 111.445312 309.070312 " fill-opacity="1" fill-rule="evenodd"/><path fill="#ff9f4f" d="M 112.121094 284.261719 C 112.113281 283.910156 112.042969 283.566406 111.902344 283.242188 C 111.761719 282.917969 111.5625 282.628906 111.3125 282.382812 C 111.058594 282.132812 110.765625 281.941406 110.4375 281.808594 C 110.109375 281.671875 109.769531 281.605469 109.414062 281.605469 C 109.058594 281.605469 108.71875 281.671875 108.390625 281.808594 C 108.0625 281.941406 107.769531 282.132812 107.519531 282.382812 C 107.265625 282.628906 107.066406 282.917969 106.925781 283.242188 C 106.789062 283.566406 106.714844 283.910156 106.707031 284.261719 C 106.707031 285.691406 107.910156 286.894531 109.414062 286.894531 C 110.917969 286.894531 112.121094 285.691406 112.121094 284.261719 Z M 112.121094 284.261719 " fill-opacity="1" fill-rule="evenodd"/><path fill="#ff9f4f" d="M 112.875 259.457031 C 112.867188 259.003906 112.773438 258.566406 112.59375 258.148438 C 112.414062 257.730469 112.164062 257.363281 111.839844 257.046875 C 111.515625 256.726562 111.144531 256.484375 110.726562 256.3125 C 110.304688 256.140625 109.867188 256.054688 109.414062 256.054688 C 108.960938 256.054688 108.523438 256.140625 108.101562 256.3125 C 107.683594 256.484375 107.3125 256.726562 106.988281 257.046875 C 106.664062 257.363281 106.414062 257.730469 106.234375 258.148438 C 106.054688 258.566406 105.960938 259.003906 105.953125 259.457031 C 105.953125 261.339844 107.535156 262.839844 109.414062 262.839844 C 111.292969 262.839844 112.875 261.332031 112.875 259.457031 Z M 112.875 259.457031 " fill-opacity="1" fill-rule="evenodd"/><path fill="#ff9f4f" d="M 113.550781 234.648438 C 113.546875 234.382812 113.515625 234.113281 113.460938 233.851562 C 113.40625 233.589844 113.324219 233.332031 113.21875 233.085938 C 113.113281 232.839844 112.984375 232.605469 112.832031 232.382812 C 112.679688 232.160156 112.507812 231.953125 112.316406 231.765625 C 112.125 231.578125 111.917969 231.40625 111.691406 231.261719 C 111.46875 231.113281 111.230469 230.988281 110.984375 230.882812 C 110.734375 230.78125 110.476562 230.707031 110.214844 230.652344 C 109.949219 230.601562 109.683594 230.574219 109.414062 230.574219 C 109.144531 230.574219 108.878906 230.601562 108.613281 230.652344 C 108.351562 230.707031 108.09375 230.78125 107.847656 230.882812 C 107.597656 230.988281 107.359375 231.113281 107.136719 231.261719 C 106.910156 231.40625 106.703125 231.578125 106.511719 231.765625 C 106.320312 231.953125 106.148438 232.160156 105.996094 232.382812 C 105.84375 232.605469 105.714844 232.839844 105.609375 233.085938 C 105.503906 233.332031 105.425781 233.589844 105.367188 233.851562 C 105.3125 234.113281 105.28125 234.382812 105.277344 234.648438 C 105.277344 236.90625 107.160156 238.710938 109.414062 238.710938 C 111.664062 238.710938 113.550781 236.90625 113.550781 234.648438 Z M 113.550781 234.648438 " fill-opacity="1" fill-rule="evenodd"/><path fill="#ff9f4f" d="M 114.226562 209.769531 C 114.226562 207.136719 112.046875 204.957031 109.414062 204.957031 C 106.78125 204.957031 104.601562 207.136719 104.601562 209.769531 C 104.601562 212.476562 106.78125 214.652344 109.414062 214.652344 C 112.046875 214.652344 114.226562 212.476562 114.226562 209.769531 Z M 114.226562 209.769531 " fill-opacity="1" fill-rule="evenodd"/><path fill="#ff9f4f" d="M 114.980469 184.960938 C 114.980469 181.953125 112.496094 179.398438 109.414062 179.398438 C 106.332031 179.398438 103.847656 181.953125 103.847656 184.960938 C 103.847656 188.042969 106.332031 190.597656 109.414062 190.597656 C 112.496094 190.597656 114.980469 188.042969 114.980469 184.960938 Z M 114.980469 184.960938 " fill-opacity="1" fill-rule="evenodd"/><path fill="#ff9f4f" d="M 115.660156 160.15625 C 115.65625 159.75 115.609375 159.347656 115.527344 158.949219 C 115.445312 158.550781 115.320312 158.164062 115.164062 157.789062 C 115.003906 157.414062 114.808594 157.058594 114.582031 156.722656 C 114.351562 156.386719 114.09375 156.078125 113.804688 155.789062 C 113.515625 155.503906 113.203125 155.25 112.863281 155.027344 C 112.523438 154.800781 112.164062 154.613281 111.789062 154.457031 C 111.414062 154.304688 111.027344 154.1875 110.625 154.109375 C 110.226562 154.027344 109.824219 153.988281 109.417969 153.988281 C 109.011719 153.988281 108.609375 154.027344 108.210938 154.109375 C 107.8125 154.1875 107.421875 154.304688 107.046875 154.457031 C 106.671875 154.613281 106.3125 154.800781 105.972656 155.027344 C 105.636719 155.25 105.320312 155.503906 105.03125 155.789062 C 104.742188 156.078125 104.484375 156.386719 104.253906 156.722656 C 104.027344 157.058594 103.832031 157.414062 103.671875 157.789062 C 103.515625 158.164062 103.394531 158.550781 103.308594 158.949219 C 103.226562 159.347656 103.179688 159.75 103.175781 160.15625 C 103.175781 163.613281 105.957031 166.464844 109.417969 166.464844 C 112.878906 166.464844 115.660156 163.609375 115.660156 160.15625 Z M 115.660156 160.15625 " fill-opacity="1" fill-rule="evenodd"/><path fill="#ff9f4f" d="M 116.332031 135.34375 C 116.328125 134.894531 116.28125 134.449219 116.1875 134.007812 C 116.09375 133.566406 115.960938 133.136719 115.785156 132.722656 C 115.609375 132.308594 115.394531 131.914062 115.140625 131.539062 C 114.886719 131.167969 114.597656 130.820312 114.277344 130.503906 C 113.957031 130.1875 113.609375 129.902344 113.234375 129.65625 C 112.859375 129.40625 112.460938 129.195312 112.042969 129.023438 C 111.625 128.851562 111.195312 128.722656 110.753906 128.636719 C 110.3125 128.550781 109.867188 128.503906 109.414062 128.503906 C 108.964844 128.503906 108.515625 128.550781 108.074219 128.636719 C 107.632812 128.722656 107.203125 128.855469 106.785156 129.023438 C 106.367188 129.195312 105.972656 129.40625 105.59375 129.65625 C 105.21875 129.902344 104.871094 130.1875 104.550781 130.503906 C 104.230469 130.820312 103.941406 131.167969 103.6875 131.539062 C 103.4375 131.914062 103.222656 132.308594 103.042969 132.722656 C 102.867188 133.136719 102.734375 133.566406 102.640625 134.007812 C 102.550781 134.449219 102.5 134.894531 102.496094 135.34375 C 102.496094 139.179688 105.578125 142.335938 109.414062 142.335938 C 113.25 142.335938 116.332031 139.179688 116.332031 135.34375 Z M 116.332031 135.34375 " fill-opacity="1" fill-rule="evenodd"/><path fill="#ff9f4f" d="M 117.085938 110.542969 C 117.085938 106.332031 113.625 102.949219 109.414062 102.949219 C 105.203125 102.949219 101.742188 106.332031 101.742188 110.542969 C 101.742188 114.75 105.203125 118.210938 109.414062 118.210938 C 113.625 118.210938 117.085938 114.75 117.085938 110.542969 Z M 117.085938 110.542969 " fill-opacity="1" fill-rule="evenodd"/><path fill="#ff9f4f" d="M 117.761719 85.734375 C 117.761719 81.148438 114 77.464844 109.414062 77.464844 C 104.828125 77.464844 101.066406 81.148438 101.066406 85.734375 C 101.066406 90.320312 104.828125 94.078125 109.414062 94.078125 C 114 94.078125 117.761719 90.320312 117.761719 85.734375 Z M 117.761719 85.734375 " fill-opacity="1" fill-rule="evenodd"/><path fill="#ff9f4f" d="M 118.363281 60.929688 C 118.363281 56.042969 114.378906 51.980469 109.417969 51.980469 C 104.457031 51.980469 100.46875 56.039062 100.46875 60.929688 C 100.46875 61.515625 100.527344 62.097656 100.640625 62.675781 C 100.757812 63.25 100.925781 63.8125 101.152344 64.355469 C 101.375 64.898438 101.652344 65.414062 101.976562 65.902344 C 102.304688 66.390625 102.675781 66.839844 103.089844 67.257812 C 103.507812 67.671875 103.957031 68.042969 104.445312 68.371094 C 104.933594 68.695312 105.453125 68.972656 105.992188 69.199219 C 106.535156 69.421875 107.097656 69.59375 107.671875 69.707031 C 108.25 69.820312 108.832031 69.878906 109.417969 69.878906 C 110.007812 69.878906 110.589844 69.820312 111.164062 69.707031 C 111.742188 69.59375 112.300781 69.421875 112.84375 69.199219 C 113.386719 68.972656 113.902344 68.695312 114.390625 68.371094 C 114.878906 68.042969 115.332031 67.671875 115.746094 67.257812 C 116.164062 66.839844 116.535156 66.390625 116.859375 65.902344 C 117.1875 65.414062 117.460938 64.898438 117.6875 64.355469 C 117.914062 63.8125 118.082031 63.25 118.195312 62.675781 C 118.3125 62.097656 118.367188 61.515625 118.367188 60.929688 Z M 118.363281 60.929688 " fill-opacity="1" fill-rule="evenodd"/><path fill="#ff9f4f" d="M 118.890625 36.121094 C 118.882812 35.503906 118.820312 34.890625 118.691406 34.285156 C 118.566406 33.679688 118.382812 33.09375 118.140625 32.523438 C 117.902344 31.953125 117.609375 31.414062 117.261719 30.902344 C 116.914062 30.390625 116.519531 29.917969 116.082031 29.480469 C 115.644531 29.046875 115.164062 28.660156 114.648438 28.316406 C 114.132812 27.976562 113.589844 27.6875 113.019531 27.453125 C 112.449219 27.214844 111.859375 27.039062 111.25 26.917969 C 110.644531 26.800781 110.03125 26.738281 109.414062 26.738281 C 108.796875 26.738281 108.183594 26.800781 107.578125 26.917969 C 106.96875 27.039062 106.382812 27.214844 105.808594 27.453125 C 105.238281 27.6875 104.695312 27.976562 104.179688 28.316406 C 103.664062 28.660156 103.1875 29.046875 102.746094 29.480469 C 102.308594 29.917969 101.914062 30.390625 101.566406 30.902344 C 101.222656 31.414062 100.925781 31.953125 100.6875 32.523438 C 100.445312 33.09375 100.261719 33.679688 100.136719 34.285156 C 100.011719 34.890625 99.945312 35.503906 99.9375 36.121094 C 99.9375 41.382812 104.148438 45.667969 109.414062 45.667969 C 114.679688 45.667969 118.890625 41.382812 118.890625 36.121094 Z M 118.890625 36.121094 " fill-opacity="1" fill-rule="evenodd"/><path fill="#ff9f4f" d="M 119.417969 11.316406 C 119.417969 5.828125 114.90625 1.394531 109.414062 1.394531 C 103.921875 1.394531 99.410156 5.828125 99.410156 11.316406 C 99.417969 11.96875 99.488281 12.613281 99.621094 13.253906 C 99.753906 13.894531 99.945312 14.511719 100.199219 15.113281 C 100.453125 15.714844 100.765625 16.285156 101.128906 16.828125 C 101.496094 17.367188 101.910156 17.867188 102.375 18.328125 C 102.839844 18.785156 103.34375 19.195312 103.886719 19.554688 C 104.429688 19.917969 105.003906 20.222656 105.609375 20.46875 C 106.210938 20.71875 106.835938 20.90625 107.476562 21.03125 C 108.113281 21.160156 108.761719 21.222656 109.414062 21.222656 C 110.066406 21.222656 110.714844 21.160156 111.355469 21.03125 C 111.996094 20.90625 112.617188 20.71875 113.21875 20.46875 C 113.824219 20.222656 114.398438 19.917969 114.941406 19.554688 C 115.484375 19.195312 115.988281 18.785156 116.453125 18.328125 C 116.917969 17.867188 117.332031 17.367188 117.699219 16.828125 C 118.0625 16.285156 118.375 15.714844 118.628906 15.113281 C 118.882812 14.511719 119.074219 13.894531 119.207031 13.253906 C 119.339844 12.613281 119.410156 11.96875 119.417969 11.316406 Z M 119.417969 11.316406 " fill-opacity="1" fill-rule="evenodd"/><g clip-path="url(#4bd7217de7)"><path fill="#ff9f4f" d="M 134.683594 358.683594 C 134.675781 358.5625 134.628906 358.457031 134.542969 358.371094 C 134.457031 358.289062 134.355469 358.238281 134.234375 358.230469 C 134.007812 358.230469 133.855469 358.457031 133.855469 358.683594 C 133.851562 358.789062 133.886719 358.878906 133.960938 358.957031 C 134.035156 359.03125 134.128906 359.066406 134.234375 359.058594 C 134.460938 359.058594 134.683594 358.910156 134.683594 358.683594 Z M 134.683594 358.683594 " fill-opacity="1" fill-rule="evenodd"/></g><path fill="#ff9f4f" d="M 135.4375 333.875 C 135.441406 333.714844 135.410156 333.5625 135.351562 333.414062 C 135.289062 333.265625 135.203125 333.132812 135.089844 333.019531 C 134.976562 332.90625 134.847656 332.820312 134.699219 332.761719 C 134.550781 332.699219 134.394531 332.671875 134.234375 332.671875 C 133.632812 332.671875 133.03125 333.199219 133.03125 333.875 C 133.03125 334.476562 133.632812 335.007812 134.234375 335.007812 C 134.914062 335.007812 135.4375 334.480469 135.4375 333.875 Z M 135.4375 333.875 " fill-opacity="1" fill-rule="evenodd"/><path fill="#ff9f4f" d="M 136.113281 309.070312 C 136.097656 308.832031 136.039062 308.601562 135.9375 308.382812 C 135.835938 308.167969 135.699219 307.976562 135.523438 307.8125 C 135.351562 307.644531 135.152344 307.519531 134.925781 307.429688 C 134.703125 307.34375 134.472656 307.296875 134.234375 307.296875 C 133.992188 307.296875 133.761719 307.34375 133.539062 307.429688 C 133.3125 307.519531 133.117188 307.644531 132.941406 307.8125 C 132.765625 307.976562 132.628906 308.167969 132.527344 308.382812 C 132.425781 308.601562 132.367188 308.832031 132.351562 309.070312 C 132.351562 310.046875 133.179688 310.875 134.234375 310.875 C 135.292969 310.875 136.121094 310.046875 136.121094 309.070312 Z M 136.113281 309.070312 " fill-opacity="1" fill-rule="evenodd"/><path fill="#ff9f4f" d="M 136.789062 284.261719 C 136.789062 283.925781 136.726562 283.597656 136.59375 283.285156 C 136.464844 282.972656 136.28125 282.695312 136.042969 282.453125 C 135.800781 282.214844 135.523438 282.03125 135.210938 281.902344 C 134.898438 281.769531 134.570312 281.707031 134.234375 281.707031 C 133.894531 281.707031 133.566406 281.769531 133.253906 281.902344 C 132.941406 282.03125 132.664062 282.214844 132.425781 282.453125 C 132.183594 282.695312 132 282.972656 131.871094 283.285156 C 131.742188 283.597656 131.675781 283.925781 131.675781 284.261719 C 131.675781 285.617188 132.804688 286.742188 134.234375 286.742188 C 135.660156 286.742188 136.789062 285.613281 136.789062 284.261719 Z M 136.789062 284.261719 " fill-opacity="1" fill-rule="evenodd"/><path fill="#ff9f4f" d="M 137.464844 259.457031 C 137.460938 259.03125 137.371094 258.625 137.203125 258.234375 C 137.039062 257.847656 136.800781 257.503906 136.5 257.207031 C 136.199219 256.90625 135.851562 256.679688 135.457031 256.519531 C 135.066406 256.359375 134.65625 256.277344 134.234375 256.277344 C 133.808594 256.277344 133.398438 256.359375 133.007812 256.519531 C 132.617188 256.679688 132.269531 256.90625 131.964844 257.207031 C 131.664062 257.503906 131.429688 257.847656 131.261719 258.234375 C 131.09375 258.625 131.007812 259.03125 131 259.457031 C 131.007812 259.878906 131.09375 260.285156 131.261719 260.675781 C 131.429688 261.066406 131.664062 261.410156 131.964844 261.707031 C 132.269531 262.003906 132.617188 262.234375 133.007812 262.394531 C 133.398438 262.554688 133.808594 262.632812 134.234375 262.632812 C 134.65625 262.632812 135.066406 262.554688 135.457031 262.394531 C 135.851562 262.234375 136.199219 262.003906 136.5 261.707031 C 136.800781 261.410156 137.039062 261.066406 137.203125 260.675781 C 137.371094 260.285156 137.460938 259.878906 137.464844 259.457031 Z M 137.464844 259.457031 " fill-opacity="1" fill-rule="evenodd"/><path fill="#ff9f4f" d="M 138.21875 234.648438 C 138.21875 232.390625 136.414062 230.589844 134.234375 230.589844 C 132.054688 230.589844 130.246094 232.394531 130.246094 234.648438 C 130.253906 235.171875 130.363281 235.675781 130.566406 236.15625 C 130.773438 236.636719 131.0625 237.0625 131.433594 237.429688 C 131.808594 237.796875 132.238281 238.078125 132.722656 238.277344 C 133.207031 238.476562 133.710938 238.574219 134.234375 238.574219 C 134.757812 238.574219 135.257812 238.476562 135.742188 238.277344 C 136.226562 238.078125 136.65625 237.796875 137.03125 237.429688 C 137.402344 237.0625 137.691406 236.636719 137.898438 236.15625 C 138.105469 235.675781 138.210938 235.171875 138.21875 234.648438 Z M 138.21875 234.648438 " fill-opacity="1" fill-rule="evenodd"/><path fill="#ff9f4f" d="M 138.894531 209.769531 C 138.890625 209.464844 138.855469 209.167969 138.789062 208.871094 C 138.726562 208.574219 138.632812 208.289062 138.515625 208.011719 C 138.394531 207.734375 138.25 207.472656 138.078125 207.222656 C 137.90625 206.972656 137.710938 206.742188 137.496094 206.53125 C 137.28125 206.320312 137.046875 206.132812 136.792969 205.964844 C 136.542969 205.800781 136.277344 205.660156 135.996094 205.542969 C 135.714844 205.429688 135.429688 205.34375 135.132812 205.285156 C 134.835938 205.226562 134.535156 205.199219 134.234375 205.199219 C 133.929688 205.199219 133.632812 205.226562 133.335938 205.285156 C 133.039062 205.34375 132.75 205.429688 132.46875 205.542969 C 132.191406 205.660156 131.925781 205.800781 131.671875 205.964844 C 131.417969 206.132812 131.183594 206.320312 130.96875 206.53125 C 130.753906 206.742188 130.558594 206.972656 130.390625 207.222656 C 130.21875 207.472656 130.074219 207.734375 129.953125 208.011719 C 129.832031 208.289062 129.742188 208.574219 129.675781 208.871094 C 129.613281 209.167969 129.578125 209.464844 129.570312 209.769531 C 129.570312 212.398438 131.675781 214.503906 134.234375 214.503906 C 136.792969 214.503906 138.894531 212.398438 138.894531 209.769531 Z M 138.894531 209.769531 " fill-opacity="1" fill-rule="evenodd"/><path fill="#ff9f4f" d="M 139.496094 184.960938 C 139.492188 184.617188 139.453125 184.28125 139.382812 183.945312 C 139.3125 183.609375 139.210938 183.285156 139.078125 182.96875 C 138.941406 182.652344 138.777344 182.355469 138.585938 182.070312 C 138.394531 181.785156 138.175781 181.523438 137.929688 181.285156 C 137.6875 181.042969 137.421875 180.828125 137.136719 180.640625 C 136.851562 180.449219 136.546875 180.289062 136.230469 180.160156 C 135.914062 180.03125 135.585938 179.933594 135.25 179.867188 C 134.914062 179.800781 134.574219 179.765625 134.234375 179.765625 C 133.890625 179.765625 133.550781 179.800781 133.214844 179.867188 C 132.878906 179.933594 132.550781 180.03125 132.234375 180.160156 C 131.917969 180.289062 131.617188 180.449219 131.328125 180.640625 C 131.042969 180.828125 130.777344 181.042969 130.535156 181.285156 C 130.289062 181.523438 130.070312 181.785156 129.878906 182.070312 C 129.6875 182.355469 129.523438 182.652344 129.390625 182.96875 C 129.253906 183.285156 129.152344 183.609375 129.082031 183.945312 C 129.011719 184.28125 128.972656 184.617188 128.96875 184.960938 C 128.96875 187.894531 131.300781 190.300781 134.234375 190.300781 C 137.167969 190.300781 139.496094 187.894531 139.496094 184.960938 Z M 139.496094 184.960938 " fill-opacity="1" fill-rule="evenodd"/><path fill="#ff9f4f" d="M 140.324219 160.15625 C 140.324219 156.847656 137.617188 154.140625 134.234375 154.140625 C 133.839844 154.140625 133.449219 154.179688 133.0625 154.257812 C 132.675781 154.335938 132.296875 154.453125 131.933594 154.601562 C 131.570312 154.753906 131.222656 154.941406 130.894531 155.160156 C 130.566406 155.378906 130.261719 155.628906 129.984375 155.90625 C 129.703125 156.1875 129.457031 156.488281 129.234375 156.816406 C 129.015625 157.144531 128.832031 157.492188 128.679688 157.855469 C 128.527344 158.21875 128.414062 158.59375 128.335938 158.984375 C 128.257812 159.371094 128.21875 159.761719 128.214844 160.15625 C 128.140625 163.539062 130.921875 166.242188 134.234375 166.242188 C 134.632812 166.246094 135.03125 166.207031 135.421875 166.132812 C 135.816406 166.054688 136.199219 165.941406 136.566406 165.789062 C 136.9375 165.636719 137.289062 165.449219 137.621094 165.226562 C 137.957031 165.003906 138.265625 164.75 138.546875 164.46875 C 138.832031 164.183594 139.082031 163.878906 139.304688 163.542969 C 139.527344 163.210938 139.714844 162.859375 139.867188 162.488281 C 140.019531 162.117188 140.132812 161.738281 140.210938 161.34375 C 140.289062 160.953125 140.328125 160.554688 140.324219 160.15625 Z M 140.324219 160.15625 " fill-opacity="1" fill-rule="evenodd"/><path fill="#ff9f4f" d="M 140.925781 135.34375 C 140.925781 131.660156 137.917969 128.730469 134.234375 128.730469 C 130.546875 128.730469 127.539062 131.660156 127.539062 135.34375 C 127.542969 135.78125 127.59375 136.210938 127.683594 136.640625 C 127.769531 137.066406 127.902344 137.480469 128.070312 137.882812 C 128.242188 138.28125 128.449219 138.664062 128.695312 139.023438 C 128.941406 139.386719 129.21875 139.71875 129.527344 140.027344 C 129.839844 140.332031 130.175781 140.605469 130.539062 140.847656 C 130.902344 141.085938 131.285156 141.289062 131.691406 141.457031 C 132.09375 141.621094 132.507812 141.746094 132.9375 141.832031 C 133.363281 141.914062 133.796875 141.957031 134.234375 141.957031 C 134.667969 141.957031 135.101562 141.914062 135.527344 141.832031 C 135.957031 141.746094 136.371094 141.621094 136.777344 141.457031 C 137.179688 141.289062 137.5625 141.085938 137.925781 140.847656 C 138.289062 140.605469 138.625 140.332031 138.9375 140.027344 C 139.246094 139.71875 139.523438 139.386719 139.769531 139.023438 C 140.015625 138.664062 140.222656 138.28125 140.394531 137.882812 C 140.5625 137.480469 140.695312 137.066406 140.785156 136.640625 C 140.875 136.210938 140.921875 135.78125 140.925781 135.34375 Z M 140.925781 135.34375 " fill-opacity="1" fill-rule="evenodd"/><path fill="#ff9f4f" d="M 141.527344 110.542969 C 141.527344 110.0625 141.480469 109.589844 141.386719 109.121094 C 141.292969 108.648438 141.152344 108.195312 140.96875 107.753906 C 140.785156 107.308594 140.5625 106.890625 140.296875 106.492188 C 140.03125 106.09375 139.726562 105.726562 139.386719 105.386719 C 139.050781 105.046875 138.679688 104.746094 138.285156 104.480469 C 137.886719 104.214844 137.464844 103.988281 137.023438 103.804688 C 136.582031 103.625 136.125 103.484375 135.65625 103.390625 C 135.1875 103.296875 134.710938 103.25 134.234375 103.25 C 130.246094 103.25 126.9375 106.558594 126.9375 110.542969 C 126.941406 111.015625 126.996094 111.488281 127.09375 111.953125 C 127.1875 112.417969 127.332031 112.871094 127.515625 113.308594 C 127.703125 113.746094 127.929688 114.160156 128.195312 114.554688 C 128.464844 114.949219 128.765625 115.3125 129.105469 115.644531 C 129.441406 115.980469 129.808594 116.277344 130.207031 116.542969 C 130.601562 116.804688 131.019531 117.027344 131.460938 117.207031 C 131.898438 117.386719 132.351562 117.523438 132.820312 117.617188 C 133.285156 117.707031 133.757812 117.753906 134.234375 117.753906 C 134.707031 117.753906 135.179688 117.707031 135.644531 117.617188 C 136.113281 117.523438 136.566406 117.386719 137.003906 117.207031 C 137.445312 117.027344 137.863281 116.804688 138.257812 116.542969 C 138.65625 116.277344 139.023438 115.980469 139.363281 115.644531 C 139.699219 115.3125 140.003906 114.949219 140.269531 114.554688 C 140.535156 114.160156 140.761719 113.746094 140.949219 113.308594 C 141.132812 112.871094 141.277344 112.417969 141.375 111.953125 C 141.46875 111.488281 141.523438 111.015625 141.527344 110.542969 Z M 141.527344 110.542969 " fill-opacity="1" fill-rule="evenodd"/><path fill="#ff9f4f" d="M 142.125 85.734375 C 142.121094 85.21875 142.066406 84.710938 141.960938 84.207031 C 141.855469 83.703125 141.699219 83.214844 141.5 82.738281 C 141.300781 82.265625 141.054688 81.816406 140.765625 81.390625 C 140.476562 80.960938 140.148438 80.570312 139.78125 80.207031 C 139.417969 79.84375 139.019531 79.519531 138.589844 79.238281 C 138.160156 78.953125 137.707031 78.710938 137.230469 78.515625 C 136.753906 78.320312 136.265625 78.171875 135.757812 78.074219 C 135.253906 77.972656 134.742188 77.925781 134.230469 77.925781 C 133.714844 77.925781 133.203125 77.972656 132.699219 78.074219 C 132.195312 78.171875 131.703125 78.320312 131.226562 78.515625 C 130.75 78.710938 130.296875 78.953125 129.867188 79.238281 C 129.4375 79.519531 129.042969 79.84375 128.675781 80.207031 C 128.308594 80.570312 127.980469 80.960938 127.691406 81.390625 C 127.402344 81.816406 127.160156 82.265625 126.957031 82.738281 C 126.757812 83.214844 126.605469 83.703125 126.5 84.207031 C 126.394531 84.710938 126.335938 85.21875 126.332031 85.734375 C 126.332031 90.09375 129.867188 93.703125 134.230469 93.703125 C 138.59375 93.703125 142.125 90.09375 142.125 85.734375 Z M 142.125 85.734375 " fill-opacity="1" fill-rule="evenodd"/><path fill="#ff9f4f" d="M 142.730469 60.929688 C 142.730469 56.269531 138.894531 52.507812 134.234375 52.507812 C 133.679688 52.507812 133.132812 52.5625 132.589844 52.667969 C 132.046875 52.777344 131.519531 52.933594 131.007812 53.144531 C 130.496094 53.355469 130.011719 53.617188 129.550781 53.921875 C 129.089844 54.230469 128.664062 54.578125 128.273438 54.96875 C 127.882812 55.363281 127.53125 55.789062 127.226562 56.246094 C 126.917969 56.707031 126.660156 57.191406 126.449219 57.703125 C 126.234375 58.214844 126.078125 58.742188 125.96875 59.285156 C 125.863281 59.828125 125.808594 60.375 125.808594 60.929688 C 125.808594 65.664062 129.570312 69.421875 134.234375 69.421875 C 134.792969 69.425781 135.34375 69.371094 135.890625 69.261719 C 136.4375 69.152344 136.96875 68.992188 137.484375 68.78125 C 138 68.566406 138.492188 68.304688 138.957031 67.996094 C 139.417969 67.683594 139.847656 67.332031 140.242188 66.9375 C 140.636719 66.542969 140.992188 66.113281 141.300781 65.652344 C 141.609375 65.1875 141.871094 64.695312 142.085938 64.179688 C 142.300781 63.664062 142.460938 63.132812 142.570312 62.585938 C 142.675781 62.039062 142.730469 61.488281 142.730469 60.929688 Z M 142.730469 60.929688 " fill-opacity="1" fill-rule="evenodd"/><g clip-path="url(#238092c57a)"><path fill="#ff9f4f" d="M 143.183594 36.121094 C 143.183594 31.234375 139.195312 27.175781 134.234375 27.175781 C 129.273438 27.175781 125.289062 31.234375 125.289062 36.121094 C 125.289062 36.710938 125.34375 37.292969 125.460938 37.867188 C 125.574219 38.445312 125.742188 39.003906 125.96875 39.546875 C 126.195312 40.089844 126.46875 40.605469 126.796875 41.09375 C 127.121094 41.582031 127.492188 42.03125 127.90625 42.449219 C 128.324219 42.863281 128.777344 43.234375 129.265625 43.5625 C 129.753906 43.886719 130.269531 44.164062 130.8125 44.386719 C 131.355469 44.613281 131.914062 44.78125 132.488281 44.898438 C 133.066406 45.011719 133.648438 45.070312 134.234375 45.070312 C 134.824219 45.070312 135.40625 45.011719 135.980469 44.898438 C 136.558594 44.78125 137.117188 44.613281 137.660156 44.386719 C 138.203125 44.164062 138.71875 43.886719 139.207031 43.5625 C 139.695312 43.234375 140.144531 42.863281 140.5625 42.449219 C 140.976562 42.03125 141.347656 41.582031 141.675781 41.09375 C 142 40.605469 142.277344 40.089844 142.5 39.546875 C 142.726562 39.003906 142.894531 38.445312 143.011719 37.867188 C 143.125 37.292969 143.183594 36.710938 143.183594 36.121094 Z M 143.183594 36.121094 " fill-opacity="1" fill-rule="evenodd"/></g><g clip-path="url(#a9ad5a5b9a)"><path fill="#ff9f4f" d="M 143.558594 11.316406 C 143.558594 6.203125 139.347656 2.070312 134.234375 2.070312 C 133.625 2.070312 133.023438 2.128906 132.429688 2.246094 C 131.832031 2.363281 131.253906 2.539062 130.695312 2.769531 C 130.132812 3.003906 129.597656 3.289062 129.09375 3.625 C 128.589844 3.960938 128.121094 4.34375 127.691406 4.773438 C 127.261719 5.203125 126.878906 5.671875 126.542969 6.175781 C 126.203125 6.679688 125.917969 7.214844 125.6875 7.777344 C 125.453125 8.335938 125.277344 8.914062 125.160156 9.511719 C 125.042969 10.105469 124.984375 10.707031 124.984375 11.316406 C 124.984375 16.425781 129.121094 20.640625 134.234375 20.640625 C 139.347656 20.640625 143.558594 16.429688 143.558594 11.316406 Z M 143.558594 11.316406 " fill-opacity="1" fill-rule="evenodd"/></g></g></g></g></svg>