<svg width="600" height="140" viewBox="0 0 600 140" fill="none" xmlns="http://www.w3.org/2000/svg">
  <!-- Left avatar (simple circle) -->
  <circle cx="60" cy="70" r="30" fill="#E5E7EB"/>
  <circle cx="60" cy="70" r="12" fill="#6B7280"/>
  
  <!-- Arrow 1 -->
  <path d="M110 70 L160 70" stroke="#D1D5DB" stroke-width="1.5" stroke-dasharray="4,4"/>
  <path d="M157 67 L163 70 L157 73" fill="#D1D5DB"/>
  
  <!-- Stars (green) -->
  <g transform="translate(175, 50)">
    <path d="M8 12 L9 15 L12 15 L9.5 17 L10.5 20 L8 18 L5.5 20 L6.5 17 L4 15 L7 15 Z" fill="#4CAF50"/>
    <path d="M18 12 L19 15 L22 15 L19.5 17 L20.5 20 L18 18 L15.5 20 L16.5 17 L14 15 L17 15 Z" fill="#4CAF50"/>
    <path d="M28 12 L29 15 L32 15 L29.5 17 L30.5 20 L28 18 L25.5 20 L26.5 17 L24 15 L27 15 Z" fill="#4CAF50"/>
    <path d="M38 12 L39 15 L42 15 L39.5 17 L40.5 20 L38 18 L35.5 20 L36.5 17 L34 15 L37 15 Z" fill="#4CAF50"/>
  </g>
  
  <!-- Thumbs up icon (minimal) -->
  <path d="M230 65 L230 72 L235 72 L235 85 L250 85 L250 70 L245 70 L245 60 L235 60 Z" fill="#3BFEC4" stroke="#3BFEC4" stroke-width="1"/>
  
  <!-- Chart icon (minimal) -->
  <path d="M270 75 L280 68 L290 72 L300 62" stroke="#3BFEC4" stroke-width="2" fill="none" stroke-linecap="round"/>
  <circle cx="270" cy="75" r="2" fill="#3BFEC4"/>
  <circle cx="280" cy="68" r="2" fill="#3BFEC4"/>
  <circle cx="290" cy="72" r="2" fill="#3BFEC4"/>
  <circle cx="300" cy="62" r="2" fill="#3BFEC4"/>
  
  <!-- Check mark (minimal) -->
  <circle cx="320" cy="70" r="12" fill="#3BFEC4"/>
  <path d="M315 70 L318 73 L325 66" stroke="white" stroke-width="2" fill="none" stroke-linecap="round" stroke-linejoin="round"/>
  
  <!-- Arrow 2 -->
  <path d="M350 70 L400 70" stroke="#D1D5DB" stroke-width="1.5" stroke-dasharray="4,4"/>
  <path d="M397 67 L403 70 L397 73" fill="#D1D5DB"/>
  
  <!-- Bar chart (minimal) -->
  <rect x="420" y="80" width="12" height="20" rx="2" fill="#D1D5DB"/>
  <rect x="437" y="72" width="12" height="28" rx="2" fill="#3BFEC4"/>
  <rect x="454" y="76" width="12" height="24" rx="2" fill="#60A5FA"/>
  <rect x="471" y="68" width="12" height="32" rx="2" fill="#A78BFA"/>
  
  <!-- Right avatar (simple circle) -->
  <circle cx="540" cy="70" r="30" fill="#E5E7EB"/>
  <circle cx="540" cy="70" r="12" fill="#6B7280"/>
  
  <!-- Stars (orange) -->
  <g transform="translate(415, 20)">
    <path d="M8 12 L9 15 L12 15 L9.5 17 L10.5 20 L8 18 L5.5 20 L6.5 17 L4 15 L7 15 Z" fill="#FF9800"/>
    <path d="M18 12 L19 15 L22 15 L19.5 17 L20.5 20 L18 18 L15.5 20 L16.5 17 L14 15 L17 15 Z" fill="#FF9800"/>
    <path d="M28 12 L29 15 L32 15 L29.5 17 L30.5 20 L28 18 L25.5 20 L26.5 17 L24 15 L27 15 Z" fill="#FF9800"/>
    <path d="M38 12 L39 15 L42 15 L39.5 17 L40.5 20 L38 18 L35.5 20 L36.5 17 L34 15 L37 15 Z" fill="#FF9800"/>
  </g>
</svg>
