<svg width="538" height="279" viewBox="0 0 538 279" fill="none" xmlns="http://www.w3.org/2000/svg">
<path d="M0 14.7134C0 6.5874 6.5874 0 14.7134 0H522.995C531.121 0 537.708 6.5874 537.708 14.7134V263.369C537.708 271.495 531.121 278.083 522.995 278.083H14.7134C6.58738 278.083 0 271.495 0 263.369V14.7134Z" fill="white"/>
<rect x="404.994" y="19.863" width="101.034" height="27.9554" rx="7.35669" fill="#F9FBFF"/>
<path d="M481.198 31.6338L486.335 36.0478L491.472 31.6338" stroke="#7E7E7E" stroke-width="1.47134" stroke-linecap="round" stroke-linejoin="round"/>
<path d="M424.308 38.385L423.081 37.1579C422.781 37.2403 422.475 37.2815 422.163 37.2815C421.592 37.2815 421.071 37.1491 420.6 36.8843C420.129 36.6135 419.756 36.2398 419.479 35.7631C419.208 35.2805 419.073 34.7391 419.073 34.1387C419.073 33.5384 419.208 32.9999 419.479 32.5232C419.756 32.0406 420.129 31.6669 420.6 31.4021C421.071 31.1313 421.592 30.996 422.163 30.996C422.74 30.996 423.263 31.1313 423.734 31.4021C424.205 31.6669 424.576 32.0377 424.846 32.5144C425.117 32.9911 425.253 33.5326 425.253 34.1387C425.253 34.7273 425.123 35.257 424.864 35.7278C424.605 36.1986 424.249 36.5694 423.796 36.8401L425.35 38.385H424.308ZM419.894 34.1387C419.894 34.6272 419.991 35.0569 420.185 35.4276C420.385 35.7984 420.656 36.0839 420.997 36.284C421.345 36.4841 421.733 36.5841 422.163 36.5841C422.592 36.5841 422.978 36.4841 423.319 36.284C423.666 36.0839 423.937 35.7984 424.131 35.4276C424.332 35.0569 424.432 34.6272 424.432 34.1387C424.432 33.6444 424.332 33.2147 424.131 32.8499C423.937 32.4791 423.669 32.1936 423.328 31.9935C422.987 31.7934 422.598 31.6934 422.163 31.6934C421.727 31.6934 421.339 31.7934 420.997 31.9935C420.656 32.1936 420.385 32.4791 420.185 32.8499C419.991 33.2147 419.894 33.6444 419.894 34.1387ZM430.533 32.382V37.2197H429.729V36.5047C429.576 36.7518 429.361 36.9461 429.085 37.0873C428.814 37.2227 428.514 37.2904 428.184 37.2904C427.808 37.2904 427.469 37.2138 427.169 37.0608C426.869 36.9019 426.631 36.6665 426.454 36.3546C426.283 36.0427 426.198 35.6631 426.198 35.2158V32.382H426.992V35.1098C426.992 35.5865 427.113 35.9544 427.354 36.2133C427.596 36.4664 427.925 36.5929 428.343 36.5929C428.773 36.5929 429.111 36.4605 429.358 36.1957C429.606 35.9308 429.729 35.5453 429.729 35.0392V32.382H430.533ZM431.5 34.7832C431.5 34.2888 431.601 33.8562 431.801 33.4855C432.001 33.1088 432.274 32.8175 432.622 32.6115C432.975 32.4055 433.366 32.3025 433.796 32.3025C434.22 32.3025 434.587 32.3937 434.899 32.5762C435.211 32.7586 435.444 32.9882 435.597 33.2648V32.382H436.409V37.2197H435.597V36.3193C435.438 36.6018 435.199 36.8372 434.882 37.0255C434.57 37.208 434.205 37.2992 433.787 37.2992C433.357 37.2992 432.969 37.1932 432.622 36.9814C432.274 36.7695 432.001 36.4723 431.801 36.0897C431.601 35.7072 431.5 35.2717 431.5 34.7832ZM435.597 34.792C435.597 34.4271 435.523 34.1093 435.376 33.8386C435.229 33.5679 435.029 33.3619 434.776 33.2206C434.528 33.0735 434.255 32.9999 433.955 32.9999C433.655 32.9999 433.381 33.0706 433.134 33.2118C432.886 33.3531 432.689 33.559 432.542 33.8298C432.395 34.1005 432.321 34.4183 432.321 34.7832C432.321 35.154 432.395 35.4777 432.542 35.7543C432.689 36.025 432.886 36.2339 433.134 36.3811C433.381 36.5223 433.655 36.5929 433.955 36.5929C434.255 36.5929 434.528 36.5223 434.776 36.3811C435.029 36.2339 435.229 36.025 435.376 35.7543C435.523 35.4777 435.597 35.1569 435.597 34.792ZM438.482 33.1677C438.623 32.8911 438.823 32.6762 439.082 32.5232C439.347 32.3702 439.667 32.2937 440.044 32.2937V33.1235H439.832C438.932 33.1235 438.482 33.612 438.482 34.589V37.2197H437.678V32.382H438.482V33.1677ZM441.863 33.0441V35.8955C441.863 36.1309 441.913 36.2987 442.013 36.3987C442.113 36.4929 442.287 36.54 442.534 36.54H443.125V37.2197H442.402C441.954 37.2197 441.619 37.1167 441.395 36.9107C441.172 36.7048 441.06 36.3664 441.06 35.8955V33.0441H440.433V32.382H441.06V31.1637H441.863V32.382H443.125V33.0441H441.863ZM448.425 34.6155C448.425 34.7685 448.416 34.9303 448.398 35.101H444.531C444.561 35.5777 444.723 35.9514 445.017 36.2222C445.317 36.487 445.679 36.6194 446.103 36.6194C446.45 36.6194 446.738 36.54 446.968 36.3811C447.203 36.2163 447.368 35.9985 447.462 35.7278H448.327C448.198 36.1927 447.939 36.5723 447.551 36.8666C447.162 37.155 446.68 37.2992 446.103 37.2992C445.644 37.2992 445.232 37.1962 444.867 36.9902C444.508 36.7842 444.225 36.4929 444.019 36.1162C443.813 35.7337 443.71 35.2923 443.71 34.792C443.71 34.2918 443.81 33.8533 444.011 33.4766C444.211 33.1 444.49 32.8116 444.849 32.6115C445.214 32.4055 445.632 32.3025 446.103 32.3025C446.562 32.3025 446.968 32.4026 447.321 32.6027C447.674 32.8028 447.945 33.0794 448.133 33.4325C448.327 33.7797 448.425 34.1741 448.425 34.6155ZM447.595 34.4477C447.595 34.1417 447.527 33.8798 447.392 33.662C447.256 33.4384 447.071 33.2707 446.836 33.1588C446.606 33.0411 446.35 32.9823 446.067 32.9823C445.661 32.9823 445.314 33.1118 445.026 33.3707C444.743 33.6297 444.581 33.9887 444.54 34.4477H447.595ZM450.2 33.1677C450.341 32.8911 450.541 32.6762 450.8 32.5232C451.065 32.3702 451.386 32.2937 451.763 32.2937V33.1235H451.551C450.65 33.1235 450.2 33.612 450.2 34.589V37.2197H449.397V32.382H450.2V33.1677ZM453.405 30.687V37.2197H452.602V30.687H453.405ZM458.853 32.382L455.939 39.4974H455.11L456.063 37.1668L454.112 32.382H455.004L456.522 36.3016L458.023 32.382H458.853Z" fill="#7E7E7E"/>
<path d="M38.8972 35.7693C37.8398 35.7693 36.8687 35.5211 35.984 35.0248C35.0992 34.5285 34.3979 33.8433 33.88 32.9693C33.362 32.0846 33.1031 31.0865 33.1031 29.9752C33.1031 28.8746 33.362 27.8873 33.88 27.0134C34.3979 26.1286 35.0992 25.4381 35.984 24.9417C36.8687 24.4454 37.8398 24.1972 38.8972 24.1972C39.9654 24.1972 40.9365 24.4454 41.8105 24.9417C42.6952 25.4381 43.3912 26.1286 43.8983 27.0134C44.4162 27.8873 44.6752 28.8746 44.6752 29.9752C44.6752 31.0865 44.4162 32.0846 43.8983 32.9693C43.3912 33.8433 42.6952 34.5285 41.8105 35.0248C40.9257 35.5211 39.9546 35.7693 38.8972 35.7693ZM38.8972 33.7462C39.577 33.7462 40.1758 33.5952 40.6937 33.293C41.2116 32.9801 41.6162 32.5378 41.9076 31.9659C42.1989 31.394 42.3446 30.7305 42.3446 29.9752C42.3446 29.2199 42.1989 28.5617 41.9076 28.0006C41.6162 27.4288 41.2116 26.9918 40.6937 26.6897C40.1758 26.3876 39.577 26.2365 38.8972 26.2365C38.2175 26.2365 37.6132 26.3876 37.0845 26.6897C36.5666 26.9918 36.162 27.4288 35.8707 28.0006C35.5793 28.5617 35.4337 29.2199 35.4337 29.9752C35.4337 30.7305 35.5793 31.394 35.8707 31.9659C36.162 32.5378 36.5666 32.9801 37.0845 33.293C37.6132 33.5952 38.2175 33.7462 38.8972 33.7462ZM49.9377 33.5682L52.2036 26.6897H54.6151L51.2972 35.656H48.5458L45.2442 26.6897H47.6719L49.9377 33.5682ZM64.061 30.9786C64.061 31.3023 64.0394 31.5936 63.9963 31.8526H57.4415C57.4954 32.5 57.722 33.0071 58.1212 33.374C58.5205 33.7408 59.0114 33.9242 59.594 33.9242C60.4357 33.9242 61.0345 33.5628 61.3906 32.8399H63.8344C63.5755 33.7031 63.0792 34.4152 62.3454 34.9762C61.6117 35.5265 60.7108 35.8017 59.6426 35.8017C58.7794 35.8017 58.0026 35.6128 57.312 35.2352C56.6322 34.8468 56.0981 34.3019 55.7097 33.6005C55.3321 32.8992 55.1433 32.09 55.1433 31.1728C55.1433 30.2449 55.3321 29.4303 55.7097 28.7289C56.0874 28.0276 56.6161 27.4881 57.2958 27.1105C57.9756 26.7328 58.7578 26.544 59.6426 26.544C60.495 26.544 61.2557 26.7274 61.9246 27.0943C62.6044 27.4611 63.1277 27.9845 63.4946 28.6642C63.8722 29.3332 64.061 30.1046 64.061 30.9786ZM61.7142 30.3312C61.7035 29.7486 61.4931 29.2846 61.083 28.9393C60.673 28.5833 60.1713 28.4053 59.5779 28.4053C59.0168 28.4053 58.542 28.5779 58.1536 28.9232C57.776 29.2576 57.544 29.727 57.4577 30.3312H61.7142ZM67.8189 28.0816C68.1102 27.6068 68.4879 27.2346 68.9518 26.9648C69.4266 26.6951 69.9661 26.5602 70.5703 26.5602V28.9393H69.9715C69.2594 28.9393 68.7199 29.1066 68.353 29.4411C67.9969 29.7756 67.8189 30.3582 67.8189 31.189V35.656H65.5531V26.6897H67.8189V28.0816ZM75.6733 33.5682L77.9392 26.6897H80.3507L77.0328 35.656H74.2814L70.9797 26.6897H73.4074L75.6733 33.5682ZM82.6106 25.6215C82.2114 25.6215 81.8769 25.4974 81.6072 25.2492C81.3482 24.9903 81.2187 24.672 81.2187 24.2943C81.2187 23.9167 81.3482 23.6038 81.6072 23.3556C81.8769 23.0967 82.2114 22.9672 82.6106 22.9672C83.0098 22.9672 83.3389 23.0967 83.5979 23.3556C83.8676 23.6038 84.0025 23.9167 84.0025 24.2943C84.0025 24.672 83.8676 24.9903 83.5979 25.2492C83.3389 25.4974 83.0098 25.6215 82.6106 25.6215ZM83.7274 26.6897V35.656H81.4615V26.6897H83.7274ZM94.1393 30.9786C94.1393 31.3023 94.1177 31.5936 94.0746 31.8526H87.5198C87.5737 32.5 87.8003 33.0071 88.1995 33.374C88.5987 33.7408 89.0897 33.9242 89.6723 33.9242C90.5139 33.9242 91.1128 33.5628 91.4688 32.8399H93.9127C93.6538 33.7031 93.1574 34.4152 92.4237 34.9762C91.69 35.5265 90.7891 35.8017 89.7209 35.8017C88.8577 35.8017 88.0808 35.6128 87.3903 35.2352C86.7105 34.8468 86.1764 34.3019 85.788 33.6005C85.4104 32.8992 85.2215 32.09 85.2215 31.1728C85.2215 30.2449 85.4104 29.4303 85.788 28.7289C86.1656 28.0276 86.6943 27.4881 87.3741 27.1105C88.0539 26.7328 88.8361 26.544 89.7209 26.544C90.5733 26.544 91.334 26.7274 92.0029 27.0943C92.6827 27.4611 93.206 27.9845 93.5728 28.6642C93.9505 29.3332 94.1393 30.1046 94.1393 30.9786ZM91.7925 30.3312C91.7817 29.7486 91.5713 29.2846 91.1613 28.9393C90.7513 28.5833 90.2496 28.4053 89.6561 28.4053C89.0951 28.4053 88.6203 28.5779 88.2319 28.9232C87.8542 29.2576 87.6223 29.727 87.5359 30.3312H91.7925ZM108.061 26.6897L105.439 35.656H102.995L101.361 29.3925L99.7261 35.656H97.266L94.6279 26.6897H96.9261L98.5122 33.5196L100.228 26.6897H102.623L104.306 33.5034L105.892 26.6897H108.061Z" fill="black"/>
<path d="M42.3237 48.7486V55.8757H41.3865V50.5613L39.0176 55.8757H38.3585L35.9793 50.551V55.8757H35.0421V48.7486H36.0514L38.688 54.6398L41.3247 48.7486H42.3237ZM46.2718 55.9684C45.7431 55.9684 45.2624 55.8483 44.8298 55.6079C44.4041 55.3676 44.0677 55.0278 43.8205 54.5883C43.5802 54.142 43.46 53.627 43.46 53.0434C43.46 52.4666 43.5836 51.9585 43.8308 51.5191C44.0849 51.0728 44.4282 50.7329 44.8607 50.4995C45.2933 50.2591 45.7774 50.139 46.313 50.139C46.8485 50.139 47.3326 50.2591 47.7652 50.4995C48.1977 50.7329 48.5376 51.0694 48.7848 51.5088C49.0389 51.9482 49.1659 52.4598 49.1659 53.0434C49.1659 53.627 49.0354 54.142 48.7745 54.5883C48.5205 55.0278 48.1737 55.3676 47.7343 55.6079C47.2948 55.8483 46.8073 55.9684 46.2718 55.9684ZM46.2718 55.1445C46.6082 55.1445 46.9241 55.0655 47.2193 54.9076C47.5145 54.7497 47.7514 54.5128 47.93 54.1969C48.1153 53.8811 48.208 53.4966 48.208 53.0434C48.208 52.5902 48.1188 52.2057 47.9403 51.8899C47.7617 51.574 47.5283 51.3406 47.2399 51.1895C46.9515 51.0316 46.6391 50.9526 46.3027 50.9526C45.9593 50.9526 45.6435 51.0316 45.3551 51.1895C45.0736 51.3406 44.847 51.574 44.6754 51.8899C44.5037 52.2057 44.4179 52.5902 44.4179 53.0434C44.4179 53.5034 44.5003 53.8914 44.6651 54.2072C44.8367 54.5231 45.0633 54.76 45.3448 54.9179C45.6263 55.0689 45.9353 55.1445 46.2718 55.1445ZM53.0451 50.1287C53.7317 50.1287 54.2879 50.3381 54.7136 50.7569C55.1393 51.1689 55.3522 51.7663 55.3522 52.549V55.8757H54.4252V52.6829C54.4252 52.1199 54.2845 51.6908 54.003 51.3955C53.7214 51.0934 53.3369 50.9423 52.8494 50.9423C52.3551 50.9423 51.9603 51.0968 51.665 51.4058C51.3766 51.7148 51.2324 52.1645 51.2324 52.755V55.8757H50.2952V50.2317H51.2324V51.035C51.4178 50.7466 51.6684 50.5235 51.9843 50.3656C52.307 50.2076 52.6606 50.1287 53.0451 50.1287ZM57.9234 51.0041V54.3308C57.9234 54.6055 57.9818 54.8012 58.0985 54.9179C58.2152 55.0278 58.4178 55.0827 58.7061 55.0827H59.3962V55.8757H58.5517C58.0298 55.8757 57.6384 55.7556 57.3775 55.5153C57.1166 55.2749 56.9862 54.8801 56.9862 54.3308V51.0041H56.2549V50.2317H56.9862V48.8104H57.9234V50.2317H59.3962V51.0041H57.9234ZM63.2302 50.1287C63.6559 50.1287 64.0404 50.2214 64.3838 50.4068C64.7271 50.5853 64.9948 50.8565 65.1871 51.2204C65.3862 51.5843 65.4858 52.0272 65.4858 52.549V55.8757H64.5588V52.6829C64.5588 52.1199 64.4181 51.6908 64.1366 51.3955C63.8551 51.0934 63.4705 50.9423 62.983 50.9423C62.4887 50.9423 62.0939 51.0968 61.7986 51.4058C61.5102 51.7148 61.366 52.1645 61.366 52.755V55.8757H60.4288V48.2542H61.366V51.035C61.5514 50.7466 61.8055 50.5235 62.1282 50.3656C62.4578 50.2076 62.8251 50.1287 63.2302 50.1287ZM67.851 48.2542V55.8757H66.9138V48.2542H67.851ZM74.2067 50.2317L70.8079 58.533H69.8398L70.9521 55.8139L68.6759 50.2317H69.7162L71.4877 54.8046L73.2386 50.2317H74.2067ZM78.6259 49.4592V51.859H81.242V52.6314H78.6259V55.1033H81.5509V55.8757H77.6887V48.6868H81.5509V49.4592H78.6259ZM82.5159 53.0331C82.5159 52.4563 82.6327 51.9517 82.8661 51.5191C83.0996 51.0797 83.4189 50.7398 83.824 50.4995C84.2359 50.2591 84.6925 50.139 85.1938 50.139C85.6881 50.139 86.1173 50.2454 86.4812 50.4583C86.8451 50.6711 87.1163 50.9389 87.2948 51.2616V50.2317H88.2424V55.8757H87.2948V54.8252C87.1095 55.1548 86.8314 55.4294 86.4606 55.6491C86.0967 55.862 85.671 55.9684 85.1835 55.9684C84.6822 55.9684 84.2291 55.8448 83.824 55.5976C83.4189 55.3505 83.0996 55.0037 82.8661 54.5574C82.6327 54.1111 82.5159 53.603 82.5159 53.0331ZM87.2948 53.0434C87.2948 52.6177 87.209 52.2469 87.0374 51.9311C86.8657 51.6152 86.6323 51.3749 86.337 51.2101C86.0486 51.0385 85.7293 50.9526 85.3792 50.9526C85.029 50.9526 84.7097 51.035 84.4213 51.1998C84.1329 51.3646 83.9029 51.6049 83.7313 51.9208C83.5596 52.2366 83.4738 52.6074 83.4738 53.0331C83.4738 53.4657 83.5596 53.8433 83.7313 54.166C83.9029 54.4819 84.1329 54.7256 84.4213 54.8973C84.7097 55.0621 85.029 55.1445 85.3792 55.1445C85.7293 55.1445 86.0486 55.0621 86.337 54.8973C86.6323 54.7256 86.8657 54.4819 87.0374 54.166C87.209 53.8433 87.2948 53.4691 87.2948 53.0434ZM90.6605 51.1483C90.8253 50.8256 91.0587 50.575 91.3608 50.3965C91.6698 50.2179 92.044 50.1287 92.4835 50.1287V51.0968H92.2363C91.1858 51.0968 90.6605 51.6667 90.6605 52.8065V55.8757H89.7232V50.2317H90.6605V51.1483ZM96.2123 50.1287C96.899 50.1287 97.4551 50.3381 97.8808 50.7569C98.3065 51.1689 98.5194 51.7663 98.5194 52.549V55.8757H97.5924V52.6829C97.5924 52.1199 97.4517 51.6908 97.1702 51.3955C96.8887 51.0934 96.5041 50.9423 96.0166 50.9423C95.5223 50.9423 95.1275 51.0968 94.8322 51.4058C94.5438 51.7148 94.3996 52.1645 94.3996 52.755V55.8757H93.4624V50.2317H94.3996V51.035C94.585 50.7466 94.8356 50.5235 95.1515 50.3656C95.4742 50.2076 95.8278 50.1287 96.2123 50.1287ZM100.431 49.315C100.253 49.315 100.102 49.2532 99.9783 49.1296C99.8547 49.0061 99.7929 48.855 99.7929 48.6765C99.7929 48.498 99.8547 48.3469 99.9783 48.2233C100.102 48.0997 100.253 48.0379 100.431 48.0379C100.603 48.0379 100.747 48.0997 100.864 48.2233C100.988 48.3469 101.049 48.498 101.049 48.6765C101.049 48.855 100.988 49.0061 100.864 49.1296C100.747 49.2532 100.603 49.315 100.431 49.315ZM100.885 50.2317V55.8757H99.9474V50.2317H100.885ZM105.129 50.1287C105.816 50.1287 106.372 50.3381 106.797 50.7569C107.223 51.1689 107.436 51.7663 107.436 52.549V55.8757H106.509V52.6829C106.509 52.1199 106.368 51.6908 106.087 51.3955C105.805 51.0934 105.421 50.9423 104.933 50.9423C104.439 50.9423 104.044 51.0968 103.749 51.4058C103.46 51.7148 103.316 52.1645 103.316 52.755V55.8757H102.379V50.2317H103.316V51.035C103.502 50.7466 103.752 50.5235 104.068 50.3656C104.391 50.2076 104.744 50.1287 105.129 50.1287ZM111.192 50.139C111.679 50.139 112.105 50.2454 112.469 50.4583C112.84 50.6711 113.114 50.9389 113.293 51.2616V50.2317H114.24V55.9993C114.24 56.5143 114.13 56.9709 113.911 57.3691C113.691 57.7742 113.375 58.0901 112.963 58.3167C112.558 58.5433 112.084 58.6566 111.542 58.6566C110.8 58.6566 110.182 58.4815 109.688 58.1313C109.194 57.7811 108.902 57.3039 108.812 56.6997H109.739C109.842 57.043 110.055 57.3176 110.378 57.5236C110.701 57.7365 111.089 57.8429 111.542 57.8429C112.057 57.8429 112.476 57.6816 112.798 57.3588C113.128 57.0361 113.293 56.583 113.293 55.9993V54.8149C113.107 55.1445 112.833 55.4191 112.469 55.6388C112.105 55.8586 111.679 55.9684 111.192 55.9684C110.69 55.9684 110.234 55.8448 109.822 55.5976C109.417 55.3505 109.097 55.0037 108.864 54.5574C108.631 54.1111 108.514 53.603 108.514 53.0331C108.514 52.4563 108.631 51.9517 108.864 51.5191C109.097 51.0797 109.417 50.7398 109.822 50.4995C110.234 50.2591 110.69 50.139 111.192 50.139ZM113.293 53.0434C113.293 52.6177 113.207 52.2469 113.035 51.9311C112.864 51.6152 112.63 51.3749 112.335 51.2101C112.046 51.0385 111.727 50.9526 111.377 50.9526C111.027 50.9526 110.708 51.035 110.419 51.1998C110.131 51.3646 109.901 51.6049 109.729 51.9208C109.557 52.2366 109.472 52.6074 109.472 53.0331C109.472 53.4657 109.557 53.8433 109.729 54.166C109.901 54.4819 110.131 54.7256 110.419 54.8973C110.708 55.0621 111.027 55.1445 111.377 55.1445C111.727 55.1445 112.046 55.0621 112.335 54.8973C112.63 54.7256 112.864 54.4819 113.035 54.166C113.207 53.8433 113.293 53.4691 113.293 53.0434Z" fill="#ACACAC"/>
<path d="M43.7706 242.002V244.951C43.7706 245.315 43.6588 245.604 43.4351 245.816C43.2154 246.028 42.9251 246.133 42.5641 246.133C42.2031 246.133 41.9108 246.028 41.6872 245.816C41.4674 245.604 41.3576 245.315 41.3576 244.951H42.0344C42.0383 245.131 42.0834 245.274 42.1698 245.38C42.26 245.486 42.3914 245.539 42.5641 245.539C42.7367 245.539 42.8682 245.486 42.9584 245.38C43.0486 245.27 43.0938 245.127 43.0938 244.951V242.002H43.7706ZM44.5795 244.456C44.5795 244.131 44.6462 243.842 44.7796 243.591C44.917 243.34 45.1014 243.146 45.3329 243.008C45.5683 242.867 45.8272 242.796 46.1097 242.796C46.3648 242.796 46.5864 242.847 46.7748 242.95C46.967 243.048 47.1201 243.171 47.2338 243.32V242.849H47.9107V246.092H47.2338V245.61C47.1201 245.763 46.9651 245.89 46.7689 245.992C46.5727 246.094 46.3491 246.145 46.098 246.145C45.8194 246.145 45.5644 246.075 45.3329 245.933C45.1014 245.788 44.917 245.588 44.7796 245.333C44.6462 245.074 44.5795 244.782 44.5795 244.456ZM47.2338 244.468C47.2338 244.244 47.1868 244.05 47.0926 243.885C47.0023 243.72 46.8827 243.595 46.7336 243.509C46.5845 243.422 46.4236 243.379 46.251 243.379C46.0783 243.379 45.9175 243.422 45.7684 243.509C45.6193 243.591 45.4977 243.715 45.4035 243.879C45.3132 244.04 45.2681 244.233 45.2681 244.456C45.2681 244.68 45.3132 244.876 45.4035 245.045C45.4977 245.213 45.6193 245.343 45.7684 245.433C45.9214 245.519 46.0823 245.563 46.251 245.563C46.4236 245.563 46.5845 245.519 46.7336 245.433C46.8827 245.347 47.0023 245.221 47.0926 245.056C47.1868 244.888 47.2338 244.692 47.2338 244.468ZM50.3692 242.796C50.6242 242.796 50.8518 242.849 51.0519 242.955C51.2559 243.061 51.4148 243.218 51.5286 243.426C51.6424 243.634 51.6993 243.885 51.6993 244.18V246.092H51.0342V244.28C51.0342 243.989 50.9616 243.768 50.8164 243.615C50.6713 243.458 50.4731 243.379 50.222 243.379C49.9709 243.379 49.7708 243.458 49.6217 243.615C49.4766 243.768 49.404 243.989 49.404 244.28V246.092H48.733V242.849H49.404V243.22C49.5138 243.087 49.6531 242.983 49.8218 242.908C49.9945 242.834 50.1769 242.796 50.3692 242.796Z" fill="#4F4F4F"/>
<path d="M84.1898 242.002V242.549H82.4536V243.756H83.8073V244.303H82.4536V246.092H81.7827V242.002H84.1898ZM87.7248 244.391C87.7248 244.513 87.717 244.623 87.7013 244.721H85.2236C85.2432 244.98 85.3393 245.188 85.512 245.345C85.6846 245.502 85.8965 245.58 86.1476 245.58C86.5085 245.58 86.7636 245.429 86.9127 245.127H87.6366C87.5385 245.425 87.36 245.671 87.101 245.863C86.846 246.051 86.5282 246.145 86.1476 246.145C85.8376 246.145 85.559 246.077 85.3119 245.939C85.0686 245.798 84.8763 245.602 84.7351 245.351C84.5978 245.096 84.5291 244.801 84.5291 244.468C84.5291 244.134 84.5958 243.842 84.7292 243.591C84.8665 243.336 85.0568 243.14 85.3001 243.002C85.5473 242.865 85.8298 242.796 86.1476 242.796C86.4536 242.796 86.7263 242.863 86.9656 242.997C87.205 243.13 87.3913 243.318 87.5247 243.562C87.6581 243.801 87.7248 244.078 87.7248 244.391ZM87.0245 244.18C87.0206 243.932 86.9323 243.734 86.7596 243.585C86.587 243.436 86.3732 243.361 86.1181 243.361C85.8867 243.361 85.6885 243.436 85.5237 243.585C85.3589 243.73 85.2608 243.928 85.2295 244.18H87.0245ZM88.9972 243.332C89.111 243.175 89.2659 243.048 89.4621 242.95C89.6622 242.847 89.8839 242.796 90.1272 242.796C90.4136 242.796 90.6725 242.865 90.904 243.002C91.1355 243.14 91.318 243.336 91.4514 243.591C91.5848 243.842 91.6515 244.131 91.6515 244.456C91.6515 244.782 91.5848 245.074 91.4514 245.333C91.318 245.588 91.1336 245.788 90.8982 245.933C90.6667 246.075 90.4097 246.145 90.1272 246.145C89.8761 246.145 89.6524 246.096 89.4562 245.998C89.264 245.9 89.111 245.774 88.9972 245.621V246.092H88.3263V241.737H88.9972V243.332ZM90.9688 244.456C90.9688 244.233 90.9217 244.04 90.8275 243.879C90.7373 243.715 90.6157 243.591 90.4626 243.509C90.3135 243.422 90.1527 243.379 89.98 243.379C89.8113 243.379 89.6505 243.422 89.4974 243.509C89.3483 243.595 89.2267 243.72 89.1325 243.885C89.0423 244.05 88.9972 244.244 88.9972 244.468C88.9972 244.692 89.0423 244.888 89.1325 245.056C89.2267 245.221 89.3483 245.347 89.4974 245.433C89.6505 245.519 89.8113 245.563 89.98 245.563C90.1527 245.563 90.3135 245.519 90.4626 245.433C90.6157 245.343 90.7373 245.213 90.8275 245.045C90.9217 244.876 90.9688 244.68 90.9688 244.456Z" fill="#4F4F4F"/>
<path d="M126.333 242.002V246.092H125.662V243.291L124.414 246.092H123.949L122.696 243.291V246.092H122.025V242.002H122.749L124.185 245.209L125.615 242.002H126.333ZM126.932 244.456C126.932 244.131 126.999 243.842 127.132 243.591C127.27 243.34 127.454 243.146 127.686 243.008C127.921 242.867 128.18 242.796 128.463 242.796C128.718 242.796 128.939 242.847 129.128 242.95C129.32 243.048 129.473 243.171 129.587 243.32V242.849H130.263V246.092H129.587V245.61C129.473 245.763 129.318 245.89 129.122 245.992C128.925 246.094 128.702 246.145 128.451 246.145C128.172 246.145 127.917 246.075 127.686 245.933C127.454 245.788 127.27 245.588 127.132 245.333C126.999 245.074 126.932 244.782 126.932 244.456ZM129.587 244.468C129.587 244.244 129.54 244.05 129.445 243.885C129.355 243.72 129.235 243.595 129.086 243.509C128.937 243.422 128.776 243.379 128.604 243.379C128.431 243.379 128.27 243.422 128.121 243.509C127.972 243.591 127.85 243.715 127.756 243.879C127.666 244.04 127.621 244.233 127.621 244.456C127.621 244.68 127.666 244.876 127.756 245.045C127.85 245.213 127.972 245.343 128.121 245.433C128.274 245.519 128.435 245.563 128.604 245.563C128.776 245.563 128.937 245.519 129.086 245.433C129.235 245.347 129.355 245.221 129.445 245.056C129.54 244.888 129.587 244.692 129.587 244.468ZM131.757 243.32C131.855 243.155 131.984 243.028 132.145 242.938C132.31 242.844 132.504 242.796 132.728 242.796V243.491H132.557C132.294 243.491 132.094 243.558 131.957 243.691C131.823 243.824 131.757 244.056 131.757 244.386V246.092H131.086V242.849H131.757V243.32Z" fill="#4F4F4F"/>
<path d="M165.589 245.257H163.877L163.583 246.092H162.882L164.348 241.996H165.125L166.59 246.092H165.884L165.589 245.257ZM165.401 244.709L164.736 242.808L164.065 244.709H165.401ZM167.839 243.326C167.953 243.177 168.108 243.052 168.304 242.95C168.5 242.847 168.722 242.796 168.969 242.796C169.252 242.796 169.509 242.867 169.74 243.008C169.976 243.146 170.16 243.34 170.293 243.591C170.427 243.842 170.494 244.131 170.494 244.456C170.494 244.782 170.427 245.074 170.293 245.333C170.16 245.588 169.976 245.788 169.74 245.933C169.509 246.075 169.252 246.145 168.969 246.145C168.722 246.145 168.502 246.096 168.31 245.998C168.118 245.896 167.961 245.771 167.839 245.621V247.634H167.168V242.849H167.839V243.326ZM169.811 244.456C169.811 244.233 169.764 244.04 169.67 243.879C169.579 243.715 169.458 243.591 169.305 243.509C169.156 243.422 168.995 243.379 168.822 243.379C168.653 243.379 168.493 243.422 168.34 243.509C168.19 243.595 168.069 243.72 167.975 243.885C167.884 244.05 167.839 244.244 167.839 244.468C167.839 244.692 167.884 244.888 167.975 245.056C168.069 245.221 168.19 245.347 168.34 245.433C168.493 245.519 168.653 245.563 168.822 245.563C168.995 245.563 169.156 245.519 169.305 245.433C169.458 245.343 169.579 245.213 169.67 245.045C169.764 244.876 169.811 244.68 169.811 244.456ZM171.769 243.32C171.867 243.155 171.997 243.028 172.158 242.938C172.322 242.844 172.517 242.796 172.74 242.796V243.491H172.57C172.307 243.491 172.107 243.558 171.969 243.691C171.836 243.824 171.769 244.056 171.769 244.386V246.092H171.098V242.849H171.769V243.32Z" fill="#4F4F4F"/>
<path d="M205.962 242.002V246.092H205.291V243.291L204.044 246.092H203.579L202.325 243.291V246.092H201.654V242.002H202.378L203.814 245.209L205.244 242.002H205.962ZM206.562 244.456C206.562 244.131 206.628 243.842 206.762 243.591C206.899 243.34 207.084 243.146 207.315 243.008C207.55 242.867 207.809 242.796 208.092 242.796C208.347 242.796 208.569 242.847 208.757 242.95C208.949 243.048 209.102 243.171 209.216 243.32V242.849H209.893V246.092H209.216V245.61C209.102 245.763 208.947 245.89 208.751 245.992C208.555 246.094 208.331 246.145 208.08 246.145C207.802 246.145 207.547 246.075 207.315 245.933C207.084 245.788 206.899 245.588 206.762 245.333C206.628 245.074 206.562 244.782 206.562 244.456ZM209.216 244.468C209.216 244.244 209.169 244.05 209.075 243.885C208.985 243.72 208.865 243.595 208.716 243.509C208.567 243.422 208.406 243.379 208.233 243.379C208.061 243.379 207.9 243.422 207.751 243.509C207.601 243.591 207.48 243.715 207.386 243.879C207.295 244.04 207.25 244.233 207.25 244.456C207.25 244.68 207.295 244.876 207.386 245.045C207.48 245.213 207.601 245.343 207.751 245.433C207.904 245.519 208.064 245.563 208.233 245.563C208.406 245.563 208.567 245.519 208.716 245.433C208.865 245.347 208.985 245.221 209.075 245.056C209.169 244.888 209.216 244.692 209.216 244.468ZM213.634 242.849L211.645 247.617H210.951L211.61 246.039L210.333 242.849H211.08L211.992 245.321L212.94 242.849H213.634Z" fill="#4F4F4F"/>
<path d="M244.983 242.002V244.951C244.983 245.315 244.872 245.604 244.648 245.816C244.428 246.028 244.138 246.133 243.777 246.133C243.416 246.133 243.124 246.028 242.9 245.816C242.68 245.604 242.57 245.315 242.57 244.951H243.247C243.251 245.131 243.296 245.274 243.383 245.38C243.473 245.486 243.604 245.539 243.777 245.539C243.95 245.539 244.081 245.486 244.171 245.38C244.262 245.27 244.307 245.127 244.307 244.951V242.002H244.983ZM248.953 242.849V246.092H248.282V245.71C248.176 245.843 248.037 245.949 247.864 246.028C247.695 246.102 247.515 246.139 247.323 246.139C247.068 246.139 246.838 246.086 246.634 245.98C246.434 245.875 246.275 245.718 246.157 245.51C246.044 245.302 245.987 245.051 245.987 244.756V242.849H246.652V244.656C246.652 244.947 246.724 245.17 246.869 245.327C247.015 245.48 247.213 245.557 247.464 245.557C247.715 245.557 247.913 245.48 248.058 245.327C248.207 245.17 248.282 244.947 248.282 244.656V242.849H248.953ZM251.415 242.796C251.67 242.796 251.898 242.849 252.098 242.955C252.302 243.061 252.461 243.218 252.575 243.426C252.689 243.634 252.745 243.885 252.745 244.18V246.092H252.08V244.28C252.08 243.989 252.008 243.768 251.863 243.615C251.717 243.458 251.519 243.379 251.268 243.379C251.017 243.379 250.817 243.458 250.668 243.615C250.523 243.768 250.45 243.989 250.45 244.28V246.092H249.779V242.849H250.45V243.22C250.56 243.087 250.699 242.983 250.868 242.908C251.041 242.834 251.223 242.796 251.415 242.796Z" fill="#4F4F4F"/>
<path d="M286.939 242.002V244.951C286.939 245.315 286.827 245.604 286.603 245.816C286.383 246.028 286.093 246.133 285.732 246.133C285.371 246.133 285.079 246.028 284.855 245.816C284.635 245.604 284.526 245.315 284.526 244.951H285.202C285.206 245.131 285.251 245.274 285.338 245.38C285.428 245.486 285.559 245.539 285.732 245.539C285.905 245.539 286.036 245.486 286.126 245.38C286.217 245.27 286.262 245.127 286.262 244.951V242.002H286.939ZM290.908 242.849V246.092H290.237V245.71C290.131 245.843 289.992 245.949 289.819 246.028C289.65 246.102 289.47 246.139 289.278 246.139C289.023 246.139 288.793 246.086 288.589 245.98C288.389 245.875 288.23 245.718 288.112 245.51C287.999 245.302 287.942 245.051 287.942 244.756V242.849H288.607V244.656C288.607 244.947 288.679 245.17 288.825 245.327C288.97 245.48 289.168 245.557 289.419 245.557C289.67 245.557 289.868 245.48 290.013 245.327C290.162 245.17 290.237 244.947 290.237 244.656V242.849H290.908ZM292.405 241.737V246.092H291.734V241.737H292.405Z" fill="#4F4F4F"/>
<path d="M323.899 246.18H321.971L321.662 247.092H320.345L322.214 241.928H323.67L325.539 247.092H324.208L323.899 246.18ZM323.575 245.209L322.935 243.318L322.302 245.209H323.575ZM330.088 242.987V247.092H328.83V246.533C328.702 246.715 328.528 246.862 328.307 246.975C328.092 247.082 327.851 247.136 327.586 247.136C327.273 247.136 326.995 247.068 326.755 246.93C326.515 246.788 326.328 246.585 326.196 246.32C326.064 246.055 325.997 245.744 325.997 245.386V242.987H327.248V245.216C327.248 245.491 327.319 245.704 327.461 245.856C327.604 246.008 327.795 246.084 328.035 246.084C328.28 246.084 328.474 246.008 328.616 245.856C328.759 245.704 328.83 245.491 328.83 245.216V242.987H330.088ZM332.477 242.928C332.767 242.928 333.019 242.987 333.235 243.105C333.456 243.223 333.625 243.377 333.743 243.568V242.987H335.001V247.085C335.001 247.463 334.925 247.803 334.773 248.108C334.626 248.416 334.397 248.662 334.089 248.843C333.784 249.025 333.404 249.115 332.948 249.115C332.34 249.115 331.847 248.971 331.47 248.681C331.092 248.397 330.876 248.009 330.822 247.519H332.065C332.105 247.676 332.198 247.799 332.345 247.887C332.492 247.98 332.674 248.027 332.889 248.027C333.149 248.027 333.355 247.951 333.507 247.799C333.664 247.651 333.743 247.414 333.743 247.085V246.504C333.62 246.695 333.451 246.852 333.235 246.975C333.019 247.092 332.767 247.151 332.477 247.151C332.139 247.151 331.832 247.065 331.558 246.894C331.283 246.717 331.065 246.469 330.903 246.151C330.746 245.827 330.668 245.454 330.668 245.032C330.668 244.611 330.746 244.24 330.903 243.922C331.065 243.603 331.283 243.358 331.558 243.186C331.832 243.014 332.139 242.928 332.477 242.928ZM333.743 245.04C333.743 244.726 333.654 244.478 333.478 244.297C333.306 244.115 333.095 244.025 332.845 244.025C332.595 244.025 332.382 244.115 332.205 244.297C332.034 244.473 331.948 244.719 331.948 245.032C331.948 245.346 332.034 245.596 332.205 245.783C332.382 245.964 332.595 246.055 332.845 246.055C333.095 246.055 333.306 245.964 333.478 245.783C333.654 245.601 333.743 245.354 333.743 245.04Z" fill="#4F4F4F"/>
<path d="M364.828 246.133C364.553 246.133 364.306 246.086 364.086 245.992C363.866 245.894 363.694 245.757 363.568 245.58C363.443 245.404 363.38 245.198 363.38 244.962H364.098C364.114 245.139 364.182 245.284 364.304 245.398C364.429 245.512 364.604 245.568 364.828 245.568C365.059 245.568 365.24 245.514 365.369 245.404C365.499 245.29 365.563 245.145 365.563 244.968C365.563 244.831 365.522 244.719 365.44 244.633C365.361 244.546 365.261 244.48 365.14 244.433C365.022 244.386 364.857 244.335 364.645 244.28C364.378 244.209 364.161 244.138 363.992 244.068C363.827 243.993 363.686 243.879 363.568 243.726C363.451 243.573 363.392 243.369 363.392 243.114C363.392 242.879 363.451 242.673 363.568 242.496C363.686 242.32 363.851 242.184 364.063 242.09C364.274 241.996 364.52 241.949 364.798 241.949C365.195 241.949 365.518 242.049 365.769 242.249C366.024 242.445 366.166 242.716 366.193 243.061H365.452C365.44 242.912 365.369 242.785 365.24 242.679C365.11 242.573 364.94 242.52 364.728 242.52C364.535 242.52 364.378 242.569 364.257 242.667C364.135 242.765 364.074 242.906 364.074 243.091C364.074 243.216 364.112 243.32 364.186 243.403C364.265 243.481 364.363 243.544 364.48 243.591C364.598 243.638 364.759 243.689 364.963 243.744C365.234 243.819 365.454 243.893 365.622 243.968C365.795 244.042 365.94 244.158 366.058 244.315C366.179 244.468 366.24 244.674 366.24 244.933C366.24 245.141 366.183 245.337 366.07 245.521C365.96 245.706 365.797 245.855 365.581 245.969C365.369 246.079 365.118 246.133 364.828 246.133ZM369.945 244.391C369.945 244.513 369.937 244.623 369.922 244.721H367.444C367.463 244.98 367.56 245.188 367.732 245.345C367.905 245.502 368.117 245.58 368.368 245.58C368.729 245.58 368.984 245.429 369.133 245.127H369.857C369.759 245.425 369.58 245.671 369.321 245.863C369.066 246.051 368.748 246.145 368.368 246.145C368.058 246.145 367.779 246.077 367.532 245.939C367.289 245.798 367.097 245.602 366.955 245.351C366.818 245.096 366.749 244.801 366.749 244.468C366.749 244.134 366.816 243.842 366.949 243.591C367.087 243.336 367.277 243.14 367.52 243.002C367.768 242.865 368.05 242.796 368.368 242.796C368.674 242.796 368.947 242.863 369.186 242.997C369.425 243.13 369.612 243.318 369.745 243.562C369.878 243.801 369.945 244.078 369.945 244.391ZM369.245 244.18C369.241 243.932 369.153 243.734 368.98 243.585C368.807 243.436 368.593 243.361 368.338 243.361C368.107 243.361 367.909 243.436 367.744 243.585C367.579 243.73 367.481 243.928 367.45 244.18H369.245ZM371.217 243.326C371.331 243.177 371.486 243.052 371.682 242.95C371.879 242.847 372.1 242.796 372.347 242.796C372.63 242.796 372.887 242.867 373.118 243.008C373.354 243.146 373.538 243.34 373.672 243.591C373.805 243.842 373.872 244.131 373.872 244.456C373.872 244.782 373.805 245.074 373.672 245.333C373.538 245.588 373.354 245.788 373.118 245.933C372.887 246.075 372.63 246.145 372.347 246.145C372.1 246.145 371.881 246.096 371.688 245.998C371.496 245.896 371.339 245.771 371.217 245.621V247.634H370.547V242.849H371.217V243.326ZM373.189 244.456C373.189 244.233 373.142 244.04 373.048 243.879C372.958 243.715 372.836 243.591 372.683 243.509C372.534 243.422 372.373 243.379 372.2 243.379C372.032 243.379 371.871 243.422 371.718 243.509C371.569 243.595 371.447 243.72 371.353 243.885C371.263 244.05 371.217 244.244 371.217 244.468C371.217 244.692 371.263 244.888 371.353 245.056C371.447 245.221 371.569 245.347 371.718 245.433C371.871 245.519 372.032 245.563 372.2 245.563C372.373 245.563 372.534 245.519 372.683 245.433C372.836 245.343 372.958 245.213 373.048 245.045C373.142 244.876 373.189 244.68 373.189 244.456Z" fill="#4F4F4F"/>
<path d="M406.445 246.133C406.064 246.133 405.713 246.045 405.391 245.869C405.073 245.688 404.82 245.439 404.632 245.121C404.448 244.799 404.355 244.439 404.355 244.038C404.355 243.638 404.448 243.279 404.632 242.961C404.82 242.643 405.073 242.396 405.391 242.22C405.713 242.039 406.064 241.949 406.445 241.949C406.829 241.949 407.18 242.039 407.498 242.22C407.82 242.396 408.073 242.643 408.257 242.961C408.442 243.279 408.534 243.638 408.534 244.038C408.534 244.439 408.442 244.799 408.257 245.121C408.073 245.439 407.82 245.688 407.498 245.869C407.18 246.045 406.829 246.133 406.445 246.133ZM406.445 245.551C406.715 245.551 406.957 245.49 407.169 245.368C407.381 245.243 407.545 245.066 407.663 244.839C407.785 244.607 407.845 244.34 407.845 244.038C407.845 243.736 407.785 243.471 407.663 243.244C407.545 243.016 407.381 242.842 407.169 242.72C406.957 242.598 406.715 242.538 406.445 242.538C406.174 242.538 405.933 242.598 405.721 242.72C405.509 242.842 405.342 243.016 405.221 243.244C405.103 243.471 405.044 243.736 405.044 244.038C405.044 244.34 405.103 244.607 405.221 244.839C405.342 245.066 405.509 245.243 405.721 245.368C405.933 245.49 406.174 245.551 406.445 245.551ZM408.912 244.468C408.912 244.134 408.978 243.842 409.112 243.591C409.249 243.336 409.438 243.14 409.677 243.002C409.916 242.865 410.191 242.796 410.501 242.796C410.893 242.796 411.217 242.891 411.472 243.079C411.731 243.263 411.905 243.528 411.996 243.874H411.272C411.213 243.713 411.119 243.587 410.989 243.497C410.86 243.407 410.697 243.361 410.501 243.361C410.226 243.361 410.006 243.46 409.842 243.656C409.681 243.848 409.6 244.119 409.6 244.468C409.6 244.817 409.681 245.09 409.842 245.286C410.006 245.482 410.226 245.58 410.501 245.58C410.889 245.58 411.146 245.41 411.272 245.068H411.996C411.902 245.398 411.725 245.661 411.466 245.857C411.207 246.049 410.885 246.145 410.501 246.145C410.191 246.145 409.916 246.077 409.677 245.939C409.438 245.798 409.249 245.602 409.112 245.351C408.978 245.096 408.912 244.801 408.912 244.468ZM413.388 243.397V245.192C413.388 245.313 413.416 245.402 413.471 245.457C413.529 245.508 413.628 245.533 413.765 245.533H414.177V246.092H413.647C413.345 246.092 413.114 246.022 412.953 245.88C412.792 245.739 412.711 245.51 412.711 245.192V243.397H412.329V242.849H412.711V242.043H413.388V242.849H414.177V243.397H413.388Z" fill="#4F4F4F"/>
<path d="M447.326 246.092H446.655L444.636 243.038V246.092H443.965V241.996H444.636L446.655 245.045V241.996H447.326V246.092ZM449.555 246.145C449.249 246.145 448.972 246.077 448.725 245.939C448.478 245.798 448.283 245.602 448.142 245.351C448.001 245.096 447.93 244.801 447.93 244.468C447.93 244.138 448.003 243.846 448.148 243.591C448.293 243.336 448.491 243.14 448.742 243.002C448.994 242.865 449.274 242.796 449.584 242.796C449.894 242.796 450.175 242.865 450.426 243.002C450.677 243.14 450.875 243.336 451.02 243.591C451.165 243.846 451.238 244.138 451.238 244.468C451.238 244.798 451.163 245.09 451.014 245.345C450.865 245.6 450.661 245.798 450.402 245.939C450.147 246.077 449.865 246.145 449.555 246.145ZM449.555 245.563C449.727 245.563 449.888 245.521 450.037 245.439C450.19 245.357 450.314 245.233 450.408 245.068C450.502 244.903 450.549 244.703 450.549 244.468C450.549 244.233 450.504 244.034 450.414 243.874C450.324 243.709 450.204 243.585 450.055 243.503C449.906 243.42 449.745 243.379 449.572 243.379C449.4 243.379 449.239 243.42 449.09 243.503C448.945 243.585 448.829 243.709 448.742 243.874C448.656 244.034 448.613 244.233 448.613 244.468C448.613 244.817 448.701 245.088 448.878 245.28C449.058 245.468 449.284 245.563 449.555 245.563ZM453.096 245.492L454.014 242.849H454.726L453.49 246.092H452.69L451.46 242.849H452.178L453.096 245.492Z" fill="#4F4F4F"/>
<path d="M485.544 242.002C485.979 242.002 486.36 242.086 486.686 242.255C487.015 242.42 487.268 242.659 487.445 242.973C487.625 243.283 487.716 243.646 487.716 244.062C487.716 244.478 487.625 244.839 487.445 245.145C487.268 245.451 487.015 245.686 486.686 245.851C486.36 246.012 485.979 246.092 485.544 246.092H484.208V242.002H485.544ZM485.544 245.545C486.023 245.545 486.39 245.415 486.645 245.157C486.9 244.898 487.027 244.533 487.027 244.062C487.027 243.587 486.9 243.216 486.645 242.95C486.39 242.683 486.023 242.549 485.544 242.549H484.879V245.545H485.544ZM491.294 244.391C491.294 244.513 491.286 244.623 491.27 244.721H488.793C488.812 244.98 488.908 245.188 489.081 245.345C489.254 245.502 489.465 245.58 489.717 245.58C490.078 245.58 490.333 245.429 490.482 245.127H491.206C491.108 245.425 490.929 245.671 490.67 245.863C490.415 246.051 490.097 246.145 489.717 246.145C489.407 246.145 489.128 246.077 488.881 245.939C488.638 245.798 488.445 245.602 488.304 245.351C488.167 245.096 488.098 244.801 488.098 244.468C488.098 244.134 488.165 243.842 488.298 243.591C488.436 243.336 488.626 243.14 488.869 243.002C489.116 242.865 489.399 242.796 489.717 242.796C490.023 242.796 490.295 242.863 490.535 242.997C490.774 243.13 490.96 243.318 491.094 243.562C491.227 243.801 491.294 244.078 491.294 244.391ZM490.594 244.18C490.59 243.932 490.501 243.734 490.329 243.585C490.156 243.436 489.942 243.361 489.687 243.361C489.456 243.361 489.258 243.436 489.093 243.585C488.928 243.73 488.83 243.928 488.798 244.18H490.594ZM491.672 244.468C491.672 244.134 491.738 243.842 491.872 243.591C492.009 243.336 492.197 243.14 492.437 243.002C492.676 242.865 492.951 242.796 493.261 242.796C493.653 242.796 493.977 242.891 494.232 243.079C494.491 243.263 494.665 243.528 494.756 243.874H494.032C493.973 243.713 493.879 243.587 493.749 243.497C493.62 243.407 493.457 243.361 493.261 243.361C492.986 243.361 492.766 243.46 492.602 243.656C492.441 243.848 492.36 244.119 492.36 244.468C492.36 244.817 492.441 245.09 492.602 245.286C492.766 245.482 492.986 245.58 493.261 245.58C493.649 245.58 493.906 245.41 494.032 245.068H494.756C494.661 245.398 494.485 245.661 494.226 245.857C493.967 246.049 493.645 246.145 493.261 246.145C492.951 246.145 492.676 246.077 492.437 245.939C492.197 245.798 492.009 245.602 491.872 245.351C491.738 245.096 491.672 244.801 491.672 244.468Z" fill="#4F4F4F"/>
<rect x="34.249" y="148.605" width="26.5429" height="81.6592" rx="5.88535" fill="#7DF9FF"/>
<rect x="74.4917" y="125.799" width="26.5429" height="104.465" rx="5.88535" fill="#7DF9FF"/>
<rect x="114.734" y="100.787" width="26.5429" height="129.478" rx="5.88535" fill="#7DF9FF"/>
<rect x="154.977" y="133.892" width="26.5429" height="96.3726" rx="5.88535" fill="#7DF9FF"/>
<rect x="195.219" y="161.111" width="26.5429" height="69.1529" rx="5.88535" fill="#7DF9FF"/>
<rect x="235.462" y="133.892" width="26.5429" height="96.3726" rx="5.88535" fill="#7DF9FF"/>
<rect x="275.704" y="125.799" width="26.5429" height="104.465" rx="5.88535" fill="#7DF9FF"/>
<g filter="url(#filter0_d_62_14333)">
<rect x="311.665" y="77.9808" width="34.249" height="152.283" rx="5.88535" fill="#0096FF"/>
</g>
<rect x="356.189" y="97.1083" width="26.5429" height="133.156" rx="5.88535" fill="#7DF9FF"/>
<rect x="396.432" y="118.443" width="26.5429" height="111.822" rx="5.88535" fill="#7DF9FF"/>
<rect x="436.674" y="148.605" width="26.5429" height="81.6592" rx="5.88535" fill="#7DF9FF"/>
<rect x="476.917" y="106.672" width="26.5429" height="123.592" rx="5.88535" fill="#7DF9FF"/>
<path d="M302.247 54.4395C302.247 52.0017 304.223 50.0255 306.661 50.0255H350.918C353.356 50.0255 355.332 52.0017 355.332 54.4395V63.2675C355.332 65.7053 353.356 67.6816 350.918 67.6816H331.358L328.361 71.7277L324.937 67.6816H306.661C304.223 67.6816 302.247 65.7053 302.247 63.2676V54.4395Z" fill="black"/>
<path d="M327.563 58.2275C327.592 57.639 327.798 57.1858 328.181 56.868C328.569 56.5443 329.078 56.3824 329.708 56.3824C330.138 56.3824 330.505 56.4589 330.811 56.612C331.117 56.7591 331.347 56.9621 331.5 57.2211C331.659 57.4742 331.738 57.7625 331.738 58.0862C331.738 58.457 331.641 58.7719 331.447 59.0308C331.259 59.2839 331.032 59.4546 330.767 59.5429V59.5782C331.109 59.6841 331.373 59.8724 331.562 60.1432C331.756 60.4139 331.853 60.7611 331.853 61.1849C331.853 61.538 331.771 61.8529 331.606 62.1295C331.447 62.4061 331.209 62.6238 330.891 62.7828C330.579 62.9358 330.202 63.0123 329.761 63.0123C329.096 63.0123 328.554 62.8445 328.137 62.5091C327.719 62.1736 327.498 61.6792 327.474 61.026H328.675C328.687 61.3144 328.784 61.5468 328.966 61.7234C329.155 61.8941 329.411 61.9794 329.734 61.9794C330.035 61.9794 330.264 61.897 330.423 61.7322C330.588 61.5615 330.67 61.3438 330.67 61.0789C330.67 60.7258 330.558 60.4728 330.335 60.3197C330.111 60.1667 329.764 60.0902 329.293 60.0902H329.037V59.075H329.293C330.129 59.075 330.547 58.7954 330.547 58.2363C330.547 57.9832 330.47 57.7861 330.317 57.6448C330.17 57.5036 329.955 57.433 329.673 57.433C329.396 57.433 329.181 57.5095 329.028 57.6625C328.881 57.8096 328.796 57.998 328.772 58.2275H327.563ZM337.067 57.6007H334.207V59.1103C334.331 58.9573 334.507 58.8337 334.737 58.7395C334.966 58.6395 335.21 58.5894 335.469 58.5894C335.94 58.5894 336.326 58.6924 336.626 58.8984C336.926 59.1044 337.144 59.3692 337.279 59.6929C337.414 60.0108 337.482 60.3521 337.482 60.717C337.482 61.3938 337.288 61.9382 336.899 62.3502C336.517 62.7622 335.97 62.9681 335.257 62.9681C334.587 62.9681 334.051 62.8004 333.651 62.4649C333.251 62.1295 333.024 61.691 332.971 61.1496H334.172C334.225 61.385 334.342 61.5733 334.525 61.7146C334.713 61.8558 334.951 61.9264 335.24 61.9264C335.587 61.9264 335.849 61.8176 336.026 61.5998C336.202 61.382 336.29 61.0937 336.29 60.7346C336.29 60.3698 336.199 60.0931 336.017 59.9048C335.84 59.7106 335.578 59.6135 335.231 59.6135C334.984 59.6135 334.778 59.6753 334.613 59.7989C334.448 59.9225 334.331 60.0873 334.26 60.2932H333.077V56.5149H337.067V57.6007ZM338.193 58.1127C338.193 57.6654 338.323 57.3153 338.582 57.0622C338.847 56.8091 339.185 56.6826 339.597 56.6826C340.009 56.6826 340.344 56.8091 340.603 57.0622C340.868 57.3153 341.001 57.6654 341.001 58.1127C341.001 58.5659 340.868 58.919 340.603 59.1721C340.344 59.4252 340.009 59.5517 339.597 59.5517C339.185 59.5517 338.847 59.4252 338.582 59.1721C338.323 58.919 338.193 58.5659 338.193 58.1127ZM343.861 56.7885L340.391 62.9681H339.191L342.651 56.7885H343.861ZM339.588 57.4241C339.264 57.4241 339.103 57.6537 339.103 58.1127C339.103 58.5777 339.264 58.8101 339.588 58.8101C339.747 58.8101 339.871 58.7542 339.959 58.6424C340.047 58.5247 340.091 58.3481 340.091 58.1127C340.091 57.6537 339.924 57.4241 339.588 57.4241ZM342.069 61.6351C342.069 61.1819 342.198 60.8318 342.457 60.5846C342.722 60.3315 343.06 60.205 343.472 60.205C343.884 60.205 344.217 60.3315 344.47 60.5846C344.729 60.8318 344.858 61.1819 344.858 61.6351C344.858 62.0883 344.729 62.4414 344.47 62.6945C344.217 62.9475 343.884 63.0741 343.472 63.0741C343.055 63.0741 342.716 62.9475 342.457 62.6945C342.198 62.4414 342.069 62.0883 342.069 61.6351ZM343.464 60.9465C343.128 60.9465 342.96 61.1761 342.96 61.6351C342.96 62.1001 343.128 62.3325 343.464 62.3325C343.793 62.3325 343.958 62.1001 343.958 61.6351C343.958 61.1761 343.793 60.9465 343.464 60.9465Z" fill="white"/>
<path d="M321.94 56.6465L316.346 60.9722L314.215 58.5004L309.953 61.7962" stroke="#00AC4F" stroke-width="1.47134" stroke-linecap="round" stroke-linejoin="round"/>
<path d="M319.371 56.6465H321.94V58.8535" stroke="#00AC4F" stroke-width="1.47134" stroke-linecap="round" stroke-linejoin="round"/>
<defs>
<filter id="filter0_d_62_14333" x="302.837" y="75.0382" width="51.9051" height="169.939" filterUnits="userSpaceOnUse" color-interpolation-filters="sRGB">
<feFlood flood-opacity="0" result="BackgroundImageFix"/>
<feColorMatrix in="SourceAlpha" type="matrix" values="0 0 0 0 0 0 0 0 0 0 0 0 0 0 0 0 0 0 127 0" result="hardAlpha"/>
<feOffset dy="5.88535"/>
<feGaussianBlur stdDeviation="4.41401"/>
<feComposite in2="hardAlpha" operator="out"/>
<feColorMatrix type="matrix" values="0 0 0 0 0.52849 0 0 0 0 0.566891 0 0 0 0 0.9125 0 0 0 0.3 0"/>
<feBlend mode="normal" in2="BackgroundImageFix" result="effect1_dropShadow_62_14333"/>
<feBlend mode="normal" in="SourceGraphic" in2="effect1_dropShadow_62_14333" result="shape"/>
</filter>
</defs>
</svg>
