<svg xmlns="http://www.w3.org/2000/svg" xmlns:xlink="http://www.w3.org/1999/xlink" width="135" zoomAndPan="magnify" viewBox="0 0 359.25 116.249996" height="44" preserveAspectRatio="xMidYMid meet" version="1.0"><defs><g/><clipPath id="9c7dbab681"><path d="M 0.449219 0.160156 L 354.5625 0.160156 L 354.5625 90.300781 L 0.449219 90.300781 Z M 0.449219 0.160156 " clip-rule="nonzero"/></clipPath><clipPath id="b49917a167"><path d="M 73 0.160156 L 354.5625 0.160156 L 354.5625 90.300781 L 73 90.300781 Z M 73 0.160156 " clip-rule="nonzero"/></clipPath><clipPath id="d878ce6e5f"><rect x="0" width="282" y="0" height="91"/></clipPath><clipPath id="830447bc1f"><path d="M 5.484375 13.460938 L 57.628906 13.460938 L 57.628906 65.605469 L 5.484375 65.605469 Z M 5.484375 13.460938 " clip-rule="nonzero"/></clipPath><clipPath id="31e3e961b3"><path d="M 31.558594 13.460938 C 17.15625 13.460938 5.484375 25.132812 5.484375 39.535156 C 5.484375 53.933594 17.15625 65.605469 31.558594 65.605469 C 45.957031 65.605469 57.628906 53.933594 57.628906 39.535156 C 57.628906 25.132812 45.957031 13.460938 31.558594 13.460938 Z M 31.558594 13.460938 " clip-rule="nonzero"/></clipPath><clipPath id="ee6f747f54"><path d="M 0.484375 0.460938 L 52.628906 0.460938 L 52.628906 52.605469 L 0.484375 52.605469 Z M 0.484375 0.460938 " clip-rule="nonzero"/></clipPath><clipPath id="9fd657a608"><path d="M 26.558594 0.460938 C 12.15625 0.460938 0.484375 12.132812 0.484375 26.535156 C 0.484375 40.933594 12.15625 52.605469 26.558594 52.605469 C 40.957031 52.605469 52.628906 40.933594 52.628906 26.535156 C 52.628906 12.132812 40.957031 0.460938 26.558594 0.460938 Z M 26.558594 0.460938 " clip-rule="nonzero"/></clipPath><clipPath id="8870d9d830"><rect x="0" width="53" y="0" height="53"/></clipPath><clipPath id="cc0d12023c"><path d="M 0.558594 2.476562 L 67.71875 2.476562 L 67.71875 69.636719 L 0.558594 69.636719 Z M 0.558594 2.476562 " clip-rule="nonzero"/></clipPath><clipPath id="d6e56d270e"><path d="M 0.621094 0.476562 L 67.71875 0.476562 L 67.71875 67.636719 L 0.621094 67.636719 Z M 0.621094 0.476562 " clip-rule="nonzero"/></clipPath><clipPath id="489b59d212"><rect x="0" width="68" y="0" height="68"/></clipPath><clipPath id="2902dd7cdb"><path d="M 11.527344 39 L 20 39 L 20 50 L 11.527344 50 Z M 11.527344 39 " clip-rule="nonzero"/></clipPath><clipPath id="1e84063404"><path d="M 21 19.644531 L 36 19.644531 L 36 59.453125 L 21 59.453125 Z M 21 19.644531 " clip-rule="nonzero"/></clipPath><clipPath id="e949f90524"><path d="M 33 19.644531 L 51.640625 19.644531 L 51.640625 50 L 33 50 Z M 33 19.644531 " clip-rule="nonzero"/></clipPath><clipPath id="ad64451b40"><rect x="0" width="355" y="0" height="91"/></clipPath><clipPath id="8bc659656c"><rect x="0" width="355" y="0" height="91"/></clipPath></defs><g transform="matrix(1, 0, 0, 1, 2, 12)"><g clip-path="url(#8bc659656c)"><g clip-path="url(#9c7dbab681)"><g><g clip-path="url(#ad64451b40)"><g clip-path="url(#b49917a167)"><g transform="matrix(1, 0, 0, 1, 73, 0)"><g clip-path="url(#d878ce6e5f)"><g fill="#120652" fill-opacity="1"><g transform="translate(0.608487, 64.438074)"><g><path d="M 4.34375 -59.640625 L 26.09375 -59.640625 C 32.164062 -59.640625 37.082031 -58.070312 40.84375 -54.9375 C 44.601562 -51.8125 46.484375 -47.257812 46.484375 -41.28125 C 46.484375 -35.300781 44.578125 -30.613281 40.765625 -27.21875 C 36.960938 -23.820312 32.070312 -22.125 26.09375 -22.125 L 17.921875 -22.125 L 17.921875 0 L 4.34375 0 Z M 17.921875 -32.96875 L 21.765625 -32.96875 C 24.796875 -32.96875 27.285156 -33.582031 29.234375 -34.8125 C 31.191406 -36.039062 32.171875 -38.050781 32.171875 -40.84375 C 32.171875 -43.6875 31.191406 -45.722656 29.234375 -46.953125 C 27.285156 -48.179688 24.796875 -48.796875 21.765625 -48.796875 L 17.921875 -48.796875 Z M 17.921875 -32.96875 "/></g></g></g><g fill="#120652" fill-opacity="1"><g transform="translate(40.876829, 64.438074)"><g><path d="M 4.34375 0 L 4.34375 -37.09375 L 17.140625 -37.09375 L 17.140625 -31.734375 L 17.28125 -31.734375 C 17.375 -31.929688 17.53125 -32.171875 17.75 -32.453125 C 17.96875 -32.742188 18.4375 -33.25 19.15625 -33.96875 C 19.882812 -34.695312 20.65625 -35.347656 21.46875 -35.921875 C 22.289062 -36.503906 23.351562 -37.023438 24.65625 -37.484375 C 25.957031 -37.941406 27.28125 -38.171875 28.625 -38.171875 C 30.019531 -38.171875 31.394531 -37.976562 32.75 -37.59375 C 34.101562 -37.207031 35.09375 -36.820312 35.71875 -36.4375 L 36.734375 -35.859375 L 31.375 -25.015625 C 29.78125 -26.359375 27.5625 -27.03125 24.71875 -27.03125 C 23.175781 -27.03125 21.851562 -26.691406 20.75 -26.015625 C 19.644531 -25.347656 18.863281 -24.53125 18.40625 -23.5625 C 17.945312 -22.601562 17.617188 -21.785156 17.421875 -21.109375 C 17.234375 -20.429688 17.140625 -19.898438 17.140625 -19.515625 L 17.140625 0 Z M 4.34375 0 "/></g></g></g><g fill="#120652" fill-opacity="1"><g transform="translate(68.999369, 64.438074)"><g><path d="M 7.84375 -4.40625 C 3.71875 -8.070312 1.65625 -12.769531 1.65625 -18.5 C 1.65625 -24.238281 3.800781 -28.953125 8.09375 -32.640625 C 12.382812 -36.328125 17.6875 -38.171875 24 -38.171875 C 30.21875 -38.171875 35.457031 -36.3125 39.71875 -32.59375 C 43.988281 -28.882812 46.125 -24.1875 46.125 -18.5 C 46.125 -12.820312 44.039062 -8.140625 39.875 -4.453125 C 35.707031 -0.765625 30.414062 1.078125 24 1.078125 C 17.351562 1.078125 11.96875 -0.75 7.84375 -4.40625 Z M 17.75 -24.796875 C 16.082031 -23.160156 15.25 -21.0625 15.25 -18.5 C 15.25 -15.945312 16.046875 -13.863281 17.640625 -12.25 C 19.234375 -10.632812 21.332031 -9.828125 23.9375 -9.828125 C 26.4375 -9.828125 28.492188 -10.644531 30.109375 -12.28125 C 31.722656 -13.925781 32.53125 -16.003906 32.53125 -18.515625 C 32.53125 -21.066406 31.695312 -23.160156 30.03125 -24.796875 C 28.375 -26.429688 26.34375 -27.25 23.9375 -27.25 C 21.476562 -27.25 19.414062 -26.429688 17.75 -24.796875 Z M 17.75 -24.796875 "/></g></g></g><g fill="#120652" fill-opacity="1"><g transform="translate(108.906232, 64.438074)"><g><path d="M 20.453125 -38.171875 C 22.578125 -38.171875 24.675781 -37.929688 26.75 -37.453125 C 28.820312 -36.972656 30.363281 -36.488281 31.375 -36 L 32.890625 -35.28125 L 28.703125 -26.890625 C 25.804688 -28.429688 23.054688 -29.203125 20.453125 -29.203125 C 19.015625 -29.203125 17.992188 -29.046875 17.390625 -28.734375 C 16.785156 -28.421875 16.484375 -27.832031 16.484375 -26.96875 C 16.484375 -26.769531 16.503906 -26.570312 16.546875 -26.375 C 16.597656 -26.1875 16.695312 -26.007812 16.84375 -25.84375 C 16.988281 -25.675781 17.117188 -25.53125 17.234375 -25.40625 C 17.359375 -25.289062 17.566406 -25.160156 17.859375 -25.015625 C 18.148438 -24.867188 18.378906 -24.757812 18.546875 -24.6875 C 18.710938 -24.613281 18.988281 -24.503906 19.375 -24.359375 C 19.757812 -24.210938 20.046875 -24.101562 20.234375 -24.03125 C 20.429688 -23.96875 20.757812 -23.863281 21.21875 -23.71875 C 21.675781 -23.570312 22.023438 -23.472656 22.265625 -23.421875 C 23.765625 -22.992188 25.066406 -22.515625 26.171875 -21.984375 C 27.273438 -21.453125 28.441406 -20.726562 29.671875 -19.8125 C 30.898438 -18.894531 31.851562 -17.738281 32.53125 -16.34375 C 33.207031 -14.945312 33.546875 -13.351562 33.546875 -11.5625 C 33.546875 -3.132812 27.691406 1.078125 15.984375 1.078125 C 13.328125 1.078125 10.804688 0.671875 8.421875 -0.140625 C 6.035156 -0.960938 4.3125 -1.785156 3.25 -2.609375 L 1.65625 -3.90625 L 6.875 -12.65625 C 7.257812 -12.3125 7.765625 -11.910156 8.390625 -11.453125 C 9.015625 -10.992188 10.144531 -10.367188 11.78125 -9.578125 C 13.425781 -8.785156 14.847656 -8.390625 16.046875 -8.390625 C 18.703125 -8.390625 20.03125 -9.28125 20.03125 -11.0625 C 20.03125 -11.882812 19.691406 -12.523438 19.015625 -12.984375 C 18.335938 -13.441406 17.191406 -13.957031 15.578125 -14.53125 C 13.960938 -15.113281 12.695312 -15.644531 11.78125 -16.125 C 9.46875 -17.320312 7.632812 -18.679688 6.28125 -20.203125 C 4.9375 -21.722656 4.265625 -23.738281 4.265625 -26.25 C 4.265625 -30.007812 5.722656 -32.9375 8.640625 -35.03125 C 11.554688 -37.125 15.492188 -38.171875 20.453125 -38.171875 Z M 20.453125 -38.171875 "/></g></g></g><g fill="#120652" fill-opacity="1"><g transform="translate(136.594994, 64.438074)"><g><path d="M 42.515625 -32.5 C 45.984375 -28.71875 47.71875 -24.078125 47.71875 -18.578125 C 47.71875 -13.085938 45.984375 -8.4375 42.515625 -4.625 C 39.046875 -0.820312 34.632812 1.078125 29.28125 1.078125 C 24.363281 1.078125 20.316406 -0.460938 17.140625 -3.546875 L 17.140625 18.796875 L 4.34375 18.796875 L 4.34375 -37.09375 L 16.984375 -37.09375 L 16.984375 -32.890625 L 17.140625 -32.890625 C 20.316406 -36.410156 24.363281 -38.171875 29.28125 -38.171875 C 34.632812 -38.171875 39.046875 -36.28125 42.515625 -32.5 Z M 31.625 -12.28125 C 33.289062 -13.925781 34.125 -16.023438 34.125 -18.578125 C 34.125 -21.128906 33.328125 -23.210938 31.734375 -24.828125 C 30.148438 -26.441406 28.054688 -27.25 25.453125 -27.25 C 22.941406 -27.25 20.878906 -26.429688 19.265625 -24.796875 C 17.648438 -23.160156 16.84375 -21.085938 16.84375 -18.578125 C 16.84375 -16.023438 17.671875 -13.925781 19.328125 -12.28125 C 20.992188 -10.644531 23.035156 -9.828125 25.453125 -9.828125 C 27.910156 -9.828125 29.96875 -10.644531 31.625 -12.28125 Z M 31.625 -12.28125 "/></g></g></g><g fill="#120652" fill-opacity="1"><g transform="translate(178.092382, 64.438074)"><g><path d="M 4.34375 0 L 4.34375 -62.171875 L 17.140625 -62.171875 L 17.140625 0 Z M 4.34375 0 "/></g></g></g><g fill="#120652" fill-opacity="1"><g transform="translate(191.683316, 64.438074)"><g><path d="M 6.859375 -4.59375 C 3.390625 -8.375 1.65625 -13.007812 1.65625 -18.5 C 1.65625 -24 3.390625 -28.648438 6.859375 -32.453125 C 10.335938 -36.265625 14.75 -38.171875 20.09375 -38.171875 C 25.007812 -38.171875 29.0625 -36.628906 32.25 -33.546875 L 32.25 -37.09375 L 45.046875 -37.09375 L 45.046875 0 L 32.390625 0 L 32.390625 -4.1875 L 32.25 -4.1875 C 29.0625 -0.675781 25.007812 1.078125 20.09375 1.078125 C 14.75 1.078125 10.335938 -0.8125 6.859375 -4.59375 Z M 17.75 -24.796875 C 16.082031 -23.160156 15.25 -21.0625 15.25 -18.5 C 15.25 -15.945312 16.046875 -13.863281 17.640625 -12.25 C 19.234375 -10.632812 21.332031 -9.828125 23.9375 -9.828125 C 26.4375 -9.828125 28.492188 -10.644531 30.109375 -12.28125 C 31.722656 -13.925781 32.53125 -16.003906 32.53125 -18.515625 C 32.53125 -21.066406 31.695312 -23.160156 30.03125 -24.796875 C 28.375 -26.429688 26.34375 -27.25 23.9375 -27.25 C 21.476562 -27.25 19.414062 -26.429688 17.75 -24.796875 Z M 17.75 -24.796875 "/></g></g></g><g fill="#120652" fill-opacity="1"><g transform="translate(233.180714, 64.438074)"><g><path d="M 32.46875 -37.09375 L 47.203125 -37.09375 L 18.078125 18.796875 L 3.328125 18.796875 L 16.125 -5.78125 L -1.453125 -37.09375 L 13.296875 -37.09375 L 23.640625 -18.078125 Z M 32.46875 -37.09375 "/></g></g></g></g></g></g><g clip-path="url(#830447bc1f)"><g clip-path="url(#31e3e961b3)"><g transform="matrix(1, 0, 0, 1, 5, 13)"><g clip-path="url(#8870d9d830)"><g clip-path="url(#ee6f747f54)"><g clip-path="url(#9fd657a608)"><path fill="#120652" d="M 0.484375 0.460938 L 52.628906 0.460938 L 52.628906 52.605469 L 0.484375 52.605469 Z M 0.484375 0.460938 " fill-opacity="1" fill-rule="nonzero"/></g></g></g></g></g></g><g clip-path="url(#cc0d12023c)"><g transform="matrix(1, 0, 0, 1, 0, 2)"><g clip-path="url(#489b59d212)"><g clip-path="url(#d6e56d270e)"><path fill="#fed92a" d="M 34.171875 0.476562 C 52.734375 0.476562 67.78125 15.523438 67.78125 34.085938 C 67.78125 52.648438 52.734375 67.699219 34.171875 67.699219 L 0.5625 67.699219 L 0.5625 34.085938 C 0.5625 15.523438 15.609375 0.476562 34.171875 0.476562 Z M 34.171875 0.476562 " fill-opacity="1" fill-rule="nonzero"/></g></g></g></g><g clip-path="url(#2902dd7cdb)"><path fill="#120652" d="M 11.53125 49.46875 C 11.53125 48.894531 11.578125 48.324219 11.679688 47.761719 C 11.777344 47.199219 11.921875 46.644531 12.117188 46.105469 C 12.308594 45.566406 12.546875 45.050781 12.832031 44.550781 C 13.113281 44.054688 13.4375 43.582031 13.800781 43.140625 C 14.164062 42.699219 14.5625 42.289062 15 41.917969 C 15.433594 41.542969 15.894531 41.210938 16.386719 40.917969 C 16.878906 40.625 17.394531 40.375 17.929688 40.171875 C 18.464844 39.964844 19.011719 39.808594 19.574219 39.699219 L 19.574219 49.46875 Z M 11.53125 49.46875 " fill-opacity="1" fill-rule="evenodd"/></g><g clip-path="url(#1e84063404)"><path fill="#120652" d="M 31.433594 34.539062 L 31.433594 49.46875 C 31.433594 50.121094 31.367188 50.769531 31.242188 51.410156 C 31.113281 52.050781 30.925781 52.671875 30.675781 53.273438 C 30.425781 53.878906 30.117188 54.453125 29.753906 54.996094 C 29.390625 55.539062 28.980469 56.042969 28.519531 56.503906 C 28.054688 56.964844 27.554688 57.378906 27.011719 57.742188 C 26.46875 58.105469 25.894531 58.410156 25.289062 58.660156 C 24.6875 58.910156 24.0625 59.097656 23.421875 59.226562 C 22.78125 59.355469 22.136719 59.417969 21.480469 59.417969 L 21.480469 34.539062 C 21.480469 33.601562 21.570312 32.667969 21.746094 31.746094 C 21.921875 30.824219 22.183594 29.925781 22.527344 29.050781 C 22.875 28.175781 23.296875 27.34375 23.800781 26.546875 C 24.304688 25.753906 24.878906 25.015625 25.519531 24.328125 C 26.164062 23.644531 26.867188 23.023438 27.625 22.472656 C 28.386719 21.917969 29.191406 21.441406 30.042969 21.039062 C 30.890625 20.640625 31.769531 20.320312 32.679688 20.085938 C 33.589844 19.851562 34.515625 19.703125 35.453125 19.644531 L 35.453125 29.65625 C 34.886719 29.769531 34.355469 29.96875 33.859375 30.265625 C 33.363281 30.5625 32.933594 30.933594 32.566406 31.378906 C 32.199219 31.824219 31.917969 32.316406 31.726562 32.859375 C 31.53125 33.402344 31.433594 33.964844 31.433594 34.539062 Z M 31.433594 34.539062 " fill-opacity="1" fill-rule="evenodd"/></g><g clip-path="url(#e949f90524)"><path fill="#120652" d="M 37.363281 19.644531 C 38.320312 19.707031 39.265625 19.855469 40.195312 20.101562 C 41.121094 20.34375 42.019531 20.671875 42.886719 21.089844 C 43.75 21.503906 44.570312 22 45.339844 22.574219 C 46.109375 23.148438 46.816406 23.789062 47.464844 24.5 C 48.109375 25.210938 48.679688 25.976562 49.179688 26.796875 C 49.679688 27.621094 50.09375 28.480469 50.425781 29.382812 C 50.757812 30.285156 51 31.207031 51.152344 32.15625 C 51.304688 33.105469 51.367188 34.058594 51.335938 35.019531 C 51.304688 35.976562 51.183594 36.925781 50.96875 37.863281 C 50.757812 38.800781 50.457031 39.707031 50.066406 40.585938 C 49.679688 41.460938 49.207031 42.296875 48.660156 43.082031 C 48.109375 43.871094 47.488281 44.597656 46.800781 45.265625 C 46.109375 45.933594 45.363281 46.53125 44.554688 47.054688 C 43.75 47.578125 42.902344 48.019531 42.011719 48.378906 C 41.121094 48.738281 40.207031 49.011719 39.261719 49.195312 C 38.320312 49.375 37.367188 49.46875 36.40625 49.46875 L 33.339844 49.46875 L 33.339844 39.515625 L 36.40625 39.515625 C 37.027344 39.515625 37.625 39.40625 38.203125 39.183594 C 38.777344 38.960938 39.296875 38.640625 39.753906 38.226562 C 40.214844 37.808594 40.582031 37.324219 40.859375 36.773438 C 41.136719 36.21875 41.304688 35.636719 41.363281 35.019531 C 41.421875 34.402344 41.371094 33.796875 41.203125 33.203125 C 41.039062 32.605469 40.769531 32.0625 40.398438 31.566406 C 40.027344 31.070312 39.582031 30.65625 39.058594 30.328125 C 38.535156 30 37.96875 29.773438 37.363281 29.65625 Z M 37.363281 19.644531 " fill-opacity="1" fill-rule="evenodd"/></g></g></g></g></g></g></svg>