<svg xmlns="http://www.w3.org/2000/svg" xmlns:xlink="http://www.w3.org/1999/xlink" width="500" zoomAndPan="magnify" viewBox="0 0 375 217.92" height="280" preserveAspectRatio="xMidYMid meet" version="1.0"><defs><clipPath id="4c8804da49"><path d="M 14.878906 14.109375 L 360.140625 14.109375 L 360.140625 198.25 L 14.878906 198.25 Z M 14.878906 14.109375 " clip-rule="nonzero"/></clipPath><clipPath id="1d310e262b"><path d="M 23.875 14.109375 L 351.125 14.109375 C 353.511719 14.109375 355.796875 15.058594 357.484375 16.746094 C 359.171875 18.433594 360.121094 20.71875 360.121094 23.105469 L 360.121094 189.253906 C 360.121094 191.636719 359.171875 193.925781 357.484375 195.613281 C 355.796875 197.300781 353.511719 198.25 351.125 198.25 L 23.875 198.25 C 21.488281 198.25 19.203125 197.300781 17.515625 195.613281 C 15.828125 193.925781 14.878906 191.636719 14.878906 189.253906 L 14.878906 23.105469 C 14.878906 18.136719 18.90625 14.109375 23.875 14.109375 Z M 23.875 14.109375 " clip-rule="nonzero"/></clipPath><clipPath id="9caf30d1e1"><path d="M 0.878906 0.109375 L 346.140625 0.109375 L 346.140625 184.25 L 0.878906 184.25 Z M 0.878906 0.109375 " clip-rule="nonzero"/></clipPath><clipPath id="8b65af318a"><path d="M 9.875 0.109375 L 337.125 0.109375 C 339.511719 0.109375 341.796875 1.058594 343.484375 2.746094 C 345.171875 4.433594 346.121094 6.71875 346.121094 9.105469 L 346.121094 175.253906 C 346.121094 177.636719 345.171875 179.925781 343.484375 181.613281 C 341.796875 183.300781 339.511719 184.25 337.125 184.25 L 9.875 184.25 C 7.488281 184.25 5.203125 183.300781 3.515625 181.613281 C 1.828125 179.925781 0.878906 177.636719 0.878906 175.253906 L 0.878906 9.105469 C 0.878906 4.136719 4.90625 0.109375 9.875 0.109375 Z M 9.875 0.109375 " clip-rule="nonzero"/></clipPath><clipPath id="6cef5798f8"><rect x="0" width="347" y="0" height="185"/></clipPath><clipPath id="b4f4bd649a"><path d="M 21.890625 22.398438 L 356 22.398438 L 356 189.960938 L 21.890625 189.960938 Z M 21.890625 22.398438 " clip-rule="nonzero"/></clipPath><clipPath id="8e25c4c31e"><path d="M 30.886719 22.398438 L 346.828125 22.398438 C 349.214844 22.398438 351.5 23.34375 353.1875 25.03125 C 354.875 26.71875 355.824219 29.007812 355.824219 31.394531 L 355.824219 180.964844 C 355.824219 183.351562 354.875 185.640625 353.1875 187.328125 C 351.5 189.011719 349.214844 189.960938 346.828125 189.960938 L 30.886719 189.960938 C 28.5 189.960938 26.214844 189.011719 24.527344 187.328125 C 22.839844 185.640625 21.890625 183.351562 21.890625 180.964844 L 21.890625 31.394531 C 21.890625 29.007812 22.839844 26.71875 24.527344 25.03125 C 26.214844 23.34375 28.5 22.398438 30.886719 22.398438 Z M 30.886719 22.398438 " clip-rule="nonzero"/></clipPath><clipPath id="06a1cd41ae"><path d="M 0.890625 0.398438 L 334.859375 0.398438 L 334.859375 167.960938 L 0.890625 167.960938 Z M 0.890625 0.398438 " clip-rule="nonzero"/></clipPath><clipPath id="a1a6688803"><path d="M 9.886719 0.398438 L 325.828125 0.398438 C 328.214844 0.398438 330.5 1.34375 332.1875 3.03125 C 333.875 4.71875 334.824219 7.007812 334.824219 9.394531 L 334.824219 158.964844 C 334.824219 161.351562 333.875 163.640625 332.1875 165.328125 C 330.5 167.011719 328.214844 167.960938 325.828125 167.960938 L 9.886719 167.960938 C 7.5 167.960938 5.214844 167.011719 3.527344 165.328125 C 1.839844 163.640625 0.890625 161.351562 0.890625 158.964844 L 0.890625 9.394531 C 0.890625 7.007812 1.839844 4.71875 3.527344 3.03125 C 5.214844 1.34375 7.5 0.398438 9.886719 0.398438 Z M 9.886719 0.398438 " clip-rule="nonzero"/></clipPath><clipPath id="75ae13d858"><rect x="0" width="335" y="0" height="168"/></clipPath></defs><g clip-path="url(#4c8804da49)"><g clip-path="url(#1d310e262b)"><g transform="matrix(1, 0, 0, 1, 14, 14)"><g clip-path="url(#6cef5798f8)"><g clip-path="url(#9caf30d1e1)"><g clip-path="url(#8b65af318a)"><path fill="#cdcdcd" d="M 0.878906 0.109375 L 346.140625 0.109375 L 346.140625 184.25 L 0.878906 184.25 Z M 0.878906 0.109375 " fill-opacity="1" fill-rule="nonzero"/></g></g></g></g></g></g><g clip-path="url(#b4f4bd649a)"><g clip-path="url(#8e25c4c31e)"><g transform="matrix(1, 0, 0, 1, 21, 22)"><g clip-path="url(#75ae13d858)"><g clip-path="url(#06a1cd41ae)"><g clip-path="url(#a1a6688803)"><path fill="#ebeff3" d="M 0.890625 0.398438 L 334.710938 0.398438 L 334.710938 167.960938 L 0.890625 167.960938 Z M 0.890625 0.398438 " fill-opacity="1" fill-rule="nonzero"/></g></g></g></g></g></g></svg>