<svg xmlns="http://www.w3.org/2000/svg" xmlns:xlink="http://www.w3.org/1999/xlink" width="479" zoomAndPan="magnify" viewBox="0 0 359.25 116.249996" height="155" preserveAspectRatio="xMidYMid meet" version="1.0"><defs><g/><clipPath id="fa7c32de22"><path d="M 6 14 L 357.726562 14 L 357.726562 101 L 6 101 Z M 6 14 " clip-rule="nonzero"/></clipPath><clipPath id="f257174afe"><path d="M 0.261719 0.308594 L 351.726562 0.308594 L 351.726562 86.152344 L 0.261719 86.152344 Z M 0.261719 0.308594 " clip-rule="nonzero"/></clipPath><clipPath id="49cb0e570e"><path d="M 83 0.308594 L 351.726562 0.308594 L 351.726562 86.152344 L 83 86.152344 Z M 83 0.308594 " clip-rule="nonzero"/></clipPath><clipPath id="d540264b5e"><rect x="0" width="269" y="0" height="87"/></clipPath><clipPath id="2093389b5a"><path d="M 5.183594 12.945312 L 54.921875 12.945312 L 54.921875 62.6875 L 5.183594 62.6875 Z M 5.183594 12.945312 " clip-rule="nonzero"/></clipPath><clipPath id="cc7cfcaded"><path d="M 30.054688 12.945312 C 16.316406 12.945312 5.183594 24.082031 5.183594 37.816406 C 5.183594 51.550781 16.316406 62.6875 30.054688 62.6875 C 43.789062 62.6875 54.921875 51.550781 54.921875 37.816406 C 54.921875 24.082031 43.789062 12.945312 30.054688 12.945312 Z M 30.054688 12.945312 " clip-rule="nonzero"/></clipPath><clipPath id="ce84667315"><path d="M 0.183594 0.945312 L 49.921875 0.945312 L 49.921875 50.6875 L 0.183594 50.6875 Z M 0.183594 0.945312 " clip-rule="nonzero"/></clipPath><clipPath id="2e48047f0d"><path d="M 25.054688 0.945312 C 11.316406 0.945312 0.183594 12.082031 0.183594 25.816406 C 0.183594 39.550781 11.316406 50.6875 25.054688 50.6875 C 38.789062 50.6875 49.921875 39.550781 49.921875 25.816406 C 49.921875 12.082031 38.789062 0.945312 25.054688 0.945312 Z M 25.054688 0.945312 " clip-rule="nonzero"/></clipPath><clipPath id="b20d09b5c5"><rect x="0" width="50" y="0" height="51"/></clipPath><clipPath id="77991c6e88"><path d="M 0.488281 2.472656 L 64.621094 2.472656 L 64.621094 66.605469 L 0.488281 66.605469 Z M 0.488281 2.472656 " clip-rule="nonzero"/></clipPath><clipPath id="5f8178643a"><path d="M 0.488281 0.472656 L 64.597656 0.472656 L 64.597656 64.601562 L 0.488281 64.601562 Z M 0.488281 0.472656 " clip-rule="nonzero"/></clipPath><clipPath id="015616faba"><rect x="0" width="65" y="0" height="65"/></clipPath><clipPath id="e9e7e69317"><path d="M 10.945312 37 L 19 37 L 19 48 L 10.945312 48 Z M 10.945312 37 " clip-rule="nonzero"/></clipPath><clipPath id="7d87cda918"><path d="M 20 18.847656 L 34 18.847656 L 34 56.851562 L 20 56.851562 Z M 20 18.847656 " clip-rule="nonzero"/></clipPath><clipPath id="ee7dd86a78"><path d="M 31 18.847656 L 48.953125 18.847656 L 48.953125 48 L 31 48 Z M 31 18.847656 " clip-rule="nonzero"/></clipPath><clipPath id="7f67fe5b5d"><rect x="0" width="352" y="0" height="87"/></clipPath><clipPath id="f98c6be23f"><rect x="0" width="352" y="0" height="87"/></clipPath></defs><g clip-path="url(#fa7c32de22)"><g transform="matrix(1, 0, 0, 1, 6, 14)"><g clip-path="url(#f98c6be23f)"><g clip-path="url(#f257174afe)"><g><g clip-path="url(#7f67fe5b5d)"><g clip-path="url(#49cb0e570e)"><g transform="matrix(1, 0, 0, 1, 83, 0)"><g clip-path="url(#d540264b5e)"><g fill="#ffffff" fill-opacity="1"><g transform="translate(1.000041, 61.571564)"><g><path d="M 4.140625 -56.890625 L 24.890625 -56.890625 C 30.679688 -56.890625 35.367188 -55.394531 38.953125 -52.40625 C 42.546875 -49.414062 44.34375 -45.070312 44.34375 -39.375 C 44.34375 -33.675781 42.523438 -29.203125 38.890625 -25.953125 C 35.253906 -22.710938 30.585938 -21.09375 24.890625 -21.09375 L 17.09375 -21.09375 L 17.09375 0 L 4.140625 0 Z M 17.09375 -31.4375 L 20.75 -31.4375 C 23.644531 -31.4375 26.023438 -32.019531 27.890625 -33.1875 C 29.753906 -34.363281 30.6875 -36.285156 30.6875 -38.953125 C 30.6875 -41.671875 29.753906 -43.613281 27.890625 -44.78125 C 26.023438 -45.957031 23.644531 -46.546875 20.75 -46.546875 L 17.09375 -46.546875 Z M 17.09375 -31.4375 "/></g></g></g><g fill="#ffffff" fill-opacity="1"><g transform="translate(39.409411, 61.571564)"><g><path d="M 4.140625 0 L 4.140625 -35.375 L 16.34375 -35.375 L 16.34375 -30.265625 L 16.484375 -30.265625 C 16.578125 -30.453125 16.722656 -30.679688 16.921875 -30.953125 C 17.128906 -31.234375 17.578125 -31.71875 18.265625 -32.40625 C 18.960938 -33.09375 19.703125 -33.710938 20.484375 -34.265625 C 21.265625 -34.816406 22.273438 -35.3125 23.515625 -35.75 C 24.753906 -36.1875 26.019531 -36.40625 27.3125 -36.40625 C 28.644531 -36.40625 29.953125 -36.21875 31.234375 -35.84375 C 32.523438 -35.476562 33.46875 -35.113281 34.0625 -34.75 L 35.03125 -34.203125 L 29.921875 -23.859375 C 28.410156 -25.140625 26.296875 -25.78125 23.578125 -25.78125 C 22.109375 -25.78125 20.84375 -25.457031 19.78125 -24.8125 C 18.726562 -24.175781 17.984375 -23.394531 17.546875 -22.46875 C 17.109375 -21.550781 16.796875 -20.769531 16.609375 -20.125 C 16.429688 -19.488281 16.34375 -18.988281 16.34375 -18.625 L 16.34375 0 Z M 4.140625 0 "/></g></g></g><g fill="#ffffff" fill-opacity="1"><g transform="translate(66.233684, 61.571564)"><g><path d="M 7.46875 -4.203125 C 3.539062 -7.703125 1.578125 -12.1875 1.578125 -17.65625 C 1.578125 -23.125 3.625 -27.613281 7.71875 -31.125 C 11.8125 -34.644531 16.867188 -36.40625 22.890625 -36.40625 C 28.816406 -36.40625 33.8125 -34.632812 37.875 -31.09375 C 41.945312 -27.550781 43.984375 -23.066406 43.984375 -17.640625 C 43.984375 -12.222656 41.992188 -7.753906 38.015625 -4.234375 C 34.046875 -0.722656 29.003906 1.03125 22.890625 1.03125 C 16.546875 1.03125 11.40625 -0.710938 7.46875 -4.203125 Z M 16.921875 -23.65625 C 15.335938 -22.09375 14.546875 -20.09375 14.546875 -17.65625 C 14.546875 -15.21875 15.300781 -13.226562 16.8125 -11.6875 C 18.332031 -10.144531 20.335938 -9.375 22.828125 -9.375 C 25.210938 -9.375 27.175781 -10.15625 28.71875 -11.71875 C 30.257812 -13.28125 31.03125 -15.257812 31.03125 -17.65625 C 31.03125 -20.09375 30.234375 -22.09375 28.640625 -23.65625 C 27.054688 -25.21875 25.117188 -26 22.828125 -26 C 20.484375 -26 18.515625 -25.21875 16.921875 -23.65625 Z M 16.921875 -23.65625 "/></g></g></g><g fill="#ffffff" fill-opacity="1"><g transform="translate(104.298263, 61.571564)"><g><path d="M 19.515625 -36.40625 C 21.535156 -36.40625 23.535156 -36.175781 25.515625 -35.71875 C 27.492188 -35.257812 28.960938 -34.800781 29.921875 -34.34375 L 31.375 -33.65625 L 27.375 -25.65625 C 24.613281 -27.125 21.992188 -27.859375 19.515625 -27.859375 C 18.128906 -27.859375 17.148438 -27.707031 16.578125 -27.40625 C 16.003906 -27.101562 15.71875 -26.539062 15.71875 -25.71875 C 15.71875 -25.53125 15.738281 -25.34375 15.78125 -25.15625 C 15.832031 -24.976562 15.925781 -24.804688 16.0625 -24.640625 C 16.195312 -24.484375 16.320312 -24.347656 16.4375 -24.234375 C 16.5625 -24.117188 16.757812 -23.992188 17.03125 -23.859375 C 17.300781 -23.722656 17.515625 -23.617188 17.671875 -23.546875 C 17.835938 -23.472656 18.101562 -23.367188 18.46875 -23.234375 C 18.84375 -23.097656 19.117188 -22.992188 19.296875 -22.921875 C 19.484375 -22.859375 19.796875 -22.753906 20.234375 -22.609375 C 20.671875 -22.472656 21.003906 -22.382812 21.234375 -22.34375 C 22.660156 -21.925781 23.898438 -21.460938 24.953125 -20.953125 C 26.015625 -20.453125 27.128906 -19.765625 28.296875 -18.890625 C 29.472656 -18.015625 30.382812 -16.910156 31.03125 -15.578125 C 31.675781 -14.242188 32 -12.726562 32 -11.03125 C 32 -2.988281 26.410156 1.03125 15.234375 1.03125 C 12.710938 1.03125 10.3125 0.640625 8.03125 -0.140625 C 5.757812 -0.921875 4.117188 -1.703125 3.109375 -2.484375 L 1.578125 -3.71875 L 6.546875 -12.0625 C 6.921875 -11.738281 7.40625 -11.359375 8 -10.921875 C 8.59375 -10.492188 9.671875 -9.898438 11.234375 -9.140625 C 12.796875 -8.378906 14.15625 -8 15.3125 -8 C 17.832031 -8 19.09375 -8.847656 19.09375 -10.546875 C 19.09375 -11.328125 18.769531 -11.9375 18.125 -12.375 C 17.488281 -12.8125 16.398438 -13.304688 14.859375 -13.859375 C 13.316406 -14.410156 12.109375 -14.914062 11.234375 -15.375 C 9.023438 -16.519531 7.273438 -17.816406 5.984375 -19.265625 C 4.703125 -20.710938 4.0625 -22.632812 4.0625 -25.03125 C 4.0625 -28.613281 5.453125 -31.40625 8.234375 -33.40625 C 11.015625 -35.40625 14.773438 -36.40625 19.515625 -36.40625 Z M 19.515625 -36.40625 "/></g></g></g><g fill="#ffffff" fill-opacity="1"><g transform="translate(130.708784, 61.571564)"><g><path d="M 40.546875 -30.984375 C 43.859375 -27.378906 45.515625 -22.957031 45.515625 -17.71875 C 45.515625 -12.476562 43.859375 -8.039062 40.546875 -4.40625 C 37.234375 -0.78125 33.023438 1.03125 27.921875 1.03125 C 23.234375 1.03125 19.375 -0.4375 16.34375 -3.375 L 16.34375 17.921875 L 4.140625 17.921875 L 4.140625 -35.375 L 16.203125 -35.375 L 16.203125 -31.375 L 16.34375 -31.375 C 19.375 -34.726562 23.234375 -36.40625 27.921875 -36.40625 C 33.023438 -36.40625 37.234375 -34.597656 40.546875 -30.984375 Z M 30.15625 -11.71875 C 31.75 -13.28125 32.546875 -15.28125 32.546875 -17.71875 C 32.546875 -20.15625 31.785156 -22.144531 30.265625 -23.6875 C 28.753906 -25.226562 26.753906 -26 24.265625 -26 C 21.878906 -26 19.914062 -25.21875 18.375 -23.65625 C 16.832031 -22.09375 16.0625 -20.113281 16.0625 -17.71875 C 16.0625 -15.28125 16.851562 -13.28125 18.4375 -11.71875 C 20.03125 -10.15625 21.972656 -9.375 24.265625 -9.375 C 26.609375 -9.375 28.570312 -10.15625 30.15625 -11.71875 Z M 30.15625 -11.71875 "/></g></g></g><g fill="#ffffff" fill-opacity="1"><g transform="translate(170.290461, 61.571564)"><g><path d="M 4.140625 0 L 4.140625 -59.296875 L 16.34375 -59.296875 L 16.34375 0 Z M 4.140625 0 "/></g></g></g><g fill="#ffffff" fill-opacity="1"><g transform="translate(183.253974, 61.571564)"><g><path d="M 6.546875 -4.375 C 3.234375 -7.988281 1.578125 -12.414062 1.578125 -17.65625 C 1.578125 -22.894531 3.234375 -27.328125 6.546875 -30.953125 C 9.859375 -34.585938 14.066406 -36.40625 19.171875 -36.40625 C 23.859375 -36.40625 27.71875 -34.9375 30.75 -32 L 30.75 -35.375 L 42.953125 -35.375 L 42.953125 0 L 30.890625 0 L 30.890625 -4 L 30.75 -4 C 27.71875 -0.644531 23.859375 1.03125 19.171875 1.03125 C 14.066406 1.03125 9.859375 -0.769531 6.546875 -4.375 Z M 16.921875 -23.65625 C 15.335938 -22.09375 14.546875 -20.09375 14.546875 -17.65625 C 14.546875 -15.21875 15.300781 -13.226562 16.8125 -11.6875 C 18.332031 -10.144531 20.335938 -9.375 22.828125 -9.375 C 25.210938 -9.375 27.175781 -10.15625 28.71875 -11.71875 C 30.257812 -13.28125 31.03125 -15.257812 31.03125 -17.65625 C 31.03125 -20.09375 30.234375 -22.09375 28.640625 -23.65625 C 27.054688 -25.21875 25.117188 -26 22.828125 -26 C 20.484375 -26 18.515625 -25.21875 16.921875 -23.65625 Z M 16.921875 -23.65625 "/></g></g></g><g fill="#ffffff" fill-opacity="1"><g transform="translate(222.835661, 61.571564)"><g><path d="M 30.953125 -35.375 L 45.03125 -35.375 L 17.234375 17.921875 L 3.171875 17.921875 L 15.375 -5.515625 L -1.375 -35.375 L 12.6875 -35.375 L 22.546875 -17.234375 Z M 30.953125 -35.375 "/></g></g></g></g></g></g><g clip-path="url(#2093389b5a)"><g clip-path="url(#cc7cfcaded)"><g transform="matrix(1, 0, 0, 1, 5, 12)"><g clip-path="url(#b20d09b5c5)"><g clip-path="url(#ce84667315)"><g clip-path="url(#2e48047f0d)"><path fill="#ffffff" d="M 0.183594 0.945312 L 49.921875 0.945312 L 49.921875 50.6875 L 0.183594 50.6875 Z M 0.183594 0.945312 " fill-opacity="1" fill-rule="nonzero"/></g></g></g></g></g></g><g clip-path="url(#77991c6e88)"><g transform="matrix(1, 0, 0, 1, 0, 2)"><g clip-path="url(#015616faba)"><g clip-path="url(#5f8178643a)"><path fill="#fed92a" d="M 32.542969 0.472656 C 50.246094 0.472656 64.597656 14.824219 64.597656 32.527344 C 64.597656 50.230469 50.246094 64.582031 32.542969 64.582031 L 0.488281 64.582031 L 0.488281 32.527344 C 0.488281 14.824219 14.839844 0.472656 32.542969 0.472656 Z M 32.542969 0.472656 " fill-opacity="1" fill-rule="nonzero"/></g></g></g></g><g clip-path="url(#e9e7e69317)"><path fill="#120652" d="M 10.953125 47.285156 C 10.953125 46.738281 11 46.199219 11.09375 45.660156 C 11.183594 45.121094 11.324219 44.59375 11.507812 44.082031 C 11.695312 43.566406 11.921875 43.074219 12.191406 42.597656 C 12.460938 42.121094 12.769531 41.675781 13.117188 41.253906 C 13.464844 40.832031 13.84375 40.441406 14.257812 40.085938 C 14.671875 39.730469 15.113281 39.414062 15.582031 39.132812 C 16.054688 38.851562 16.542969 38.617188 17.050781 38.421875 C 17.5625 38.226562 18.085938 38.074219 18.621094 37.972656 L 18.621094 47.285156 Z M 10.953125 47.285156 " fill-opacity="1" fill-rule="evenodd"/></g><g clip-path="url(#7d87cda918)"><path fill="#120652" d="M 29.929688 33.050781 L 29.929688 47.285156 C 29.929688 47.910156 29.871094 48.527344 29.75 49.136719 C 29.625 49.75 29.445312 50.34375 29.207031 50.917969 C 28.96875 51.492188 28.675781 52.039062 28.332031 52.558594 C 27.984375 53.078125 27.589844 53.554688 27.152344 53.996094 C 26.710938 54.4375 26.230469 54.832031 25.714844 55.175781 C 25.195312 55.523438 24.648438 55.816406 24.074219 56.054688 C 23.496094 56.292969 22.902344 56.472656 22.292969 56.59375 C 21.679688 56.714844 21.0625 56.777344 20.441406 56.777344 L 20.441406 33.050781 C 20.441406 32.15625 20.523438 31.265625 20.691406 30.386719 C 20.859375 29.503906 21.109375 28.648438 21.4375 27.816406 C 21.769531 26.980469 22.171875 26.1875 22.652344 25.429688 C 23.132812 24.671875 23.679688 23.96875 24.292969 23.3125 C 24.90625 22.660156 25.574219 22.070312 26.300781 21.542969 C 27.023438 21.015625 27.792969 20.558594 28.601562 20.175781 C 29.414062 19.792969 30.253906 19.492188 31.121094 19.265625 C 31.988281 19.042969 32.871094 18.902344 33.765625 18.847656 L 33.765625 28.394531 C 33.226562 28.5 32.71875 28.691406 32.246094 28.976562 C 31.773438 29.257812 31.363281 29.609375 31.011719 30.035156 C 30.664062 30.460938 30.394531 30.929688 30.210938 31.449219 C 30.023438 31.96875 29.929688 32.5 29.929688 33.050781 Z M 29.929688 33.050781 " fill-opacity="1" fill-rule="evenodd"/></g><g clip-path="url(#ee7dd86a78)"><path fill="#120652" d="M 35.585938 18.847656 C 36.5 18.902344 37.398438 19.046875 38.285156 19.28125 C 39.171875 19.511719 40.027344 19.824219 40.851562 20.222656 C 41.679688 20.621094 42.457031 21.09375 43.191406 21.640625 C 43.925781 22.1875 44.601562 22.800781 45.21875 23.476562 C 45.835938 24.15625 46.378906 24.886719 46.855469 25.667969 C 47.328125 26.453125 47.726562 27.273438 48.042969 28.132812 C 48.359375 28.992188 48.589844 29.875 48.738281 30.777344 C 48.882812 31.679688 48.941406 32.589844 48.914062 33.507812 C 48.882812 34.421875 48.765625 35.328125 48.5625 36.21875 C 48.359375 37.113281 48.070312 37.976562 47.699219 38.816406 C 47.328125 39.652344 46.882812 40.445312 46.359375 41.199219 C 45.835938 41.949219 45.242188 42.644531 44.585938 43.28125 C 43.925781 43.917969 43.214844 44.484375 42.445312 44.984375 C 41.679688 45.484375 40.871094 45.90625 40.019531 46.25 C 39.171875 46.589844 38.296875 46.851562 37.398438 47.023438 C 36.5 47.199219 35.589844 47.285156 34.675781 47.285156 L 31.75 47.285156 L 31.75 37.796875 L 34.675781 37.796875 C 35.265625 37.796875 35.835938 37.691406 36.386719 37.480469 C 36.9375 37.265625 37.429688 36.960938 37.867188 36.566406 C 38.304688 36.167969 38.65625 35.707031 38.917969 35.179688 C 39.183594 34.652344 39.34375 34.097656 39.402344 33.507812 C 39.457031 32.921875 39.40625 32.34375 39.25 31.773438 C 39.089844 31.207031 38.835938 30.6875 38.480469 30.214844 C 38.128906 29.742188 37.703125 29.347656 37.203125 29.035156 C 36.703125 28.71875 36.164062 28.507812 35.585938 28.394531 Z M 35.585938 18.847656 " fill-opacity="1" fill-rule="evenodd"/></g></g></g></g></g></g></g></svg>