<svg xmlns="http://www.w3.org/2000/svg" xmlns:xlink="http://www.w3.org/1999/xlink" width="500" zoomAndPan="magnify" viewBox="0 0 375 374.999991" height="500" preserveAspectRatio="xMidYMid meet" version="1.0"><defs><clipPath id="d332b73651"><path d="M 45.898438 75.804688 L 303.292969 75.804688 L 303.292969 333.203125 L 45.898438 333.203125 Z M 45.898438 75.804688 " clip-rule="nonzero"/></clipPath><clipPath id="d2d1203463"><path d="M 174.597656 75.804688 C 103.519531 75.804688 45.898438 133.425781 45.898438 204.503906 C 45.898438 275.582031 103.519531 333.203125 174.597656 333.203125 C 245.675781 333.203125 303.292969 275.582031 303.292969 204.503906 C 303.292969 133.425781 245.675781 75.804688 174.597656 75.804688 Z M 174.597656 75.804688 " clip-rule="nonzero"/></clipPath><clipPath id="0afb5d926a"><path d="M 0.898438 0.804688 L 258.292969 0.804688 L 258.292969 258.203125 L 0.898438 258.203125 Z M 0.898438 0.804688 " clip-rule="nonzero"/></clipPath><clipPath id="9c0503f53c"><path d="M 129.597656 0.804688 C 58.519531 0.804688 0.898438 58.425781 0.898438 129.503906 C 0.898438 200.582031 58.519531 258.203125 129.597656 258.203125 C 200.675781 258.203125 258.292969 200.582031 258.292969 129.503906 C 258.292969 58.425781 200.675781 0.804688 129.597656 0.804688 Z M 129.597656 0.804688 " clip-rule="nonzero"/></clipPath><clipPath id="d0d888976c"><rect x="0" width="259" y="0" height="259"/></clipPath><clipPath id="9e2803618f"><path d="M 21.59375 21.59375 L 353.09375 21.59375 L 353.09375 353.09375 L 21.59375 353.09375 Z M 21.59375 21.59375 " clip-rule="nonzero"/></clipPath><clipPath id="cf9e4a21b7"><path d="M 0.898438 0.59375 L 332.09375 0.59375 L 332.09375 332.09375 L 0.898438 332.09375 Z M 0.898438 0.59375 " clip-rule="nonzero"/></clipPath><clipPath id="8be8e15978"><rect x="0" width="333" y="0" height="333"/></clipPath><clipPath id="662b08007c"><path d="M 75.722656 205 L 116 205 L 116 254 L 75.722656 254 Z M 75.722656 205 " clip-rule="nonzero"/></clipPath><clipPath id="04945d22c9"><path d="M 124 106.332031 L 194 106.332031 L 194 302.832031 L 124 302.832031 Z M 124 106.332031 " clip-rule="nonzero"/></clipPath><clipPath id="f753f496f7"><path d="M 183 106.332031 L 273 106.332031 L 273 254 L 183 254 Z M 183 106.332031 " clip-rule="nonzero"/></clipPath></defs><g clip-path="url(#d332b73651)"><g clip-path="url(#d2d1203463)"><g transform="matrix(1, 0, 0, 1, 45, 75)"><g clip-path="url(#d0d888976c)"><g clip-path="url(#0afb5d926a)"><g clip-path="url(#9c0503f53c)"><path fill="#120652" d="M 0.898438 0.804688 L 258.292969 0.804688 L 258.292969 258.203125 L 0.898438 258.203125 Z M 0.898438 0.804688 " fill-opacity="1" fill-rule="nonzero"/></g></g></g></g></g></g><g clip-path="url(#9e2803618f)"><g transform="matrix(1, 0, 0, 1, 21, 21)"><g clip-path="url(#8be8e15978)"><g clip-path="url(#cf9e4a21b7)"><path fill="#fed92a" d="M 166.496094 0.59375 C 258.125 0.59375 332.394531 74.871094 332.394531 166.492188 C 332.394531 258.117188 258.125 332.398438 166.496094 332.398438 L 0.59375 332.398438 L 0.59375 166.492188 C 0.59375 74.871094 74.878906 0.59375 166.496094 0.59375 Z M 166.496094 0.59375 " fill-opacity="1" fill-rule="nonzero"/></g></g></g></g><g clip-path="url(#662b08007c)"><path fill="#120652" d="M 75.742188 253.539062 C 75.746094 252.128906 75.804688 250.71875 75.925781 249.3125 C 76.046875 247.90625 76.230469 246.507812 76.472656 245.121094 C 76.714844 243.730469 77.015625 242.351562 77.375 240.988281 C 77.734375 239.625 78.152344 238.277344 78.628906 236.949219 C 79.105469 235.621094 79.640625 234.316406 80.230469 233.035156 C 80.816406 231.753906 81.460938 230.496094 82.15625 229.269531 C 82.855469 228.042969 83.601562 226.847656 84.402344 225.6875 C 85.203125 224.523438 86.050781 223.398438 86.949219 222.308594 C 87.84375 221.21875 88.789062 220.171875 89.773438 219.164062 C 90.761719 218.15625 91.789062 217.191406 92.859375 216.273438 C 93.929688 215.351562 95.039062 214.480469 96.183594 213.65625 C 97.332031 212.832031 98.507812 212.0625 99.722656 211.339844 C 100.933594 210.617188 102.175781 209.945312 103.445312 209.332031 C 104.714844 208.714844 106.007812 208.15625 107.324219 207.652344 C 108.644531 207.148438 109.980469 206.703125 111.335938 206.3125 C 112.691406 205.925781 114.0625 205.59375 115.449219 205.324219 L 115.449219 253.539062 Z M 75.742188 253.539062 " fill-opacity="1" fill-rule="evenodd"/></g><g clip-path="url(#04945d22c9)"><path fill="#120652" d="M 173.980469 179.859375 L 173.980469 253.539062 C 173.980469 255.148438 173.902344 256.75 173.742188 258.351562 C 173.585938 259.953125 173.351562 261.542969 173.035156 263.121094 C 172.722656 264.699219 172.332031 266.257812 171.867188 267.796875 C 171.398438 269.335938 170.855469 270.847656 170.242188 272.335938 C 169.625 273.820312 168.9375 275.273438 168.179688 276.691406 C 167.421875 278.109375 166.597656 279.488281 165.703125 280.828125 C 164.808594 282.164062 163.851562 283.453125 162.832031 284.699219 C 161.808594 285.941406 160.730469 287.132812 159.59375 288.269531 C 158.457031 289.40625 157.265625 290.488281 156.023438 291.507812 C 154.777344 292.527344 153.488281 293.484375 152.152344 294.378906 C 150.8125 295.273438 149.433594 296.097656 148.015625 296.855469 C 146.597656 297.613281 145.144531 298.300781 143.660156 298.917969 C 142.171875 299.53125 140.660156 300.074219 139.121094 300.542969 C 137.582031 301.007812 136.023438 301.398438 134.445312 301.710938 C 132.867188 302.027344 131.277344 302.261719 129.675781 302.417969 C 128.074219 302.578125 126.472656 302.65625 124.863281 302.65625 L 124.863281 179.859375 C 124.863281 177.546875 124.972656 175.238281 125.1875 172.933594 C 125.40625 170.628906 125.730469 168.339844 126.164062 166.066406 C 126.597656 163.792969 127.136719 161.542969 127.78125 159.320312 C 128.429688 157.097656 129.175781 154.910156 130.027344 152.757812 C 130.878906 150.605469 131.828125 148.496094 132.878906 146.433594 C 133.929688 144.371094 135.074219 142.363281 136.3125 140.40625 C 137.554688 138.453125 138.882812 136.5625 140.300781 134.730469 C 141.71875 132.902344 143.21875 131.140625 144.800781 129.453125 C 146.382812 127.765625 148.042969 126.15625 149.78125 124.625 C 151.515625 123.09375 153.316406 121.644531 155.191406 120.285156 C 157.0625 118.921875 158.992188 117.652344 160.984375 116.46875 C 162.976562 115.289062 165.019531 114.207031 167.113281 113.21875 C 169.203125 112.234375 171.339844 111.347656 173.515625 110.558594 C 175.695312 109.773438 177.902344 109.089844 180.144531 108.515625 C 182.386719 107.9375 184.648438 107.464844 186.9375 107.101562 C 189.222656 106.734375 191.519531 106.480469 193.828125 106.332031 L 193.828125 155.753906 C 192.441406 156.023438 191.089844 156.414062 189.769531 156.917969 C 188.449219 157.421875 187.179688 158.035156 185.964844 158.761719 C 184.75 159.484375 183.609375 160.308594 182.535156 161.226562 C 181.464844 162.148438 180.476562 163.15625 179.578125 164.246094 C 178.679688 165.335938 177.882812 166.496094 177.183594 167.726562 C 176.488281 168.957031 175.898438 170.234375 175.421875 171.566406 C 174.945312 172.898438 174.585938 174.257812 174.34375 175.652344 C 174.101562 177.042969 173.980469 178.449219 173.980469 179.859375 Z M 173.980469 179.859375 " fill-opacity="1" fill-rule="evenodd"/></g><g clip-path="url(#f753f496f7)"><path fill="#120652" d="M 203.246094 106.332031 C 204.425781 106.40625 205.605469 106.507812 206.777344 106.640625 C 207.953125 106.773438 209.125 106.929688 210.289062 107.117188 C 211.457031 107.304688 212.617188 107.523438 213.773438 107.765625 C 214.929688 108.007812 216.082031 108.28125 217.226562 108.578125 C 218.367188 108.878906 219.503906 109.203125 220.632812 109.558594 C 221.757812 109.910156 222.878906 110.292969 223.988281 110.699219 C 225.097656 111.105469 226.195312 111.539062 227.285156 112 C 228.371094 112.460938 229.449219 112.945312 230.515625 113.460938 C 231.578125 113.972656 232.632812 114.507812 233.671875 115.070312 C 234.710938 115.632812 235.734375 116.222656 236.746094 116.832031 C 237.757812 117.445312 238.753906 118.082031 239.730469 118.742188 C 240.710938 119.402344 241.675781 120.082031 242.625 120.789062 C 243.570312 121.496094 244.5 122.226562 245.414062 122.976562 C 246.328125 123.726562 247.21875 124.5 248.09375 125.292969 C 248.972656 126.085938 249.828125 126.902344 250.664062 127.738281 C 251.5 128.574219 252.3125 129.429688 253.109375 130.300781 C 253.902344 131.175781 254.675781 132.070312 255.429688 132.980469 C 256.179688 133.894531 256.910156 134.824219 257.617188 135.769531 C 258.324219 136.714844 259.007812 137.679688 259.671875 138.660156 C 260.332031 139.636719 260.96875 140.632812 261.582031 141.644531 C 262.195312 142.652344 262.78125 143.679688 263.347656 144.71875 C 263.910156 145.757812 264.449219 146.808594 264.960938 147.871094 C 265.472656 148.9375 265.960938 150.011719 266.421875 151.101562 C 266.882812 152.1875 267.320312 153.289062 267.726562 154.394531 C 268.136719 155.503906 268.515625 156.625 268.871094 157.75 C 269.226562 158.878906 269.554688 160.011719 269.855469 161.15625 C 270.152344 162.300781 270.425781 163.449219 270.671875 164.605469 C 270.914062 165.761719 271.132812 166.921875 271.320312 168.089844 C 271.511719 169.253906 271.671875 170.425781 271.804688 171.601562 C 271.9375 172.773438 272.039062 173.953125 272.117188 175.132812 C 272.191406 176.308594 272.238281 177.492188 272.257812 178.671875 C 272.277344 179.855469 272.269531 181.035156 272.230469 182.214844 C 272.191406 183.398438 272.125 184.578125 272.03125 185.753906 C 271.9375 186.933594 271.8125 188.109375 271.664062 189.28125 C 271.511719 190.453125 271.332031 191.621094 271.125 192.785156 C 270.917969 193.945312 270.683594 195.105469 270.421875 196.257812 C 270.15625 197.410156 269.867188 198.554688 269.546875 199.691406 C 269.230469 200.832031 268.886719 201.960938 268.511719 203.082031 C 268.140625 204.203125 267.742188 205.316406 267.316406 206.417969 C 266.890625 207.519531 266.4375 208.613281 265.957031 209.691406 C 265.480469 210.773438 264.976562 211.839844 264.445312 212.898438 C 263.917969 213.953125 263.359375 214.996094 262.78125 216.027344 C 262.199219 217.054688 261.597656 218.070312 260.96875 219.070312 C 260.339844 220.070312 259.6875 221.054688 259.011719 222.027344 C 258.332031 222.996094 257.632812 223.945312 256.914062 224.882812 C 256.191406 225.816406 255.445312 226.734375 254.679688 227.636719 C 253.914062 228.535156 253.125 229.414062 252.316406 230.277344 C 251.507812 231.140625 250.679688 231.980469 249.832031 232.804688 C 248.980469 233.625 248.113281 234.425781 247.226562 235.207031 C 246.335938 235.984375 245.429688 236.742188 244.507812 237.480469 C 243.582031 238.21875 242.640625 238.929688 241.683594 239.621094 C 240.722656 240.3125 239.75 240.980469 238.757812 241.625 C 237.769531 242.269531 236.761719 242.890625 235.742188 243.484375 C 234.722656 244.082031 233.6875 244.652344 232.640625 245.199219 C 231.589844 245.746094 230.53125 246.265625 229.457031 246.761719 C 228.386719 247.253906 227.300781 247.726562 226.203125 248.167969 C 225.109375 248.609375 224.003906 249.027344 222.886719 249.417969 C 221.773438 249.804688 220.648438 250.167969 219.515625 250.503906 C 218.382812 250.839844 217.242188 251.148438 216.09375 251.429688 C 214.945312 251.710938 213.792969 251.960938 212.632812 252.1875 C 211.472656 252.414062 210.304688 252.609375 209.136719 252.78125 C 207.96875 252.949219 206.792969 253.089844 205.617188 253.203125 C 204.441406 253.316406 203.261719 253.398438 202.082031 253.457031 C 200.902344 253.511719 199.722656 253.539062 198.539062 253.539062 L 183.394531 253.539062 L 183.394531 204.421875 L 198.539062 204.421875 C 199.292969 204.421875 200.046875 204.386719 200.800781 204.316406 C 201.550781 204.25 202.300781 204.144531 203.042969 204.007812 C 203.785156 203.871094 204.519531 203.699219 205.246094 203.492188 C 205.972656 203.285156 206.6875 203.046875 207.394531 202.777344 C 208.097656 202.503906 208.789062 202.199219 209.464844 201.863281 C 210.144531 201.53125 210.800781 201.164062 211.445312 200.765625 C 212.089844 200.371094 212.710938 199.945312 213.316406 199.492188 C 213.917969 199.039062 214.5 198.558594 215.058594 198.050781 C 215.621094 197.542969 216.15625 197.011719 216.664062 196.453125 C 217.175781 195.898438 217.660156 195.316406 218.117188 194.714844 C 218.570312 194.113281 219 193.492188 219.398438 192.851562 C 219.800781 192.210938 220.167969 191.554688 220.507812 190.878906 C 220.847656 190.203125 221.152344 189.515625 221.429688 188.8125 C 221.703125 188.109375 221.945312 187.394531 222.15625 186.667969 C 222.363281 185.941406 222.539062 185.207031 222.683594 184.464844 C 222.824219 183.722656 222.929688 182.976562 223.003906 182.226562 C 223.074219 181.472656 223.113281 180.71875 223.117188 179.964844 C 223.121094 179.210938 223.089844 178.457031 223.023438 177.703125 C 222.957031 176.949219 222.855469 176.203125 222.71875 175.460938 C 222.585938 174.71875 222.414062 173.980469 222.210938 173.253906 C 222.007812 172.527344 221.773438 171.808594 221.503906 171.105469 C 221.234375 170.398438 220.933594 169.707031 220.601562 169.03125 C 220.265625 168.351562 219.902344 167.691406 219.507812 167.046875 C 219.113281 166.402344 218.691406 165.777344 218.238281 165.171875 C 217.789062 164.566406 217.308594 163.984375 216.804688 163.421875 C 216.296875 162.859375 215.769531 162.324219 215.214844 161.8125 C 214.660156 161.300781 214.082031 160.816406 213.480469 160.355469 C 212.882812 159.898438 212.261719 159.464844 211.621094 159.066406 C 210.980469 158.664062 210.324219 158.292969 209.652344 157.949219 C 208.976562 157.609375 208.289062 157.300781 207.585938 157.023438 C 206.882812 156.746094 206.171875 156.5 205.445312 156.289062 C 204.722656 156.074219 203.988281 155.898438 203.246094 155.753906 Z M 203.246094 106.332031 " fill-opacity="1" fill-rule="evenodd"/></g></svg>